<svg version="1.1" viewBox="0.0 0.0 1012.0 359.0" fill="none" stroke="none" stroke-linecap="square" stroke-miterlimit="10" width="1012" height="359" xmlns:xlink="http://www.w3.org/1999/xlink" xmlns="http://www.w3.org/2000/svg"><path fill="#ffffff" d="M0 0L1012.0 0L1012.0 359.0L0 359.0L0 0Z" fill-rule="nonzero"/><path stroke="#333333" stroke-width="1.0" stroke-linecap="butt" d="M99.5 45.5L99.5 325.5" fill-rule="nonzero"/><path stroke="#cccccc" stroke-width="1.0" stroke-linecap="butt" d="M323.5 45.5L323.5 325.5" fill-rule="nonzero"/><path stroke="#cccccc" stroke-width="1.0" stroke-linecap="butt" d="M546.5 45.5L546.5 325.5" fill-rule="nonzero"/><path stroke="#cccccc" stroke-width="1.0" stroke-linecap="butt" d="M770.5 45.5L770.5 325.5" fill-rule="nonzero"/><path stroke="#cccccc" stroke-width="1.0" stroke-linecap="butt" d="M994.5 45.5L994.5 325.5" fill-rule="nonzero"/><clipPath id="id_0"><path d="M99.45 45.916668L994.05 45.916668L994.05 325.55L99.45 325.55L99.45 45.916668Z" clip-rule="nonzero"/></clipPath><path stroke="#000000" stroke-width="0.0" stroke-linecap="butt" stroke-opacity="0.0" clip-path="url(#id_0)" d="M99.0 313.0L99.0 288.0L281.0 288.0L281.0 313.0Z" fill-rule="nonzero"/><path fill="#4285f4" clip-path="url(#id_0)" d="M99.0 313.0L99.0 288.0L281.0 288.0L281.0 313.0Z" fill-rule="nonzero"/><path stroke="#000000" stroke-width="0.0" stroke-linecap="butt" stroke-opacity="0.0" clip-path="url(#id_0)" d="M99.0 275.0L99.0 250.0L99.0 250.0L99.0 275.0Z" fill-rule="nonzero"/><path fill="#4285f4" clip-path="url(#id_0)" d="M99.0 275.0L99.0 250.0L99.0 250.0L99.0 275.0Z" fill-rule="nonzero"/><path stroke="#000000" stroke-width="0.0" stroke-linecap="butt" stroke-opacity="0.0" clip-path="url(#id_0)" d="M99.0 237.0L99.0 212.0L99.0 212.0L99.0 237.0Z" fill-rule="nonzero"/><path fill="#4285f4" clip-path="url(#id_0)" d="M99.0 237.0L99.0 212.0L99.0 212.0L99.0 237.0Z" fill-rule="nonzero"/><path stroke="#000000" stroke-width="0.0" stroke-linecap="butt" stroke-opacity="0.0" clip-path="url(#id_0)" d="M99.0 199.0L99.0 174.0L237.0 174.0L237.0 199.0Z" fill-rule="nonzero"/><path fill="#4285f4" clip-path="url(#id_0)" d="M99.0 199.0L99.0 174.0L237.0 174.0L237.0 199.0Z" fill-rule="nonzero"/><path stroke="#000000" stroke-width="0.0" stroke-linecap="butt" stroke-opacity="0.0" clip-path="url(#id_0)" d="M99.0 161.0L99.0 136.0L99.0 136.0L99.0 161.0Z" fill-rule="nonzero"/><path fill="#4285f4" clip-path="url(#id_0)" d="M99.0 161.0L99.0 136.0L99.0 136.0L99.0 161.0Z" fill-rule="nonzero"/><path stroke="#000000" stroke-width="0.0" stroke-linecap="butt" stroke-opacity="0.0" clip-path="url(#id_0)" d="M99.0 123.0L99.0 98.0L99.0 98.0L99.0 123.0Z" fill-rule="nonzero"/><path fill="#4285f4" clip-path="url(#id_0)" d="M99.0 123.0L99.0 98.0L99.0 98.0L99.0 123.0Z" fill-rule="nonzero"/><path stroke="#000000" stroke-width="0.0" stroke-linecap="butt" stroke-opacity="0.0" clip-path="url(#id_0)" d="M99.0 85.0L99.0 60.0L249.0 60.0L249.0 85.0Z" fill-rule="nonzero"/><path fill="#4285f4" clip-path="url(#id_0)" d="M99.0 85.0L99.0 60.0L249.0 60.0L249.0 85.0Z" fill-rule="nonzero"/><path stroke="#000000" stroke-width="0.0" stroke-linecap="butt" stroke-opacity="0.0" clip-path="url(#id_0)" d="M281.0 313.0L281.0 288.0L931.0 288.0L931.0 313.0Z" fill-rule="nonzero"/><path fill="#ea4335" clip-path="url(#id_0)" d="M281.0 313.0L281.0 288.0L931.0 288.0L931.0 313.0Z" fill-rule="nonzero"/><path stroke="#000000" stroke-width="0.0" stroke-linecap="butt" stroke-opacity="0.0" clip-path="url(#id_0)" d="M99.0 275.0L99.0 250.0L994.0 250.0L994.0 275.0Z" fill-rule="nonzero"/><path fill="#ea4335" clip-path="url(#id_0)" d="M99.0 275.0L99.0 250.0L994.0 250.0L994.0 275.0Z" fill-rule="nonzero"/><path stroke="#000000" stroke-width="0.0" stroke-linecap="butt" stroke-opacity="0.0" clip-path="url(#id_0)" d="M99.0 237.0L99.0 212.0L815.0 212.0L815.0 237.0Z" fill-rule="nonzero"/><path fill="#ea4335" clip-path="url(#id_0)" d="M99.0 237.0L99.0 212.0L815.0 212.0L815.0 237.0Z" fill-rule="nonzero"/><path stroke="#000000" stroke-width="0.0" stroke-linecap="butt" stroke-opacity="0.0" clip-path="url(#id_0)" d="M237.0 199.0L237.0 174.0L994.0 174.0L994.0 199.0Z" fill-rule="nonzero"/><path fill="#ea4335" clip-path="url(#id_0)" d="M237.0 199.0L237.0 174.0L994.0 174.0L994.0 199.0Z" fill-rule="nonzero"/><path stroke="#000000" stroke-width="0.0" stroke-linecap="butt" stroke-opacity="0.0" clip-path="url(#id_0)" d="M99.0 161.0L99.0 136.0L994.0 136.0L994.0 161.0Z" fill-rule="nonzero"/><path fill="#ea4335" clip-path="url(#id_0)" d="M99.0 161.0L99.0 136.0L994.0 136.0L994.0 161.0Z" fill-rule="nonzero"/><path stroke="#000000" stroke-width="0.0" stroke-linecap="butt" stroke-opacity="0.0" clip-path="url(#id_0)" d="M99.0 123.0L99.0 98.0L770.0 98.0L770.0 123.0Z" fill-rule="nonzero"/><path fill="#ea4335" clip-path="url(#id_0)" d="M99.0 123.0L99.0 98.0L770.0 98.0L770.0 123.0Z" fill-rule="nonzero"/><path stroke="#000000" stroke-width="0.0" stroke-linecap="butt" stroke-opacity="0.0" clip-path="url(#id_0)" d="M249.0 85.0L249.0 60.0L994.0 60.0L994.0 85.0Z" fill-rule="nonzero"/><path fill="#ea4335" clip-path="url(#id_0)" d="M249.0 85.0L249.0 60.0L994.0 60.0L994.0 85.0Z" fill-rule="nonzero"/><path stroke="#000000" stroke-width="0.0" stroke-linecap="butt" stroke-opacity="0.0" clip-path="url(#id_0)" d="M931.0 313.0L931.0 288.0L994.0 288.0L994.0 313.0Z" fill-rule="nonzero"/><path fill="#fbbc04" clip-path="url(#id_0)" d="M931.0 313.0L931.0 288.0L994.0 288.0L994.0 313.0Z" fill-rule="nonzero"/><path stroke="#000000" stroke-width="0.0" stroke-linecap="butt" stroke-opacity="0.0" clip-path="url(#id_0)" d="M994.0 275.0L994.0 250.0L994.0 250.0L994.0 275.0Z" fill-rule="nonzero"/><path fill="#fbbc04" clip-path="url(#id_0)" d="M994.0 275.0L994.0 250.0L994.0 250.0L994.0 275.0Z" fill-rule="nonzero"/><path stroke="#000000" stroke-width="0.0" stroke-linecap="butt" stroke-opacity="0.0" clip-path="url(#id_0)" d="M815.0 237.0L815.0 212.0L994.0 212.0L994.0 237.0Z" fill-rule="nonzero"/><path fill="#fbbc04" clip-path="url(#id_0)" d="M815.0 237.0L815.0 212.0L994.0 212.0L994.0 237.0Z" fill-rule="nonzero"/><path stroke="#000000" stroke-width="0.0" stroke-linecap="butt" stroke-opacity="0.0" clip-path="url(#id_0)" d="M994.0 199.0L994.0 174.0L994.0 174.0L994.0 199.0Z" fill-rule="nonzero"/><path fill="#fbbc04" clip-path="url(#id_0)" d="M994.0 199.0L994.0 174.0L994.0 174.0L994.0 199.0Z" fill-rule="nonzero"/><path stroke="#000000" stroke-width="0.0" stroke-linecap="butt" stroke-opacity="0.0" clip-path="url(#id_0)" d="M994.0 161.0L994.0 136.0L994.0 136.0L994.0 161.0Z" fill-rule="nonzero"/><path fill="#fbbc04" clip-path="url(#id_0)" d="M994.0 161.0L994.0 136.0L994.0 136.0L994.0 161.0Z" fill-rule="nonzero"/><path stroke="#000000" stroke-width="0.0" stroke-linecap="butt" stroke-opacity="0.0" clip-path="url(#id_0)" d="M770.0 123.0L770.0 98.0L994.0 98.0L994.0 123.0Z" fill-rule="nonzero"/><path fill="#fbbc04" clip-path="url(#id_0)" d="M770.0 123.0L770.0 98.0L994.0 98.0L994.0 123.0Z" fill-rule="nonzero"/><path stroke="#000000" stroke-width="0.0" stroke-linecap="butt" stroke-opacity="0.0" clip-path="url(#id_0)" d="M994.0 85.0L994.0 60.0L994.0 60.0L994.0 85.0Z" fill-rule="nonzero"/><path fill="#fbbc04" clip-path="url(#id_0)" d="M994.0 85.0L994.0 60.0L994.0 60.0L994.0 85.0Z" fill-rule="nonzero"/><path stroke="#000000" stroke-width="0.0" stroke-linecap="butt" stroke-opacity="0.0" clip-path="url(#id_0)" d="M994.0 313.0L994.0 288.0L994.0 288.0L994.0 313.0Z" fill-rule="nonzero"/><path fill="#34a853" clip-path="url(#id_0)" d="M994.0 313.0L994.0 288.0L994.0 288.0L994.0 313.0Z" fill-rule="nonzero"/><path stroke="#000000" stroke-width="0.0" stroke-linecap="butt" stroke-opacity="0.0" clip-path="url(#id_0)" d="M994.0 275.0L994.0 250.0L994.0 250.0L994.0 275.0Z" fill-rule="nonzero"/><path fill="#34a853" clip-path="url(#id_0)" d="M994.0 275.0L994.0 250.0L994.0 250.0L994.0 275.0Z" fill-rule="nonzero"/><path stroke="#000000" stroke-width="0.0" stroke-linecap="butt" stroke-opacity="0.0" clip-path="url(#id_0)" d="M994.0 237.0L994.0 212.0L994.0 212.0L994.0 237.0Z" fill-rule="nonzero"/><path fill="#34a853" clip-path="url(#id_0)" d="M994.0 237.0L994.0 212.0L994.0 212.0L994.0 237.0Z" fill-rule="nonzero"/><path stroke="#000000" stroke-width="0.0" stroke-linecap="butt" stroke-opacity="0.0" clip-path="url(#id_0)" d="M994.0 199.0L994.0 174.0L994.0 174.0L994.0 199.0Z" fill-rule="nonzero"/><path fill="#34a853" clip-path="url(#id_0)" d="M994.0 199.0L994.0 174.0L994.0 174.0L994.0 199.0Z" fill-rule="nonzero"/><path stroke="#000000" stroke-width="0.0" stroke-linecap="butt" stroke-opacity="0.0" clip-path="url(#id_0)" d="M994.0 161.0L994.0 136.0L994.0 136.0L994.0 161.0Z" fill-rule="nonzero"/><path fill="#34a853" clip-path="url(#id_0)" d="M994.0 161.0L994.0 136.0L994.0 136.0L994.0 161.0Z" fill-rule="nonzero"/><path stroke="#000000" stroke-width="0.0" stroke-linecap="butt" stroke-opacity="0.0" clip-path="url(#id_0)" d="M994.0 123.0L994.0 98.0L994.0 98.0L994.0 123.0Z" fill-rule="nonzero"/><path fill="#34a853" clip-path="url(#id_0)" d="M994.0 123.0L994.0 98.0L994.0 98.0L994.0 123.0Z" fill-rule="nonzero"/><path stroke="#000000" stroke-width="0.0" stroke-linecap="butt" stroke-opacity="0.0" clip-path="url(#id_0)" d="M994.0 85.0L994.0 60.0L994.0 60.0L994.0 85.0Z" fill-rule="nonzero"/><path fill="#34a853" clip-path="url(#id_0)" d="M994.0 85.0L994.0 60.0L994.0 60.0L994.0 85.0Z" fill-rule="nonzero"/><path fill="#000000" d="M23.246876 301.10376L24.090626 301.3225Q23.825 302.3694 23.121876 302.9319Q22.434376 303.47876 21.41875 303.47876Q20.3875 303.47876 19.73125 303.0569Q19.075 302.635 18.73125 301.83813Q18.403126 301.02563 18.403126 300.10376Q18.403126 299.08813 18.778126 298.33813Q19.16875 297.58813 19.871876 297.21313Q20.590626 296.8225 21.434376 296.8225Q22.403126 296.8225 23.059376 297.3225Q23.73125 297.8069 23.98125 298.6975L23.1375 298.885Q22.91875 298.1819 22.496876 297.8694Q22.075 297.54126 21.41875 297.54126Q20.684376 297.54126 20.184376 297.90063Q19.684376 298.26 19.48125 298.8694Q19.278126 299.46313 19.278126 300.08813Q19.278126 300.91626 19.5125 301.54126Q19.7625 302.15063 20.2625 302.4475Q20.7625 302.7444 21.35625 302.7444Q22.075 302.7444 22.559376 302.33813Q23.059376 301.91626 23.246876 301.10376ZM28.590626 302.79126Q28.153126 303.16626 27.746876 303.3225Q27.340626 303.47876 26.871876 303.47876Q26.10625 303.47876 25.684376 303.10376Q25.278126 302.72876 25.278126 302.135Q25.278126 301.79126 25.434376 301.51Q25.590626 301.22876 25.840626 301.0569Q26.090626 300.885 26.403126 300.79126Q26.6375 300.7444 27.10625 300.6819Q28.075 300.5725 28.528126 300.40063Q28.528126 300.2444 28.528126 300.1975Q28.528126 299.71313 28.309376 299.52563Q27.996876 299.2444 27.403126 299.2444Q26.840626 299.2444 26.575 299.4475Q26.309376 299.635 26.184376 300.135L25.41875 300.04126Q25.5125 299.54126 25.746876 299.2444Q25.996876 298.9319 26.45 298.77563Q26.91875 298.60376 27.5125 298.60376Q28.121876 298.60376 28.48125 298.7444Q28.85625 298.885 29.028126 299.10376Q29.215626 299.3069 29.278126 299.635Q29.325 299.83813 29.325 300.35376L29.325 301.41626Q29.325 302.51 29.371876 302.8069Q29.41875 303.10376 29.575 303.3694L28.746876 303.3694Q28.621876 303.1194 28.590626 302.79126ZM28.528126 301.02563Q28.090626 301.1975 27.23125 301.3225Q26.746876 301.40063 26.54375 301.4944Q26.340626 301.5725 26.23125 301.7444Q26.121876 301.91626 26.121876 302.1194Q26.121876 302.4319 26.35625 302.65063Q26.590626 302.85376 27.059376 302.85376Q27.5125 302.85376 27.871876 302.65063Q28.23125 302.4475 28.403126 302.10376Q28.528126 301.83813 28.528126 301.3225L28.528126 301.02563ZM33.60625 303.3694L33.60625 302.6819Q33.059376 303.47876 32.121876 303.47876Q31.715626 303.47876 31.35625 303.3225Q30.996876 303.15063 30.809376 302.91626Q30.6375 302.6819 30.575 302.33813Q30.528126 302.10376 30.528126 301.58813L30.528126 298.6975L31.309376 298.6975L31.309376 301.29126Q31.309376 301.91626 31.371876 302.1194Q31.434376 302.4319 31.66875 302.6194Q31.91875 302.79126 32.278126 302.79126Q32.6375 302.79126 32.95 302.6194Q33.2625 302.4319 33.3875 302.1194Q33.5125 301.8069 33.5125 301.1975L33.5125 298.6975L34.309376 298.6975L34.309376 303.3694L33.60625 303.3694ZM38.590626 301.66626L39.371876 301.76Q39.246876 302.5725 38.715626 303.02563Q38.184376 303.47876 37.41875 303.47876Q36.465626 303.47876 35.8875 302.85376Q35.309376 302.22876 35.309376 301.0569Q35.309376 300.29126 35.559376 299.72876Q35.809376 299.16626 36.309376 298.885Q36.825 298.60376 37.434376 298.60376Q38.184376 298.60376 38.66875 298.9944Q39.153126 299.3694 39.29375 300.0725L38.528126 300.1975Q38.41875 299.72876 38.1375 299.4944Q37.85625 299.2444 37.465626 299.2444Q36.85625 299.2444 36.48125 299.6819Q36.121876 300.10376 36.121876 301.02563Q36.121876 301.97876 36.48125 302.40063Q36.840626 302.8225 37.41875 302.8225Q37.8875 302.8225 38.2 302.54126Q38.5125 302.26 38.590626 301.66626ZM43.590626 302.79126Q43.153126 303.16626 42.746876 303.3225Q42.340626 303.47876 41.871876 303.47876Q41.10625 303.47876 40.684376 303.10376Q40.278126 302.72876 40.278126 302.135Q40.278126 301.79126 40.434376 301.51Q40.590626 301.22876 40.840626 301.0569Q41.090626 300.885 41.403126 300.79126Q41.6375 300.7444 42.10625 300.6819Q43.075 300.5725 43.528126 300.40063Q43.528126 300.2444 43.528126 300.1975Q43.528126 299.71313 43.309376 299.52563Q42.996876 299.2444 42.403126 299.2444Q41.840626 299.2444 41.575 299.4475Q41.309376 299.635 41.184376 300.135L40.41875 300.04126Q40.5125 299.54126 40.746876 299.2444Q40.996876 298.9319 41.45 298.77563Q41.91875 298.60376 42.5125 298.60376Q43.121876 298.60376 43.48125 298.7444Q43.85625 298.885 44.028126 299.10376Q44.215626 299.3069 44.278126 299.635Q44.325 299.83813 44.325 300.35376L44.325 301.41626Q44.325 302.51 44.371876 302.8069Q44.41875 303.10376 44.575 303.3694L43.746876 303.3694Q43.621876 303.1194 43.590626 302.79126ZM43.528126 301.02563Q43.090626 301.1975 42.23125 301.3225Q41.746876 301.40063 41.54375 301.4944Q41.340626 301.5725 41.23125 301.7444Q41.121876 301.91626 41.121876 302.1194Q41.121876 302.4319 41.35625 302.65063Q41.590626 302.85376 42.059376 302.85376Q42.5125 302.85376 42.871876 302.65063Q43.23125 302.4475 43.403126 302.10376Q43.528126 301.83813 43.528126 301.3225L43.528126 301.02563ZM45.23125 301.97876L46.0125 301.85376Q46.075 302.3225 46.371876 302.5725Q46.684376 302.8225 47.215626 302.8225Q47.7625 302.8225 48.028126 302.60376Q48.29375 302.385 48.29375 302.08813Q48.29375 301.8069 48.059376 301.66626Q47.8875 301.5569 47.246876 301.385Q46.371876 301.16626 46.028126 301.01Q45.7 300.85376 45.528126 300.5725Q45.35625 300.29126 45.35625 299.9475Q45.35625 299.635 45.496876 299.3694Q45.6375 299.10376 45.8875 298.91626Q46.075 298.79126 46.3875 298.6975Q46.715626 298.60376 47.075 298.60376Q47.621876 298.60376 48.028126 298.76Q48.45 298.91626 48.653126 299.1819Q48.85625 299.4475 48.934376 299.90063L48.153126 300.01Q48.10625 299.65063 47.840626 299.4475Q47.590626 299.2444 47.1375 299.2444Q46.590626 299.2444 46.35625 299.4319Q46.121876 299.60376 46.121876 299.85376Q46.121876 300.01 46.215626 300.1194Q46.309376 300.26 46.528126 300.33813Q46.6375 300.385 47.215626 300.54126Q48.059376 300.76 48.3875 300.90063Q48.73125 301.04126 48.91875 301.3225Q49.10625 301.58813 49.10625 301.9944Q49.10625 302.40063 48.871876 302.7444Q48.6375 303.08813 48.2 303.29126Q47.778126 303.47876 47.215626 303.47876Q46.309376 303.47876 45.825 303.10376Q45.35625 302.71313 45.23125 301.97876ZM50.54375 297.83813L50.54375 296.9319L51.340626 296.9319L51.340626 297.83813L50.54375 297.83813ZM50.54375 303.3694L50.54375 298.6975L51.340626 298.6975L51.340626 303.3694L50.54375 303.3694ZM55.590626 302.79126Q55.153126 303.16626 54.746876 303.3225Q54.340626 303.47876 53.871876 303.47876Q53.10625 303.47876 52.684376 303.10376Q52.278126 302.72876 52.278126 302.135Q52.278126 301.79126 52.434376 301.51Q52.590626 301.22876 52.840626 301.0569Q53.090626 300.885 53.403126 300.79126Q53.6375 300.7444 54.10625 300.6819Q55.075 300.5725 55.528126 300.40063Q55.528126 300.2444 55.528126 300.1975Q55.528126 299.71313 55.309376 299.52563Q54.996876 299.2444 54.403126 299.2444Q53.840626 299.2444 53.575 299.4475Q53.309376 299.635 53.184376 300.135L52.41875 300.04126Q52.5125 299.54126 52.746876 299.2444Q52.996876 298.9319 53.45 298.77563Q53.91875 298.60376 54.5125 298.60376Q55.121876 298.60376 55.48125 298.7444Q55.85625 298.885 56.028126 299.10376Q56.215626 299.3069 56.278126 299.635Q56.325 299.83813 56.325 300.35376L56.325 301.41626Q56.325 302.51 56.371876 302.8069Q56.41875 303.10376 56.575 303.3694L55.746876 303.3694Q55.621876 303.1194 55.590626 302.79126ZM55.528126 301.02563Q55.090626 301.1975 54.23125 301.3225Q53.746876 301.40063 53.54375 301.4944Q53.340626 301.5725 53.23125 301.7444Q53.121876 301.91626 53.121876 302.1194Q53.121876 302.4319 53.35625 302.65063Q53.590626 302.85376 54.059376 302.85376Q54.5125 302.85376 54.871876 302.65063Q55.23125 302.4475 55.403126 302.10376Q55.528126 301.83813 55.528126 301.3225L55.528126 301.02563ZM57.54375 303.3694L57.54375 298.6975L58.2625 298.6975L58.2625 299.3694Q58.7625 298.60376 59.746876 298.60376Q60.16875 298.60376 60.5125 298.76Q60.871876 298.90063 61.04375 299.15063Q61.215626 299.385 61.29375 299.72876Q61.340626 299.9475 61.340626 300.4944L61.340626 303.3694L60.54375 303.3694L60.54375 300.52563Q60.54375 300.04126 60.45 299.8069Q60.35625 299.5725 60.121876 299.4319Q59.8875 299.27563 59.575 299.27563Q59.075 299.27563 58.7 299.60376Q58.340626 299.91626 58.340626 300.8225L58.340626 303.3694L57.54375 303.3694ZM67.05937 305.26Q66.40312 304.4319 65.95 303.33813Q65.49687 302.22876 65.49687 301.04126Q65.49687 299.9944 65.84062 299.02563Q66.23125 297.91626 67.05937 296.8225L67.62187 296.8225Q67.09062 297.72876 66.91875 298.1194Q66.65312 298.72876 66.49687 299.385Q66.30937 300.21313 66.30937 301.04126Q66.30937 303.15063 67.62187 305.26L67.05937 305.26ZM69.7625 303.3694L68.05937 296.9319L68.93437 296.9319L69.91875 301.15063Q70.075 301.8069 70.18437 302.46313Q70.43437 301.4319 70.48125 301.27563L71.7 296.9319L72.73125 296.9319L73.65312 300.1819Q73.99687 301.40063 74.15312 302.46313Q74.27812 301.85376 74.48125 301.0725L75.48125 296.9319L76.34062 296.9319L74.575 303.3694L73.7625 303.3694L72.40312 298.46313Q72.23125 297.83813 72.2 297.6975Q72.09062 298.15063 72.0125 298.46313L70.6375 303.3694L69.7625 303.3694ZM77.54375 303.3694L77.54375 296.9319L78.34062 296.9319L78.34062 299.2444Q78.8875 298.60376 79.73125 298.60376Q80.24687 298.60376 80.62187 298.8069Q81.0125 299.01 81.16875 299.3694Q81.34062 299.72876 81.34062 300.41626L81.34062 303.3694L80.55937 303.3694L80.55937 300.41626Q80.55937 299.8225 80.29375 299.5569Q80.04375 299.27563 79.575 299.27563Q79.21562 299.27563 78.90312 299.46313Q78.59062 299.635 78.46562 299.9475Q78.34062 300.26 78.34062 300.8225L78.34062 303.3694L77.54375 303.3694ZM82.54375 297.83813L82.54375 296.9319L83.34062 296.9319L83.34062 297.83813L82.54375 297.83813ZM82.54375 303.3694L82.54375 298.6975L83.34062 298.6975L83.34062 303.3694L82.54375 303.3694ZM86.27812 302.66626L86.3875 303.35376Q86.04375 303.4319 85.79375 303.4319Q85.35625 303.4319 85.12187 303.29126Q84.8875 303.15063 84.77812 302.9319Q84.68437 302.71313 84.68437 302.01L84.68437 299.3225L84.10625 299.3225L84.10625 298.6975L84.68437 298.6975L84.68437 297.54126L85.48125 297.0725L85.48125 298.6975L86.27812 298.6975L86.27812 299.3225L85.48125 299.3225L85.48125 302.04126Q85.48125 302.385 85.5125 302.47876Q85.55937 302.5725 85.65312 302.635Q85.74687 302.6975 85.91875 302.6975Q86.05937 302.6975 86.27812 302.66626ZM90.73125 301.8694L91.55937 301.96313Q91.35625 302.6819 90.825 303.08813Q90.30937 303.47876 89.49687 303.47876Q88.48125 303.47876 87.87187 302.85376Q87.27812 302.21313 87.27812 301.0725Q87.27812 299.90063 87.8875 299.26Q88.49687 298.60376 89.46562 298.60376Q90.40312 298.60376 90.98125 299.2444Q91.575 299.8694 91.575 301.02563Q91.575 301.10376 91.575 301.2444L88.09062 301.2444Q88.1375 302.01 88.52812 302.41626Q88.91875 302.8225 89.5125 302.8225Q89.95 302.8225 90.24687 302.60376Q90.55937 302.3694 90.73125 301.8694ZM88.1375 300.58813L90.74687 300.58813Q90.7 299.9944 90.45 299.6975Q90.075 299.2444 89.46562 299.2444Q88.91875 299.2444 88.54375 299.6194Q88.18437 299.97876 88.1375 300.58813ZM93.05937 305.26L92.49687 305.26Q93.80937 303.15063 93.80937 301.04126Q93.80937 300.21313 93.62187 299.40063Q93.46562 298.7444 93.2 298.135Q93.02812 297.7444 92.49687 296.8225L93.05937 296.8225Q93.8875 297.91626 94.27812 299.02563Q94.62187 299.9944 94.62187 301.04126Q94.62187 302.22876 94.16875 303.33813Q93.71562 304.4319 93.05937 305.26Z" fill-rule="nonzero"/><path fill="#000000" d="M23.934376 265.32404L26.41875 258.88654L27.325 258.88654L29.965626 265.32404L28.996876 265.32404L28.246876 263.3709L25.54375 263.3709L24.840626 265.32404L23.934376 265.32404ZM25.79375 262.6834L27.98125 262.6834L27.309376 260.88654Q26.996876 260.07404 26.85625 259.5584Q26.73125 260.1834 26.496876 260.7928L25.79375 262.6834ZM30.73125 265.32404L30.73125 261.27716L30.028126 261.27716L30.028126 260.65216L30.73125 260.65216L30.73125 260.1678Q30.73125 259.6834 30.809376 259.46466Q30.934376 259.15216 31.215626 258.96466Q31.5125 258.77716 32.028126 258.77716Q32.35625 258.77716 32.7625 258.8553L32.6375 259.5428Q32.403126 259.4959 32.184376 259.4959Q31.825 259.4959 31.66875 259.65216Q31.5125 259.8084 31.5125 260.2303L31.5125 260.65216L32.434376 260.65216L32.434376 261.27716L31.5125 261.27716L31.5125 265.32404L30.73125 265.32404ZM33.528126 265.32404L33.528126 260.65216L34.246876 260.65216L34.246876 261.3709Q34.5125 260.8709 34.746876 260.71466Q34.98125 260.5584 35.2625 260.5584Q35.653126 260.5584 36.075 260.8084L35.79375 261.5428Q35.5125 261.3709 35.215626 261.3709Q34.965626 261.3709 34.746876 261.52716Q34.54375 261.6834 34.45 261.96466Q34.325 262.38654 34.325 262.88654L34.325 265.32404L33.528126 265.32404ZM36.54375 259.7928L36.54375 258.88654L37.340626 258.88654L37.340626 259.7928L36.54375 259.7928ZM36.54375 265.32404L36.54375 260.65216L37.340626 260.65216L37.340626 265.32404L36.54375 265.32404ZM41.590626 263.6209L42.371876 263.71466Q42.246876 264.52716 41.715626 264.9803Q41.184376 265.4334 40.41875 265.4334Q39.465626 265.4334 38.8875 264.8084Q38.309376 264.1834 38.309376 263.01154Q38.309376 262.2459 38.559376 261.6834Q38.809376 261.1209 39.309376 260.83966Q39.825 260.5584 40.434376 260.5584Q41.184376 260.5584 41.66875 260.94904Q42.153126 261.32404 42.29375 262.02716L41.528126 262.15216Q41.41875 261.6834 41.1375 261.44904Q40.85625 261.19904 40.465626 261.19904Q39.85625 261.19904 39.48125 261.63654Q39.121876 262.0584 39.121876 262.9803Q39.121876 263.9334 39.48125 264.3553Q39.840626 264.77716 40.41875 264.77716Q40.8875 264.77716 41.2 264.4959Q41.5125 264.21466 41.590626 263.6209ZM46.590626 264.7459Q46.153126 265.1209 45.746876 265.27716Q45.340626 265.4334 44.871876 265.4334Q44.10625 265.4334 43.684376 265.0584Q43.278126 264.6834 43.278126 264.08966Q43.278126 263.7459 43.434376 263.46466Q43.590626 263.1834 43.840626 263.01154Q44.090626 262.83966 44.403126 262.7459Q44.6375 262.69904 45.10625 262.63654Q46.075 262.52716 46.528126 262.3553Q46.528126 262.19904 46.528126 262.15216Q46.528126 261.6678 46.309376 261.4803Q45.996876 261.19904 45.403126 261.19904Q44.840626 261.19904 44.575 261.40216Q44.309376 261.58966 44.184376 262.08966L43.41875 261.9959Q43.5125 261.4959 43.746876 261.19904Q43.996876 260.88654 44.45 260.7303Q44.91875 260.5584 45.5125 260.5584Q46.121876 260.5584 46.48125 260.69904Q46.85625 260.83966 47.028126 261.0584Q47.215626 261.26154 47.278126 261.58966Q47.325 261.7928 47.325 262.3084L47.325 263.3709Q47.325 264.46466 47.371876 264.76154Q47.41875 265.0584 47.575 265.32404L46.746876 265.32404Q46.621876 265.07404 46.590626 264.7459ZM46.528126 262.9803Q46.090626 263.15216 45.23125 263.27716Q44.746876 263.3553 44.54375 263.44904Q44.340626 263.52716 44.23125 263.69904Q44.121876 263.8709 44.121876 264.07404Q44.121876 264.38654 44.35625 264.6053Q44.590626 264.8084 45.059376 264.8084Q45.5125 264.8084 45.871876 264.6053Q46.23125 264.40216 46.403126 264.0584Q46.528126 263.7928 46.528126 263.27716L46.528126 262.9803ZM48.54375 265.32404L48.54375 260.65216L49.2625 260.65216L49.2625 261.32404Q49.7625 260.5584 50.746876 260.5584Q51.16875 260.5584 51.5125 260.71466Q51.871876 260.8553 52.04375 261.1053Q52.215626 261.33966 52.29375 261.6834Q52.340626 261.90216 52.340626 262.44904L52.340626 265.32404L51.54375 265.32404L51.54375 262.4803Q51.54375 261.9959 51.45 261.76154Q51.35625 261.52716 51.121876 261.38654Q50.8875 261.2303 50.575 261.2303Q50.075 261.2303 49.7 261.5584Q49.340626 261.8709 49.340626 262.77716L49.340626 265.32404L48.54375 265.32404ZM55.934376 265.32404L58.41875 258.88654L59.325 258.88654L61.965626 265.32404L60.996876 265.32404L60.246876 263.3709L57.54375 263.3709L56.840626 265.32404L55.934376 265.32404ZM57.79375 262.6834L59.98125 262.6834L59.309376 260.88654Q58.996876 260.07404 58.85625 259.5584Q58.73125 260.1834 58.496876 260.7928L57.79375 262.6834ZM62.54375 265.32404L62.54375 260.65216L63.246876 260.65216L63.246876 261.3084Q63.465626 260.96466 63.825 260.76154Q64.2 260.5584 64.66875 260.5584Q65.18437 260.5584 65.5125 260.77716Q65.84062 260.9803 65.98125 261.3709Q66.54375 260.5584 67.41875 260.5584Q68.12187 260.5584 68.49687 260.94904Q68.87187 261.32404 68.87187 262.1209L68.87187 265.32404L68.075 265.32404L68.075 262.38654Q68.075 261.90216 67.99687 261.69904Q67.93437 261.4959 67.73125 261.3709Q67.52812 261.2303 67.24687 261.2303Q66.7625 261.2303 66.43437 261.5584Q66.10625 261.88654 66.10625 262.6053L66.10625 265.32404L65.30937 265.32404L65.30937 262.2928Q65.30937 261.76154 65.12187 261.4959Q64.93437 261.2303 64.49687 261.2303Q64.15312 261.2303 63.871876 261.4178Q63.590626 261.58966 63.465626 261.9334Q63.340626 262.26154 63.340626 262.90216L63.340626 265.32404L62.54375 265.32404ZM73.73125 263.82404L74.55937 263.9178Q74.35625 264.63654 73.825 265.0428Q73.30937 265.4334 72.49687 265.4334Q71.48125 265.4334 70.87187 264.8084Q70.27812 264.1678 70.27812 263.02716Q70.27812 261.8553 70.8875 261.21466Q71.49687 260.5584 72.46562 260.5584Q73.40312 260.5584 73.98125 261.19904Q74.575 261.82404 74.575 262.9803Q74.575 263.0584 74.575 263.19904L71.09062 263.19904Q71.1375 263.96466 71.52812 264.3709Q71.91875 264.77716 72.5125 264.77716Q72.95 264.77716 73.24687 264.5584Q73.55937 264.32404 73.73125 263.82404ZM71.1375 262.5428L73.74687 262.5428Q73.7 261.94904 73.45 261.65216Q73.075 261.19904 72.46562 261.19904Q71.91875 261.19904 71.54375 261.57404Q71.18437 261.9334 71.1375 262.5428ZM75.52812 265.32404L75.52812 260.65216L76.24687 260.65216L76.24687 261.3709Q76.5125 260.8709 76.74687 260.71466Q76.98125 260.5584 77.2625 260.5584Q77.65312 260.5584 78.075 260.8084L77.79375 261.5428Q77.5125 261.3709 77.21562 261.3709Q76.96562 261.3709 76.74687 261.52716Q76.54375 261.6834 76.45 261.96466Q76.325 262.38654 76.325 262.88654L76.325 265.32404L75.52812 265.32404ZM78.54375 259.7928L78.54375 258.88654L79.34062 258.88654L79.34062 259.7928L78.54375 259.7928ZM78.54375 265.32404L78.54375 260.65216L79.34062 260.65216L79.34062 265.32404L78.54375 265.32404ZM83.59062 263.6209L84.37187 263.71466Q84.24687 264.52716 83.71562 264.9803Q83.18437 265.4334 82.41875 265.4334Q81.46562 265.4334 80.8875 264.8084Q80.30937 264.1834 80.30937 263.01154Q80.30937 262.2459 80.55937 261.6834Q80.80937 261.1209 81.30937 260.83966Q81.825 260.5584 82.43437 260.5584Q83.18437 260.5584 83.66875 260.94904Q84.15312 261.32404 84.29375 262.02716L83.52812 262.15216Q83.41875 261.6834 83.1375 261.44904Q82.85625 261.19904 82.46562 261.19904Q81.85625 261.19904 81.48125 261.63654Q81.12187 262.0584 81.12187 262.9803Q81.12187 263.9334 81.48125 264.3553Q81.84062 264.77716 82.41875 264.77716Q82.8875 264.77716 83.2 264.4959Q83.5125 264.21466 83.59062 263.6209ZM88.59062 264.7459Q88.15312 265.1209 87.74687 265.27716Q87.34062 265.4334 86.87187 265.4334Q86.10625 265.4334 85.68437 265.0584Q85.27812 264.6834 85.27812 264.08966Q85.27812 263.7459 85.43437 263.46466Q85.59062 263.1834 85.84062 263.01154Q86.09062 262.83966 86.40312 262.7459Q86.6375 262.69904 87.10625 262.63654Q88.075 262.52716 88.52812 262.3553Q88.52812 262.19904 88.52812 262.15216Q88.52812 261.6678 88.30937 261.4803Q87.99687 261.19904 87.40312 261.19904Q86.84062 261.19904 86.575 261.40216Q86.30937 261.58966 86.18437 262.08966L85.41875 261.9959Q85.5125 261.4959 85.74687 261.19904Q85.99687 260.88654 86.45 260.7303Q86.91875 260.5584 87.5125 260.5584Q88.12187 260.5584 88.48125 260.69904Q88.85625 260.83966 89.02812 261.0584Q89.21562 261.26154 89.27812 261.58966Q89.325 261.7928 89.325 262.3084L89.325 263.3709Q89.325 264.46466 89.37187 264.76154Q89.41875 265.0584 89.575 265.32404L88.74687 265.32404Q88.62187 265.07404 88.59062 264.7459ZM88.52812 262.9803Q88.09062 263.15216 87.23125 263.27716Q86.74687 263.3553 86.54375 263.44904Q86.34062 263.52716 86.23125 263.69904Q86.12187 263.8709 86.12187 264.07404Q86.12187 264.38654 86.35625 264.6053Q86.59062 264.8084 87.05937 264.8084Q87.5125 264.8084 87.87187 264.6053Q88.23125 264.40216 88.40312 264.0584Q88.52812 263.7928 88.52812 263.27716L88.52812 262.9803ZM90.54375 265.32404L90.54375 260.65216L91.2625 260.65216L91.2625 261.32404Q91.7625 260.5584 92.74687 260.5584Q93.16875 260.5584 93.5125 260.71466Q93.87187 260.8553 94.04375 261.1053Q94.21562 261.33966 94.29375 261.6834Q94.34062 261.90216 94.34062 262.44904L94.34062 265.32404L93.54375 265.32404L93.54375 262.4803Q93.54375 261.9959 93.45 261.76154Q93.35625 261.52716 93.12187 261.38654Q92.8875 261.2303 92.575 261.2303Q92.075 261.2303 91.7 261.5584Q91.34062 261.8709 91.34062 262.77716L91.34062 265.32404L90.54375 265.32404Z" fill-rule="nonzero"/><path fill="#000000" d="M33.934376 227.27869L36.41875 220.84119L37.325 220.84119L39.965626 227.27869L38.996876 227.27869L38.246876 225.32556L35.54375 225.32556L34.840626 227.27869L33.934376 227.27869ZM35.79375 224.63806L37.98125 224.63806L37.309376 222.84119Q36.996876 222.02869 36.85625 221.51306Q36.73125 222.13806 36.496876 222.74744L35.79375 224.63806ZM40.73125 227.27869L40.73125 223.23181L40.028126 223.23181L40.028126 222.60681L40.73125 222.60681L40.73125 222.12244Q40.73125 221.63806 40.809376 221.41931Q40.934376 221.10681 41.215626 220.91931Q41.5125 220.73181 42.028126 220.73181Q42.35625 220.73181 42.7625 220.80994L42.6375 221.49744Q42.403126 221.45056 42.184376 221.45056Q41.825 221.45056 41.66875 221.60681Q41.5125 221.76306 41.5125 222.18494L41.5125 222.60681L42.434376 222.60681L42.434376 223.23181L41.5125 223.23181L41.5125 227.27869L40.73125 227.27869ZM43.528126 227.27869L43.528126 222.60681L44.246876 222.60681L44.246876 223.32556Q44.5125 222.82556 44.746876 222.66931Q44.98125 222.51306 45.2625 222.51306Q45.653126 222.51306 46.075 222.76306L45.79375 223.49744Q45.5125 223.32556 45.215626 223.32556Q44.965626 223.32556 44.746876 223.48181Q44.54375 223.63806 44.45 223.91931Q44.325 224.34119 44.325 224.84119L44.325 227.27869L43.528126 227.27869ZM46.54375 221.74744L46.54375 220.84119L47.340626 220.84119L47.340626 221.74744L46.54375 221.74744ZM46.54375 227.27869L46.54375 222.60681L47.340626 222.60681L47.340626 227.27869L46.54375 227.27869ZM51.590626 225.57556L52.371876 225.66931Q52.246876 226.48181 51.715626 226.93494Q51.184376 227.38806 50.41875 227.38806Q49.465626 227.38806 48.8875 226.76306Q48.309376 226.13806 48.309376 224.96619Q48.309376 224.20056 48.559376 223.63806Q48.809376 223.07556 49.309376 222.79431Q49.825 222.51306 50.434376 222.51306Q51.184376 222.51306 51.66875 222.90369Q52.153126 223.27869 52.29375 223.98181L51.528126 224.10681Q51.41875 223.63806 51.1375 223.40369Q50.85625 223.15369 50.465626 223.15369Q49.85625 223.15369 49.48125 223.59119Q49.121876 224.01306 49.121876 224.93494Q49.121876 225.88806 49.48125 226.30994Q49.840626 226.73181 50.41875 226.73181Q50.8875 226.73181 51.2 226.45056Q51.5125 226.16931 51.590626 225.57556ZM56.590626 226.70056Q56.153126 227.07556 55.746876 227.23181Q55.340626 227.38806 54.871876 227.38806Q54.10625 227.38806 53.684376 227.01306Q53.278126 226.63806 53.278126 226.04431Q53.278126 225.70056 53.434376 225.41931Q53.590626 225.13806 53.840626 224.96619Q54.090626 224.79431 54.403126 224.70056Q54.6375 224.65369 55.10625 224.59119Q56.075 224.48181 56.528126 224.30994Q56.528126 224.15369 56.528126 224.10681Q56.528126 223.62244 56.309376 223.43494Q55.996876 223.15369 55.403126 223.15369Q54.840626 223.15369 54.575 223.35681Q54.309376 223.54431 54.184376 224.04431L53.41875 223.95056Q53.5125 223.45056 53.746876 223.15369Q53.996876 222.84119 54.45 222.68494Q54.91875 222.51306 55.5125 222.51306Q56.121876 222.51306 56.48125 222.65369Q56.85625 222.79431 57.028126 223.01306Q57.215626 223.21619 57.278126 223.54431Q57.325 223.74744 57.325 224.26306L57.325 225.32556Q57.325 226.41931 57.371876 226.71619Q57.41875 227.01306 57.575 227.27869L56.746876 227.27869Q56.621876 227.02869 56.590626 226.70056ZM56.528126 224.93494Q56.090626 225.10681 55.23125 225.23181Q54.746876 225.30994 54.54375 225.40369Q54.340626 225.48181 54.23125 225.65369Q54.121876 225.82556 54.121876 226.02869Q54.121876 226.34119 54.35625 226.55994Q54.590626 226.76306 55.059376 226.76306Q55.5125 226.76306 55.871876 226.55994Q56.23125 226.35681 56.403126 226.01306Q56.528126 225.74744 56.528126 225.23181L56.528126 224.93494ZM58.54375 227.27869L58.54375 222.60681L59.2625 222.60681L59.2625 223.27869Q59.7625 222.51306 60.746876 222.51306Q61.16875 222.51306 61.5125 222.66931Q61.871876 222.80994 62.04375 223.05994Q62.215626 223.29431 62.29375 223.63806Q62.340626 223.85681 62.340626 224.40369L62.340626 227.27869L61.54375 227.27869L61.54375 224.43494Q61.54375 223.95056 61.45 223.71619Q61.35625 223.48181 61.121876 223.34119Q60.8875 223.18494 60.575 223.18494Q60.075 223.18494 59.7 223.51306Q59.340626 223.82556 59.340626 224.73181L59.340626 227.27869L58.54375 227.27869ZM68.05937 229.16931Q67.40312 228.34119 66.95 227.24744Q66.49687 226.13806 66.49687 224.95056Q66.49687 223.90369 66.84062 222.93494Q67.23125 221.82556 68.05937 220.73181L68.62187 220.73181Q68.09062 221.63806 67.91875 222.02869Q67.65312 222.63806 67.49687 223.29431Q67.30937 224.12244 67.30937 224.95056Q67.30937 227.05994 68.62187 229.16931L68.05937 229.16931ZM69.3875 224.13806Q69.3875 222.54431 70.24687 221.63806Q71.10625 220.71619 72.46562 220.71619Q73.35625 220.71619 74.075 221.15369Q74.79375 221.57556 75.16875 222.34119Q75.54375 223.10681 75.54375 224.05994Q75.54375 225.04431 75.15312 225.82556Q74.7625 226.59119 74.02812 226.99744Q73.30937 227.38806 72.46562 227.38806Q71.55937 227.38806 70.84062 226.95056Q70.12187 226.51306 69.74687 225.74744Q69.3875 224.98181 69.3875 224.13806ZM70.2625 224.15369Q70.2625 225.32556 70.8875 225.99744Q71.5125 226.65369 72.46562 226.65369Q73.41875 226.65369 74.04375 225.98181Q74.66875 225.30994 74.66875 224.05994Q74.66875 223.27869 74.40312 222.70056Q74.1375 222.10681 73.62187 221.77869Q73.10625 221.45056 72.48125 221.45056Q71.575 221.45056 70.91875 222.07556Q70.2625 222.70056 70.2625 224.15369ZM78.27812 226.57556L78.3875 227.26306Q78.04375 227.34119 77.79375 227.34119Q77.35625 227.34119 77.12187 227.20056Q76.8875 227.05994 76.77812 226.84119Q76.68437 226.62244 76.68437 225.91931L76.68437 223.23181L76.10625 223.23181L76.10625 222.60681L76.68437 222.60681L76.68437 221.45056L77.48125 220.98181L77.48125 222.60681L78.27812 222.60681L78.27812 223.23181L77.48125 223.23181L77.48125 225.95056Q77.48125 226.29431 77.5125 226.38806Q77.55937 226.48181 77.65312 226.54431Q77.74687 226.60681 77.91875 226.60681Q78.05937 226.60681 78.27812 226.57556ZM79.54375 227.27869L79.54375 220.84119L80.34062 220.84119L80.34062 223.15369Q80.8875 222.51306 81.73125 222.51306Q82.24687 222.51306 82.62187 222.71619Q83.0125 222.91931 83.16875 223.27869Q83.34062 223.63806 83.34062 224.32556L83.34062 227.27869L82.55937 227.27869L82.55937 224.32556Q82.55937 223.73181 82.29375 223.46619Q82.04375 223.18494 81.575 223.18494Q81.21562 223.18494 80.90312 223.37244Q80.59062 223.54431 80.46562 223.85681Q80.34062 224.16931 80.34062 224.73181L80.34062 227.27869L79.54375 227.27869ZM87.73125 225.77869L88.55937 225.87244Q88.35625 226.59119 87.825 226.99744Q87.30937 227.38806 86.49687 227.38806Q85.48125 227.38806 84.87187 226.76306Q84.27812 226.12244 84.27812 224.98181Q84.27812 223.80994 84.8875 223.16931Q85.49687 222.51306 86.46562 222.51306Q87.40312 222.51306 87.98125 223.15369Q88.575 223.77869 88.575 224.93494Q88.575 225.01306 88.575 225.15369L85.09062 225.15369Q85.1375 225.91931 85.52812 226.32556Q85.91875 226.73181 86.5125 226.73181Q86.95 226.73181 87.24687 226.51306Q87.55937 226.27869 87.73125 225.77869ZM85.1375 224.49744L87.74687 224.49744Q87.7 223.90369 87.45 223.60681Q87.075 223.15369 86.46562 223.15369Q85.91875 223.15369 85.54375 223.52869Q85.18437 223.88806 85.1375 224.49744ZM89.52812 227.27869L89.52812 222.60681L90.24687 222.60681L90.24687 223.32556Q90.5125 222.82556 90.74687 222.66931Q90.98125 222.51306 91.2625 222.51306Q91.65312 222.51306 92.075 222.76306L91.79375 223.49744Q91.5125 223.32556 91.21562 223.32556Q90.96562 223.32556 90.74687 223.48181Q90.54375 223.63806 90.45 223.91931Q90.325 224.34119 90.325 224.84119L90.325 227.27869L89.52812 227.27869ZM93.05937 229.16931L92.49687 229.16931Q93.80937 227.05994 93.80937 224.95056Q93.80937 224.12244 93.62187 223.30994Q93.46562 222.65369 93.2 222.04431Q93.02812 221.65369 92.49687 220.73181L93.05937 220.73181Q93.8875 221.82556 94.27812 222.93494Q94.62187 223.90369 94.62187 224.95056Q94.62187 226.13806 94.16875 227.24744Q93.71562 228.34119 93.05937 229.16931Z" fill-rule="nonzero"/><path fill="#000000" d="M71.93437 189.23334L74.41875 182.79584L75.325 182.79584L77.96562 189.23334L76.99687 189.23334L76.24687 187.28021L73.54375 187.28021L72.84062 189.23334L71.93437 189.23334ZM73.79375 186.59271L75.98125 186.59271L75.30937 184.79584Q74.99687 183.98334 74.85625 183.46771Q74.73125 184.09271 74.49687 184.70209L73.79375 186.59271ZM78.23125 187.84271L79.0125 187.71771Q79.075 188.18646 79.37187 188.43646Q79.68437 188.68646 80.21562 188.68646Q80.7625 188.68646 81.02812 188.46771Q81.29375 188.24896 81.29375 187.95209Q81.29375 187.67084 81.05937 187.53021Q80.8875 187.42084 80.24687 187.24896Q79.37187 187.03021 79.02812 186.87396Q78.7 186.71771 78.52812 186.43646Q78.35625 186.15521 78.35625 185.81146Q78.35625 185.49896 78.49687 185.23334Q78.6375 184.96771 78.8875 184.78021Q79.075 184.65521 79.3875 184.56146Q79.71562 184.46771 80.075 184.46771Q80.62187 184.46771 81.02812 184.62396Q81.45 184.78021 81.65312 185.04584Q81.85625 185.31146 81.93437 185.76459L81.15312 185.87396Q81.10625 185.51459 80.84062 185.31146Q80.59062 185.10834 80.1375 185.10834Q79.59062 185.10834 79.35625 185.29584Q79.12187 185.46771 79.12187 185.71771Q79.12187 185.87396 79.21562 185.98334Q79.30937 186.12396 79.52812 186.20209Q79.6375 186.24896 80.21562 186.40521Q81.05937 186.62396 81.3875 186.76459Q81.73125 186.90521 81.91875 187.18646Q82.10625 187.45209 82.10625 187.85834Q82.10625 188.26459 81.87187 188.60834Q81.6375 188.95209 81.2 189.15521Q80.77812 189.34271 80.21562 189.34271Q79.30937 189.34271 78.825 188.96771Q78.35625 188.57709 78.23125 187.84271ZM83.54375 183.70209L83.54375 182.79584L84.34062 182.79584L84.34062 183.70209L83.54375 183.70209ZM83.54375 189.23334L83.54375 184.56146L84.34062 184.56146L84.34062 189.23334L83.54375 189.23334ZM88.59062 188.65521Q88.15312 189.03021 87.74687 189.18646Q87.34062 189.34271 86.87187 189.34271Q86.10625 189.34271 85.68437 188.96771Q85.27812 188.59271 85.27812 187.99896Q85.27812 187.65521 85.43437 187.37396Q85.59062 187.09271 85.84062 186.92084Q86.09062 186.74896 86.40312 186.65521Q86.6375 186.60834 87.10625 186.54584Q88.075 186.43646 88.52812 186.26459Q88.52812 186.10834 88.52812 186.06146Q88.52812 185.57709 88.30937 185.38959Q87.99687 185.10834 87.40312 185.10834Q86.84062 185.10834 86.575 185.31146Q86.30937 185.49896 86.18437 185.99896L85.41875 185.90521Q85.5125 185.40521 85.74687 185.10834Q85.99687 184.79584 86.45 184.63959Q86.91875 184.46771 87.5125 184.46771Q88.12187 184.46771 88.48125 184.60834Q88.85625 184.74896 89.02812 184.96771Q89.21562 185.17084 89.27812 185.49896Q89.325 185.70209 89.325 186.21771L89.325 187.28021Q89.325 188.37396 89.37187 188.67084Q89.41875 188.96771 89.575 189.23334L88.74687 189.23334Q88.62187 188.98334 88.59062 188.65521ZM88.52812 186.88959Q88.09062 187.06146 87.23125 187.18646Q86.74687 187.26459 86.54375 187.35834Q86.34062 187.43646 86.23125 187.60834Q86.12187 187.78021 86.12187 187.98334Q86.12187 188.29584 86.35625 188.51459Q86.59062 188.71771 87.05937 188.71771Q87.5125 188.71771 87.87187 188.51459Q88.23125 188.31146 88.40312 187.96771Q88.52812 187.70209 88.52812 187.18646L88.52812 186.88959ZM90.54375 189.23334L90.54375 184.56146L91.2625 184.56146L91.2625 185.23334Q91.7625 184.46771 92.74687 184.46771Q93.16875 184.46771 93.5125 184.62396Q93.87187 184.76459 94.04375 185.01459Q94.21562 185.24896 94.29375 185.59271Q94.34062 185.81146 94.34062 186.35834L94.34062 189.23334L93.54375 189.23334L93.54375 186.38959Q93.54375 185.90521 93.45 185.67084Q93.35625 185.43646 93.12187 185.29584Q92.8875 185.13959 92.575 185.13959Q92.075 185.13959 91.7 185.46771Q91.34062 185.78021 91.34062 186.68646L91.34062 189.23334L90.54375 189.23334Z" fill-rule="nonzero"/><path fill="#000000" d="M70.79375 151.18799L70.79375 144.75049L71.6375 144.75049L71.6375 151.18799L70.79375 151.18799ZM73.54375 151.18799L73.54375 146.51611L74.2625 146.51611L74.2625 147.18799Q74.7625 146.42236 75.74687 146.42236Q76.16875 146.42236 76.5125 146.57861Q76.87187 146.71924 77.04375 146.96924Q77.21562 147.20361 77.29375 147.54736Q77.34062 147.76611 77.34062 148.31299L77.34062 151.18799L76.54375 151.18799L76.54375 148.34424Q76.54375 147.85986 76.45 147.62549Q76.35625 147.39111 76.12187 147.25049Q75.8875 147.09424 75.575 147.09424Q75.075 147.09424 74.7 147.42236Q74.34062 147.73486 74.34062 148.64111L74.34062 151.18799L73.54375 151.18799ZM81.575 151.18799L81.575 150.59424Q81.12187 151.29736 80.2625 151.29736Q79.71562 151.29736 79.24687 150.98486Q78.77812 150.67236 78.5125 150.12549Q78.2625 149.57861 78.2625 148.85986Q78.2625 148.15674 78.49687 147.59424Q78.73125 147.01611 79.18437 146.71924Q79.65312 146.42236 80.23125 146.42236Q80.65312 146.42236 80.98125 146.59424Q81.30937 146.76611 81.5125 147.06299L81.5125 144.75049L82.30937 144.75049L82.30937 151.18799L81.575 151.18799ZM79.075 148.85986Q79.075 149.75049 79.45 150.20361Q79.825 150.64111 80.34062 150.64111Q80.85625 150.64111 81.21562 150.21924Q81.59062 149.79736 81.59062 148.92236Q81.59062 147.96924 81.21562 147.51611Q80.84062 147.06299 80.30937 147.06299Q79.77812 147.06299 79.41875 147.50049Q79.075 147.93799 79.075 148.85986ZM83.54375 145.65674L83.54375 144.75049L84.34062 144.75049L84.34062 145.65674L83.54375 145.65674ZM83.54375 151.18799L83.54375 146.51611L84.34062 146.51611L84.34062 151.18799L83.54375 151.18799ZM88.59062 150.60986Q88.15312 150.98486 87.74687 151.14111Q87.34062 151.29736 86.87187 151.29736Q86.10625 151.29736 85.68437 150.92236Q85.27812 150.54736 85.27812 149.95361Q85.27812 149.60986 85.43437 149.32861Q85.59062 149.04736 85.84062 148.87549Q86.09062 148.70361 86.40312 148.60986Q86.6375 148.56299 87.10625 148.50049Q88.075 148.39111 88.52812 148.21924Q88.52812 148.06299 88.52812 148.01611Q88.52812 147.53174 88.30937 147.34424Q87.99687 147.06299 87.40312 147.06299Q86.84062 147.06299 86.575 147.26611Q86.30937 147.45361 86.18437 147.95361L85.41875 147.85986Q85.5125 147.35986 85.74687 147.06299Q85.99687 146.75049 86.45 146.59424Q86.91875 146.42236 87.5125 146.42236Q88.12187 146.42236 88.48125 146.56299Q88.85625 146.70361 89.02812 146.92236Q89.21562 147.12549 89.27812 147.45361Q89.325 147.65674 89.325 148.17236L89.325 149.23486Q89.325 150.32861 89.37187 150.62549Q89.41875 150.92236 89.575 151.18799L88.74687 151.18799Q88.62187 150.93799 88.59062 150.60986ZM88.52812 148.84424Q88.09062 149.01611 87.23125 149.14111Q86.74687 149.21924 86.54375 149.31299Q86.34062 149.39111 86.23125 149.56299Q86.12187 149.73486 86.12187 149.93799Q86.12187 150.25049 86.35625 150.46924Q86.59062 150.67236 87.05937 150.67236Q87.5125 150.67236 87.87187 150.46924Q88.23125 150.26611 88.40312 149.92236Q88.52812 149.65674 88.52812 149.14111L88.52812 148.84424ZM90.54375 151.18799L90.54375 146.51611L91.2625 146.51611L91.2625 147.18799Q91.7625 146.42236 92.74687 146.42236Q93.16875 146.42236 93.5125 146.57861Q93.87187 146.71924 94.04375 146.96924Q94.21562 147.20361 94.29375 147.54736Q94.34062 147.76611 94.34062 148.31299L94.34062 151.18799L93.54375 151.18799L93.54375 148.34424Q93.54375 147.85986 93.45 147.62549Q93.35625 147.39111 93.12187 147.25049Q92.8875 147.09424 92.575 147.09424Q92.075 147.09424 91.7 147.42236Q91.34062 147.73486 91.34062 148.64111L91.34062 151.18799L90.54375 151.18799Z" fill-rule="nonzero"/><path fill="#000000" d="M31.60625 113.14263L31.60625 106.70513L32.465626 106.70513L32.465626 112.37701L35.6375 112.37701L35.6375 113.14263L31.60625 113.14263ZM39.590626 112.56451Q39.153126 112.93951 38.746876 113.09576Q38.340626 113.25201 37.871876 113.25201Q37.10625 113.25201 36.684376 112.87701Q36.278126 112.50201 36.278126 111.90826Q36.278126 111.56451 36.434376 111.28326Q36.590626 111.00201 36.840626 110.83013Q37.090626 110.65826 37.403126 110.56451Q37.6375 110.51763 38.10625 110.45513Q39.075 110.34576 39.528126 110.17388Q39.528126 110.01763 39.528126 109.97076Q39.528126 109.48638 39.309376 109.29888Q38.996876 109.01763 38.403126 109.01763Q37.840626 109.01763 37.575 109.22076Q37.309376 109.40826 37.184376 109.90826L36.41875 109.81451Q36.5125 109.31451 36.746876 109.01763Q36.996876 108.70513 37.45 108.54888Q37.91875 108.37701 38.5125 108.37701Q39.121876 108.37701 39.48125 108.51763Q39.85625 108.65826 40.028126 108.87701Q40.215626 109.08013 40.278126 109.40826Q40.325 109.61138 40.325 110.12701L40.325 111.18951Q40.325 112.28326 40.371876 112.58013Q40.41875 112.87701 40.575 113.14263L39.746876 113.14263Q39.621876 112.89263 39.590626 112.56451ZM39.528126 110.79888Q39.090626 110.97076 38.23125 111.09576Q37.746876 111.17388 37.54375 111.26763Q37.340626 111.34576 37.23125 111.51763Q37.121876 111.68951 37.121876 111.89263Q37.121876 112.20513 37.35625 112.42388Q37.590626 112.62701 38.059376 112.62701Q38.5125 112.62701 38.871876 112.42388Q39.23125 112.22076 39.403126 111.87701Q39.528126 111.61138 39.528126 111.09576L39.528126 110.79888ZM43.278126 112.43951L43.3875 113.12701Q43.04375 113.20513 42.79375 113.20513Q42.35625 113.20513 42.121876 113.06451Q41.8875 112.92388 41.778126 112.70513Q41.684376 112.48638 41.684376 111.78326L41.684376 109.09576L41.10625 109.09576L41.10625 108.47076L41.684376 108.47076L41.684376 107.31451L42.48125 106.84576L42.48125 108.47076L43.278126 108.47076L43.278126 109.09576L42.48125 109.09576L42.48125 111.81451Q42.48125 112.15826 42.5125 112.25201Q42.559376 112.34576 42.653126 112.40826Q42.746876 112.47076 42.91875 112.47076Q43.059376 112.47076 43.278126 112.43951ZM44.54375 107.61138L44.54375 106.70513L45.340626 106.70513L45.340626 107.61138L44.54375 107.61138ZM44.54375 113.14263L44.54375 108.47076L45.340626 108.47076L45.340626 113.14263L44.54375 113.14263ZM46.54375 113.14263L46.54375 108.47076L47.2625 108.47076L47.2625 109.14263Q47.7625 108.37701 48.746876 108.37701Q49.16875 108.37701 49.5125 108.53326Q49.871876 108.67388 50.04375 108.92388Q50.215626 109.15826 50.29375 109.50201Q50.340626 109.72076 50.340626 110.26763L50.340626 113.14263L49.54375 113.14263L49.54375 110.29888Q49.54375 109.81451 49.45 109.58013Q49.35625 109.34576 49.121876 109.20513Q48.8875 109.04888 48.575 109.04888Q48.075 109.04888 47.7 109.37701Q47.340626 109.68951 47.340626 110.59576L47.340626 113.14263L46.54375 113.14263ZM51.246876 110.81451Q51.246876 109.51763 51.965626 108.89263Q52.575 108.37701 53.434376 108.37701Q54.403126 108.37701 55.0125 109.00201Q55.621876 109.62701 55.621876 110.73638Q55.621876 111.64263 55.340626 112.15826Q55.075 112.67388 54.559376 112.97076Q54.04375 113.25201 53.434376 113.25201Q52.45 113.25201 51.840626 112.62701Q51.246876 111.98638 51.246876 110.81451ZM52.059376 110.81451Q52.059376 111.70513 52.45 112.15826Q52.840626 112.59576 53.434376 112.59576Q54.028126 112.59576 54.41875 112.15826Q54.809376 111.70513 54.809376 110.78326Q54.809376 109.92388 54.41875 109.47076Q54.028126 109.01763 53.434376 109.01763Q52.840626 109.01763 52.45 109.47076Q52.059376 109.90826 52.059376 110.81451ZM55.95 113.25201L57.825 106.59576L58.45 106.59576L56.590626 113.25201L55.95 113.25201ZM59.66875 113.14263L59.66875 106.70513L60.528126 106.70513L60.528126 109.34576L63.871876 109.34576L63.871876 106.70513L64.73125 106.70513L64.73125 113.14263L63.871876 113.14263L63.871876 110.11138L60.528126 110.11138L60.528126 113.14263L59.66875 113.14263ZM66.54375 107.61138L66.54375 106.70513L67.34062 106.70513L67.34062 107.61138L66.54375 107.61138ZM66.54375 113.14263L66.54375 108.47076L67.34062 108.47076L67.34062 113.14263L66.54375 113.14263ZM68.23125 111.75201L69.0125 111.62701Q69.075 112.09576 69.37187 112.34576Q69.68437 112.59576 70.21562 112.59576Q70.7625 112.59576 71.02812 112.37701Q71.29375 112.15826 71.29375 111.86138Q71.29375 111.58013 71.05937 111.43951Q70.8875 111.33013 70.24687 111.15826Q69.37187 110.93951 69.02812 110.78326Q68.7 110.62701 68.52812 110.34576Q68.35625 110.06451 68.35625 109.72076Q68.35625 109.40826 68.49687 109.14263Q68.6375 108.87701 68.8875 108.68951Q69.075 108.56451 69.3875 108.47076Q69.71562 108.37701 70.075 108.37701Q70.62187 108.37701 71.02812 108.53326Q71.45 108.68951 71.65312 108.95513Q71.85625 109.22076 71.93437 109.67388L71.15312 109.78326Q71.10625 109.42388 70.84062 109.22076Q70.59062 109.01763 70.1375 109.01763Q69.59062 109.01763 69.35625 109.20513Q69.12187 109.37701 69.12187 109.62701Q69.12187 109.78326 69.21562 109.89263Q69.30937 110.03326 69.52812 110.11138Q69.6375 110.15826 70.21562 110.31451Q71.05937 110.53326 71.3875 110.67388Q71.73125 110.81451 71.91875 111.09576Q72.10625 111.36138 72.10625 111.76763Q72.10625 112.17388 71.87187 112.51763Q71.6375 112.86138 71.2 113.06451Q70.77812 113.25201 70.21562 113.25201Q69.30937 113.25201 68.825 112.87701Q68.35625 112.48638 68.23125 111.75201ZM73.54375 114.92388L73.54375 108.47076L74.2625 108.47076L74.2625 109.08013Q74.5125 108.72076 74.825 108.54888Q75.15312 108.37701 75.62187 108.37701Q76.21562 108.37701 76.66875 108.68951Q77.12187 108.98638 77.35625 109.54888Q77.59062 110.11138 77.59062 110.76763Q77.59062 111.48638 77.325 112.06451Q77.075 112.64263 76.59062 112.95513Q76.10625 113.25201 75.55937 113.25201Q75.16875 113.25201 74.85625 113.08013Q74.54375 112.90826 74.34062 112.65826L74.34062 114.92388L73.54375 114.92388ZM74.2625 110.83013Q74.2625 111.73638 74.62187 112.17388Q74.99687 112.59576 75.5125 112.59576Q76.02812 112.59576 76.40312 112.15826Q76.79375 111.70513 76.79375 110.76763Q76.79375 109.87701 76.41875 109.43951Q76.05937 108.98638 75.54375 108.98638Q75.04375 108.98638 74.65312 109.47076Q74.2625 109.93951 74.2625 110.83013ZM81.59062 112.56451Q81.15312 112.93951 80.74687 113.09576Q80.34062 113.25201 79.87187 113.25201Q79.10625 113.25201 78.68437 112.87701Q78.27812 112.50201 78.27812 111.90826Q78.27812 111.56451 78.43437 111.28326Q78.59062 111.00201 78.84062 110.83013Q79.09062 110.65826 79.40312 110.56451Q79.6375 110.51763 80.10625 110.45513Q81.075 110.34576 81.52812 110.17388Q81.52812 110.01763 81.52812 109.97076Q81.52812 109.48638 81.30937 109.29888Q80.99687 109.01763 80.40312 109.01763Q79.84062 109.01763 79.575 109.22076Q79.30937 109.40826 79.18437 109.90826L78.41875 109.81451Q78.5125 109.31451 78.74687 109.01763Q78.99687 108.70513 79.45 108.54888Q79.91875 108.37701 80.5125 108.37701Q81.12187 108.37701 81.48125 108.51763Q81.85625 108.65826 82.02812 108.87701Q82.21562 109.08013 82.27812 109.40826Q82.325 109.61138 82.325 110.12701L82.325 111.18951Q82.325 112.28326 82.37187 112.58013Q82.41875 112.87701 82.575 113.14263L81.74687 113.14263Q81.62187 112.89263 81.59062 112.56451ZM81.52812 110.79888Q81.09062 110.97076 80.23125 111.09576Q79.74687 111.17388 79.54375 111.26763Q79.34062 111.34576 79.23125 111.51763Q79.12187 111.68951 79.12187 111.89263Q79.12187 112.20513 79.35625 112.42388Q79.59062 112.62701 80.05937 112.62701Q80.5125 112.62701 80.87187 112.42388Q81.23125 112.22076 81.40312 111.87701Q81.52812 111.61138 81.52812 111.09576L81.52812 110.79888ZM83.54375 113.14263L83.54375 108.47076L84.2625 108.47076L84.2625 109.14263Q84.7625 108.37701 85.74687 108.37701Q86.16875 108.37701 86.5125 108.53326Q86.87187 108.67388 87.04375 108.92388Q87.21562 109.15826 87.29375 109.50201Q87.34062 109.72076 87.34062 110.26763L87.34062 113.14263L86.54375 113.14263L86.54375 110.29888Q86.54375 109.81451 86.45 109.58013Q86.35625 109.34576 86.12187 109.20513Q85.8875 109.04888 85.575 109.04888Q85.075 109.04888 84.7 109.37701Q84.34062 109.68951 84.34062 110.59576L84.34062 113.14263L83.54375 113.14263ZM88.54375 107.61138L88.54375 106.70513L89.34062 106.70513L89.34062 107.61138L88.54375 107.61138ZM88.54375 113.14263L88.54375 108.47076L89.34062 108.47076L89.34062 113.14263L88.54375 113.14263ZM93.59062 111.43951L94.37187 111.53326Q94.24687 112.34576 93.71562 112.79888Q93.18437 113.25201 92.41875 113.25201Q91.46562 113.25201 90.8875 112.62701Q90.30937 112.00201 90.30937 110.83013Q90.30937 110.06451 90.55937 109.50201Q90.80937 108.93951 91.30937 108.65826Q91.825 108.37701 92.43437 108.37701Q93.18437 108.37701 93.66875 108.76763Q94.15312 109.14263 94.29375 109.84576L93.52812 109.97076Q93.41875 109.50201 93.1375 109.26763Q92.85625 109.01763 92.46562 109.01763Q91.85625 109.01763 91.48125 109.45513Q91.12187 109.87701 91.12187 110.79888Q91.12187 111.75201 91.48125 112.17388Q91.84062 112.59576 92.41875 112.59576Q92.8875 112.59576 93.2 112.31451Q93.5125 112.03326 93.59062 111.43951Z" fill-rule="nonzero"/><path fill="#000000" d="M72.3875 71.95666Q72.3875 70.36291 73.24687 69.45666Q74.10625 68.53478 75.46562 68.53478Q76.35625 68.53478 77.075 68.97228Q77.79375 69.39416 78.16875 70.15978Q78.54375 70.92541 78.54375 71.87853Q78.54375 72.86291 78.15312 73.64416Q77.7625 74.40978 77.02812 74.81603Q76.30937 75.20666 75.46562 75.20666Q74.55937 75.20666 73.84062 74.76916Q73.12187 74.33166 72.74687 73.56603Q72.3875 72.80041 72.3875 71.95666ZM73.2625 71.97228Q73.2625 73.14416 73.8875 73.81603Q74.5125 74.47228 75.46562 74.47228Q76.41875 74.47228 77.04375 73.80041Q77.66875 73.12853 77.66875 71.87853Q77.66875 71.09728 77.40312 70.51916Q77.1375 69.92541 76.62187 69.59728Q76.10625 69.26916 75.48125 69.26916Q74.575 69.26916 73.91875 69.89416Q73.2625 70.51916 73.2625 71.97228ZM81.27812 74.39416L81.3875 75.08166Q81.04375 75.15978 80.79375 75.15978Q80.35625 75.15978 80.12187 75.01916Q79.8875 74.87853 79.77812 74.65978Q79.68437 74.44103 79.68437 73.73791L79.68437 71.05041L79.10625 71.05041L79.10625 70.42541L79.68437 70.42541L79.68437 69.26916L80.48125 68.80041L80.48125 70.42541L81.27812 70.42541L81.27812 71.05041L80.48125 71.05041L80.48125 73.76916Q80.48125 74.11291 80.5125 74.20666Q80.55937 74.30041 80.65312 74.36291Q80.74687 74.42541 80.91875 74.42541Q81.05937 74.42541 81.27812 74.39416ZM82.54375 75.09728L82.54375 68.65978L83.34062 68.65978L83.34062 70.97228Q83.8875 70.33166 84.73125 70.33166Q85.24687 70.33166 85.62187 70.53478Q86.0125 70.73791 86.16875 71.09728Q86.34062 71.45666 86.34062 72.14416L86.34062 75.09728L85.55937 75.09728L85.55937 72.14416Q85.55937 71.55041 85.29375 71.28478Q85.04375 71.00353 84.575 71.00353Q84.21562 71.00353 83.90312 71.19103Q83.59062 71.36291 83.46562 71.67541Q83.34062 71.98791 83.34062 72.55041L83.34062 75.09728L82.54375 75.09728ZM90.73125 73.59728L91.55937 73.69103Q91.35625 74.40978 90.825 74.81603Q90.30937 75.20666 89.49687 75.20666Q88.48125 75.20666 87.87187 74.58166Q87.27812 73.94103 87.27812 72.80041Q87.27812 71.62853 87.8875 70.98791Q88.49687 70.33166 89.46562 70.33166Q90.40312 70.33166 90.98125 70.97228Q91.575 71.59728 91.575 72.75353Q91.575 72.83166 91.575 72.97228L88.09062 72.97228Q88.1375 73.73791 88.52812 74.14416Q88.91875 74.55041 89.5125 74.55041Q89.95 74.55041 90.24687 74.33166Q90.55937 74.09728 90.73125 73.59728ZM88.1375 72.31603L90.74687 72.31603Q90.7 71.72228 90.45 71.42541Q90.075 70.97228 89.46562 70.97228Q88.91875 70.97228 88.54375 71.34728Q88.18437 71.70666 88.1375 72.31603ZM92.52812 75.09728L92.52812 70.42541L93.24687 70.42541L93.24687 71.14416Q93.5125 70.64416 93.74687 70.48791Q93.98125 70.33166 94.2625 70.33166Q94.65312 70.33166 95.075 70.58166L94.79375 71.31603Q94.5125 71.14416 94.21562 71.14416Q93.96562 71.14416 93.74687 71.30041Q93.54375 71.45666 93.45 71.73791Q93.325 72.15978 93.325 72.65978L93.325 75.09728L92.52812 75.09728Z" fill-rule="nonzero"/><path fill="#000000" d="M93.325 335.8781Q93.325 334.7375 93.55937 334.03436Q93.79375 333.33124 94.24687 332.95624Q94.71562 332.58124 95.41875 332.58124Q95.95 332.58124 96.34062 332.8Q96.73125 333.0031 96.98125 333.39374Q97.23125 333.78436 97.37187 334.34686Q97.52812 334.90936 97.52812 335.8781Q97.52812 337.0031 97.29375 337.70624Q97.05937 338.39374 96.59062 338.78436Q96.1375 339.15936 95.41875 339.15936Q94.49687 339.15936 93.96562 338.4875Q93.325 337.6906 93.325 335.8781ZM94.1375 335.8781Q94.1375 337.45624 94.49687 337.9875Q94.87187 338.5031 95.41875 338.5031Q95.96562 338.5031 96.34062 337.9875Q96.71562 337.45624 96.71562 335.8781Q96.71562 334.28436 96.34062 333.76874Q95.96562 333.2375 95.41875 333.2375Q94.87187 333.2375 94.54375 333.6906Q94.1375 334.28436 94.1375 335.8781ZM98.46562 334.15936Q98.46562 333.47186 98.80937 332.9875Q99.16875 332.5031 99.825 332.5031Q100.43437 332.5031 100.825 332.9406Q101.23125 333.3625 101.23125 334.20624Q101.23125 335.01874 100.825 335.47186Q100.41875 335.90936 99.84062 335.90936Q99.24687 335.90936 98.85625 335.47186Q98.46562 335.03436 98.46562 334.15936ZM99.85625 333.05Q99.55937 333.05 99.35625 333.3Q99.16875 333.55 99.16875 334.2375Q99.16875 334.84686 99.35625 335.1125Q99.55937 335.3625 99.85625 335.3625Q100.15312 335.3625 100.34062 335.1125Q100.54375 334.84686 100.54375 334.175Q100.54375 333.55 100.34062 333.3Q100.1375 333.05 99.85625 333.05ZM99.85625 339.28436L103.37187 332.5031L104.0125 332.5031L100.5125 339.28436L99.85625 339.28436ZM102.6375 337.53436Q102.6375 336.84686 102.98125 336.3625Q103.34062 335.8781 103.99687 335.8781Q104.60625 335.8781 104.99687 336.3156Q105.40312 336.7531 105.40312 337.58124Q105.40312 338.40936 104.99687 338.84686Q104.59062 339.28436 103.99687 339.28436Q103.41875 339.28436 103.02812 338.84686Q102.6375 338.40936 102.6375 337.53436ZM104.0125 336.425Q103.71562 336.425 103.5125 336.6906Q103.325 336.9406 103.325 337.6125Q103.325 338.2375 103.52812 338.4875Q103.73125 338.7375 104.0125 338.7375Q104.325 338.7375 104.5125 338.4875Q104.71562 338.2375 104.71562 337.55Q104.71562 336.925 104.5125 336.675Q104.30937 336.425 104.0125 336.425Z" fill-rule="nonzero"/><path fill="#000000" d="M318.63126 338.28436L318.63126 339.05L314.36563 339.05Q314.36563 338.76874 314.45938 338.5031Q314.63126 338.0656 314.99063 337.64374Q315.35 337.22186 316.02188 336.675Q317.06876 335.8 317.42813 335.3Q317.80313 334.8 317.80313 334.34686Q317.80313 333.8781 317.45938 333.5656Q317.13126 333.2375 316.6 333.2375Q316.02188 333.2375 315.67813 333.58124Q315.33438 333.925 315.33438 334.53436L314.52188 334.4406Q314.6 333.53436 315.14688 333.0656Q315.69376 332.58124 316.61563 332.58124Q317.5375 332.58124 318.06876 333.09686Q318.61563 333.6125 318.61563 334.3625Q318.61563 334.7531 318.45938 335.1281Q318.30313 335.5031 317.92813 335.925Q317.56876 336.33124 316.725 337.05Q316.00626 337.64374 315.80313 337.8625Q315.6 338.08124 315.475 338.28436L318.63126 338.28436ZM319.475 337.3625L320.30313 337.28436Q320.39688 337.89374 320.725 338.20624Q321.06876 338.5031 321.5375 338.5031Q322.11563 338.5031 322.50626 338.08124Q322.9125 337.64374 322.9125 336.9406Q322.9125 336.2531 322.52188 335.8625Q322.14688 335.47186 321.5375 335.47186Q321.14688 335.47186 320.83438 335.65936Q320.5375 335.83124 320.35 336.09686L319.61563 336.0031L320.24063 332.6906L323.44376 332.6906L323.44376 333.45624L320.86563 333.45624L320.52188 335.175Q321.1 334.78436 321.74063 334.78436Q322.58438 334.78436 323.1625 335.3625Q323.74063 335.9406 323.74063 336.8625Q323.74063 337.7375 323.24063 338.3781Q322.61563 339.15936 321.5375 339.15936Q320.6625 339.15936 320.1 338.675Q319.55313 338.175 319.475 337.3625ZM324.61563 334.15936Q324.61563 333.47186 324.95938 332.9875Q325.31876 332.5031 325.975 332.5031Q326.58438 332.5031 326.975 332.9406Q327.38126 333.3625 327.38126 334.20624Q327.38126 335.01874 326.975 335.47186Q326.56876 335.90936 325.99063 335.90936Q325.39688 335.90936 325.00626 335.47186Q324.61563 335.03436 324.61563 334.15936ZM326.00626 333.05Q325.70938 333.05 325.50626 333.3Q325.31876 333.55 325.31876 334.2375Q325.31876 334.84686 325.50626 335.1125Q325.70938 335.3625 326.00626 335.3625Q326.30313 335.3625 326.49063 335.1125Q326.69376 334.84686 326.69376 334.175Q326.69376 333.55 326.49063 333.3Q326.2875 333.05 326.00626 333.05ZM326.00626 339.28436L329.52188 332.5031L330.1625 332.5031L326.6625 339.28436L326.00626 339.28436ZM328.7875 337.53436Q328.7875 336.84686 329.13126 336.3625Q329.49063 335.8781 330.14688 335.8781Q330.75626 335.8781 331.14688 336.3156Q331.55313 336.7531 331.55313 337.58124Q331.55313 338.40936 331.14688 338.84686Q330.74063 339.28436 330.14688 339.28436Q329.56876 339.28436 329.17813 338.84686Q328.7875 338.40936 328.7875 337.53436ZM330.1625 336.425Q329.86563 336.425 329.6625 336.6906Q329.475 336.9406 329.475 337.6125Q329.475 338.2375 329.67813 338.4875Q329.88126 338.7375 330.1625 338.7375Q330.475 338.7375 330.6625 338.4875Q330.86563 338.2375 330.86563 337.55Q330.86563 336.925 330.6625 336.675Q330.45938 336.425 330.1625 336.425Z" fill-rule="nonzero"/><path fill="#000000" d="M538.125 337.3625L538.9531 337.28436Q539.0469 337.89374 539.375 338.20624Q539.71875 338.5031 540.1875 338.5031Q540.7656 338.5031 541.15625 338.08124Q541.5625 337.64374 541.5625 336.9406Q541.5625 336.2531 541.1719 335.8625Q540.7969 335.47186 540.1875 335.47186Q539.7969 335.47186 539.4844 335.65936Q539.1875 335.83124 539.0 336.09686L538.2656 336.0031L538.8906 332.6906L542.09375 332.6906L542.09375 333.45624L539.5156 333.45624L539.1719 335.175Q539.75 334.78436 540.3906 334.78436Q541.2344 334.78436 541.8125 335.3625Q542.3906 335.9406 542.3906 336.8625Q542.3906 337.7375 541.8906 338.3781Q541.2656 339.15936 540.1875 339.15936Q539.3125 339.15936 538.75 338.675Q538.2031 338.175 538.125 337.3625ZM543.125 335.8781Q543.125 334.7375 543.3594 334.03436Q543.59375 333.33124 544.0469 332.95624Q544.5156 332.58124 545.21875 332.58124Q545.75 332.58124 546.1406 332.8Q546.53125 333.0031 546.78125 333.39374Q547.03125 333.78436 547.1719 334.34686Q547.3281 334.90936 547.3281 335.8781Q547.3281 337.0031 547.09375 337.70624Q546.8594 338.39374 546.3906 338.78436Q545.9375 339.15936 545.21875 339.15936Q544.2969 339.15936 543.7656 338.4875Q543.125 337.6906 543.125 335.8781ZM543.9375 335.8781Q543.9375 337.45624 544.2969 337.9875Q544.6719 338.5031 545.21875 338.5031Q545.7656 338.5031 546.1406 337.9875Q546.5156 337.45624 546.5156 335.8781Q546.5156 334.28436 546.1406 333.76874Q545.7656 333.2375 545.21875 333.2375Q544.6719 333.2375 544.34375 333.6906Q543.9375 334.28436 543.9375 335.8781ZM548.2656 334.15936Q548.2656 333.47186 548.6094 332.9875Q548.96875 332.5031 549.625 332.5031Q550.2344 332.5031 550.625 332.9406Q551.03125 333.3625 551.03125 334.20624Q551.03125 335.01874 550.625 335.47186Q550.21875 335.90936 549.6406 335.90936Q549.0469 335.90936 548.65625 335.47186Q548.2656 335.03436 548.2656 334.15936ZM549.65625 333.05Q549.3594 333.05 549.15625 333.3Q548.96875 333.55 548.96875 334.2375Q548.96875 334.84686 549.15625 335.1125Q549.3594 335.3625 549.65625 335.3625Q549.9531 335.3625 550.1406 335.1125Q550.34375 334.84686 550.34375 334.175Q550.34375 333.55 550.1406 333.3Q549.9375 333.05 549.65625 333.05ZM549.65625 339.28436L553.1719 332.5031L553.8125 332.5031L550.3125 339.28436L549.65625 339.28436ZM552.4375 337.53436Q552.4375 336.84686 552.78125 336.3625Q553.1406 335.8781 553.7969 335.8781Q554.40625 335.8781 554.7969 336.3156Q555.2031 336.7531 555.2031 337.58124Q555.2031 338.40936 554.7969 338.84686Q554.3906 339.28436 553.7969 339.28436Q553.21875 339.28436 552.8281 338.84686Q552.4375 338.40936 552.4375 337.53436ZM553.8125 336.425Q553.5156 336.425 553.3125 336.6906Q553.125 336.9406 553.125 337.6125Q553.125 338.2375 553.3281 338.4875Q553.53125 338.7375 553.8125 338.7375Q554.125 338.7375 554.3125 338.4875Q554.5156 338.2375 554.5156 337.55Q554.5156 336.925 554.3125 336.675Q554.1094 336.425 553.8125 336.425Z" fill-rule="nonzero"/><path fill="#000000" d="M761.8219 333.45624L761.8219 332.6906L765.9938 332.6906L765.9938 333.3Q765.3844 333.95624 764.775 335.05Q764.16565 336.1281 763.8375 337.28436Q763.60315 338.08124 763.54065 339.05L762.72815 339.05Q762.7438 338.28436 763.025 337.22186Q763.3063 336.14374 763.8375 335.14374Q764.3844 334.14374 764.97815 333.45624L761.8219 333.45624ZM766.775 337.3625L767.60315 337.28436Q767.6969 337.89374 768.025 338.20624Q768.3688 338.5031 768.8375 338.5031Q769.41565 338.5031 769.8063 338.08124Q770.2125 337.64374 770.2125 336.9406Q770.2125 336.2531 769.8219 335.8625Q769.4469 335.47186 768.8375 335.47186Q768.4469 335.47186 768.1344 335.65936Q767.8375 335.83124 767.65 336.09686L766.91565 336.0031L767.54065 332.6906L770.7438 332.6906L770.7438 333.45624L768.16565 333.45624L767.8219 335.175Q768.4 334.78436 769.04065 334.78436Q769.8844 334.78436 770.4625 335.3625Q771.04065 335.9406 771.04065 336.8625Q771.04065 337.7375 770.54065 338.3781Q769.91565 339.15936 768.8375 339.15936Q767.9625 339.15936 767.4 338.675Q766.85315 338.175 766.775 337.3625ZM771.91565 334.15936Q771.91565 333.47186 772.2594 332.9875Q772.6188 332.5031 773.275 332.5031Q773.8844 332.5031 774.275 332.9406Q774.6813 333.3625 774.6813 334.20624Q774.6813 335.01874 774.275 335.47186Q773.8688 335.90936 773.29065 335.90936Q772.6969 335.90936 772.3063 335.47186Q771.91565 335.03436 771.91565 334.15936ZM773.3063 333.05Q773.0094 333.05 772.8063 333.3Q772.6188 333.55 772.6188 334.2375Q772.6188 334.84686 772.8063 335.1125Q773.0094 335.3625 773.3063 335.3625Q773.60315 335.3625 773.79065 335.1125Q773.9938 334.84686 773.9938 334.175Q773.9938 333.55 773.79065 333.3Q773.5875 333.05 773.3063 333.05ZM773.3063 339.28436L776.8219 332.5031L777.4625 332.5031L773.9625 339.28436L773.3063 339.28436ZM776.0875 337.53436Q776.0875 336.84686 776.4313 336.3625Q776.79065 335.8781 777.4469 335.8781Q778.0563 335.8781 778.4469 336.3156Q778.85315 336.7531 778.85315 337.58124Q778.85315 338.40936 778.4469 338.84686Q778.04065 339.28436 777.4469 339.28436Q776.8688 339.28436 776.47815 338.84686Q776.0875 338.40936 776.0875 337.53436ZM777.4625 336.425Q777.16565 336.425 776.9625 336.6906Q776.775 336.9406 776.775 337.6125Q776.775 338.2375 776.97815 338.4875Q777.1813 338.7375 777.4625 338.7375Q777.775 338.7375 777.9625 338.4875Q778.16565 338.2375 778.16565 337.55Q778.16565 336.925 777.9625 336.675Q777.7594 336.425 777.4625 336.425Z" fill-rule="nonzero"/><path fill="#000000" d="M985.90936 339.05L985.1125 339.05L985.1125 334.0031Q984.83124 334.28436 984.3625 334.5656Q983.89374 334.83124 983.53436 334.95624L983.53436 334.1906Q984.1906 333.89374 984.6906 333.45624Q985.1906 333.0031 985.39374 332.58124L985.90936 332.58124L985.90936 339.05ZM987.925 335.8781Q987.925 334.7375 988.15936 334.03436Q988.39374 333.33124 988.84686 332.95624Q989.3156 332.58124 990.01874 332.58124Q990.55 332.58124 990.9406 332.8Q991.33124 333.0031 991.58124 333.39374Q991.83124 333.78436 991.97186 334.34686Q992.1281 334.90936 992.1281 335.8781Q992.1281 337.0031 991.89374 337.70624Q991.65936 338.39374 991.1906 338.78436Q990.7375 339.15936 990.01874 339.15936Q989.09686 339.15936 988.5656 338.4875Q987.925 337.6906 987.925 335.8781ZM988.7375 335.8781Q988.7375 337.45624 989.09686 337.9875Q989.47186 338.5031 990.01874 338.5031Q990.5656 338.5031 990.9406 337.9875Q991.3156 337.45624 991.3156 335.8781Q991.3156 334.28436 990.9406 333.76874Q990.5656 333.2375 990.01874 333.2375Q989.47186 333.2375 989.14374 333.6906Q988.7375 334.28436 988.7375 335.8781ZM992.925 335.8781Q992.925 334.7375 993.15936 334.03436Q993.39374 333.33124 993.84686 332.95624Q994.3156 332.58124 995.01874 332.58124Q995.55 332.58124 995.9406 332.8Q996.33124 333.0031 996.58124 333.39374Q996.83124 333.78436 996.97186 334.34686Q997.1281 334.90936 997.1281 335.8781Q997.1281 337.0031 996.89374 337.70624Q996.65936 338.39374 996.1906 338.78436Q995.7375 339.15936 995.01874 339.15936Q994.09686 339.15936 993.5656 338.4875Q992.925 337.6906 992.925 335.8781ZM993.7375 335.8781Q993.7375 337.45624 994.09686 337.9875Q994.47186 338.5031 995.01874 338.5031Q995.5656 338.5031 995.9406 337.9875Q996.3156 337.45624 996.3156 335.8781Q996.3156 334.28436 995.9406 333.76874Q995.5656 333.2375 995.01874 333.2375Q994.47186 333.2375 994.14374 333.6906Q993.7375 334.28436 993.7375 335.8781ZM998.0656 334.15936Q998.0656 333.47186 998.40936 332.9875Q998.76874 332.5031 999.425 332.5031Q1000.03436 332.5031 1000.425 332.9406Q1000.83124 333.3625 1000.83124 334.20624Q1000.83124 335.01874 1000.425 335.47186Q1000.01874 335.90936 999.4406 335.90936Q998.84686 335.90936 998.45624 335.47186Q998.0656 335.03436 998.0656 334.15936ZM999.45624 333.05Q999.15936 333.05 998.95624 333.3Q998.76874 333.55 998.76874 334.2375Q998.76874 334.84686 998.95624 335.1125Q999.15936 335.3625 999.45624 335.3625Q999.7531 335.3625 999.9406 335.1125Q1000.14374 334.84686 1000.14374 334.175Q1000.14374 333.55 999.9406 333.3Q999.7375 333.05 999.45624 333.05ZM999.45624 339.28436L1002.97186 332.5031L1003.6125 332.5031L1000.1125 339.28436L999.45624 339.28436ZM1002.2375 337.53436Q1002.2375 336.84686 1002.58124 336.3625Q1002.9406 335.8781 1003.59686 335.8781Q1004.20624 335.8781 1004.59686 336.3156Q1005.0031 336.7531 1005.0031 337.58124Q1005.0031 338.40936 1004.59686 338.84686Q1004.1906 339.28436 1003.59686 339.28436Q1003.01874 339.28436 1002.6281 338.84686Q1002.2375 338.40936 1002.2375 337.53436ZM1003.6125 336.425Q1003.3156 336.425 1003.1125 336.6906Q1002.925 336.9406 1002.925 337.6125Q1002.925 338.2375 1003.1281 338.4875Q1003.33124 338.7375 1003.6125 338.7375Q1003.925 338.7375 1004.1125 338.4875Q1004.3156 338.2375 1004.3156 337.55Q1004.3156 336.925 1004.1125 336.675Q1003.90936 336.425 1003.6125 336.425Z" fill-rule="nonzero"/><path fill="#757575" d="M432.98438 30.95L436.82812 20.934376L438.25 20.934376L442.35938 30.95L440.84375 30.95L439.67188 27.91875L435.48438 27.91875L434.39062 30.95L432.98438 30.95ZM435.875 26.840626L439.26562 26.840626L438.21875 24.059376Q437.75 22.79375 437.51562 21.98125Q437.32812 22.95 436.96875 23.8875L435.875 26.840626ZM442.70312 31.559376L443.89062 31.73125Q443.96875 32.278126 444.3125 32.54375Q444.76562 32.871876 445.5625 32.871876Q446.42188 32.871876 446.875 32.528126Q447.34375 32.2 447.51562 31.575Q447.60938 31.2 447.59375 29.996876Q446.79688 30.95 445.59375 30.95Q444.09375 30.95 443.26562 29.871876Q442.45312 28.79375 442.45312 27.278126Q442.45312 26.246876 442.82812 25.371876Q443.20312 24.48125 443.90625 24.0125Q444.625 23.528126 445.59375 23.528126Q446.875 23.528126 447.71875 24.559376L447.71875 23.684376L448.84375 23.684376L448.84375 29.965626Q448.84375 31.66875 448.5 32.371876Q448.15625 33.075 447.40625 33.48125Q446.65625 33.903126 445.5625 33.903126Q444.26562 33.903126 443.46875 33.309376Q442.67188 32.73125 442.70312 31.559376ZM443.71875 27.184376Q443.71875 28.621876 444.28125 29.278126Q444.84375 29.934376 445.70312 29.934376Q446.54688 29.934376 447.125 29.278126Q447.70312 28.621876 447.70312 27.23125Q447.70312 25.903126 447.10938 25.23125Q446.51562 24.54375 445.6875 24.54375Q444.85938 24.54375 444.28125 25.215626Q443.71875 25.871876 443.71875 27.184376ZM450.90625 30.95L450.90625 23.684376L452.01562 23.684376L452.01562 24.79375Q452.4375 24.0125 452.79688 23.778126Q453.15625 23.528126 453.59375 23.528126Q454.21875 23.528126 454.85938 23.91875L454.4375 25.059376Q453.98438 24.79375 453.53125 24.79375Q453.125 24.79375 452.79688 25.04375Q452.48438 25.278126 452.34375 25.715626Q452.14062 26.371876 452.14062 27.153126L452.14062 30.95L450.90625 30.95ZM460.89062 28.60625L462.17188 28.7625Q461.85938 29.8875 461.04688 30.5125Q460.23438 31.121876 458.96875 31.121876Q457.375 31.121876 456.4375 30.1375Q455.51562 29.153126 455.51562 27.3875Q455.51562 25.54375 456.45312 24.54375Q457.40625 23.528126 458.90625 23.528126Q460.35938 23.528126 461.28125 24.528126Q462.20312 25.5125 462.20312 27.309376Q462.20312 27.41875 462.20312 27.6375L456.78125 27.6375Q456.85938 28.825 457.45312 29.465626Q458.0625 30.10625 458.98438 30.10625Q459.65625 30.10625 460.125 29.746876Q460.60938 29.3875 460.89062 28.60625ZM456.85938 26.621876L460.90625 26.621876Q460.82812 25.7 460.4375 25.246876Q459.85938 24.54375 458.92188 24.54375Q458.0625 24.54375 457.48438 25.10625Q456.92188 25.66875 456.85938 26.621876ZM468.89062 28.60625L470.17188 28.7625Q469.85938 29.8875 469.04688 30.5125Q468.23438 31.121876 466.96875 31.121876Q465.375 31.121876 464.4375 30.1375Q463.51562 29.153126 463.51562 27.3875Q463.51562 25.54375 464.45312 24.54375Q465.40625 23.528126 466.90625 23.528126Q468.35938 23.528126 469.28125 24.528126Q470.20312 25.5125 470.20312 27.309376Q470.20312 27.41875 470.20312 27.6375L464.78125 27.6375Q464.85938 28.825 465.45312 29.465626Q466.0625 30.10625 466.98438 30.10625Q467.65625 30.10625 468.125 29.746876Q468.60938 29.3875 468.89062 28.60625ZM464.85938 26.621876L468.90625 26.621876Q468.82812 25.7 468.4375 25.246876Q467.85938 24.54375 466.92188 24.54375Q466.0625 24.54375 465.48438 25.10625Q464.92188 25.66875 464.85938 26.621876ZM471.92188 30.95L471.92188 23.684376L473.03125 23.684376L473.03125 24.715626Q473.35938 24.16875 473.92188 23.85625Q474.5 23.528126 475.21875 23.528126Q476.03125 23.528126 476.54688 23.871876Q477.0625 24.2 477.28125 24.79375Q478.14062 23.528126 479.51562 23.528126Q480.59375 23.528126 481.17188 24.121876Q481.76562 24.715626 481.76562 25.965626L481.76562 30.95L480.53125 30.95L480.53125 26.371876Q480.53125 25.6375 480.40625 25.309376Q480.29688 24.98125 479.98438 24.79375Q479.67188 24.590626 479.25 24.590626Q478.48438 24.590626 477.96875 25.10625Q477.46875 25.60625 477.46875 26.73125L477.46875 30.95L476.23438 30.95L476.23438 26.23125Q476.23438 25.41875 475.9375 25.0125Q475.64062 24.590626 474.95312 24.590626Q474.4375 24.590626 473.98438 24.871876Q473.54688 25.1375 473.34375 25.66875Q473.15625 26.184376 473.15625 27.184376L473.15625 30.95L471.92188 30.95ZM488.89062 28.60625L490.17188 28.7625Q489.85938 29.8875 489.04688 30.5125Q488.23438 31.121876 486.96875 31.121876Q485.375 31.121876 484.4375 30.1375Q483.51562 29.153126 483.51562 27.3875Q483.51562 25.54375 484.45312 24.54375Q485.40625 23.528126 486.90625 23.528126Q488.35938 23.528126 489.28125 24.528126Q490.20312 25.5125 490.20312 27.309376Q490.20312 27.41875 490.20312 27.6375L484.78125 27.6375Q484.85938 28.825 485.45312 29.465626Q486.0625 30.10625 486.98438 30.10625Q487.65625 30.10625 488.125 29.746876Q488.60938 29.3875 488.89062 28.60625ZM484.85938 26.621876L488.90625 26.621876Q488.82812 25.7 488.4375 25.246876Q487.85938 24.54375 486.92188 24.54375Q486.0625 24.54375 485.48438 25.10625Q484.92188 25.66875 484.85938 26.621876ZM491.92188 30.95L491.92188 23.684376L493.03125 23.684376L493.03125 24.715626Q493.82812 23.528126 495.34375 23.528126Q496.0 23.528126 496.54688 23.7625Q497.09375 23.996876 497.35938 24.3875Q497.64062 24.7625 497.75 25.29375Q497.82812 25.6375 497.82812 26.48125L497.82812 30.95L496.59375 30.95L496.59375 26.528126Q496.59375 25.778126 496.45312 25.41875Q496.3125 25.04375 495.9375 24.825Q495.57812 24.590626 495.07812 24.590626Q494.29688 24.590626 493.71875 25.090626Q493.15625 25.590626 493.15625 26.98125L493.15625 30.95L491.92188 30.95ZM502.60938 29.85625L502.78125 30.934376Q502.26562 31.04375 501.85938 31.04375Q501.1875 31.04375 500.8125 30.840626Q500.45312 30.621876 500.29688 30.278126Q500.15625 29.934376 500.15625 28.825L500.15625 24.653126L499.25 24.653126L499.25 23.684376L500.15625 23.684376L500.15625 21.8875L501.375 21.153126L501.375 23.684376L502.60938 23.684376L502.60938 24.653126L501.375 24.653126L501.375 28.8875Q501.375 29.41875 501.4375 29.575Q501.5 29.715626 501.64062 29.809376Q501.79688 29.903126 502.0625 29.903126Q502.28125 29.903126 502.60938 29.85625ZM509.0625 30.95L507.92188 30.95L507.92188 20.934376L509.14062 20.934376L509.14062 24.496876Q509.92188 23.528126 511.14062 23.528126Q511.8125 23.528126 512.40625 23.79375Q513.0 24.059376 513.3906 24.559376Q513.78125 25.04375 514.0 25.73125Q514.21875 26.41875 514.21875 27.215626Q514.21875 29.075 513.28125 30.10625Q512.3594 31.121876 511.07812 31.121876Q509.79688 31.121876 509.0625 30.04375L509.0625 30.95ZM509.04688 27.2625Q509.04688 28.575 509.40625 29.153126Q509.98438 30.10625 510.96875 30.10625Q511.78125 30.10625 512.3594 29.403126Q512.9531 28.7 512.9531 27.309376Q512.9531 25.8875 512.3906 25.215626Q511.82812 24.54375 511.03125 24.54375Q510.21875 24.54375 509.625 25.246876Q509.04688 25.934376 509.04688 27.2625ZM515.875 33.746876L515.7344 32.590626Q516.1406 32.7 516.4375 32.7Q516.84375 32.7 517.09375 32.559376Q517.34375 32.434376 517.5 32.184376Q517.6094 31.996876 517.875 31.2625Q517.90625 31.16875 517.9844 30.965626L515.21875 23.684376L516.5469 23.684376L518.0625 27.8875Q518.3594 28.7 518.59375 29.575Q518.7969 28.73125 519.09375 27.91875L520.6406 23.684376L521.875 23.684376L519.1094 31.075Q518.6719 32.2625 518.4219 32.715626Q518.09375 33.325 517.6719 33.60625Q517.25 33.903126 516.65625 33.903126Q516.3125 33.903126 515.875 33.746876ZM527.1094 30.95L527.1094 20.934376L534.3594 20.934376L534.3594 22.10625L528.4375 22.10625L528.4375 25.184376L533.9844 25.184376L533.9844 26.35625L528.4375 26.35625L528.4375 29.7625L534.59375 29.7625L534.59375 30.95L527.1094 30.95ZM538.6094 29.85625L538.78125 30.934376Q538.2656 31.04375 537.8594 31.04375Q537.1875 31.04375 536.8125 30.840626Q536.4531 30.621876 536.2969 30.278126Q536.15625 29.934376 536.15625 28.825L536.15625 24.653126L535.25 24.653126L535.25 23.684376L536.15625 23.684376L536.15625 21.8875L537.375 21.153126L537.375 23.684376L538.6094 23.684376L538.6094 24.653126L537.375 24.653126L537.375 28.8875Q537.375 29.41875 537.4375 29.575Q537.5 29.715626 537.6406 29.809376Q537.7969 29.903126 538.0625 29.903126Q538.28125 29.903126 538.6094 29.85625ZM539.9219 30.95L539.9219 20.934376L541.15625 20.934376L541.15625 24.528126Q542.0156 23.528126 543.3281 23.528126Q544.1406 23.528126 544.7344 23.85625Q545.3281 24.16875 545.5781 24.73125Q545.84375 25.278126 545.84375 26.35625L545.84375 30.95L544.6094 30.95L544.6094 26.35625Q544.6094 25.41875 544.2031 25.0125Q543.8125 24.590626 543.0781 24.590626Q542.53125 24.590626 542.0469 24.871876Q541.5625 25.153126 541.3594 25.6375Q541.15625 26.121876 541.15625 26.98125L541.15625 30.95L539.9219 30.95ZM547.9219 30.95L547.9219 23.684376L549.03125 23.684376L549.03125 24.715626Q549.8281 23.528126 551.34375 23.528126Q552.0 23.528126 552.5469 23.7625Q553.09375 23.996876 553.3594 24.3875Q553.6406 24.7625 553.75 25.29375Q553.8281 25.6375 553.8281 26.48125L553.8281 30.95L552.59375 30.95L552.59375 26.528126Q552.59375 25.778126 552.4531 25.41875Q552.3125 25.04375 551.9375 24.825Q551.5781 24.590626 551.0781 24.590626Q550.2969 24.590626 549.71875 25.090626Q549.15625 25.590626 549.15625 26.98125L549.15625 30.95L547.9219 30.95ZM555.9375 22.340626L555.9375 20.934376L557.15625 20.934376L557.15625 22.340626L555.9375 22.340626ZM555.9375 30.95L555.9375 23.684376L557.15625 23.684376L557.15625 30.95L555.9375 30.95ZM563.65625 28.29375L564.875 28.45Q564.6719 29.7 563.84375 30.41875Q563.03125 31.121876 561.84375 31.121876Q560.3594 31.121876 559.4531 30.153126Q558.5469 29.16875 558.5469 27.340626Q558.5469 26.16875 558.9375 25.29375Q559.3281 24.403126 560.125 23.965626Q560.9219 23.528126 561.8594 23.528126Q563.03125 23.528126 563.78125 24.121876Q564.5469 24.715626 564.75 25.825L563.5625 26.0125Q563.3906 25.278126 562.9531 24.91875Q562.5156 24.54375 561.90625 24.54375Q560.96875 24.54375 560.3906 25.215626Q559.8125 25.871876 559.8125 27.309376Q559.8125 28.778126 560.375 29.45Q560.9375 30.10625 561.8281 30.10625Q562.5625 30.10625 563.0469 29.66875Q563.53125 29.215626 563.65625 28.29375ZM565.9375 22.340626L565.9375 20.934376L567.15625 20.934376L567.15625 22.340626L565.9375 22.340626ZM565.9375 30.95L565.9375 23.684376L567.15625 23.684376L567.15625 30.95L565.9375 30.95ZM571.6094 29.85625L571.78125 30.934376Q571.2656 31.04375 570.8594 31.04375Q570.1875 31.04375 569.8125 30.840626Q569.4531 30.621876 569.2969 30.278126Q569.15625 29.934376 569.15625 28.825L569.15625 24.653126L568.25 24.653126L568.25 23.684376L569.15625 23.684376L569.15625 21.8875L570.375 21.153126L570.375 23.684376L571.6094 23.684376L571.6094 24.653126L570.375 24.653126L570.375 28.8875Q570.375 29.41875 570.4375 29.575Q570.5 29.715626 570.6406 29.809376Q570.7969 29.903126 571.0625 29.903126Q571.28125 29.903126 571.6094 29.85625ZM572.875 33.746876L572.7344 32.590626Q573.1406 32.7 573.4375 32.7Q573.84375 32.7 574.09375 32.559376Q574.34375 32.434376 574.5 32.184376Q574.6094 31.996876 574.875 31.2625Q574.90625 31.16875 574.9844 30.965626L572.21875 23.684376L573.5469 23.684376L575.0625 27.8875Q575.3594 28.7 575.59375 29.575Q575.7969 28.73125 576.09375 27.91875L577.6406 23.684376L578.875 23.684376L576.1094 31.075Q575.6719 32.2625 575.4219 32.715626Q575.09375 33.325 574.6719 33.60625Q574.25 33.903126 573.65625 33.903126Q573.3125 33.903126 572.875 33.746876Z" fill-rule="nonzero"/></svg>