<svg version="1.1" viewBox="0.0 0.0 1012.0 325.0" fill="none" stroke="none" stroke-linecap="square" stroke-miterlimit="10" width="1012" height="325" xmlns:xlink="http://www.w3.org/1999/xlink" xmlns="http://www.w3.org/2000/svg"><path fill="#ffffff" d="M0 0L1012.0 0L1012.0 325.0L0 325.0L0 0Z" fill-rule="nonzero"/><path stroke="#333333" stroke-width="1.0" stroke-linecap="butt" d="M90.5 43.5L90.5 268.5" fill-rule="nonzero"/><path stroke="#cccccc" stroke-width="1.0" stroke-linecap="butt" d="M317.5 43.5L317.5 268.5" fill-rule="nonzero"/><path stroke="#cccccc" stroke-width="1.0" stroke-linecap="butt" d="M543.5 43.5L543.5 268.5" fill-rule="nonzero"/><path stroke="#cccccc" stroke-width="1.0" stroke-linecap="butt" d="M769.5 43.5L769.5 268.5" fill-rule="nonzero"/><path stroke="#cccccc" stroke-width="1.0" stroke-linecap="butt" d="M995.5 43.5L995.5 268.5" fill-rule="nonzero"/><clipPath id="id_0"><path d="M90.75 43.083332L995.75 43.083332L995.75 268.41666L90.75 268.41666L90.75 43.083332Z" clip-rule="nonzero"/></clipPath><path stroke="#000000" stroke-width="0.0" stroke-linecap="butt" stroke-opacity="0.0" clip-path="url(#id_0)" d="M91.0 256.0L91.0 233.0L233.0 233.0L233.0 256.0Z" fill-rule="nonzero"/><path fill="#4285f4" clip-path="url(#id_0)" d="M91.0 256.0L91.0 233.0L233.0 233.0L233.0 256.0Z" fill-rule="nonzero"/><path stroke="#000000" stroke-width="0.0" stroke-linecap="butt" stroke-opacity="0.0" clip-path="url(#id_0)" d="M91.0 221.0L91.0 198.0L362.0 198.0L362.0 221.0Z" fill-rule="nonzero"/><path fill="#4285f4" clip-path="url(#id_0)" d="M91.0 221.0L91.0 198.0L362.0 198.0L362.0 221.0Z" fill-rule="nonzero"/><path stroke="#000000" stroke-width="0.0" stroke-linecap="butt" stroke-opacity="0.0" clip-path="url(#id_0)" d="M91.0 185.0L91.0 162.0L91.0 162.0L91.0 185.0Z" fill-rule="nonzero"/><path fill="#4285f4" clip-path="url(#id_0)" d="M91.0 185.0L91.0 162.0L91.0 162.0L91.0 185.0Z" fill-rule="nonzero"/><path stroke="#000000" stroke-width="0.0" stroke-linecap="butt" stroke-opacity="0.0" clip-path="url(#id_0)" d="M91.0 150.0L91.0 127.0L91.0 127.0L91.0 150.0Z" fill-rule="nonzero"/><path fill="#4285f4" clip-path="url(#id_0)" d="M91.0 150.0L91.0 127.0L91.0 127.0L91.0 150.0Z" fill-rule="nonzero"/><path stroke="#000000" stroke-width="0.0" stroke-linecap="butt" stroke-opacity="0.0" clip-path="url(#id_0)" d="M91.0 115.0L91.0 92.0L996.0 92.0L996.0 115.0Z" fill-rule="nonzero"/><path fill="#4285f4" clip-path="url(#id_0)" d="M91.0 115.0L91.0 92.0L996.0 92.0L996.0 115.0Z" fill-rule="nonzero"/><path stroke="#000000" stroke-width="0.0" stroke-linecap="butt" stroke-opacity="0.0" clip-path="url(#id_0)" d="M91.0 79.0L91.0 56.0L91.0 56.0L91.0 79.0Z" fill-rule="nonzero"/><path fill="#4285f4" clip-path="url(#id_0)" d="M91.0 79.0L91.0 56.0L91.0 56.0L91.0 79.0Z" fill-rule="nonzero"/><path stroke="#000000" stroke-width="0.0" stroke-linecap="butt" stroke-opacity="0.0" clip-path="url(#id_0)" d="M233.0 256.0L233.0 233.0L858.0 233.0L858.0 256.0Z" fill-rule="nonzero"/><path fill="#ea4335" clip-path="url(#id_0)" d="M233.0 256.0L233.0 233.0L858.0 233.0L858.0 256.0Z" fill-rule="nonzero"/><path stroke="#000000" stroke-width="0.0" stroke-linecap="butt" stroke-opacity="0.0" clip-path="url(#id_0)" d="M362.0 221.0L362.0 198.0L905.0 198.0L905.0 221.0Z" fill-rule="nonzero"/><path fill="#ea4335" clip-path="url(#id_0)" d="M362.0 221.0L362.0 198.0L905.0 198.0L905.0 221.0Z" fill-rule="nonzero"/><path stroke="#000000" stroke-width="0.0" stroke-linecap="butt" stroke-opacity="0.0" clip-path="url(#id_0)" d="M91.0 185.0L91.0 162.0L996.0 162.0L996.0 185.0Z" fill-rule="nonzero"/><path fill="#ea4335" clip-path="url(#id_0)" d="M91.0 185.0L91.0 162.0L996.0 162.0L996.0 185.0Z" fill-rule="nonzero"/><path stroke="#000000" stroke-width="0.0" stroke-linecap="butt" stroke-opacity="0.0" clip-path="url(#id_0)" d="M91.0 150.0L91.0 127.0L996.0 127.0L996.0 150.0Z" fill-rule="nonzero"/><path fill="#ea4335" clip-path="url(#id_0)" d="M91.0 150.0L91.0 127.0L996.0 127.0L996.0 150.0Z" fill-rule="nonzero"/><path stroke="#000000" stroke-width="0.0" stroke-linecap="butt" stroke-opacity="0.0" clip-path="url(#id_0)" d="M996.0 115.0L996.0 92.0L996.0 92.0L996.0 115.0Z" fill-rule="nonzero"/><path fill="#ea4335" clip-path="url(#id_0)" d="M996.0 115.0L996.0 92.0L996.0 92.0L996.0 115.0Z" fill-rule="nonzero"/><path stroke="#000000" stroke-width="0.0" stroke-linecap="butt" stroke-opacity="0.0" clip-path="url(#id_0)" d="M91.0 79.0L91.0 56.0L905.0 56.0L905.0 79.0Z" fill-rule="nonzero"/><path fill="#ea4335" clip-path="url(#id_0)" d="M91.0 79.0L91.0 56.0L905.0 56.0L905.0 79.0Z" fill-rule="nonzero"/><path stroke="#000000" stroke-width="0.0" stroke-linecap="butt" stroke-opacity="0.0" clip-path="url(#id_0)" d="M858.0 256.0L858.0 233.0L917.0 233.0L917.0 256.0Z" fill-rule="nonzero"/><path fill="#fbbc04" clip-path="url(#id_0)" d="M858.0 256.0L858.0 233.0L917.0 233.0L917.0 256.0Z" fill-rule="nonzero"/><path stroke="#000000" stroke-width="0.0" stroke-linecap="butt" stroke-opacity="0.0" clip-path="url(#id_0)" d="M905.0 221.0L905.0 198.0L905.0 198.0L905.0 221.0Z" fill-rule="nonzero"/><path fill="#fbbc04" clip-path="url(#id_0)" d="M905.0 221.0L905.0 198.0L905.0 198.0L905.0 221.0Z" fill-rule="nonzero"/><path stroke="#000000" stroke-width="0.0" stroke-linecap="butt" stroke-opacity="0.0" clip-path="url(#id_0)" d="M996.0 185.0L996.0 162.0L996.0 162.0L996.0 185.0Z" fill-rule="nonzero"/><path fill="#fbbc04" clip-path="url(#id_0)" d="M996.0 185.0L996.0 162.0L996.0 162.0L996.0 185.0Z" fill-rule="nonzero"/><path stroke="#000000" stroke-width="0.0" stroke-linecap="butt" stroke-opacity="0.0" clip-path="url(#id_0)" d="M996.0 150.0L996.0 127.0L996.0 127.0L996.0 150.0Z" fill-rule="nonzero"/><path fill="#fbbc04" clip-path="url(#id_0)" d="M996.0 150.0L996.0 127.0L996.0 127.0L996.0 150.0Z" fill-rule="nonzero"/><path stroke="#000000" stroke-width="0.0" stroke-linecap="butt" stroke-opacity="0.0" clip-path="url(#id_0)" d="M996.0 115.0L996.0 92.0L996.0 92.0L996.0 115.0Z" fill-rule="nonzero"/><path fill="#fbbc04" clip-path="url(#id_0)" d="M996.0 115.0L996.0 92.0L996.0 92.0L996.0 115.0Z" fill-rule="nonzero"/><path stroke="#000000" stroke-width="0.0" stroke-linecap="butt" stroke-opacity="0.0" clip-path="url(#id_0)" d="M905.0 79.0L905.0 56.0L905.0 56.0L905.0 79.0Z" fill-rule="nonzero"/><path fill="#fbbc04" clip-path="url(#id_0)" d="M905.0 79.0L905.0 56.0L905.0 56.0L905.0 79.0Z" fill-rule="nonzero"/><path stroke="#000000" stroke-width="0.0" stroke-linecap="butt" stroke-opacity="0.0" clip-path="url(#id_0)" d="M917.0 256.0L917.0 233.0L994.0 233.0C995.10455 233.0 996.0 233.89543 996.0 235.0L996.0 254.0C996.0 255.10457 995.10455 256.0 994.0 256.0Z" fill-rule="nonzero"/><path fill="#34a853" clip-path="url(#id_0)" d="M917.0 256.0L917.0 233.0L994.0 233.0C995.10455 233.0 996.0 233.89543 996.0 235.0L996.0 254.0C996.0 255.10457 995.10455 256.0 994.0 256.0Z" fill-rule="nonzero"/><path stroke="#000000" stroke-width="0.0" stroke-linecap="butt" stroke-opacity="0.0" clip-path="url(#id_0)" d="M905.0 221.0L905.0 198.0L994.0 198.0C995.10455 198.0 996.0 198.89543 996.0 200.0L996.0 219.0C996.0 220.10457 995.10455 221.0 994.0 221.0Z" fill-rule="nonzero"/><path fill="#34a853" clip-path="url(#id_0)" d="M905.0 221.0L905.0 198.0L994.0 198.0C995.10455 198.0 996.0 198.89543 996.0 200.0L996.0 219.0C996.0 220.10457 995.10455 221.0 994.0 221.0Z" fill-rule="nonzero"/><path stroke="#000000" stroke-width="0.0" stroke-linecap="butt" stroke-opacity="0.0" clip-path="url(#id_0)" d="M996.0 185.0L996.0 162.0L996.0 162.0L996.0 185.0Z" fill-rule="nonzero"/><path fill="#34a853" clip-path="url(#id_0)" d="M996.0 185.0L996.0 162.0L996.0 162.0L996.0 185.0Z" fill-rule="nonzero"/><path stroke="#000000" stroke-width="0.0" stroke-linecap="butt" stroke-opacity="0.0" clip-path="url(#id_0)" d="M996.0 150.0L996.0 127.0L996.0 127.0L996.0 150.0Z" fill-rule="nonzero"/><path fill="#34a853" clip-path="url(#id_0)" d="M996.0 150.0L996.0 127.0L996.0 127.0L996.0 150.0Z" fill-rule="nonzero"/><path stroke="#000000" stroke-width="0.0" stroke-linecap="butt" stroke-opacity="0.0" clip-path="url(#id_0)" d="M996.0 115.0L996.0 92.0L996.0 92.0L996.0 115.0Z" fill-rule="nonzero"/><path fill="#34a853" clip-path="url(#id_0)" d="M996.0 115.0L996.0 92.0L996.0 92.0L996.0 115.0Z" fill-rule="nonzero"/><path stroke="#000000" stroke-width="0.0" stroke-linecap="butt" stroke-opacity="0.0" clip-path="url(#id_0)" d="M905.0 79.0L905.0 56.0L994.0 56.0C995.10455 56.0 996.0 56.89543 996.0 58.0L996.0 77.0C996.0 78.10457 995.10455 79.0 994.0 79.0Z" fill-rule="nonzero"/><path fill="#34a853" clip-path="url(#id_0)" d="M905.0 79.0L905.0 56.0L994.0 56.0C995.10455 56.0 996.0 56.89543 996.0 58.0L996.0 77.0C996.0 78.10457 995.10455 79.0 994.0 79.0Z" fill-rule="nonzero"/><path fill="#000000" d="M66.921875 247.96391L66.921875 241.52641L68.203125 241.52641L69.71875 246.08891Q69.9375 246.71391 70.03125 247.04204Q70.140625 246.68266 70.375 246.01079L71.921875 241.52641L73.0625 241.52641L73.0625 247.96391L72.25 247.96391L72.25 242.57329L70.375 247.96391L69.609375 247.96391L67.734375 242.47954L67.734375 247.96391L66.921875 247.96391ZM77.890625 247.38579Q77.453125 247.76079 77.046875 247.91704Q76.640625 248.07329 76.171875 248.07329Q75.40625 248.07329 74.984375 247.69829Q74.578125 247.32329 74.578125 246.72954Q74.578125 246.38579 74.734375 246.10454Q74.890625 245.82329 75.140625 245.65141Q75.390625 245.47954 75.703125 245.38579Q75.9375 245.33891 76.40625 245.27641Q77.375 245.16704 77.828125 244.99516Q77.828125 244.83891 77.828125 244.79204Q77.828125 244.30766 77.609375 244.12016Q77.296875 243.83891 76.703125 243.83891Q76.140625 243.83891 75.875 244.04204Q75.609375 244.22954 75.484375 244.72954L74.71875 244.63579Q74.8125 244.13579 75.046875 243.83891Q75.296875 243.52641 75.75 243.37016Q76.21875 243.19829 76.8125 243.19829Q77.421875 243.19829 77.78125 243.33891Q78.15625 243.47954 78.328125 243.69829Q78.515625 243.90141 78.578125 244.22954Q78.625 244.43266 78.625 244.94829L78.625 246.01079Q78.625 247.10454 78.671875 247.40141Q78.71875 247.69829 78.875 247.96391L78.046875 247.96391Q77.921875 247.71391 77.890625 247.38579ZM77.828125 245.62016Q77.390625 245.79204 76.53125 245.91704Q76.046875 245.99516 75.84375 246.08891Q75.640625 246.16704 75.53125 246.33891Q75.421875 246.51079 75.421875 246.71391Q75.421875 247.02641 75.65625 247.24516Q75.890625 247.44829 76.359375 247.44829Q76.8125 247.44829 77.171875 247.24516Q77.53125 247.04204 77.703125 246.69829Q77.828125 246.43266 77.828125 245.91704L77.828125 245.62016ZM79.828125 247.96391L79.828125 241.52641L80.609375 241.52641L80.609375 247.96391L79.828125 247.96391ZM85.03125 246.46391L85.859375 246.55766Q85.65625 247.27641 85.125 247.68266Q84.609375 248.07329 83.796875 248.07329Q82.78125 248.07329 82.171875 247.44829Q81.578125 246.80766 81.578125 245.66704Q81.578125 244.49516 82.1875 243.85454Q82.796875 243.19829 83.765625 243.19829Q84.703125 243.19829 85.28125 243.83891Q85.875 244.46391 85.875 245.62016Q85.875 245.69829 85.875 245.83891L82.390625 245.83891Q82.4375 246.60454 82.828125 247.01079Q83.21875 247.41704 83.8125 247.41704Q84.25 247.41704 84.546875 247.19829Q84.859375 246.96391 85.03125 246.46391ZM82.4375 245.18266L85.046875 245.18266Q85.0 244.58891 84.75 244.29204Q84.375 243.83891 83.765625 243.83891Q83.21875 243.83891 82.84375 244.21391Q82.484375 244.57329 82.4375 245.18266Z" fill-rule="nonzero"/><path fill="#000000" d="M55.984375 212.47835L55.984375 206.04085L60.328125 206.04085L60.328125 206.79085L56.84375 206.79085L56.84375 208.79085L59.859375 208.79085L59.859375 209.55647L56.84375 209.55647L56.84375 212.47835L55.984375 212.47835ZM65.03125 210.97835L65.859375 211.0721Q65.65625 211.79085 65.125 212.1971Q64.609375 212.58772 63.796875 212.58772Q62.78125 212.58772 62.171875 211.96272Q61.578125 211.3221 61.578125 210.18147Q61.578125 209.0096 62.1875 208.36897Q62.796875 207.71272 63.765625 207.71272Q64.703125 207.71272 65.28125 208.35335Q65.875 208.97835 65.875 210.1346Q65.875 210.21272 65.875 210.35335L62.390625 210.35335Q62.4375 211.11897 62.828125 211.52522Q63.21875 211.93147 63.8125 211.93147Q64.25 211.93147 64.546875 211.71272Q64.859375 211.47835 65.03125 210.97835ZM62.4375 209.6971L65.046875 209.6971Q65.0 209.10335 64.75 208.80647Q64.375 208.35335 63.765625 208.35335Q63.21875 208.35335 62.84375 208.72835Q62.484375 209.08772 62.4375 209.6971ZM66.84375 212.47835L66.84375 207.80647L67.546875 207.80647L67.546875 208.46272Q67.765625 208.11897 68.125 207.91585Q68.5 207.71272 68.96875 207.71272Q69.484375 207.71272 69.8125 207.93147Q70.140625 208.1346 70.28125 208.52522Q70.84375 207.71272 71.71875 207.71272Q72.421875 207.71272 72.796875 208.10335Q73.171875 208.47835 73.171875 209.27522L73.171875 212.47835L72.375 212.47835L72.375 209.54085Q72.375 209.05647 72.296875 208.85335Q72.234375 208.65022 72.03125 208.52522Q71.828125 208.3846 71.546875 208.3846Q71.0625 208.3846 70.734375 208.71272Q70.40625 209.04085 70.40625 209.7596L70.40625 212.47835L69.609375 212.47835L69.609375 209.4471Q69.609375 208.91585 69.421875 208.65022Q69.234375 208.3846 68.796875 208.3846Q68.453125 208.3846 68.171875 208.5721Q67.890625 208.74397 67.765625 209.08772Q67.640625 209.41585 67.640625 210.05647L67.640625 212.47835L66.84375 212.47835ZM77.890625 211.90022Q77.453125 212.27522 77.046875 212.43147Q76.640625 212.58772 76.171875 212.58772Q75.40625 212.58772 74.984375 212.21272Q74.578125 211.83772 74.578125 211.24397Q74.578125 210.90022 74.734375 210.61897Q74.890625 210.33772 75.140625 210.16585Q75.390625 209.99397 75.703125 209.90022Q75.9375 209.85335 76.40625 209.79085Q77.375 209.68147 77.828125 209.5096Q77.828125 209.35335 77.828125 209.30647Q77.828125 208.8221 77.609375 208.6346Q77.296875 208.35335 76.703125 208.35335Q76.140625 208.35335 75.875 208.55647Q75.609375 208.74397 75.484375 209.24397L74.71875 209.15022Q74.8125 208.65022 75.046875 208.35335Q75.296875 208.04085 75.75 207.8846Q76.21875 207.71272 76.8125 207.71272Q77.421875 207.71272 77.78125 207.85335Q78.15625 207.99397 78.328125 208.21272Q78.515625 208.41585 78.578125 208.74397Q78.625 208.9471 78.625 209.46272L78.625 210.52522Q78.625 211.61897 78.671875 211.91585Q78.71875 212.21272 78.875 212.47835L78.046875 212.47835Q77.921875 212.22835 77.890625 211.90022ZM77.828125 210.1346Q77.390625 210.30647 76.53125 210.43147Q76.046875 210.5096 75.84375 210.60335Q75.640625 210.68147 75.53125 210.85335Q75.421875 211.02522 75.421875 211.22835Q75.421875 211.54085 75.65625 211.7596Q75.890625 211.96272 76.359375 211.96272Q76.8125 211.96272 77.171875 211.7596Q77.53125 211.55647 77.703125 211.21272Q77.828125 210.9471 77.828125 210.43147L77.828125 210.1346ZM79.828125 212.47835L79.828125 206.04085L80.609375 206.04085L80.609375 212.47835L79.828125 212.47835ZM85.03125 210.97835L85.859375 211.0721Q85.65625 211.79085 85.125 212.1971Q84.609375 212.58772 83.796875 212.58772Q82.78125 212.58772 82.171875 211.96272Q81.578125 211.3221 81.578125 210.18147Q81.578125 209.0096 82.1875 208.36897Q82.796875 207.71272 83.765625 207.71272Q84.703125 207.71272 85.28125 208.35335Q85.875 208.97835 85.875 210.1346Q85.875 210.21272 85.875 210.35335L82.390625 210.35335Q82.4375 211.11897 82.828125 211.52522Q83.21875 211.93147 83.8125 211.93147Q84.25 211.93147 84.546875 211.71272Q84.859375 211.47835 85.03125 210.97835ZM82.4375 209.6971L85.046875 209.6971Q85.0 209.10335 84.75 208.80647Q84.375 208.35335 83.765625 208.35335Q83.21875 208.35335 82.84375 208.72835Q82.484375 209.08772 82.4375 209.6971Z" fill-rule="nonzero"/><path fill="#000000" d="M36.578125 176.99278L36.578125 171.30528L34.46875 171.30528L34.46875 170.55528L39.5625 170.55528L39.5625 171.30528L37.4375 171.30528L37.4375 176.99278L36.578125 176.99278ZM40.828125 176.99278L40.828125 172.3209L41.546875 172.3209L41.546875 173.03966Q41.8125 172.53966 42.046875 172.3834Q42.28125 172.22716 42.5625 172.22716Q42.953125 172.22716 43.375 172.47716L43.09375 173.21153Q42.8125 173.03966 42.515625 173.03966Q42.265625 173.03966 42.046875 173.1959Q41.84375 173.35216 41.75 173.6334Q41.625 174.05528 41.625 174.55528L41.625 176.99278L40.828125 176.99278ZM46.890625 176.41466Q46.453125 176.78966 46.046875 176.9459Q45.640625 177.10216 45.171875 177.10216Q44.40625 177.10216 43.984375 176.72716Q43.578125 176.35216 43.578125 175.7584Q43.578125 175.41466 43.734375 175.1334Q43.890625 174.85216 44.140625 174.68028Q44.390625 174.5084 44.703125 174.41466Q44.9375 174.36778 45.40625 174.30528Q46.375 174.1959 46.828125 174.02403Q46.828125 173.86778 46.828125 173.8209Q46.828125 173.33653 46.609375 173.14903Q46.296875 172.86778 45.703125 172.86778Q45.140625 172.86778 44.875 173.0709Q44.609375 173.2584 44.484375 173.7584L43.71875 173.66466Q43.8125 173.16466 44.046875 172.86778Q44.296875 172.55528 44.75 172.39903Q45.21875 172.22716 45.8125 172.22716Q46.421875 172.22716 46.78125 172.36778Q47.15625 172.5084 47.328125 172.72716Q47.515625 172.93028 47.578125 173.2584Q47.625 173.46153 47.625 173.97716L47.625 175.03966Q47.625 176.1334 47.671875 176.43028Q47.71875 176.72716 47.875 176.99278L47.046875 176.99278Q46.921875 176.74278 46.890625 176.41466ZM46.828125 174.64903Q46.390625 174.8209 45.53125 174.9459Q45.046875 175.02403 44.84375 175.11778Q44.640625 175.1959 44.53125 175.36778Q44.421875 175.53966 44.421875 175.74278Q44.421875 176.05528 44.65625 176.27403Q44.890625 176.47716 45.359375 176.47716Q45.8125 176.47716 46.171875 176.27403Q46.53125 176.0709 46.703125 175.72716Q46.828125 175.46153 46.828125 174.9459L46.828125 174.64903ZM48.84375 176.99278L48.84375 172.3209L49.5625 172.3209L49.5625 172.99278Q50.0625 172.22716 51.046875 172.22716Q51.46875 172.22716 51.8125 172.3834Q52.171875 172.52403 52.34375 172.77403Q52.515625 173.0084 52.59375 173.35216Q52.640625 173.5709 52.640625 174.11778L52.640625 176.99278L51.84375 176.99278L51.84375 174.14903Q51.84375 173.66466 51.75 173.43028Q51.65625 173.1959 51.421875 173.05528Q51.1875 172.89903 50.875 172.89903Q50.375 172.89903 50.0 173.22716Q49.640625 173.53966 49.640625 174.4459L49.640625 176.99278L48.84375 176.99278ZM53.53125 175.60216L54.3125 175.47716Q54.375 175.9459 54.671875 176.1959Q54.984375 176.4459 55.515625 176.4459Q56.0625 176.4459 56.328125 176.22716Q56.59375 176.0084 56.59375 175.71153Q56.59375 175.43028 56.359375 175.28966Q56.1875 175.18028 55.546875 175.0084Q54.671875 174.78966 54.328125 174.6334Q54.0 174.47716 53.828125 174.1959Q53.65625 173.91466 53.65625 173.5709Q53.65625 173.2584 53.796875 172.99278Q53.9375 172.72716 54.1875 172.53966Q54.375 172.41466 54.6875 172.3209Q55.015625 172.22716 55.375 172.22716Q55.921875 172.22716 56.328125 172.3834Q56.75 172.53966 56.953125 172.80528Q57.15625 173.0709 57.234375 173.52403L56.453125 173.6334Q56.40625 173.27403 56.140625 173.0709Q55.890625 172.86778 55.4375 172.86778Q54.890625 172.86778 54.65625 173.05528Q54.421875 173.22716 54.421875 173.47716Q54.421875 173.6334 54.515625 173.74278Q54.609375 173.8834 54.828125 173.96153Q54.9375 174.0084 55.515625 174.16466Q56.359375 174.3834 56.6875 174.52403Q57.03125 174.66466 57.21875 174.9459Q57.40625 175.21153 57.40625 175.61778Q57.40625 176.02403 57.171875 176.36778Q56.9375 176.71153 56.5 176.91466Q56.078125 177.10216 55.515625 177.10216Q54.609375 177.10216 54.125 176.72716Q53.65625 176.33653 53.53125 175.60216ZM58.703125 177.3834L59.46875 177.49278Q59.515625 177.85216 59.734375 178.0084Q60.03125 178.22716 60.546875 178.22716Q61.09375 178.22716 61.390625 178.0084Q61.6875 177.78966 61.796875 177.39903Q61.859375 177.14903 61.84375 176.3834Q61.328125 176.99278 60.5625 176.99278Q59.59375 176.99278 59.0625 176.30528Q58.546875 175.60216 58.546875 174.6334Q58.546875 173.96153 58.78125 173.39903Q59.03125 172.83653 59.484375 172.53966Q59.9375 172.22716 60.5625 172.22716Q61.390625 172.22716 61.921875 172.8834L61.921875 172.3209L62.65625 172.3209L62.65625 176.35216Q62.65625 177.4459 62.421875 177.89903Q62.203125 178.35216 61.71875 178.61778Q61.25 178.8834 60.546875 178.8834Q59.703125 178.8834 59.1875 178.5084Q58.6875 178.1334 58.703125 177.3834ZM59.359375 174.5709Q59.359375 175.49278 59.71875 175.91466Q60.078125 176.33653 60.625 176.33653Q61.171875 176.33653 61.546875 175.91466Q61.921875 175.49278 61.921875 174.60216Q61.921875 173.74278 61.53125 173.30528Q61.15625 172.86778 60.625 172.86778Q60.09375 172.86778 59.71875 173.30528Q59.359375 173.72716 59.359375 174.5709ZM67.03125 175.49278L67.859375 175.58653Q67.65625 176.30528 67.125 176.71153Q66.609375 177.10216 65.796875 177.10216Q64.78125 177.10216 64.171875 176.47716Q63.578125 175.83653 63.578125 174.6959Q63.578125 173.52403 64.1875 172.8834Q64.796875 172.22716 65.765625 172.22716Q66.703125 172.22716 67.28125 172.86778Q67.875 173.49278 67.875 174.64903Q67.875 174.72716 67.875 174.86778L64.390625 174.86778Q64.4375 175.6334 64.828125 176.03966Q65.21875 176.4459 65.8125 176.4459Q66.25 176.4459 66.546875 176.22716Q66.859375 175.99278 67.03125 175.49278ZM64.4375 174.21153L67.046875 174.21153Q67.0 173.61778 66.75 173.3209Q66.375 172.86778 65.765625 172.86778Q65.21875 172.86778 64.84375 173.24278Q64.484375 173.60216 64.4375 174.21153ZM68.84375 176.99278L68.84375 172.3209L69.5625 172.3209L69.5625 172.99278Q70.0625 172.22716 71.046875 172.22716Q71.46875 172.22716 71.8125 172.3834Q72.171875 172.52403 72.34375 172.77403Q72.515625 173.0084 72.59375 173.35216Q72.640625 173.5709 72.640625 174.11778L72.640625 176.99278L71.84375 176.99278L71.84375 174.14903Q71.84375 173.66466 71.75 173.43028Q71.65625 173.1959 71.421875 173.05528Q71.1875 172.89903 70.875 172.89903Q70.375 172.89903 70.0 173.22716Q69.640625 173.53966 69.640625 174.4459L69.640625 176.99278L68.84375 176.99278ZM76.875 176.99278L76.875 176.39903Q76.421875 177.10216 75.5625 177.10216Q75.015625 177.10216 74.546875 176.78966Q74.078125 176.47716 73.8125 175.93028Q73.5625 175.3834 73.5625 174.66466Q73.5625 173.96153 73.796875 173.39903Q74.03125 172.8209 74.484375 172.52403Q74.953125 172.22716 75.53125 172.22716Q75.953125 172.22716 76.28125 172.39903Q76.609375 172.5709 76.8125 172.86778L76.8125 170.55528L77.609375 170.55528L77.609375 176.99278L76.875 176.99278ZM74.375 174.66466Q74.375 175.55528 74.75 176.0084Q75.125 176.4459 75.640625 176.4459Q76.15625 176.4459 76.515625 176.02403Q76.890625 175.60216 76.890625 174.72716Q76.890625 173.77403 76.515625 173.3209Q76.140625 172.86778 75.609375 172.86778Q75.078125 172.86778 74.71875 173.30528Q74.375 173.74278 74.375 174.66466ZM82.03125 175.49278L82.859375 175.58653Q82.65625 176.30528 82.125 176.71153Q81.609375 177.10216 80.796875 177.10216Q79.78125 177.10216 79.171875 176.47716Q78.578125 175.83653 78.578125 174.6959Q78.578125 173.52403 79.1875 172.8834Q79.796875 172.22716 80.765625 172.22716Q81.703125 172.22716 82.28125 172.86778Q82.875 173.49278 82.875 174.64903Q82.875 174.72716 82.875 174.86778L79.390625 174.86778Q79.4375 175.6334 79.828125 176.03966Q80.21875 176.4459 80.8125 176.4459Q81.25 176.4459 81.546875 176.22716Q81.859375 175.99278 82.03125 175.49278ZM79.4375 174.21153L82.046875 174.21153Q82.0 173.61778 81.75 173.3209Q81.375 172.86778 80.765625 172.86778Q80.21875 172.86778 79.84375 173.24278Q79.484375 173.60216 79.4375 174.21153ZM83.828125 176.99278L83.828125 172.3209L84.546875 172.3209L84.546875 173.03966Q84.8125 172.53966 85.046875 172.3834Q85.28125 172.22716 85.5625 172.22716Q85.953125 172.22716 86.375 172.47716L86.09375 173.21153Q85.8125 173.03966 85.515625 173.03966Q85.265625 173.03966 85.046875 173.1959Q84.84375 173.35216 84.75 173.6334Q84.625 174.05528 84.625 174.55528L84.625 176.99278L83.828125 176.99278Z" fill-rule="nonzero"/><path fill="#000000" d="M41.9375 141.50722L41.9375 135.06972L42.8125 135.06972L46.1875 140.1166L46.1875 135.06972L47.015625 135.06972L47.015625 141.50722L46.140625 141.50722L42.75 136.44472L42.75 141.50722L41.9375 141.50722ZM48.546875 139.1791Q48.546875 137.88222 49.265625 137.25722Q49.875 136.7416 50.734375 136.7416Q51.703125 136.7416 52.3125 137.3666Q52.921875 137.9916 52.921875 139.10097Q52.921875 140.00722 52.640625 140.52284Q52.375 141.03847 51.859375 141.33534Q51.34375 141.6166 50.734375 141.6166Q49.75 141.6166 49.140625 140.9916Q48.546875 140.35097 48.546875 139.1791ZM49.359375 139.1791Q49.359375 140.06972 49.75 140.52284Q50.140625 140.96034 50.734375 140.96034Q51.328125 140.96034 51.71875 140.52284Q52.109375 140.06972 52.109375 139.14784Q52.109375 138.28847 51.71875 137.83534Q51.328125 137.38222 50.734375 137.38222Q50.140625 137.38222 49.75 137.83534Q49.359375 138.27284 49.359375 139.1791ZM53.84375 141.50722L53.84375 136.83534L54.5625 136.83534L54.5625 137.50722Q55.0625 136.7416 56.046875 136.7416Q56.46875 136.7416 56.8125 136.89784Q57.171875 137.03847 57.34375 137.28847Q57.515625 137.52284 57.59375 137.8666Q57.640625 138.08534 57.640625 138.63222L57.640625 141.50722L56.84375 141.50722L56.84375 138.66347Q56.84375 138.1791 56.75 137.94472Q56.65625 137.71034 56.421875 137.56972Q56.1875 137.41347 55.875 137.41347Q55.375 137.41347 55.0 137.7416Q54.640625 138.0541 54.640625 138.96034L54.640625 141.50722L53.84375 141.50722ZM58.53125 139.56972L58.53125 138.77284L60.96875 138.77284L60.96875 139.56972L58.53125 139.56972ZM62.578125 141.50722L61.84375 141.50722L61.84375 135.06972L62.625 135.06972L62.625 137.3666Q63.125 136.7416 63.90625 136.7416Q64.34375 136.7416 64.71875 136.91347Q65.109375 137.08534 65.359375 137.39784Q65.609375 137.71034 65.75 138.16347Q65.890625 138.60097 65.890625 139.10097Q65.890625 140.3041 65.296875 140.96034Q64.703125 141.6166 63.875 141.6166Q63.046875 141.6166 62.578125 140.9291L62.578125 141.50722ZM62.5625 139.13222Q62.5625 139.97597 62.796875 140.35097Q63.171875 140.96034 63.796875 140.96034Q64.328125 140.96034 64.703125 140.50722Q65.078125 140.0541 65.078125 139.16347Q65.078125 138.25722 64.71875 137.81972Q64.359375 137.38222 63.84375 137.38222Q63.3125 137.38222 62.9375 137.83534Q62.5625 138.28847 62.5625 139.13222ZM66.84375 135.97597L66.84375 135.06972L67.640625 135.06972L67.640625 135.97597L66.84375 135.97597ZM66.84375 141.50722L66.84375 136.83534L67.640625 136.83534L67.640625 141.50722L66.84375 141.50722ZM68.84375 141.50722L68.84375 136.83534L69.5625 136.83534L69.5625 137.50722Q70.0625 136.7416 71.046875 136.7416Q71.46875 136.7416 71.8125 136.89784Q72.171875 137.03847 72.34375 137.28847Q72.515625 137.52284 72.59375 137.8666Q72.640625 138.08534 72.640625 138.63222L72.640625 141.50722L71.84375 141.50722L71.84375 138.66347Q71.84375 138.1791 71.75 137.94472Q71.65625 137.71034 71.421875 137.56972Q71.1875 137.41347 70.875 137.41347Q70.375 137.41347 70.0 137.7416Q69.640625 138.0541 69.640625 138.96034L69.640625 141.50722L68.84375 141.50722ZM76.890625 140.9291Q76.453125 141.3041 76.046875 141.46034Q75.640625 141.6166 75.171875 141.6166Q74.40625 141.6166 73.984375 141.2416Q73.578125 140.8666 73.578125 140.27284Q73.578125 139.9291 73.734375 139.64784Q73.890625 139.3666 74.140625 139.19472Q74.390625 139.02284 74.703125 138.9291Q74.9375 138.88222 75.40625 138.81972Q76.375 138.71034 76.828125 138.53847Q76.828125 138.38222 76.828125 138.33534Q76.828125 137.85097 76.609375 137.66347Q76.296875 137.38222 75.703125 137.38222Q75.140625 137.38222 74.875 137.58534Q74.609375 137.77284 74.484375 138.27284L73.71875 138.1791Q73.8125 137.6791 74.046875 137.38222Q74.296875 137.06972 74.75 136.91347Q75.21875 136.7416 75.8125 136.7416Q76.421875 136.7416 76.78125 136.88222Q77.15625 137.02284 77.328125 137.2416Q77.515625 137.44472 77.578125 137.77284Q77.625 137.97597 77.625 138.4916L77.625 139.5541Q77.625 140.64784 77.671875 140.94472Q77.71875 141.2416 77.875 141.50722L77.046875 141.50722Q76.921875 141.25722 76.890625 140.9291ZM76.828125 139.16347Q76.390625 139.33534 75.53125 139.46034Q75.046875 139.53847 74.84375 139.63222Q74.640625 139.71034 74.53125 139.88222Q74.421875 140.0541 74.421875 140.25722Q74.421875 140.56972 74.65625 140.78847Q74.890625 140.9916 75.359375 140.9916Q75.8125 140.9916 76.171875 140.78847Q76.53125 140.58534 76.703125 140.2416Q76.828125 139.97597 76.828125 139.46034L76.828125 139.16347ZM78.828125 141.50722L78.828125 136.83534L79.546875 136.83534L79.546875 137.5541Q79.8125 137.0541 80.046875 136.89784Q80.28125 136.7416 80.5625 136.7416Q80.953125 136.7416 81.375 136.9916L81.09375 137.72597Q80.8125 137.5541 80.515625 137.5541Q80.265625 137.5541 80.046875 137.71034Q79.84375 137.8666 79.75 138.14784Q79.625 138.56972 79.625 139.06972L79.625 141.50722L78.828125 141.50722ZM81.8125 143.3041L81.71875 142.56972Q81.984375 142.63222 82.171875 142.63222Q82.4375 142.63222 82.59375 142.53847Q82.75 142.46034 82.859375 142.3041Q82.921875 142.1791 83.09375 141.71034Q83.125 141.64784 83.171875 141.52284L81.390625 136.83534L82.25 136.83534L83.21875 139.53847Q83.40625 140.0541 83.5625 140.6166Q83.6875 140.08534 83.875 139.5541L84.875 136.83534L85.671875 136.83534L83.890625 141.58534Q83.609375 142.35097 83.453125 142.64784Q83.234375 143.03847 82.96875 143.21034Q82.703125 143.39784 82.3125 143.39784Q82.09375 143.39784 81.8125 143.3041Z" fill-rule="nonzero"/><path fill="#000000" d="M66.984375 106.02165L66.984375 99.58415L71.328125 99.58415L71.328125 100.33415L67.84375 100.33415L67.84375 102.33415L70.859375 102.33415L70.859375 103.09978L67.84375 103.09978L67.84375 106.02165L66.984375 106.02165ZM72.828125 106.02165L72.828125 99.58415L73.609375 99.58415L73.609375 106.02165L72.828125 106.02165ZM77.90625 106.02165L77.90625 105.33415Q77.359375 106.13103 76.421875 106.13103Q76.015625 106.13103 75.65625 105.97478Q75.296875 105.8029 75.109375 105.56853Q74.9375 105.33415 74.875 104.9904Q74.828125 104.75603 74.828125 104.2404L74.828125 101.34978L75.609375 101.34978L75.609375 103.94353Q75.609375 104.56853 75.671875 104.77165Q75.734375 105.08415 75.96875 105.27165Q76.21875 105.44353 76.578125 105.44353Q76.9375 105.44353 77.25 105.27165Q77.5625 105.08415 77.6875 104.77165Q77.8125 104.45915 77.8125 103.84978L77.8125 101.34978L78.609375 101.34978L78.609375 106.02165L77.90625 106.02165ZM79.84375 100.4904L79.84375 99.58415L80.640625 99.58415L80.640625 100.4904L79.84375 100.4904ZM79.84375 106.02165L79.84375 101.34978L80.640625 101.34978L80.640625 106.02165L79.84375 106.02165ZM84.875 106.02165L84.875 105.4279Q84.421875 106.13103 83.5625 106.13103Q83.015625 106.13103 82.546875 105.81853Q82.078125 105.50603 81.8125 104.95915Q81.5625 104.41228 81.5625 103.69353Q81.5625 102.9904 81.796875 102.4279Q82.03125 101.84978 82.484375 101.5529Q82.953125 101.25603 83.53125 101.25603Q83.953125 101.25603 84.28125 101.4279Q84.609375 101.59978 84.8125 101.89665L84.8125 99.58415L85.609375 99.58415L85.609375 106.02165L84.875 106.02165ZM82.375 103.69353Q82.375 104.58415 82.75 105.03728Q83.125 105.47478 83.640625 105.47478Q84.15625 105.47478 84.515625 105.0529Q84.890625 104.63103 84.890625 103.75603Q84.890625 102.8029 84.515625 102.34978Q84.140625 101.89665 83.609375 101.89665Q83.078125 101.89665 82.71875 102.33415Q82.375 102.77165 82.375 103.69353Z" fill-rule="nonzero"/><path fill="#000000" d="M16.9375 70.53609L16.9375 64.09859L19.375 64.09859Q20.015625 64.09859 20.359375 64.16109Q20.828125 64.23921 21.140625 64.45796Q21.46875 64.67671 21.65625 65.08296Q21.859375 65.47359 21.859375 65.95796Q21.859375 66.78609 21.328125 67.34859Q20.8125 67.91109 19.453125 67.91109L17.796875 67.91109L17.796875 70.53609L16.9375 70.53609ZM17.796875 67.16109L19.46875 67.16109Q20.28125 67.16109 20.625 66.84859Q20.984375 66.53609 20.984375 65.98921Q20.984375 65.58296 20.78125 65.30171Q20.578125 65.00484 20.234375 64.91109Q20.03125 64.84859 19.4375 64.84859L17.796875 64.84859L17.796875 67.16109ZM22.828125 70.53609L22.828125 65.86421L23.546875 65.86421L23.546875 66.58296Q23.8125 66.08296 24.046875 65.92671Q24.28125 65.77046 24.5625 65.77046Q24.953125 65.77046 25.375 66.02046L25.09375 66.75484Q24.8125 66.58296 24.515625 66.58296Q24.265625 66.58296 24.046875 66.73921Q23.84375 66.89546 23.75 67.17671Q23.625 67.59859 23.625 68.09859L23.625 70.53609L22.828125 70.53609ZM29.03125 69.03609L29.859375 69.12984Q29.65625 69.84859 29.125 70.25484Q28.609375 70.64546 27.796875 70.64546Q26.78125 70.64546 26.171875 70.02046Q25.578125 69.37984 25.578125 68.23921Q25.578125 67.06734 26.1875 66.42671Q26.796875 65.77046 27.765625 65.77046Q28.703125 65.77046 29.28125 66.41109Q29.875 67.03609 29.875 68.19234Q29.875 68.27046 29.875 68.41109L26.390625 68.41109Q26.4375 69.17671 26.828125 69.58296Q27.21875 69.98921 27.8125 69.98921Q28.25 69.98921 28.546875 69.77046Q28.859375 69.53609 29.03125 69.03609ZM26.4375 67.75484L29.046875 67.75484Q29.0 67.16109 28.75 66.86421Q28.375 66.41109 27.765625 66.41109Q27.21875 66.41109 26.84375 66.78609Q26.484375 67.14546 26.4375 67.75484ZM31.03125 70.53609L31.03125 66.48921L30.328125 66.48921L30.328125 65.86421L31.03125 65.86421L31.03125 65.37984Q31.03125 64.89546 31.109375 64.67671Q31.234375 64.36421 31.515625 64.17671Q31.8125 63.989212 32.328125 63.989212Q32.65625 63.989212 33.0625 64.06734L32.9375 64.75484Q32.703125 64.70796 32.484375 64.70796Q32.125 64.70796 31.96875 64.86421Q31.8125 65.02046 31.8125 65.44234L31.8125 65.86421L32.734375 65.86421L32.734375 66.48921L31.8125 66.48921L31.8125 70.53609L31.03125 70.53609ZM37.03125 69.03609L37.859375 69.12984Q37.65625 69.84859 37.125 70.25484Q36.609375 70.64546 35.796875 70.64546Q34.78125 70.64546 34.171875 70.02046Q33.578125 69.37984 33.578125 68.23921Q33.578125 67.06734 34.1875 66.42671Q34.796875 65.77046 35.765625 65.77046Q36.703125 65.77046 37.28125 66.41109Q37.875 67.03609 37.875 68.19234Q37.875 68.27046 37.875 68.41109L34.390625 68.41109Q34.4375 69.17671 34.828125 69.58296Q35.21875 69.98921 35.8125 69.98921Q36.25 69.98921 36.546875 69.77046Q36.859375 69.53609 37.03125 69.03609ZM34.4375 67.75484L37.046875 67.75484Q37.0 67.16109 36.75 66.86421Q36.375 66.41109 35.765625 66.41109Q35.21875 66.41109 34.84375 66.78609Q34.484375 67.14546 34.4375 67.75484ZM38.828125 70.53609L38.828125 65.86421L39.546875 65.86421L39.546875 66.58296Q39.8125 66.08296 40.046875 65.92671Q40.28125 65.77046 40.5625 65.77046Q40.953125 65.77046 41.375 66.02046L41.09375 66.75484Q40.8125 66.58296 40.515625 66.58296Q40.265625 66.58296 40.046875 66.73921Q39.84375 66.89546 39.75 67.17671Q39.625 67.59859 39.625 68.09859L39.625 70.53609L38.828125 70.53609ZM44.84375 70.53609L44.84375 65.86421L45.5625 65.86421L45.5625 66.53609Q46.0625 65.77046 47.046875 65.77046Q47.46875 65.77046 47.8125 65.92671Q48.171875 66.06734 48.34375 66.31734Q48.515625 66.55171 48.59375 66.89546Q48.640625 67.11421 48.640625 67.66109L48.640625 70.53609L47.84375 70.53609L47.84375 67.69234Q47.84375 67.20796 47.75 66.97359Q47.65625 66.73921 47.421875 66.59859Q47.1875 66.44234 46.875 66.44234Q46.375 66.44234 46.0 66.77046Q45.640625 67.08296 45.640625 67.98921L45.640625 70.53609L44.84375 70.53609ZM49.546875 68.20796Q49.546875 66.91109 50.265625 66.28609Q50.875 65.77046 51.734375 65.77046Q52.703125 65.77046 53.3125 66.39546Q53.921875 67.02046 53.921875 68.12984Q53.921875 69.03609 53.640625 69.55171Q53.375 70.06734 52.859375 70.36421Q52.34375 70.64546 51.734375 70.64546Q50.75 70.64546 50.140625 70.02046Q49.546875 69.37984 49.546875 68.20796ZM50.359375 68.20796Q50.359375 69.09859 50.75 69.55171Q51.140625 69.98921 51.734375 69.98921Q52.328125 69.98921 52.71875 69.55171Q53.109375 69.09859 53.109375 68.17671Q53.109375 67.31734 52.71875 66.86421Q52.328125 66.41109 51.734375 66.41109Q51.140625 66.41109 50.75 66.86421Q50.359375 67.30171 50.359375 68.20796ZM56.578125 69.83296L56.6875 70.52046Q56.34375 70.59859 56.09375 70.59859Q55.65625 70.59859 55.421875 70.45796Q55.1875 70.31734 55.078125 70.09859Q54.984375 69.87984 54.984375 69.17671L54.984375 66.48921L54.40625 66.48921L54.40625 65.86421L54.984375 65.86421L54.984375 64.70796L55.78125 64.23921L55.78125 65.86421L56.578125 65.86421L56.578125 66.48921L55.78125 66.48921L55.78125 69.20796Q55.78125 69.55171 55.8125 69.64546Q55.859375 69.73921 55.953125 69.80171Q56.046875 69.86421 56.21875 69.86421Q56.359375 69.86421 56.578125 69.83296ZM62.578125 69.83296L62.6875 70.52046Q62.34375 70.59859 62.09375 70.59859Q61.65625 70.59859 61.421875 70.45796Q61.1875 70.31734 61.078125 70.09859Q60.984375 69.87984 60.984375 69.17671L60.984375 66.48921L60.40625 66.48921L60.40625 65.86421L60.984375 65.86421L60.984375 64.70796L61.78125 64.23921L61.78125 65.86421L62.578125 65.86421L62.578125 66.48921L61.78125 66.48921L61.78125 69.20796Q61.78125 69.55171 61.8125 69.64546Q61.859375 69.73921 61.953125 69.80171Q62.046875 69.86421 62.21875 69.86421Q62.359375 69.86421 62.578125 69.83296ZM63.546875 68.20796Q63.546875 66.91109 64.265625 66.28609Q64.875 65.77046 65.734375 65.77046Q66.703125 65.77046 67.3125 66.39546Q67.921875 67.02046 67.921875 68.12984Q67.921875 69.03609 67.640625 69.55171Q67.375 70.06734 66.859375 70.36421Q66.34375 70.64546 65.734375 70.64546Q64.75 70.64546 64.140625 70.02046Q63.546875 69.37984 63.546875 68.20796ZM64.359375 68.20796Q64.359375 69.09859 64.75 69.55171Q65.140625 69.98921 65.734375 69.98921Q66.328125 69.98921 66.71875 69.55171Q67.109375 69.09859 67.109375 68.17671Q67.109375 67.31734 66.71875 66.86421Q66.328125 66.41109 65.734375 66.41109Q65.140625 66.41109 64.75 66.86421Q64.359375 67.30171 64.359375 68.20796ZM71.53125 69.14546L72.3125 69.02046Q72.375 69.48921 72.671875 69.73921Q72.984375 69.98921 73.515625 69.98921Q74.0625 69.98921 74.328125 69.77046Q74.59375 69.55171 74.59375 69.25484Q74.59375 68.97359 74.359375 68.83296Q74.1875 68.72359 73.546875 68.55171Q72.671875 68.33296 72.328125 68.17671Q72.0 68.02046 71.828125 67.73921Q71.65625 67.45796 71.65625 67.11421Q71.65625 66.80171 71.796875 66.53609Q71.9375 66.27046 72.1875 66.08296Q72.375 65.95796 72.6875 65.86421Q73.015625 65.77046 73.375 65.77046Q73.921875 65.77046 74.328125 65.92671Q74.75 66.08296 74.953125 66.34859Q75.15625 66.61421 75.234375 67.06734L74.453125 67.17671Q74.40625 66.81734 74.140625 66.61421Q73.890625 66.41109 73.4375 66.41109Q72.890625 66.41109 72.65625 66.59859Q72.421875 66.77046 72.421875 67.02046Q72.421875 67.17671 72.515625 67.28609Q72.609375 67.42671 72.828125 67.50484Q72.9375 67.55171 73.515625 67.70796Q74.359375 67.92671 74.6875 68.06734Q75.03125 68.20796 75.21875 68.48921Q75.40625 68.75484 75.40625 69.16109Q75.40625 69.56734 75.171875 69.91109Q74.9375 70.25484 74.5 70.45796Q74.078125 70.64546 73.515625 70.64546Q72.609375 70.64546 72.125 70.27046Q71.65625 69.87984 71.53125 69.14546ZM79.890625 69.95796Q79.453125 70.33296 79.046875 70.48921Q78.640625 70.64546 78.171875 70.64546Q77.40625 70.64546 76.984375 70.27046Q76.578125 69.89546 76.578125 69.30171Q76.578125 68.95796 76.734375 68.67671Q76.890625 68.39546 77.140625 68.22359Q77.390625 68.05171 77.703125 67.95796Q77.9375 67.91109 78.40625 67.84859Q79.375 67.73921 79.828125 67.56734Q79.828125 67.41109 79.828125 67.36421Q79.828125 66.87984 79.609375 66.69234Q79.296875 66.41109 78.703125 66.41109Q78.140625 66.41109 77.875 66.61421Q77.609375 66.80171 77.484375 67.30171L76.71875 67.20796Q76.8125 66.70796 77.046875 66.41109Q77.296875 66.09859 77.75 65.94234Q78.21875 65.77046 78.8125 65.77046Q79.421875 65.77046 79.78125 65.91109Q80.15625 66.05171 80.328125 66.27046Q80.515625 66.47359 80.578125 66.80171Q80.625 67.00484 80.625 67.52046L80.625 68.58296Q80.625 69.67671 80.671875 69.97359Q80.71875 70.27046 80.875 70.53609L80.046875 70.53609Q79.921875 70.28609 79.890625 69.95796ZM79.828125 68.19234Q79.390625 68.36421 78.53125 68.48921Q78.046875 68.56734 77.84375 68.66109Q77.640625 68.73921 77.53125 68.91109Q77.421875 69.08296 77.421875 69.28609Q77.421875 69.59859 77.65625 69.81734Q77.890625 70.02046 78.359375 70.02046Q78.8125 70.02046 79.171875 69.81734Q79.53125 69.61421 79.703125 69.27046Q79.828125 69.00484 79.828125 68.48921L79.828125 68.19234ZM81.8125 72.33296L81.71875 71.59859Q81.984375 71.66109 82.171875 71.66109Q82.4375 71.66109 82.59375 71.56734Q82.75 71.48921 82.859375 71.33296Q82.921875 71.20796 83.09375 70.73921Q83.125 70.67671 83.171875 70.55171L81.390625 65.86421L82.25 65.86421L83.21875 68.56734Q83.40625 69.08296 83.5625 69.64546Q83.6875 69.11421 83.875 68.58296L84.875 65.86421L85.671875 65.86421L83.890625 70.61421Q83.609375 71.37984 83.453125 71.67671Q83.234375 72.06734 82.96875 72.23921Q82.703125 72.42671 82.3125 72.42671Q82.09375 72.42671 81.8125 72.33296Z" fill-rule="nonzero"/><path fill="#000000" d="M84.625 278.74478Q84.625 277.60416 84.859375 276.90103Q85.09375 276.1979 85.546875 275.8229Q86.015625 275.4479 86.71875 275.4479Q87.25 275.4479 87.640625 275.66666Q88.03125 275.86978 88.28125 276.2604Q88.53125 276.65103 88.671875 277.21353Q88.828125 277.77603 88.828125 278.74478Q88.828125 279.86978 88.59375 280.5729Q88.359375 281.2604 87.890625 281.65103Q87.4375 282.02603 86.71875 282.02603Q85.796875 282.02603 85.265625 281.35416Q84.625 280.55728 84.625 278.74478ZM85.4375 278.74478Q85.4375 280.3229 85.796875 280.85416Q86.171875 281.36978 86.71875 281.36978Q87.265625 281.36978 87.640625 280.85416Q88.015625 280.3229 88.015625 278.74478Q88.015625 277.15103 87.640625 276.6354Q87.265625 276.10416 86.71875 276.10416Q86.171875 276.10416 85.84375 276.55728Q85.4375 277.15103 85.4375 278.74478ZM89.765625 277.02603Q89.765625 276.33853 90.109375 275.85416Q90.46875 275.36978 91.125 275.36978Q91.734375 275.36978 92.125 275.80728Q92.53125 276.22916 92.53125 277.0729Q92.53125 277.8854 92.125 278.33853Q91.71875 278.77603 91.140625 278.77603Q90.546875 278.77603 90.15625 278.33853Q89.765625 277.90103 89.765625 277.02603ZM91.15625 275.91666Q90.859375 275.91666 90.65625 276.16666Q90.46875 276.41666 90.46875 277.10416Q90.46875 277.71353 90.65625 277.97916Q90.859375 278.22916 91.15625 278.22916Q91.453125 278.22916 91.640625 277.97916Q91.84375 277.71353 91.84375 277.04166Q91.84375 276.41666 91.640625 276.16666Q91.4375 275.91666 91.15625 275.91666ZM91.15625 282.15103L94.671875 275.36978L95.3125 275.36978L91.8125 282.15103L91.15625 282.15103ZM93.9375 280.40103Q93.9375 279.71353 94.28125 279.22916Q94.640625 278.74478 95.296875 278.74478Q95.90625 278.74478 96.296875 279.18228Q96.703125 279.61978 96.703125 280.4479Q96.703125 281.27603 96.296875 281.71353Q95.890625 282.15103 95.296875 282.15103Q94.71875 282.15103 94.328125 281.71353Q93.9375 281.27603 93.9375 280.40103ZM95.3125 279.29166Q95.015625 279.29166 94.8125 279.55728Q94.625 279.80728 94.625 280.47916Q94.625 281.10416 94.828125 281.35416Q95.03125 281.60416 95.3125 281.60416Q95.625 281.60416 95.8125 281.35416Q96.015625 281.10416 96.015625 280.41666Q96.015625 279.79166 95.8125 279.54166Q95.609375 279.29166 95.3125 279.29166Z" fill-rule="nonzero"/><path fill="#000000" d="M312.53125 281.15103L312.53125 281.91666L308.26562 281.91666Q308.26562 281.6354 308.35938 281.36978Q308.53125 280.93228 308.89062 280.5104Q309.25 280.08853 309.92188 279.54166Q310.96875 278.66666 311.32812 278.16666Q311.70312 277.66666 311.70312 277.21353Q311.70312 276.74478 311.35938 276.43228Q311.03125 276.10416 310.5 276.10416Q309.92188 276.10416 309.57812 276.4479Q309.23438 276.79166 309.23438 277.40103L308.42188 277.30728Q308.5 276.40103 309.04688 275.93228Q309.59375 275.4479 310.51562 275.4479Q311.4375 275.4479 311.96875 275.96353Q312.51562 276.47916 312.51562 277.22916Q312.51562 277.61978 312.35938 277.99478Q312.20312 278.36978 311.82812 278.79166Q311.46875 279.1979 310.625 279.91666Q309.90625 280.5104 309.70312 280.72916Q309.5 280.9479 309.375 281.15103L312.53125 281.15103ZM313.375 280.22916L314.20312 280.15103Q314.29688 280.7604 314.625 281.0729Q314.96875 281.36978 315.4375 281.36978Q316.01562 281.36978 316.40625 280.9479Q316.8125 280.5104 316.8125 279.80728Q316.8125 279.11978 316.42188 278.72916Q316.04688 278.33853 315.4375 278.33853Q315.04688 278.33853 314.73438 278.52603Q314.4375 278.6979 314.25 278.96353L313.51562 278.86978L314.14062 275.55728L317.34375 275.55728L317.34375 276.3229L314.76562 276.3229L314.42188 278.04166Q315.0 277.65103 315.64062 277.65103Q316.48438 277.65103 317.0625 278.22916Q317.64062 278.80728 317.64062 279.72916Q317.64062 280.60416 317.14062 281.24478Q316.51562 282.02603 315.4375 282.02603Q314.5625 282.02603 314.0 281.54166Q313.45312 281.04166 313.375 280.22916ZM318.51562 277.02603Q318.51562 276.33853 318.85938 275.85416Q319.21875 275.36978 319.875 275.36978Q320.48438 275.36978 320.875 275.80728Q321.28125 276.22916 321.28125 277.0729Q321.28125 277.8854 320.875 278.33853Q320.46875 278.77603 319.89062 278.77603Q319.29688 278.77603 318.90625 278.33853Q318.51562 277.90103 318.51562 277.02603ZM319.90625 275.91666Q319.60938 275.91666 319.40625 276.16666Q319.21875 276.41666 319.21875 277.10416Q319.21875 277.71353 319.40625 277.97916Q319.60938 278.22916 319.90625 278.22916Q320.20312 278.22916 320.39062 277.97916Q320.59375 277.71353 320.59375 277.04166Q320.59375 276.41666 320.39062 276.16666Q320.1875 275.91666 319.90625 275.91666ZM319.90625 282.15103L323.42188 275.36978L324.0625 275.36978L320.5625 282.15103L319.90625 282.15103ZM322.6875 280.40103Q322.6875 279.71353 323.03125 279.22916Q323.39062 278.74478 324.04688 278.74478Q324.65625 278.74478 325.04688 279.18228Q325.45312 279.61978 325.45312 280.4479Q325.45312 281.27603 325.04688 281.71353Q324.64062 282.15103 324.04688 282.15103Q323.46875 282.15103 323.07812 281.71353Q322.6875 281.27603 322.6875 280.40103ZM324.0625 279.29166Q323.76562 279.29166 323.5625 279.55728Q323.375 279.80728 323.375 280.47916Q323.375 281.10416 323.57812 281.35416Q323.78125 281.60416 324.0625 281.60416Q324.375 281.60416 324.5625 281.35416Q324.76562 281.10416 324.76562 280.41666Q324.76562 279.79166 324.5625 279.54166Q324.35938 279.29166 324.0625 279.29166Z" fill-rule="nonzero"/><path fill="#000000" d="M534.625 280.22916L535.4531 280.15103Q535.5469 280.7604 535.875 281.0729Q536.21875 281.36978 536.6875 281.36978Q537.2656 281.36978 537.65625 280.9479Q538.0625 280.5104 538.0625 279.80728Q538.0625 279.11978 537.6719 278.72916Q537.2969 278.33853 536.6875 278.33853Q536.2969 278.33853 535.9844 278.52603Q535.6875 278.6979 535.5 278.96353L534.7656 278.86978L535.3906 275.55728L538.59375 275.55728L538.59375 276.3229L536.0156 276.3229L535.6719 278.04166Q536.25 277.65103 536.8906 277.65103Q537.7344 277.65103 538.3125 278.22916Q538.8906 278.80728 538.8906 279.72916Q538.8906 280.60416 538.3906 281.24478Q537.7656 282.02603 536.6875 282.02603Q535.8125 282.02603 535.25 281.54166Q534.7031 281.04166 534.625 280.22916ZM539.625 278.74478Q539.625 277.60416 539.8594 276.90103Q540.09375 276.1979 540.5469 275.8229Q541.0156 275.4479 541.71875 275.4479Q542.25 275.4479 542.6406 275.66666Q543.03125 275.86978 543.28125 276.2604Q543.53125 276.65103 543.6719 277.21353Q543.8281 277.77603 543.8281 278.74478Q543.8281 279.86978 543.59375 280.5729Q543.3594 281.2604 542.8906 281.65103Q542.4375 282.02603 541.71875 282.02603Q540.7969 282.02603 540.2656 281.35416Q539.625 280.55728 539.625 278.74478ZM540.4375 278.74478Q540.4375 280.3229 540.7969 280.85416Q541.1719 281.36978 541.71875 281.36978Q542.2656 281.36978 542.6406 280.85416Q543.0156 280.3229 543.0156 278.74478Q543.0156 277.15103 542.6406 276.6354Q542.2656 276.10416 541.71875 276.10416Q541.1719 276.10416 540.84375 276.55728Q540.4375 277.15103 540.4375 278.74478ZM544.7656 277.02603Q544.7656 276.33853 545.1094 275.85416Q545.46875 275.36978 546.125 275.36978Q546.7344 275.36978 547.125 275.80728Q547.53125 276.22916 547.53125 277.0729Q547.53125 277.8854 547.125 278.33853Q546.71875 278.77603 546.1406 278.77603Q545.5469 278.77603 545.15625 278.33853Q544.7656 277.90103 544.7656 277.02603ZM546.15625 275.91666Q545.8594 275.91666 545.65625 276.16666Q545.46875 276.41666 545.46875 277.10416Q545.46875 277.71353 545.65625 277.97916Q545.8594 278.22916 546.15625 278.22916Q546.4531 278.22916 546.6406 277.97916Q546.84375 277.71353 546.84375 277.04166Q546.84375 276.41666 546.6406 276.16666Q546.4375 275.91666 546.15625 275.91666ZM546.15625 282.15103L549.6719 275.36978L550.3125 275.36978L546.8125 282.15103L546.15625 282.15103ZM548.9375 280.40103Q548.9375 279.71353 549.28125 279.22916Q549.6406 278.74478 550.2969 278.74478Q550.90625 278.74478 551.2969 279.18228Q551.7031 279.61978 551.7031 280.4479Q551.7031 281.27603 551.2969 281.71353Q550.8906 282.15103 550.2969 282.15103Q549.71875 282.15103 549.3281 281.71353Q548.9375 281.27603 548.9375 280.40103ZM550.3125 279.29166Q550.0156 279.29166 549.8125 279.55728Q549.625 279.80728 549.625 280.47916Q549.625 281.10416 549.8281 281.35416Q550.03125 281.60416 550.3125 281.60416Q550.625 281.60416 550.8125 281.35416Q551.0156 281.10416 551.0156 280.41666Q551.0156 279.79166 550.8125 279.54166Q550.6094 279.29166 550.3125 279.29166Z" fill-rule="nonzero"/><path fill="#000000" d="M760.9219 276.3229L760.9219 275.55728L765.09375 275.55728L765.09375 276.16666Q764.4844 276.8229 763.875 277.91666Q763.2656 278.99478 762.9375 280.15103Q762.7031 280.9479 762.6406 281.91666L761.8281 281.91666Q761.84375 281.15103 762.125 280.08853Q762.40625 279.0104 762.9375 278.0104Q763.4844 277.0104 764.0781 276.3229L760.9219 276.3229ZM765.875 280.22916L766.7031 280.15103Q766.7969 280.7604 767.125 281.0729Q767.46875 281.36978 767.9375 281.36978Q768.5156 281.36978 768.90625 280.9479Q769.3125 280.5104 769.3125 279.80728Q769.3125 279.11978 768.9219 278.72916Q768.5469 278.33853 767.9375 278.33853Q767.5469 278.33853 767.2344 278.52603Q766.9375 278.6979 766.75 278.96353L766.0156 278.86978L766.6406 275.55728L769.84375 275.55728L769.84375 276.3229L767.2656 276.3229L766.9219 278.04166Q767.5 277.65103 768.1406 277.65103Q768.9844 277.65103 769.5625 278.22916Q770.1406 278.80728 770.1406 279.72916Q770.1406 280.60416 769.6406 281.24478Q769.0156 282.02603 767.9375 282.02603Q767.0625 282.02603 766.5 281.54166Q765.9531 281.04166 765.875 280.22916ZM771.0156 277.02603Q771.0156 276.33853 771.3594 275.85416Q771.71875 275.36978 772.375 275.36978Q772.9844 275.36978 773.375 275.80728Q773.78125 276.22916 773.78125 277.0729Q773.78125 277.8854 773.375 278.33853Q772.96875 278.77603 772.3906 278.77603Q771.7969 278.77603 771.40625 278.33853Q771.0156 277.90103 771.0156 277.02603ZM772.40625 275.91666Q772.1094 275.91666 771.90625 276.16666Q771.71875 276.41666 771.71875 277.10416Q771.71875 277.71353 771.90625 277.97916Q772.1094 278.22916 772.40625 278.22916Q772.7031 278.22916 772.8906 277.97916Q773.09375 277.71353 773.09375 277.04166Q773.09375 276.41666 772.8906 276.16666Q772.6875 275.91666 772.40625 275.91666ZM772.40625 282.15103L775.9219 275.36978L776.5625 275.36978L773.0625 282.15103L772.40625 282.15103ZM775.1875 280.40103Q775.1875 279.71353 775.53125 279.22916Q775.8906 278.74478 776.5469 278.74478Q777.15625 278.74478 777.5469 279.18228Q777.9531 279.61978 777.9531 280.4479Q777.9531 281.27603 777.5469 281.71353Q777.1406 282.15103 776.5469 282.15103Q775.96875 282.15103 775.5781 281.71353Q775.1875 281.27603 775.1875 280.40103ZM776.5625 279.29166Q776.2656 279.29166 776.0625 279.55728Q775.875 279.80728 775.875 280.47916Q775.875 281.10416 776.0781 281.35416Q776.28125 281.60416 776.5625 281.60416Q776.875 281.60416 777.0625 281.35416Q777.2656 281.10416 777.2656 280.41666Q777.2656 279.79166 777.0625 279.54166Q776.8594 279.29166 776.5625 279.29166Z" fill-rule="nonzero"/><path fill="#000000" d="M987.6094 281.91666L986.8125 281.91666L986.8125 276.86978Q986.53125 277.15103 986.0625 277.43228Q985.59375 277.6979 985.2344 277.8229L985.2344 277.05728Q985.8906 276.7604 986.3906 276.3229Q986.8906 275.86978 987.09375 275.4479L987.6094 275.4479L987.6094 281.91666ZM989.625 278.74478Q989.625 277.60416 989.8594 276.90103Q990.09375 276.1979 990.5469 275.8229Q991.0156 275.4479 991.71875 275.4479Q992.25 275.4479 992.6406 275.66666Q993.03125 275.86978 993.28125 276.2604Q993.53125 276.65103 993.6719 277.21353Q993.8281 277.77603 993.8281 278.74478Q993.8281 279.86978 993.59375 280.5729Q993.3594 281.2604 992.8906 281.65103Q992.4375 282.02603 991.71875 282.02603Q990.7969 282.02603 990.2656 281.35416Q989.625 280.55728 989.625 278.74478ZM990.4375 278.74478Q990.4375 280.3229 990.7969 280.85416Q991.1719 281.36978 991.71875 281.36978Q992.2656 281.36978 992.6406 280.85416Q993.0156 280.3229 993.0156 278.74478Q993.0156 277.15103 992.6406 276.6354Q992.2656 276.10416 991.71875 276.10416Q991.1719 276.10416 990.84375 276.55728Q990.4375 277.15103 990.4375 278.74478ZM994.625 278.74478Q994.625 277.60416 994.8594 276.90103Q995.09375 276.1979 995.5469 275.8229Q996.0156 275.4479 996.71875 275.4479Q997.25 275.4479 997.6406 275.66666Q998.03125 275.86978 998.28125 276.2604Q998.53125 276.65103 998.6719 277.21353Q998.8281 277.77603 998.8281 278.74478Q998.8281 279.86978 998.59375 280.5729Q998.3594 281.2604 997.8906 281.65103Q997.4375 282.02603 996.71875 282.02603Q995.7969 282.02603 995.2656 281.35416Q994.625 280.55728 994.625 278.74478ZM995.4375 278.74478Q995.4375 280.3229 995.7969 280.85416Q996.1719 281.36978 996.71875 281.36978Q997.2656 281.36978 997.6406 280.85416Q998.0156 280.3229 998.0156 278.74478Q998.0156 277.15103 997.6406 276.6354Q997.2656 276.10416 996.71875 276.10416Q996.1719 276.10416 995.84375 276.55728Q995.4375 277.15103 995.4375 278.74478ZM999.7656 277.02603Q999.7656 276.33853 1000.1094 275.85416Q1000.46875 275.36978 1001.125 275.36978Q1001.7344 275.36978 1002.125 275.80728Q1002.53125 276.22916 1002.53125 277.0729Q1002.53125 277.8854 1002.125 278.33853Q1001.71875 278.77603 1001.1406 278.77603Q1000.5469 278.77603 1000.15625 278.33853Q999.7656 277.90103 999.7656 277.02603ZM1001.15625 275.91666Q1000.8594 275.91666 1000.65625 276.16666Q1000.46875 276.41666 1000.46875 277.10416Q1000.46875 277.71353 1000.65625 277.97916Q1000.8594 278.22916 1001.15625 278.22916Q1001.4531 278.22916 1001.6406 277.97916Q1001.84375 277.71353 1001.84375 277.04166Q1001.84375 276.41666 1001.6406 276.16666Q1001.4375 275.91666 1001.15625 275.91666ZM1001.15625 282.15103L1004.6719 275.36978L1005.3125 275.36978L1001.8125 282.15103L1001.15625 282.15103ZM1003.9375 280.40103Q1003.9375 279.71353 1004.28125 279.22916Q1004.6406 278.74478 1005.2969 278.74478Q1005.90625 278.74478 1006.2969 279.18228Q1006.7031 279.61978 1006.7031 280.4479Q1006.7031 281.27603 1006.2969 281.71353Q1005.8906 282.15103 1005.2969 282.15103Q1004.71875 282.15103 1004.3281 281.71353Q1003.9375 281.27603 1003.9375 280.40103ZM1005.3125 279.29166Q1005.0156 279.29166 1004.8125 279.55728Q1004.625 279.80728 1004.625 280.47916Q1004.625 281.10416 1004.8281 281.35416Q1005.03125 281.60416 1005.3125 281.60416Q1005.625 281.60416 1005.8125 281.35416Q1006.0156 281.10416 1006.0156 280.41666Q1006.0156 279.79166 1005.8125 279.54166Q1005.6094 279.29166 1005.3125 279.29166Z" fill-rule="nonzero"/><path fill="#4285f4" d="M376.0 296.75C376.0 296.19772 376.44772 295.75 377.0 295.75L387.0 295.75C387.55228 295.75 388.0 296.19772 388.0 296.75L388.0 306.75C388.0 307.30228 387.55228 307.75 387.0 307.75L377.0 307.75C376.44772 307.75 376.0 307.30228 376.0 306.75Z" fill-rule="nonzero"/><path fill="#1a1a1a" d="M399.34375 305.75L399.34375 302.10938L396.03125 297.15625L397.42188 297.15625L399.10938 299.75Q399.57812 300.46875 399.98438 301.20312Q400.375 300.53125 400.92188 299.6875L402.59375 297.15625L403.90625 297.15625L400.48438 302.10938L400.48438 305.75L399.34375 305.75ZM409.04688 303.75L410.14062 303.875Q409.89062 304.82812 409.1875 305.35938Q408.48438 305.89062 407.40625 305.89062Q406.04688 305.89062 405.23438 305.04688Q404.4375 304.20312 404.4375 302.6875Q404.4375 301.125 405.25 300.26562Q406.0625 299.39062 407.34375 299.39062Q408.59375 299.39062 409.375 300.23438Q410.17188 301.07812 410.17188 302.625Q410.17188 302.71875 410.17188 302.90625L405.53125 302.90625Q405.59375 303.9375 406.10938 304.48438Q406.625 305.01562 407.40625 305.01562Q407.98438 305.01562 408.39062 304.71875Q408.8125 304.40625 409.04688 303.75ZM405.59375 302.04688L409.0625 302.04688Q409.0 301.25 408.67188 300.85938Q408.15625 300.25 407.35938 300.25Q406.625 300.25 406.125 300.73438Q405.64062 301.21875 405.59375 302.04688ZM411.375 303.89062L412.40625 303.73438Q412.5 304.35938 412.89062 304.6875Q413.29688 305.01562 414.03125 305.01562Q414.75 305.01562 415.09375 304.73438Q415.45312 304.4375 415.45312 304.03125Q415.45312 303.67188 415.14062 303.46875Q414.92188 303.32812 414.0625 303.10938Q412.90625 302.8125 412.45312 302.60938Q412.01562 302.39062 411.78125 302.01562Q411.54688 301.64062 411.54688 301.17188Q411.54688 300.76562 411.73438 300.40625Q411.92188 300.04688 412.25 299.8125Q412.5 299.64062 412.92188 299.51562Q413.34375 299.39062 413.84375 299.39062Q414.5625 299.39062 415.10938 299.60938Q415.67188 299.8125 415.9375 300.17188Q416.20312 300.53125 416.29688 301.125L415.26562 301.26562Q415.20312 300.79688 414.85938 300.53125Q414.53125 300.25 413.90625 300.25Q413.1875 300.25 412.875 300.5Q412.5625 300.73438 412.5625 301.0625Q412.5625 301.26562 412.6875 301.42188Q412.82812 301.59375 413.09375 301.70312Q413.25 301.76562 414.03125 301.96875Q415.15625 302.28125 415.59375 302.46875Q416.03125 302.65625 416.28125 303.01562Q416.53125 303.375 416.53125 303.92188Q416.53125 304.45312 416.21875 304.92188Q415.92188 305.375 415.34375 305.64062Q414.76562 305.89062 414.03125 305.89062Q412.8125 305.89062 412.17188 305.39062Q411.54688 304.875 411.375 303.89062Z" fill-rule="nonzero"/><path fill="#ea4335" d="M433.0 296.75C433.0 296.19772 433.44772 295.75 434.0 295.75L444.0 295.75C444.55228 295.75 445.0 296.19772 445.0 296.75L445.0 306.75C445.0 307.30228 444.55228 307.75 444.0 307.75L434.0 307.75C433.44772 307.75 433.0 307.30228 433.0 306.75Z" fill-rule="nonzero"/><path fill="#1a1a1a" d="M453.92188 305.75L453.92188 297.15625L455.07812 297.15625L459.59375 303.90625L459.59375 297.15625L460.6875 297.15625L460.6875 305.75L459.51562 305.75L455.0 299.0L455.0 305.75L453.92188 305.75ZM462.40625 302.64062Q462.40625 300.90625 463.35938 300.07812Q464.15625 299.39062 465.3125 299.39062Q466.59375 299.39062 467.40625 300.23438Q468.23438 301.0625 468.23438 302.54688Q468.23438 303.75 467.875 304.4375Q467.51562 305.125 466.8125 305.51562Q466.125 305.89062 465.3125 305.89062Q464.01562 305.89062 463.20312 305.0625Q462.40625 304.21875 462.40625 302.64062ZM463.48438 302.64062Q463.48438 303.82812 464.0 304.42188Q464.53125 305.01562 465.3125 305.01562Q466.10938 305.01562 466.625 304.42188Q467.14062 303.82812 467.14062 302.60938Q467.14062 301.45312 466.60938 300.85938Q466.09375 300.26562 465.3125 300.26562Q464.53125 300.26562 464.0 300.85938Q463.48438 301.4375 463.48438 302.64062Z" fill-rule="nonzero"/><path fill="#fbbc04" d="M485.0 296.75C485.0 296.19772 485.44772 295.75 486.0 295.75L496.0 295.75C496.55228 295.75 497.0 296.19772 497.0 296.75L497.0 306.75C497.0 307.30228 496.55228 307.75 496.0 307.75L486.0 307.75C485.44772 307.75 485.0 307.30228 485.0 306.75Z" fill-rule="nonzero"/><path fill="#1a1a1a" d="M505.89062 305.75L505.89062 297.15625L507.60938 297.15625L509.64062 303.23438Q509.92188 304.09375 510.04688 304.51562Q510.1875 304.04688 510.5 303.14062L512.5625 297.15625L514.09375 297.15625L514.09375 305.75L513.0 305.75L513.0 298.5625L510.5 305.75L509.46875 305.75L506.98438 298.4375L506.98438 305.75L505.89062 305.75ZM519.8594 304.98438Q519.2656 305.48438 518.71875 305.6875Q518.1875 305.89062 517.5625 305.89062Q516.53125 305.89062 515.9844 305.39062Q515.4375 304.89062 515.4375 304.10938Q515.4375 303.65625 515.6406 303.28125Q515.84375 302.89062 516.1875 302.67188Q516.53125 302.4375 516.9531 302.32812Q517.25 302.23438 517.8906 302.15625Q519.15625 302.01562 519.7656 301.79688Q519.7656 301.57812 519.7656 301.53125Q519.7656 300.875 519.46875 300.60938Q519.0625 300.26562 518.2656 300.26562Q517.53125 300.26562 517.1719 300.53125Q516.8125 300.78125 516.6406 301.4375L515.6094 301.29688Q515.75 300.64062 516.0781 300.23438Q516.40625 299.82812 517.0156 299.60938Q517.625 299.39062 518.4219 299.39062Q519.21875 299.39062 519.71875 299.57812Q520.21875 299.76562 520.4531 300.04688Q520.6875 300.32812 520.78125 300.76562Q520.8281 301.03125 520.8281 301.73438L520.8281 303.14062Q520.8281 304.60938 520.8906 305.0Q520.96875 305.39062 521.1719 305.75L520.0625 305.75Q519.90625 305.42188 519.8594 304.98438ZM519.7656 302.625Q519.1875 302.85938 518.0469 303.03125Q517.3906 303.125 517.125 303.25Q516.8594 303.35938 516.7031 303.57812Q516.5625 303.79688 516.5625 304.07812Q516.5625 304.5 516.875 304.78125Q517.2031 305.0625 517.8125 305.0625Q518.4219 305.0625 518.8906 304.79688Q519.375 304.53125 519.59375 304.0625Q519.7656 303.70312 519.7656 303.01562L519.7656 302.625ZM522.75 308.14062L522.625 307.15625Q522.96875 307.25 523.2344 307.25Q523.5781 307.25 523.78125 307.125Q524.0 307.01562 524.1406 306.8125Q524.2344 306.64062 524.46875 306.01562Q524.4844 305.9375 524.5625 305.76562L522.1875 299.53125L523.3281 299.53125L524.625 303.125Q524.875 303.8125 525.0781 304.57812Q525.2656 303.84375 525.5156 303.15625L526.84375 299.53125L527.8906 299.53125L525.53125 305.85938Q525.1406 306.875 524.9375 307.26562Q524.65625 307.79688 524.28125 308.03125Q523.9219 308.28125 523.4219 308.28125Q523.125 308.28125 522.75 308.14062ZM529.7656 305.75L528.78125 305.75L528.78125 297.15625L529.84375 297.15625L529.84375 300.21875Q530.5156 299.39062 531.5469 299.39062Q532.125 299.39062 532.625 299.625Q533.1406 299.84375 533.46875 300.26562Q533.8125 300.6875 534.0 301.28125Q534.1875 301.875 534.1875 302.54688Q534.1875 304.14062 533.3906 305.01562Q532.59375 305.89062 531.5 305.89062Q530.3906 305.89062 529.7656 304.96875L529.7656 305.75ZM529.75 302.59375Q529.75 303.70312 530.0625 304.20312Q530.5625 305.01562 531.40625 305.01562Q532.09375 305.01562 532.59375 304.42188Q533.1094 303.82812 533.1094 302.625Q533.1094 301.40625 532.625 300.82812Q532.1406 300.25 531.4531 300.25Q530.7656 300.25 530.25 300.85938Q529.75 301.45312 529.75 302.59375ZM540.0469 303.75L541.1406 303.875Q540.8906 304.82812 540.1875 305.35938Q539.4844 305.89062 538.40625 305.89062Q537.0469 305.89062 536.2344 305.04688Q535.4375 304.20312 535.4375 302.6875Q535.4375 301.125 536.25 300.26562Q537.0625 299.39062 538.34375 299.39062Q539.59375 299.39062 540.375 300.23438Q541.1719 301.07812 541.1719 302.625Q541.1719 302.71875 541.1719 302.90625L536.53125 302.90625Q536.59375 303.9375 537.1094 304.48438Q537.625 305.01562 538.40625 305.01562Q538.9844 305.01562 539.3906 304.71875Q539.8125 304.40625 540.0469 303.75ZM536.59375 302.04688L540.0625 302.04688Q540.0 301.25 539.6719 300.85938Q539.15625 300.25 538.3594 300.25Q537.625 300.25 537.125 300.73438Q536.6406 301.21875 536.59375 302.04688Z" fill-rule="nonzero"/><path fill="#34a853" d="M558.0 296.75C558.0 296.19772 558.4477 295.75 559.0 295.75L569.0 295.75C569.5523 295.75 570.0 296.19772 570.0 296.75L570.0 306.75C570.0 307.30228 569.5523 307.75 569.0 307.75L559.0 307.75C558.4477 307.75 558.0 307.30228 558.0 306.75Z" fill-rule="nonzero"/><path fill="#1a1a1a" d="M578.9219 305.75L578.9219 297.15625L581.8906 297.15625Q582.8906 297.15625 583.4219 297.28125Q584.15625 297.45312 584.6719 297.89062Q585.3594 298.46875 585.6875 299.375Q586.03125 300.26562 586.03125 301.40625Q586.03125 302.39062 585.7969 303.14062Q585.5781 303.89062 585.21875 304.39062Q584.8594 304.89062 584.4219 305.17188Q584.0 305.45312 583.40625 305.60938Q582.8125 305.75 582.03125 305.75L578.9219 305.75ZM580.0625 304.73438L581.8906 304.73438Q582.75 304.73438 583.2344 304.57812Q583.71875 304.42188 584.0 304.125Q584.40625 303.73438 584.625 303.04688Q584.8594 302.35938 584.8594 301.39062Q584.8594 300.04688 584.40625 299.32812Q583.96875 298.59375 583.34375 298.34375Q582.875 298.17188 581.875 298.17188L580.0625 298.17188L580.0625 304.73438ZM587.40625 302.64062Q587.40625 300.90625 588.3594 300.07812Q589.15625 299.39062 590.3125 299.39062Q591.59375 299.39062 592.40625 300.23438Q593.2344 301.0625 593.2344 302.54688Q593.2344 303.75 592.875 304.4375Q592.5156 305.125 591.8125 305.51562Q591.125 305.89062 590.3125 305.89062Q589.0156 305.89062 588.2031 305.0625Q587.40625 304.21875 587.40625 302.64062ZM588.4844 302.64062Q588.4844 303.82812 589.0 304.42188Q589.53125 305.01562 590.3125 305.01562Q591.1094 305.01562 591.625 304.42188Q592.1406 303.82812 592.1406 302.60938Q592.1406 301.45312 591.6094 300.85938Q591.09375 300.26562 590.3125 300.26562Q589.53125 300.26562 589.0 300.85938Q588.4844 301.4375 588.4844 302.64062ZM594.7969 305.75L594.7969 299.53125L595.7344 299.53125L595.7344 300.40625Q596.4219 299.39062 597.71875 299.39062Q598.28125 299.39062 598.75 299.59375Q599.2344 299.79688 599.46875 300.125Q599.7031 300.45312 599.7969 300.89062Q599.84375 301.1875 599.84375 301.92188L599.84375 305.75L598.7969 305.75L598.7969 301.96875Q598.7969 301.3125 598.6719 301.0Q598.5469 300.6875 598.2344 300.5Q597.9219 300.29688 597.5 300.29688Q596.8281 300.29688 596.3281 300.73438Q595.84375 301.15625 595.84375 302.34375L595.84375 305.75L594.7969 305.75ZM601.7969 300.20312L601.53125 298.59375L601.53125 297.15625L602.7344 297.15625L602.7344 298.59375L602.4531 300.20312L601.7969 300.20312ZM606.09375 304.8125L606.25 305.73438Q605.7969 305.82812 605.4531 305.82812Q604.875 305.82812 604.5625 305.65625Q604.25 305.46875 604.1094 305.17188Q603.9844 304.875 603.9844 303.92188L603.9844 300.34375L603.21875 300.34375L603.21875 299.53125L603.9844 299.53125L603.9844 297.98438L605.03125 297.35938L605.03125 299.53125L606.09375 299.53125L606.09375 300.34375L605.03125 300.34375L605.03125 303.98438Q605.03125 304.4375 605.0781 304.5625Q605.1406 304.6875 605.2656 304.76562Q605.3906 304.84375 605.625 304.84375Q605.8125 304.84375 606.09375 304.8125ZM616.0625 302.73438L617.1875 303.03125Q616.8281 304.42188 615.90625 305.15625Q614.9844 305.89062 613.6406 305.89062Q612.25 305.89062 611.375 305.32812Q610.5 304.76562 610.0469 303.70312Q609.59375 302.625 609.59375 301.39062Q609.59375 300.04688 610.1094 299.04688Q610.625 298.04688 611.5625 297.53125Q612.5156 297.01562 613.65625 297.01562Q614.9375 297.01562 615.8125 297.67188Q616.7031 298.32812 617.0469 299.51562L615.9219 299.78125Q615.625 298.84375 615.0469 298.42188Q614.4844 297.98438 613.625 297.98438Q612.6406 297.98438 611.96875 298.46875Q611.3125 298.9375 611.03125 299.73438Q610.7656 300.53125 610.7656 301.39062Q610.7656 302.48438 611.0781 303.29688Q611.40625 304.10938 612.0781 304.51562Q612.75 304.92188 613.5469 304.92188Q614.5 304.92188 615.15625 304.375Q615.8281 303.82812 616.0625 302.73438ZM622.8594 304.98438Q622.2656 305.48438 621.71875 305.6875Q621.1875 305.89062 620.5625 305.89062Q619.53125 305.89062 618.9844 305.39062Q618.4375 304.89062 618.4375 304.10938Q618.4375 303.65625 618.6406 303.28125Q618.84375 302.89062 619.1875 302.67188Q619.53125 302.4375 619.9531 302.32812Q620.25 302.23438 620.8906 302.15625Q622.15625 302.01562 622.7656 301.79688Q622.7656 301.57812 622.7656 301.53125Q622.7656 300.875 622.46875 300.60938Q622.0625 300.26562 621.2656 300.26562Q620.53125 300.26562 620.1719 300.53125Q619.8125 300.78125 619.6406 301.4375L618.6094 301.29688Q618.75 300.64062 619.0781 300.23438Q619.40625 299.82812 620.0156 299.60938Q620.625 299.39062 621.4219 299.39062Q622.21875 299.39062 622.71875 299.57812Q623.21875 299.76562 623.4531 300.04688Q623.6875 300.32812 623.78125 300.76562Q623.8281 301.03125 623.8281 301.73438L623.8281 303.14062Q623.8281 304.60938 623.8906 305.0Q623.96875 305.39062 624.1719 305.75L623.0625 305.75Q622.90625 305.42188 622.8594 304.98438ZM622.7656 302.625Q622.1875 302.85938 621.0469 303.03125Q620.3906 303.125 620.125 303.25Q619.8594 303.35938 619.7031 303.57812Q619.5625 303.79688 619.5625 304.07812Q619.5625 304.5 619.875 304.78125Q620.2031 305.0625 620.8125 305.0625Q621.4219 305.0625 621.8906 304.79688Q622.375 304.53125 622.59375 304.0625Q622.7656 303.70312 622.7656 303.01562L622.7656 302.625ZM625.78125 305.75L625.78125 299.53125L626.7344 299.53125L626.7344 300.46875Q627.09375 299.8125 627.3906 299.60938Q627.7031 299.39062 628.0781 299.39062Q628.6094 299.39062 629.15625 299.71875L628.7969 300.70312Q628.40625 300.46875 628.03125 300.46875Q627.6719 300.46875 627.3906 300.6875Q627.125 300.89062 627.0156 301.26562Q626.8281 301.82812 626.8281 302.48438L626.8281 305.75L625.78125 305.75ZM634.0469 303.75L635.1406 303.875Q634.8906 304.82812 634.1875 305.35938Q633.4844 305.89062 632.40625 305.89062Q631.0469 305.89062 630.2344 305.04688Q629.4375 304.20312 629.4375 302.6875Q629.4375 301.125 630.25 300.26562Q631.0625 299.39062 632.34375 299.39062Q633.59375 299.39062 634.375 300.23438Q635.1719 301.07812 635.1719 302.625Q635.1719 302.71875 635.1719 302.90625L630.53125 302.90625Q630.59375 303.9375 631.1094 304.48438Q631.625 305.01562 632.40625 305.01562Q632.9844 305.01562 633.3906 304.71875Q633.8125 304.40625 634.0469 303.75ZM630.59375 302.04688L634.0625 302.04688Q634.0 301.25 633.6719 300.85938Q633.15625 300.25 632.3594 300.25Q631.625 300.25 631.125 300.73438Q630.6406 301.21875 630.59375 302.04688Z" fill-rule="nonzero"/><path fill="#757575" d="M410.48438 29.25L414.32812 19.234375L415.75 19.234375L419.85938 29.25L418.34375 29.25L417.17188 26.21875L412.98438 26.21875L411.89062 29.25L410.48438 29.25ZM413.375 25.140625L416.76562 25.140625L415.71875 22.359375Q415.25 21.09375 415.01562 20.28125Q414.82812 21.25 414.46875 22.1875L413.375 25.140625ZM420.20312 29.859375L421.39062 30.03125Q421.46875 30.578125 421.8125 30.84375Q422.26562 31.171875 423.0625 31.171875Q423.92188 31.171875 424.375 30.828125Q424.84375 30.5 425.01562 29.875Q425.10938 29.5 425.09375 28.296875Q424.29688 29.25 423.09375 29.25Q421.59375 29.25 420.76562 28.171875Q419.95312 27.09375 419.95312 25.578125Q419.95312 24.546875 420.32812 23.671875Q420.70312 22.78125 421.40625 22.3125Q422.125 21.828125 423.09375 21.828125Q424.375 21.828125 425.21875 22.859375L425.21875 21.984375L426.34375 21.984375L426.34375 28.265625Q426.34375 29.96875 426.0 30.671875Q425.65625 31.375 424.90625 31.78125Q424.15625 32.203125 423.0625 32.203125Q421.76562 32.203125 420.96875 31.609375Q420.17188 31.03125 420.20312 29.859375ZM421.21875 25.484375Q421.21875 26.921875 421.78125 27.578125Q422.34375 28.234375 423.20312 28.234375Q424.04688 28.234375 424.625 27.578125Q425.20312 26.921875 425.20312 25.53125Q425.20312 24.203125 424.60938 23.53125Q424.01562 22.84375 423.1875 22.84375Q422.35938 22.84375 421.78125 23.515625Q421.21875 24.171875 421.21875 25.484375ZM428.40625 29.25L428.40625 21.984375L429.51562 21.984375L429.51562 23.09375Q429.9375 22.3125 430.29688 22.078125Q430.65625 21.828125 431.09375 21.828125Q431.71875 21.828125 432.35938 22.21875L431.9375 23.359375Q431.48438 23.09375 431.03125 23.09375Q430.625 23.09375 430.29688 23.34375Q429.98438 23.578125 429.84375 24.015625Q429.64062 24.671875 429.64062 25.453125L429.64062 29.25L428.40625 29.25ZM438.39062 26.90625L439.67188 27.0625Q439.35938 28.1875 438.54688 28.8125Q437.73438 29.421875 436.46875 29.421875Q434.875 29.421875 433.9375 28.4375Q433.01562 27.453125 433.01562 25.6875Q433.01562 23.84375 433.95312 22.84375Q434.90625 21.828125 436.40625 21.828125Q437.85938 21.828125 438.78125 22.828125Q439.70312 23.8125 439.70312 25.609375Q439.70312 25.71875 439.70312 25.9375L434.28125 25.9375Q434.35938 27.125 434.95312 27.765625Q435.5625 28.40625 436.48438 28.40625Q437.15625 28.40625 437.625 28.046875Q438.10938 27.6875 438.39062 26.90625ZM434.35938 24.921875L438.40625 24.921875Q438.32812 24.0 437.9375 23.546875Q437.35938 22.84375 436.42188 22.84375Q435.5625 22.84375 434.98438 23.40625Q434.42188 23.96875 434.35938 24.921875ZM446.39062 26.90625L447.67188 27.0625Q447.35938 28.1875 446.54688 28.8125Q445.73438 29.421875 444.46875 29.421875Q442.875 29.421875 441.9375 28.4375Q441.01562 27.453125 441.01562 25.6875Q441.01562 23.84375 441.95312 22.84375Q442.90625 21.828125 444.40625 21.828125Q445.85938 21.828125 446.78125 22.828125Q447.70312 23.8125 447.70312 25.609375Q447.70312 25.71875 447.70312 25.9375L442.28125 25.9375Q442.35938 27.125 442.95312 27.765625Q443.5625 28.40625 444.48438 28.40625Q445.15625 28.40625 445.625 28.046875Q446.10938 27.6875 446.39062 26.90625ZM442.35938 24.921875L446.40625 24.921875Q446.32812 24.0 445.9375 23.546875Q445.35938 22.84375 444.42188 22.84375Q443.5625 22.84375 442.98438 23.40625Q442.42188 23.96875 442.35938 24.921875ZM449.42188 29.25L449.42188 21.984375L450.53125 21.984375L450.53125 23.015625Q450.85938 22.46875 451.42188 22.15625Q452.0 21.828125 452.71875 21.828125Q453.53125 21.828125 454.04688 22.171875Q454.5625 22.5 454.78125 23.09375Q455.64062 21.828125 457.01562 21.828125Q458.09375 21.828125 458.67188 22.421875Q459.26562 23.015625 459.26562 24.265625L459.26562 29.25L458.03125 29.25L458.03125 24.671875Q458.03125 23.9375 457.90625 23.609375Q457.79688 23.28125 457.48438 23.09375Q457.17188 22.890625 456.75 22.890625Q455.98438 22.890625 455.46875 23.40625Q454.96875 23.90625 454.96875 25.03125L454.96875 29.25L453.73438 29.25L453.73438 24.53125Q453.73438 23.71875 453.4375 23.3125Q453.14062 22.890625 452.45312 22.890625Q451.9375 22.890625 451.48438 23.171875Q451.04688 23.4375 450.84375 23.96875Q450.65625 24.484375 450.65625 25.484375L450.65625 29.25L449.42188 29.25ZM466.39062 26.90625L467.67188 27.0625Q467.35938 28.1875 466.54688 28.8125Q465.73438 29.421875 464.46875 29.421875Q462.875 29.421875 461.9375 28.4375Q461.01562 27.453125 461.01562 25.6875Q461.01562 23.84375 461.95312 22.84375Q462.90625 21.828125 464.40625 21.828125Q465.85938 21.828125 466.78125 22.828125Q467.70312 23.8125 467.70312 25.609375Q467.70312 25.71875 467.70312 25.9375L462.28125 25.9375Q462.35938 27.125 462.95312 27.765625Q463.5625 28.40625 464.48438 28.40625Q465.15625 28.40625 465.625 28.046875Q466.10938 27.6875 466.39062 26.90625ZM462.35938 24.921875L466.40625 24.921875Q466.32812 24.0 465.9375 23.546875Q465.35938 22.84375 464.42188 22.84375Q463.5625 22.84375 462.98438 23.40625Q462.42188 23.96875 462.35938 24.921875ZM469.42188 29.25L469.42188 21.984375L470.53125 21.984375L470.53125 23.015625Q471.32812 21.828125 472.84375 21.828125Q473.5 21.828125 474.04688 22.0625Q474.59375 22.296875 474.85938 22.6875Q475.14062 23.0625 475.25 23.59375Q475.32812 23.9375 475.32812 24.78125L475.32812 29.25L474.09375 29.25L474.09375 24.828125Q474.09375 24.078125 473.95312 23.71875Q473.8125 23.34375 473.4375 23.125Q473.07812 22.890625 472.57812 22.890625Q471.79688 22.890625 471.21875 23.390625Q470.65625 23.890625 470.65625 25.28125L470.65625 29.25L469.42188 29.25ZM480.10938 28.15625L480.28125 29.234375Q479.76562 29.34375 479.35938 29.34375Q478.6875 29.34375 478.3125 29.140625Q477.95312 28.921875 477.79688 28.578125Q477.65625 28.234375 477.65625 27.125L477.65625 22.953125L476.75 22.953125L476.75 21.984375L477.65625 21.984375L477.65625 20.1875L478.875 19.453125L478.875 21.984375L480.10938 21.984375L480.10938 22.953125L478.875 22.953125L478.875 27.1875Q478.875 27.71875 478.9375 27.875Q479.0 28.015625 479.14062 28.109375Q479.29688 28.203125 479.5625 28.203125Q479.78125 28.203125 480.10938 28.15625ZM486.5625 29.25L485.42188 29.25L485.42188 19.234375L486.64062 19.234375L486.64062 22.796875Q487.42188 21.828125 488.64062 21.828125Q489.3125 21.828125 489.90625 22.09375Q490.5 22.359375 490.89062 22.859375Q491.28125 23.34375 491.5 24.03125Q491.71875 24.71875 491.71875 25.515625Q491.71875 27.375 490.78125 28.40625Q489.85938 29.421875 488.57812 29.421875Q487.29688 29.421875 486.5625 28.34375L486.5625 29.25ZM486.54688 25.5625Q486.54688 26.875 486.90625 27.453125Q487.48438 28.40625 488.46875 28.40625Q489.28125 28.40625 489.85938 27.703125Q490.45312 27.0 490.45312 25.609375Q490.45312 24.1875 489.89062 23.515625Q489.32812 22.84375 488.53125 22.84375Q487.71875 22.84375 487.125 23.546875Q486.54688 24.234375 486.54688 25.5625ZM493.375 32.046875L493.23438 30.890625Q493.64062 31.0 493.9375 31.0Q494.34375 31.0 494.59375 30.859375Q494.84375 30.734375 495.0 30.484375Q495.10938 30.296875 495.375 29.5625Q495.40625 29.46875 495.48438 29.265625L492.71875 21.984375L494.04688 21.984375L495.5625 26.1875Q495.85938 27.0 496.09375 27.875Q496.29688 27.03125 496.59375 26.21875L498.14062 21.984375L499.375 21.984375L496.60938 29.375Q496.17188 30.5625 495.92188 31.015625Q495.59375 31.625 495.17188 31.90625Q494.75 32.203125 494.15625 32.203125Q493.8125 32.203125 493.375 32.046875ZM509.26562 25.3125L509.26562 24.140625L513.5156 24.140625L513.5156 27.859375Q512.53125 28.640625 511.48438 29.03125Q510.45312 29.421875 509.35938 29.421875Q507.89062 29.421875 506.67188 28.796875Q505.46875 28.15625 504.85938 26.96875Q504.25 25.765625 504.25 24.28125Q504.25 22.828125 504.85938 21.5625Q505.46875 20.28125 506.60938 19.671875Q507.76562 19.0625 509.26562 19.0625Q510.34375 19.0625 511.21875 19.421875Q512.1094 19.765625 512.6094 20.390625Q513.1094 21.015625 513.3594 22.03125L512.1719 22.359375Q511.9375 21.59375 511.59375 21.15625Q511.26562 20.71875 510.64062 20.453125Q510.03125 20.1875 509.26562 20.1875Q508.35938 20.1875 507.6875 20.46875Q507.03125 20.75 506.625 21.203125Q506.21875 21.640625 506.0 22.1875Q505.60938 23.125 505.60938 24.203125Q505.60938 25.546875 506.0625 26.453125Q506.53125 27.34375 507.40625 27.78125Q508.29688 28.21875 509.29688 28.21875Q510.15625 28.21875 510.96875 27.890625Q511.79688 27.5625 512.21875 27.1875L512.21875 25.3125L509.26562 25.3125ZM520.3906 26.90625L521.6719 27.0625Q521.3594 28.1875 520.5469 28.8125Q519.7344 29.421875 518.46875 29.421875Q516.875 29.421875 515.9375 28.4375Q515.0156 27.453125 515.0156 25.6875Q515.0156 23.84375 515.9531 22.84375Q516.90625 21.828125 518.40625 21.828125Q519.8594 21.828125 520.78125 22.828125Q521.7031 23.8125 521.7031 25.609375Q521.7031 25.71875 521.7031 25.9375L516.28125 25.9375Q516.3594 27.125 516.9531 27.765625Q517.5625 28.40625 518.4844 28.40625Q519.15625 28.40625 519.625 28.046875Q520.1094 27.6875 520.3906 26.90625ZM516.3594 24.921875L520.40625 24.921875Q520.3281 24.0 519.9375 23.546875Q519.3594 22.84375 518.4219 22.84375Q517.5625 22.84375 516.9844 23.40625Q516.4219 23.96875 516.3594 24.921875ZM523.4219 29.25L523.4219 21.984375L524.53125 21.984375L524.53125 23.015625Q525.3281 21.828125 526.84375 21.828125Q527.5 21.828125 528.0469 22.0625Q528.59375 22.296875 528.8594 22.6875Q529.1406 23.0625 529.25 23.59375Q529.3281 23.9375 529.3281 24.78125L529.3281 29.25L528.09375 29.25L528.09375 24.828125Q528.09375 24.078125 527.9531 23.71875Q527.8125 23.34375 527.4375 23.125Q527.0781 22.890625 526.5781 22.890625Q525.7969 22.890625 525.21875 23.390625Q524.65625 23.890625 524.65625 25.28125L524.65625 29.25L523.4219 29.25ZM536.1406 29.25L536.1406 28.328125Q535.4375 29.421875 534.1094 29.421875Q533.2344 29.421875 532.5 28.9375Q531.78125 28.453125 531.375 27.59375Q530.9844 26.734375 530.9844 25.625Q530.9844 24.546875 531.34375 23.65625Q531.7031 22.765625 532.4219 22.296875Q533.15625 21.828125 534.0469 21.828125Q534.7031 21.828125 535.21875 22.109375Q535.7344 22.375 536.0469 22.828125L536.0469 19.234375L537.28125 19.234375L537.28125 29.25L536.1406 29.25ZM532.25 25.625Q532.25 27.015625 532.8281 27.71875Q533.4219 28.40625 534.21875 28.40625Q535.03125 28.40625 535.59375 27.75Q536.15625 27.078125 536.15625 25.734375Q536.15625 24.234375 535.5781 23.546875Q535.0 22.84375 534.1719 22.84375Q533.34375 22.84375 532.7969 23.515625Q532.25 24.1875 532.25 25.625ZM544.3906 26.90625L545.6719 27.0625Q545.3594 28.1875 544.5469 28.8125Q543.7344 29.421875 542.46875 29.421875Q540.875 29.421875 539.9375 28.4375Q539.0156 27.453125 539.0156 25.6875Q539.0156 23.84375 539.9531 22.84375Q540.90625 21.828125 542.40625 21.828125Q543.8594 21.828125 544.78125 22.828125Q545.7031 23.8125 545.7031 25.609375Q545.7031 25.71875 545.7031 25.9375L540.28125 25.9375Q540.3594 27.125 540.9531 27.765625Q541.5625 28.40625 542.4844 28.40625Q543.15625 28.40625 543.625 28.046875Q544.1094 27.6875 544.3906 26.90625ZM540.3594 24.921875L544.40625 24.921875Q544.3281 24.0 543.9375 23.546875Q543.3594 22.84375 542.4219 22.84375Q541.5625 22.84375 540.9844 23.40625Q540.4219 23.96875 540.3594 24.921875ZM547.40625 29.25L547.40625 21.984375L548.5156 21.984375L548.5156 23.09375Q548.9375 22.3125 549.2969 22.078125Q549.65625 21.828125 550.09375 21.828125Q550.71875 21.828125 551.3594 22.21875L550.9375 23.359375Q550.4844 23.09375 550.03125 23.09375Q549.625 23.09375 549.2969 23.34375Q548.9844 23.578125 548.84375 24.015625Q548.6406 24.671875 548.6406 25.453125L548.6406 29.25L547.40625 29.25ZM556.8125 29.25L556.8125 19.234375L558.125 19.234375L558.125 29.25L556.8125 29.25ZM565.1406 29.25L565.1406 28.328125Q564.4375 29.421875 563.1094 29.421875Q562.2344 29.421875 561.5 28.9375Q560.78125 28.453125 560.375 27.59375Q559.9844 26.734375 559.9844 25.625Q559.9844 24.546875 560.34375 23.65625Q560.7031 22.765625 561.4219 22.296875Q562.15625 21.828125 563.0469 21.828125Q563.7031 21.828125 564.21875 22.109375Q564.7344 22.375 565.0469 22.828125L565.0469 19.234375L566.28125 19.234375L566.28125 29.25L565.1406 29.25ZM561.25 25.625Q561.25 27.015625 561.8281 27.71875Q562.4219 28.40625 563.21875 28.40625Q564.03125 28.40625 564.59375 27.75Q565.15625 27.078125 565.15625 25.734375Q565.15625 24.234375 564.5781 23.546875Q564.0 22.84375 563.1719 22.84375Q562.34375 22.84375 561.7969 23.515625Q561.25 24.1875 561.25 25.625ZM573.3906 26.90625L574.6719 27.0625Q574.3594 28.1875 573.5469 28.8125Q572.7344 29.421875 571.46875 29.421875Q569.875 29.421875 568.9375 28.4375Q568.0156 27.453125 568.0156 25.6875Q568.0156 23.84375 568.9531 22.84375Q569.90625 21.828125 571.40625 21.828125Q572.8594 21.828125 573.78125 22.828125Q574.7031 23.8125 574.7031 25.609375Q574.7031 25.71875 574.7031 25.9375L569.28125 25.9375Q569.3594 27.125 569.9531 27.765625Q570.5625 28.40625 571.4844 28.40625Q572.15625 28.40625 572.625 28.046875Q573.1094 27.6875 573.3906 26.90625ZM569.3594 24.921875L573.40625 24.921875Q573.3281 24.0 572.9375 23.546875Q572.3594 22.84375 571.4219 22.84375Q570.5625 22.84375 569.9844 23.40625Q569.4219 23.96875 569.3594 24.921875ZM576.4219 29.25L576.4219 21.984375L577.53125 21.984375L577.53125 23.015625Q578.3281 21.828125 579.84375 21.828125Q580.5 21.828125 581.0469 22.0625Q581.59375 22.296875 581.8594 22.6875Q582.1406 23.0625 582.25 23.59375Q582.3281 23.9375 582.3281 24.78125L582.3281 29.25L581.09375 29.25L581.09375 24.828125Q581.09375 24.078125 580.9531 23.71875Q580.8125 23.34375 580.4375 23.125Q580.0781 22.890625 579.5781 22.890625Q578.7969 22.890625 578.21875 23.390625Q577.65625 23.890625 577.65625 25.28125L577.65625 29.25L576.4219 29.25ZM587.1094 28.15625L587.28125 29.234375Q586.7656 29.34375 586.3594 29.34375Q585.6875 29.34375 585.3125 29.140625Q584.9531 28.921875 584.7969 28.578125Q584.65625 28.234375 584.65625 27.125L584.65625 22.953125L583.75 22.953125L583.75 21.984375L584.65625 21.984375L584.65625 20.1875L585.875 19.453125L585.875 21.984375L587.1094 21.984375L587.1094 22.953125L585.875 22.953125L585.875 27.1875Q585.875 27.71875 585.9375 27.875Q586.0 28.015625 586.1406 28.109375Q586.2969 28.203125 586.5625 28.203125Q586.78125 28.203125 587.1094 28.15625ZM588.4375 20.640625L588.4375 19.234375L589.65625 19.234375L589.65625 20.640625L588.4375 20.640625ZM588.4375 29.25L588.4375 21.984375L589.65625 21.984375L589.65625 29.25L588.4375 29.25ZM594.1094 28.15625L594.28125 29.234375Q593.7656 29.34375 593.3594 29.34375Q592.6875 29.34375 592.3125 29.140625Q591.9531 28.921875 591.7969 28.578125Q591.65625 28.234375 591.65625 27.125L591.65625 22.953125L590.75 22.953125L590.75 21.984375L591.65625 21.984375L591.65625 20.1875L592.875 19.453125L592.875 21.984375L594.1094 21.984375L594.1094 22.953125L592.875 22.953125L592.875 27.1875Q592.875 27.71875 592.9375 27.875Q593.0 28.015625 593.1406 28.109375Q593.2969 28.203125 593.5625 28.203125Q593.78125 28.203125 594.1094 28.15625ZM595.375 32.046875L595.2344 30.890625Q595.6406 31.0 595.9375 31.0Q596.34375 31.0 596.59375 30.859375Q596.84375 30.734375 597.0 30.484375Q597.1094 30.296875 597.375 29.5625Q597.40625 29.46875 597.4844 29.265625L594.71875 21.984375L596.0469 21.984375L597.5625 26.1875Q597.8594 27.0 598.09375 27.875Q598.2969 27.03125 598.59375 26.21875L600.1406 21.984375L601.375 21.984375L598.6094 29.375Q598.1719 30.5625 597.9219 31.015625Q597.59375 31.625 597.1719 31.90625Q596.75 32.203125 596.15625 32.203125Q595.8125 32.203125 595.375 32.046875Z" fill-rule="nonzero"/></svg>