<svg version="1.1" viewBox="0.0 0.0 600.0 371.0" fill="none" stroke="none" stroke-linecap="square" stroke-miterlimit="10" width="600" height="371" xmlns:xlink="http://www.w3.org/1999/xlink" xmlns="http://www.w3.org/2000/svg"><path fill="#ffffff" d="M0 0L600.0 0L600.0 371.0L0 371.0L0 0Z" fill-rule="nonzero"/><path fill="#34a853" d="M214.37146 42.181973C240.25645 26.71641 269.84677 18.55 300.0 18.55L300.0 185.5Z" fill-rule="nonzero"/><path fill="#fbbc04" d="M169.47324 81.40838C181.96446 65.74488 197.17299 52.457584 214.37146 42.181973L300.0 185.5Z" fill-rule="nonzero"/><path fill="#ea4335" d="M141.22112 237.0904C123.88826 183.74535 134.50151 125.261536 169.47324 81.40838L300.0 185.5Z" fill-rule="nonzero"/><path fill="#4285f4" d="M300.0 18.55C385.44812 18.55 457.10367 83.06893 466.03543 168.04897C474.9672 253.029 418.29175 331.03607 334.71085 348.80173C251.12997 366.5674 167.62604 318.35638 141.22112 237.0904L300.0 185.5Z" fill-rule="nonzero"/><path fill="#1a1a1a" d="M19.471874 29.55L19.471874 20.95625L22.440624 20.95625Q23.440624 20.95625 23.971874 21.08125Q24.70625 21.253124 25.221874 21.690624Q25.909374 22.26875 26.2375 23.175Q26.58125 24.065624 26.58125 25.20625Q26.58125 26.190624 26.346874 26.940624Q26.128124 27.690624 25.76875 28.190624Q25.409374 28.690624 24.971874 28.971874Q24.55 29.253124 23.95625 29.409374Q23.3625 29.55 22.58125 29.55L19.471874 29.55ZM20.6125 28.534374L22.440624 28.534374Q23.3 28.534374 23.784374 28.378124Q24.26875 28.221874 24.55 27.925Q24.95625 27.534374 25.175 26.846874Q25.409374 26.159374 25.409374 25.190624Q25.409374 23.846874 24.95625 23.128124Q24.51875 22.39375 23.89375 22.14375Q23.425 21.971874 22.425 21.971874L20.6125 21.971874L20.6125 28.534374ZM27.95625 26.440624Q27.95625 24.70625 28.909374 23.878124Q29.70625 23.190624 30.8625 23.190624Q32.14375 23.190624 32.95625 24.034374Q33.784374 24.8625 33.784374 26.346874Q33.784374 27.55 33.425 28.2375Q33.065624 28.925 32.3625 29.315624Q31.675 29.690624 30.8625 29.690624Q29.565624 29.690624 28.753124 28.8625Q27.95625 28.01875 27.95625 26.440624ZM29.034374 26.440624Q29.034374 27.628124 29.55 28.221874Q30.08125 28.815624 30.8625 28.815624Q31.659374 28.815624 32.175 28.221874Q32.690624 27.628124 32.690624 26.409374Q32.690624 25.253124 32.159374 24.659374Q31.64375 24.065624 30.8625 24.065624Q30.08125 24.065624 29.55 24.659374Q29.034374 25.2375 29.034374 26.440624ZM35.346874 29.55L35.346874 23.33125L36.284374 23.33125L36.284374 24.20625Q36.971874 23.190624 38.26875 23.190624Q38.83125 23.190624 39.3 23.39375Q39.784374 23.596874 40.01875 23.925Q40.253124 24.253124 40.346874 24.690624Q40.39375 24.9875 40.39375 25.721874L40.39375 29.55L39.346874 29.55L39.346874 25.76875Q39.346874 25.1125 39.221874 24.8Q39.096874 24.4875 38.784374 24.3Q38.471874 24.096874 38.05 24.096874Q37.378124 24.096874 36.878124 24.534374Q36.39375 24.95625 36.39375 26.14375L36.39375 29.55L35.346874 29.55ZM42.284374 22.096874L42.284374 20.878124L43.409374 20.878124L43.409374 21.83125Q43.409374 22.628124 43.221874 22.971874Q42.971874 23.440624 42.440624 23.690624L42.190624 23.26875Q42.503124 23.14375 42.659374 22.8625Q42.815624 22.58125 42.83125 22.096874L42.284374 22.096874ZM47.64375 28.6125L47.8 29.534374Q47.346874 29.628124 47.003124 29.628124Q46.425 29.628124 46.1125 29.45625Q45.8 29.26875 45.659374 28.971874Q45.534374 28.675 45.534374 27.721874L45.534374 24.14375L44.76875 24.14375L44.76875 23.33125L45.534374 23.33125L45.534374 21.784374L46.58125 21.159374L46.58125 23.33125L47.64375 23.33125L47.64375 24.14375L46.58125 24.14375L46.58125 27.784374Q46.58125 28.2375 46.628124 28.3625Q46.690624 28.4875 46.815624 28.565624Q46.940624 28.64375 47.175 28.64375Q47.3625 28.64375 47.64375 28.6125ZM55.409374 27.26875L56.440624 27.409374Q56.26875 28.471874 55.565624 29.08125Q54.8625 29.690624 53.846874 29.690624Q52.565624 29.690624 51.784374 28.8625Q51.01875 28.01875 51.01875 26.45625Q51.01875 25.45625 51.346874 24.70625Q51.690624 23.940624 52.3625 23.565624Q53.05 23.190624 53.8625 23.190624Q54.8625 23.190624 55.503124 23.70625Q56.159374 24.20625 56.346874 25.159374L55.315624 25.315624Q55.175 24.690624 54.8 24.378124Q54.425 24.05 53.89375 24.05Q53.096874 24.05 52.596874 24.628124Q52.096874 25.190624 52.096874 26.425Q52.096874 27.690624 52.58125 28.253124Q53.065624 28.815624 53.83125 28.815624Q54.45625 28.815624 54.8625 28.440624Q55.284374 28.065624 55.409374 27.26875ZM61.409374 28.784374Q60.815624 29.284374 60.26875 29.4875Q59.7375 29.690624 59.1125 29.690624Q58.08125 29.690624 57.534374 29.190624Q56.9875 28.690624 56.9875 27.909374Q56.9875 27.45625 57.190624 27.08125Q57.39375 26.690624 57.7375 26.471874Q58.08125 26.2375 58.503124 26.128124Q58.8 26.034374 59.440624 25.95625Q60.70625 25.815624 61.315624 25.596874Q61.315624 25.378124 61.315624 25.33125Q61.315624 24.675 61.01875 24.409374Q60.6125 24.065624 59.815624 24.065624Q59.08125 24.065624 58.721874 24.33125Q58.3625 24.58125 58.190624 25.2375L57.159374 25.096874Q57.3 24.440624 57.628124 24.034374Q57.95625 23.628124 58.565624 23.409374Q59.175 23.190624 59.971874 23.190624Q60.76875 23.190624 61.26875 23.378124Q61.76875 23.565624 62.003124 23.846874Q62.2375 24.128124 62.33125 24.565624Q62.378124 24.83125 62.378124 25.534374L62.378124 26.940624Q62.378124 28.409374 62.440624 28.8Q62.51875 29.190624 62.721874 29.55L61.6125 29.55Q61.45625 29.221874 61.409374 28.784374ZM61.315624 26.425Q60.7375 26.659374 59.596874 26.83125Q58.940624 26.925 58.675 27.05Q58.409374 27.159374 58.253124 27.378124Q58.1125 27.596874 58.1125 27.878124Q58.1125 28.3 58.425 28.58125Q58.753124 28.8625 59.3625 28.8625Q59.971874 28.8625 60.440624 28.596874Q60.925 28.33125 61.14375 27.8625Q61.315624 27.503124 61.315624 26.815624L61.315624 26.425ZM64.33125 29.55L64.33125 23.33125L65.28438 23.33125L65.28438 24.26875Q65.64375 23.6125 65.94063 23.409374Q66.25313 23.190624 66.62813 23.190624Q67.15938 23.190624 67.70625 23.51875L67.34688 24.503124Q66.95625 24.26875 66.58125 24.26875Q66.22188 24.26875 65.94063 24.4875Q65.675 24.690624 65.56563 25.065624Q65.37813 25.628124 65.37813 26.284374L65.37813 29.55L64.33125 29.55ZM72.59688 27.55L73.69063 27.675Q73.44063 28.628124 72.7375 29.159374Q72.03438 29.690624 70.95625 29.690624Q69.59688 29.690624 68.78438 28.846874Q67.9875 28.003124 67.9875 26.4875Q67.9875 24.925 68.8 24.065624Q69.6125 23.190624 70.89375 23.190624Q72.14375 23.190624 72.925 24.034374Q73.72188 24.878124 73.72188 26.425Q73.72188 26.51875 73.72188 26.70625L69.08125 26.70625Q69.14375 27.7375 69.65938 28.284374Q70.175 28.815624 70.95625 28.815624Q71.53438 28.815624 71.94063 28.51875Q72.3625 28.20625 72.59688 27.55ZM69.14375 25.846874L72.6125 25.846874Q72.55 25.05 72.22188 24.659374Q71.70625 24.05 70.90938 24.05Q70.175 24.05 69.675 24.534374Q69.19063 25.01875 69.14375 25.846874Z" fill-rule="nonzero"/><path fill="#9e9e9e" d="M20.675 41.89375Q20.01875 41.64375 19.690624 41.20625Q19.378124 40.753124 19.378124 40.14375Q19.378124 39.20625 20.05 38.565624Q20.7375 37.925 21.846874 37.925Q22.971874 37.925 23.659374 38.58125Q24.346874 39.2375 24.346874 40.175Q24.346874 40.76875 24.034374 41.20625Q23.721874 41.64375 23.08125 41.89375Q23.878124 42.14375 24.284374 42.721874Q24.690624 43.3 24.690624 44.096874Q24.690624 45.190624 23.909374 45.940624Q23.14375 46.690624 21.8625 46.690624Q20.596874 46.690624 19.815624 45.940624Q19.034374 45.190624 19.034374 44.065624Q19.034374 43.221874 19.45625 42.659374Q19.89375 42.096874 20.675 41.89375ZM20.45625 40.096874Q20.45625 40.70625 20.846874 41.096874Q21.253124 41.4875 21.878124 41.4875Q22.4875 41.4875 22.878124 41.1125Q23.26875 40.721874 23.26875 40.159374Q23.26875 39.58125 22.8625 39.190624Q22.45625 38.784374 21.8625 38.784374Q21.253124 38.784374 20.846874 39.175Q20.45625 39.565624 20.45625 40.096874ZM20.128124 44.065624Q20.128124 44.51875 20.33125 44.940624Q20.55 45.3625 20.971874 45.596874Q21.39375 45.83125 21.878124 45.83125Q22.628124 45.83125 23.1125 45.346874Q23.6125 44.8625 23.6125 44.1125Q23.6125 43.346874 23.1125 42.846874Q22.6125 42.346874 21.846874 42.346874Q21.096874 42.346874 20.6125 42.846874Q20.128124 43.33125 20.128124 44.065624ZM26.64375 46.55L26.64375 45.346874L27.846874 45.346874L27.846874 46.55L26.64375 46.55ZM34.51875 40.065624L33.471874 40.14375Q33.33125 39.51875 33.08125 39.2375Q32.64375 38.784374 32.01875 38.784374Q31.51875 38.784374 31.128124 39.065624Q30.64375 39.440624 30.346874 40.14375Q30.065624 40.83125 30.05 42.1125Q30.425 41.534374 30.971874 41.253124Q31.534374 40.971874 32.14375 40.971874Q33.190624 40.971874 33.925 41.753124Q34.675 42.534374 34.675 43.753124Q34.675 44.565624 34.315624 45.26875Q33.971874 45.95625 33.3625 46.33125Q32.753124 46.690624 31.9875 46.690624Q30.659374 46.690624 29.83125 45.721874Q29.003124 44.753124 29.003124 42.534374Q29.003124 40.034374 29.925 38.909374Q30.721874 37.925 32.08125 37.925Q33.096874 37.925 33.7375 38.503124Q34.39375 39.065624 34.51875 40.065624ZM30.221874 43.76875Q30.221874 44.315624 30.440624 44.815624Q30.675 45.3 31.08125 45.565624Q31.503124 45.83125 31.971874 45.83125Q32.628124 45.83125 33.1125 45.3Q33.596874 44.753124 33.596874 43.83125Q33.596874 42.940624 33.1125 42.425Q32.64375 41.909374 31.925 41.909374Q31.20625 41.909374 30.70625 42.425Q30.221874 42.940624 30.221874 43.76875ZM36.253124 40.01875Q36.253124 39.096874 36.70625 38.45625Q37.175 37.815624 38.05 37.815624Q38.8625 37.815624 39.39375 38.39375Q39.925 38.971874 39.925 40.08125Q39.925 41.175 39.378124 41.76875Q38.846874 42.346874 38.065624 42.346874Q37.284374 42.346874 36.76875 41.76875Q36.253124 41.190624 36.253124 40.01875ZM38.08125 38.534374Q37.690624 38.534374 37.425 38.878124Q37.175 39.221874 37.175 40.128124Q37.175 40.95625 37.425 41.3Q37.690624 41.628124 38.08125 41.628124Q38.4875 41.628124 38.7375 41.284374Q39.003124 40.940624 39.003124 40.05Q39.003124 39.20625 38.7375 38.878124Q38.471874 38.534374 38.08125 38.534374ZM38.08125 46.8625L42.784374 37.815624L43.64375 37.815624L38.95625 46.8625L38.08125 46.8625ZM41.8 44.534374Q41.8 43.6125 42.253124 42.971874Q42.721874 42.33125 43.6125 42.33125Q44.425 42.33125 44.95625 42.909374Q45.4875 43.471874 45.4875 44.596874Q45.4875 45.690624 44.940624 46.284374Q44.409374 46.8625 43.6125 46.8625Q42.846874 46.8625 42.315624 46.284374Q41.8 45.70625 41.8 44.534374ZM43.64375 43.05Q43.2375 43.05 42.971874 43.39375Q42.721874 43.7375 42.721874 44.64375Q42.721874 45.45625 42.9875 45.8Q43.253124 46.14375 43.64375 46.14375Q44.034374 46.14375 44.3 45.8Q44.565624 45.45625 44.565624 44.55Q44.565624 43.721874 44.3 43.39375Q44.034374 43.05 43.64375 43.05Z" fill-rule="nonzero"/><path stroke="#757575" stroke-width="1.0" stroke-linecap="butt" d="M18.55 34.05L127.05 34.05L257.80588 32.61308" fill-rule="nonzero"/><path fill="#9e9e9e" d="M259.80588 32.61308C259.80588 31.50851 258.91046 30.613081 257.80588 30.613081C256.70132 30.613081 255.8059 31.50851 255.8059 32.61308C255.8059 33.71765 256.70132 34.61308 257.80588 34.61308C258.91046 34.61308 259.80588 33.71765 259.80588 32.61308" fill-rule="nonzero"/><path fill="#1a1a1a" d="M19.440624 61.56098L19.440624 52.96723L21.159374 52.96723L23.190624 59.045357Q23.471874 59.90473 23.596874 60.326607Q23.7375 59.857857 24.05 58.951607L26.1125 52.96723L27.64375 52.96723L27.64375 61.56098L26.55 61.56098L26.55 54.37348L24.05 61.56098L23.01875 61.56098L20.534374 54.24848L20.534374 61.56098L19.440624 61.56098ZM33.409374 60.795357Q32.815624 61.295357 32.26875 61.49848Q31.7375 61.701607 31.1125 61.701607Q30.08125 61.701607 29.534374 61.201607Q28.9875 60.701607 28.9875 59.920357Q28.9875 59.46723 29.190624 59.09223Q29.39375 58.701607 29.7375 58.482857Q30.08125 58.24848 30.503124 58.139107Q30.8 58.045357 31.440624 57.96723Q32.70625 57.826607 33.315624 57.607857Q33.315624 57.389107 33.315624 57.34223Q33.315624 56.68598 33.01875 56.420357Q32.6125 56.076607 31.815624 56.076607Q31.08125 56.076607 30.721874 56.34223Q30.3625 56.59223 30.190624 57.24848L29.159374 57.107857Q29.3 56.451607 29.628124 56.045357Q29.95625 55.639107 30.565624 55.420357Q31.175 55.201607 31.971874 55.201607Q32.76875 55.201607 33.26875 55.389107Q33.76875 55.576607 34.003124 55.857857Q34.2375 56.139107 34.33125 56.576607Q34.378124 56.84223 34.378124 57.545357L34.378124 58.951607Q34.378124 60.420357 34.440624 60.81098Q34.51875 61.201607 34.721874 61.56098L33.6125 61.56098Q33.45625 61.232857 33.409374 60.795357ZM33.315624 58.43598Q32.7375 58.670357 31.596874 58.84223Q30.940624 58.93598 30.675 59.06098Q30.409374 59.170357 30.253124 59.389107Q30.1125 59.607857 30.1125 59.889107Q30.1125 60.31098 30.425 60.59223Q30.753124 60.87348 31.3625 60.87348Q31.971874 60.87348 32.440624 60.607857Q32.925 60.34223 33.14375 59.87348Q33.315624 59.514107 33.315624 58.826607L33.315624 58.43598ZM36.3 63.951607L36.175 62.96723Q36.51875 63.06098 36.784374 63.06098Q37.128124 63.06098 37.33125 62.93598Q37.55 62.826607 37.690624 62.62348Q37.784374 62.451607 38.01875 61.826607Q38.034374 61.74848 38.1125 61.576607L35.7375 55.34223L36.878124 55.34223L38.175 58.93598Q38.425 59.62348 38.628124 60.389107Q38.815624 59.65473 39.065624 58.96723L40.39375 55.34223L41.440624 55.34223L39.08125 61.670357Q38.690624 62.68598 38.4875 63.076607Q38.20625 63.607857 37.83125 63.84223Q37.471874 64.09223 36.971874 64.09223Q36.675 64.09223 36.3 63.951607ZM43.315624 61.56098L42.33125 61.56098L42.33125 52.96723L43.39375 52.96723L43.39375 56.02973Q44.065624 55.201607 45.096874 55.201607Q45.675 55.201607 46.175 55.43598Q46.690624 55.65473 47.01875 56.076607Q47.3625 56.49848 47.55 57.09223Q47.7375 57.68598 47.7375 58.357857Q47.7375 59.951607 46.940624 60.826607Q46.14375 61.701607 45.05 61.701607Q43.940624 61.701607 43.315624 60.77973L43.315624 61.56098ZM43.3 58.40473Q43.3 59.514107 43.6125 60.014107Q44.1125 60.826607 44.95625 60.826607Q45.64375 60.826607 46.14375 60.232857Q46.659374 59.639107 46.659374 58.43598Q46.659374 57.21723 46.175 56.639107Q45.690624 56.06098 45.003124 56.06098Q44.315624 56.06098 43.8 56.670357Q43.3 57.264107 43.3 58.40473ZM53.596874 59.56098L54.690624 59.68598Q54.440624 60.639107 53.7375 61.170357Q53.034374 61.701607 51.95625 61.701607Q50.596874 61.701607 49.784374 60.857857Q48.9875 60.014107 48.9875 58.49848Q48.9875 56.93598 49.8 56.076607Q50.6125 55.201607 51.89375 55.201607Q53.14375 55.201607 53.925 56.045357Q54.721874 56.889107 54.721874 58.43598Q54.721874 58.52973 54.721874 58.71723L50.08125 58.71723Q50.14375 59.74848 50.659374 60.295357Q51.175 60.826607 51.95625 60.826607Q52.534374 60.826607 52.940624 60.52973Q53.3625 60.21723 53.596874 59.56098ZM50.14375 57.857857L53.6125 57.857857Q53.55 57.06098 53.221874 56.670357Q52.70625 56.06098 51.909374 56.06098Q51.175 56.06098 50.675 56.545357Q50.190624 57.02973 50.14375 57.857857Z" fill-rule="nonzero"/><path fill="#9e9e9e" d="M19.05 76.31098L20.159374 76.21723Q20.284374 77.02973 20.721874 77.43598Q21.175 77.84223 21.815624 77.84223Q22.565624 77.84223 23.096874 77.26411Q23.628124 76.68598 23.628124 75.74848Q23.628124 74.84223 23.1125 74.32661Q22.6125 73.79536 21.784374 73.79536Q21.284374 73.79536 20.8625 74.02973Q20.45625 74.26411 20.221874 74.62348L19.2375 74.49848L20.065624 70.09223L24.346874 70.09223L24.346874 71.09223L20.909374 71.09223L20.45625 73.40473Q21.221874 72.85786 22.065624 72.85786Q23.190624 72.85786 23.95625 73.63911Q24.7375 74.42036 24.7375 75.65473Q24.7375 76.81098 24.065624 77.67036Q23.2375 78.70161 21.815624 78.70161Q20.64375 78.70161 19.89375 78.04536Q19.159374 77.38911 19.05 76.31098ZM26.64375 78.56098L26.64375 77.35786L27.846874 77.35786L27.846874 78.56098L26.64375 78.56098ZM29.1125 71.09223L29.1125 70.07661L34.675 70.07661L34.675 70.90473Q33.8625 71.77973 33.05 73.23286Q32.253124 74.67036 31.815624 76.20161Q31.4875 77.27973 31.409374 78.56098L30.315624 78.56098Q30.33125 77.54536 30.70625 76.10786Q31.096874 74.67036 31.8 73.34223Q32.51875 72.01411 33.33125 71.09223L29.1125 71.09223ZM36.253124 72.02973Q36.253124 71.10786 36.70625 70.46723Q37.175 69.82661 38.05 69.82661Q38.8625 69.82661 39.39375 70.40473Q39.925 70.98286 39.925 72.09223Q39.925 73.18598 39.378124 73.77973Q38.846874 74.35786 38.065624 74.35786Q37.284374 74.35786 36.76875 73.77973Q36.253124 73.20161 36.253124 72.02973ZM38.08125 70.54536Q37.690624 70.54536 37.425 70.88911Q37.175 71.23286 37.175 72.13911Q37.175 72.96723 37.425 73.31098Q37.690624 73.63911 38.08125 73.63911Q38.4875 73.63911 38.7375 73.29536Q39.003124 72.95161 39.003124 72.06098Q39.003124 71.21723 38.7375 70.88911Q38.471874 70.54536 38.08125 70.54536ZM38.08125 78.87348L42.784374 69.82661L43.64375 69.82661L38.95625 78.87348L38.08125 78.87348ZM41.8 76.54536Q41.8 75.62348 42.253124 74.98286Q42.721874 74.34223 43.6125 74.34223Q44.425 74.34223 44.95625 74.92036Q45.4875 75.48286 45.4875 76.60786Q45.4875 77.70161 44.940624 78.29536Q44.409374 78.87348 43.6125 78.87348Q42.846874 78.87348 42.315624 78.29536Q41.8 77.71723 41.8 76.54536ZM43.64375 75.06098Q43.2375 75.06098 42.971874 75.40473Q42.721874 75.74848 42.721874 76.65473Q42.721874 77.46723 42.9875 77.81098Q43.253124 78.15473 43.64375 78.15473Q44.034374 78.15473 44.3 77.81098Q44.565624 77.46723 44.565624 76.56098Q44.565624 75.73286 44.3 75.40473Q44.034374 75.06098 43.64375 75.06098Z" fill-rule="nonzero"/><path stroke="#757575" stroke-width="1.0" stroke-linecap="butt" d="M18.55 66.06098L127.05 66.06098L195.64928 66.06098" fill-rule="nonzero"/><path fill="#9e9e9e" d="M197.64928 66.06098C197.64928 64.95641 196.75385 64.06098 195.64928 64.06098C194.54471 64.06098 193.64928 64.95641 193.64928 66.06098C193.64928 67.16555 194.54471 68.06098 195.64928 68.06098C196.75385 68.06098 197.64928 67.16555 197.64928 66.06098" fill-rule="nonzero"/><path fill="#1a1a1a" d="M21.89375 152.68044L21.89375 149.03981L18.58125 144.08669L19.971874 144.08669L21.659374 146.68044Q22.128124 147.39919 22.534374 148.13356Q22.925 147.46169 23.471874 146.61794L25.14375 144.08669L26.45625 144.08669L23.034374 149.03981L23.034374 152.68044L21.89375 152.68044ZM31.596874 150.68044L32.690624 150.80544Q32.440624 151.75856 31.7375 152.28981Q31.034374 152.82106 29.95625 152.82106Q28.596874 152.82106 27.784374 151.97731Q26.9875 151.13356 26.9875 149.61794Q26.9875 148.05544 27.8 147.19606Q28.6125 146.32106 29.89375 146.32106Q31.14375 146.32106 31.925 147.16481Q32.721874 148.00856 32.721874 149.55544Q32.721874 149.64919 32.721874 149.83669L28.08125 149.83669Q28.14375 150.86794 28.659374 151.41481Q29.175 151.94606 29.95625 151.94606Q30.534374 151.94606 30.940624 151.64919Q31.3625 151.33669 31.596874 150.68044ZM28.14375 148.97731L31.6125 148.97731Q31.55 148.18044 31.221874 147.78981Q30.70625 147.18044 29.909374 147.18044Q29.175 147.18044 28.675 147.66481Q28.190624 148.14919 28.14375 148.97731ZM33.925 150.82106L34.95625 150.66481Q35.05 151.28981 35.440624 151.61794Q35.846874 151.94606 36.58125 151.94606Q37.3 151.94606 37.64375 151.66481Q38.003124 151.36794 38.003124 150.96169Q38.003124 150.60231 37.690624 150.39919Q37.471874 150.25856 36.6125 150.03981Q35.45625 149.74294 35.003124 149.53981Q34.565624 149.32106 34.33125 148.94606Q34.096874 148.57106 34.096874 148.10231Q34.096874 147.69606 34.284374 147.33669Q34.471874 146.97731 34.8 146.74294Q35.05 146.57106 35.471874 146.44606Q35.89375 146.32106 36.39375 146.32106Q37.1125 146.32106 37.659374 146.53981Q38.221874 146.74294 38.4875 147.10231Q38.753124 147.46169 38.846874 148.05544L37.815624 148.19606Q37.753124 147.72731 37.409374 147.46169Q37.08125 147.18044 36.45625 147.18044Q35.7375 147.18044 35.425 147.43044Q35.1125 147.66481 35.1125 147.99294Q35.1125 148.19606 35.2375 148.35231Q35.378124 148.52419 35.64375 148.63356Q35.8 148.69606 36.58125 148.89919Q37.70625 149.21169 38.14375 149.39919Q38.58125 149.58669 38.83125 149.94606Q39.08125 150.30544 39.08125 150.85231Q39.08125 151.38356 38.76875 151.85231Q38.471874 152.30544 37.89375 152.57106Q37.315624 152.82106 36.58125 152.82106Q35.3625 152.82106 34.721874 152.32106Q34.096874 151.80544 33.925 150.82106Z" fill-rule="nonzero"/><path fill="#9e9e9e" d="M23.01875 169.68044L21.971874 169.68044L21.971874 162.96169Q21.58125 163.32106 20.95625 163.69606Q20.346874 164.05544 19.8625 164.22731L19.8625 163.21169Q20.7375 162.78981 21.39375 162.21169Q22.065624 161.61794 22.346874 161.05544L23.01875 161.05544L23.01875 169.68044ZM26.05 167.43044L27.159374 167.33669Q27.284374 168.14919 27.721874 168.55544Q28.175 168.96169 28.815624 168.96169Q29.565624 168.96169 30.096874 168.38356Q30.628124 167.80544 30.628124 166.86794Q30.628124 165.96169 30.1125 165.44606Q29.6125 164.91481 28.784374 164.91481Q28.284374 164.91481 27.8625 165.14919Q27.45625 165.38356 27.221874 165.74294L26.2375 165.61794L27.065624 161.21169L31.346874 161.21169L31.346874 162.21169L27.909374 162.21169L27.45625 164.52419Q28.221874 163.97731 29.065624 163.97731Q30.190624 163.97731 30.95625 164.75856Q31.7375 165.53981 31.7375 166.77419Q31.7375 167.93044 31.065624 168.78981Q30.2375 169.82106 28.815624 169.82106Q27.64375 169.82106 26.89375 169.16481Q26.159374 168.50856 26.05 167.43044ZM33.64375 169.68044L33.64375 168.47731L34.846874 168.47731L34.846874 169.68044L33.64375 169.68044ZM36.1125 162.21169L36.1125 161.19606L41.675 161.19606L41.675 162.02419Q40.8625 162.89919 40.05 164.35231Q39.253124 165.78981 38.815624 167.32106Q38.4875 168.39919 38.409374 169.68044L37.315624 169.68044Q37.33125 168.66481 37.70625 167.22731Q38.096874 165.78981 38.8 164.46169Q39.51875 163.13356 40.33125 162.21169L36.1125 162.21169ZM43.253124 163.14919Q43.253124 162.22731 43.70625 161.58669Q44.175 160.94606 45.05 160.94606Q45.8625 160.94606 46.39375 161.52419Q46.925 162.10231 46.925 163.21169Q46.925 164.30544 46.378124 164.89919Q45.846874 165.47731 45.065624 165.47731Q44.284374 165.47731 43.76875 164.89919Q43.253124 164.32106 43.253124 163.14919ZM45.08125 161.66481Q44.690624 161.66481 44.425 162.00856Q44.175 162.35231 44.175 163.25856Q44.175 164.08669 44.425 164.43044Q44.690624 164.75856 45.08125 164.75856Q45.4875 164.75856 45.7375 164.41481Q46.003124 164.07106 46.003124 163.18044Q46.003124 162.33669 45.7375 162.00856Q45.471874 161.66481 45.08125 161.66481ZM45.08125 169.99294L49.784374 160.94606L50.64375 160.94606L45.95625 169.99294L45.08125 169.99294ZM48.8 167.66481Q48.8 166.74294 49.253124 166.10231Q49.721874 165.46169 50.6125 165.46169Q51.425 165.46169 51.95625 166.03981Q52.4875 166.60231 52.4875 167.72731Q52.4875 168.82106 51.940624 169.41481Q51.409374 169.99294 50.6125 169.99294Q49.846874 169.99294 49.315624 169.41481Q48.8 168.83669 48.8 167.66481ZM50.64375 166.18044Q50.2375 166.18044 49.971874 166.52419Q49.721874 166.86794 49.721874 167.77419Q49.721874 168.58669 49.9875 168.93044Q50.253124 169.27419 50.64375 169.27419Q51.034374 169.27419 51.3 168.93044Q51.565624 168.58669 51.565624 167.68044Q51.565624 166.85231 51.3 166.52419Q51.034374 166.18044 50.64375 166.18044Z" fill-rule="nonzero"/><path stroke="#757575" stroke-width="1.0" stroke-linecap="butt" d="M18.55 157.18044L127.05 157.18044L143.9463 157.18044" fill-rule="nonzero"/><path fill="#9e9e9e" d="M145.9463 157.18044C145.9463 156.07587 145.05087 155.18044 143.9463 155.18044C142.84174 155.18044 141.9463 156.07587 141.9463 157.18044C141.9463 158.285 142.84174 159.18044 143.9463 159.18044C145.05087 159.18044 145.9463 158.285 145.9463 157.18044" fill-rule="nonzero"/><path fill="#1a1a1a" d="M566.3719 274.2242L566.3719 265.63046L567.52814 265.63046L572.04376 272.38046L572.04376 265.63046L573.1375 265.63046L573.1375 274.2242L571.96564 274.2242L567.45 267.4742L567.45 274.2242L566.3719 274.2242ZM574.85626 271.11484Q574.85626 269.38046 575.8094 268.55234Q576.60626 267.86484 577.7625 267.86484Q579.04376 267.86484 579.85626 268.7086Q580.6844 269.5367 580.6844 271.0211Q580.6844 272.2242 580.325 272.9117Q579.96564 273.5992 579.2625 273.98984Q578.575 274.36484 577.7625 274.36484Q576.46564 274.36484 575.65314 273.5367Q574.85626 272.69296 574.85626 271.11484ZM575.9344 271.11484Q575.9344 272.30234 576.45 272.8961Q576.98126 273.48984 577.7625 273.48984Q578.5594 273.48984 579.075 272.8961Q579.59064 272.30234 579.59064 271.0836Q579.59064 269.92734 579.0594 269.3336Q578.54376 268.73984 577.7625 268.73984Q576.98126 268.73984 576.45 269.3336Q575.9344 269.9117 575.9344 271.11484Z" fill-rule="nonzero"/><path fill="#9e9e9e" d="M547.0125 283.75546L547.0125 282.73984L552.575 282.73984L552.575 283.56796Q551.7625 284.44296 550.95 285.8961Q550.15314 287.3336 549.71564 288.86484Q549.3875 289.94296 549.3094 291.2242L548.21564 291.2242Q548.23126 290.2086 548.60626 288.7711Q548.9969 287.3336 549.7 286.00546Q550.41876 284.67734 551.23126 283.75546L547.0125 283.75546ZM553.95 286.98984Q553.95 285.4586 554.2625 284.5367Q554.575 283.5992 555.1844 283.0992Q555.8094 282.5992 556.7469 282.5992Q557.4344 282.5992 557.95 282.88046Q558.48126 283.1617 558.825 283.69296Q559.16876 284.2086 559.35626 284.9586Q559.54376 285.7086 559.54376 286.98984Q559.54376 288.50546 559.23126 289.42734Q558.9344 290.3492 558.3094 290.86484Q557.7 291.36484 556.7469 291.36484Q555.5125 291.36484 554.79376 290.4742Q553.95 289.4117 553.95 286.98984ZM555.02814 286.98984Q555.02814 289.0992 555.52814 289.80234Q556.02814 290.50546 556.7469 290.50546Q557.48126 290.50546 557.96564 289.80234Q558.46564 289.0992 558.46564 286.98984Q558.46564 284.86484 557.96564 284.17734Q557.48126 283.4742 556.73126 283.4742Q556.0125 283.4742 555.575 284.0836Q555.02814 284.86484 555.02814 286.98984ZM561.54376 291.2242L561.54376 290.0211L562.7469 290.0211L562.7469 291.2242L561.54376 291.2242ZM563.95 286.98984Q563.95 285.4586 564.2625 284.5367Q564.575 283.5992 565.1844 283.0992Q565.8094 282.5992 566.7469 282.5992Q567.4344 282.5992 567.95 282.88046Q568.48126 283.1617 568.825 283.69296Q569.16876 284.2086 569.35626 284.9586Q569.54376 285.7086 569.54376 286.98984Q569.54376 288.50546 569.23126 289.42734Q568.9344 290.3492 568.3094 290.86484Q567.7 291.36484 566.7469 291.36484Q565.5125 291.36484 564.79376 290.4742Q563.95 289.4117 563.95 286.98984ZM565.02814 286.98984Q565.02814 289.0992 565.52814 289.80234Q566.02814 290.50546 566.7469 290.50546Q567.48126 290.50546 567.96564 289.80234Q568.46564 289.0992 568.46564 286.98984Q568.46564 284.86484 567.96564 284.17734Q567.48126 283.4742 566.73126 283.4742Q566.0125 283.4742 565.575 284.0836Q565.02814 284.86484 565.02814 286.98984ZM571.15314 284.69296Q571.15314 283.7711 571.60626 283.13046Q572.075 282.48984 572.95 282.48984Q573.7625 282.48984 574.29376 283.06796Q574.825 283.6461 574.825 284.75546Q574.825 285.8492 574.27814 286.44296Q573.7469 287.0211 572.96564 287.0211Q572.1844 287.0211 571.66876 286.44296Q571.15314 285.86484 571.15314 284.69296ZM572.98126 283.2086Q572.59064 283.2086 572.325 283.55234Q572.075 283.8961 572.075 284.80234Q572.075 285.63046 572.325 285.9742Q572.59064 286.30234 572.98126 286.30234Q573.3875 286.30234 573.6375 285.9586Q573.90314 285.61484 573.90314 284.7242Q573.90314 283.88046 573.6375 283.55234Q573.3719 283.2086 572.98126 283.2086ZM572.98126 291.5367L577.6844 282.48984L578.54376 282.48984L573.85626 291.5367L572.98126 291.5367ZM576.7 289.2086Q576.7 288.2867 577.15314 287.6461Q577.6219 287.00546 578.5125 287.00546Q579.325 287.00546 579.85626 287.5836Q580.3875 288.1461 580.3875 289.2711Q580.3875 290.36484 579.84064 290.9586Q579.3094 291.5367 578.5125 291.5367Q577.7469 291.5367 577.21564 290.9586Q576.7 290.38046 576.7 289.2086ZM578.54376 287.7242Q578.1375 287.7242 577.8719 288.06796Q577.6219 288.4117 577.6219 289.31796Q577.6219 290.13046 577.8875 290.4742Q578.15314 290.81796 578.54376 290.81796Q578.9344 290.81796 579.2 290.4742Q579.46564 290.13046 579.46564 289.2242Q579.46564 288.3961 579.2 288.06796Q578.9344 287.7242 578.54376 287.7242Z" fill-rule="nonzero"/><path stroke="#757575" stroke-width="1.0" stroke-linecap="butt" d="M581.45 278.7242L472.95 278.7242L428.3121 278.7242" fill-rule="nonzero"/><path fill="#9e9e9e" d="M430.3121 278.7242C430.3121 277.61963 429.4167 276.7242 428.3121 276.7242C427.20755 276.7242 426.3121 277.61963 426.3121 278.7242C426.3121 279.82877 427.20755 280.7242 428.3121 280.7242C429.4167 280.7242 430.3121 279.82877 430.3121 278.7242" fill-rule="nonzero"/></svg>