<svg version="1.1" viewBox="0.0 0.0 1012.0 325.0" fill="none" stroke="none" stroke-linecap="square" stroke-miterlimit="10" width="1012" height="325" xmlns:xlink="http://www.w3.org/1999/xlink" xmlns="http://www.w3.org/2000/svg"><path fill="#ffffff" d="M0 0L1012.0 0L1012.0 325.0L0 325.0L0 0Z" fill-rule="nonzero"/><path stroke="#333333" stroke-width="1.0" stroke-linecap="butt" d="M90.5 43.5L90.5 293.5" fill-rule="nonzero"/><path stroke="#cccccc" stroke-width="1.0" stroke-linecap="butt" d="M317.5 43.5L317.5 293.5" fill-rule="nonzero"/><path stroke="#cccccc" stroke-width="1.0" stroke-linecap="butt" d="M543.5 43.5L543.5 293.5" fill-rule="nonzero"/><path stroke="#cccccc" stroke-width="1.0" stroke-linecap="butt" d="M769.5 43.5L769.5 293.5" fill-rule="nonzero"/><path stroke="#cccccc" stroke-width="1.0" stroke-linecap="butt" d="M995.5 43.5L995.5 293.5" fill-rule="nonzero"/><clipPath id="id_0"><path d="M90.75 43.083332L995.75 43.083332L995.75 293.25L90.75 293.25L90.75 43.083332Z" clip-rule="nonzero"/></clipPath><path stroke="#000000" stroke-width="0.0" stroke-linecap="butt" stroke-opacity="0.0" clip-path="url(#id_0)" d="M91.0 280.0L91.0 254.0L233.0 254.0L233.0 280.0Z" fill-rule="nonzero"/><path fill="#4285f4" clip-path="url(#id_0)" d="M91.0 280.0L91.0 254.0L233.0 254.0L233.0 280.0Z" fill-rule="nonzero"/><path stroke="#000000" stroke-width="0.0" stroke-linecap="butt" stroke-opacity="0.0" clip-path="url(#id_0)" d="M91.0 240.0L91.0 214.0L362.0 214.0L362.0 240.0Z" fill-rule="nonzero"/><path fill="#4285f4" clip-path="url(#id_0)" d="M91.0 240.0L91.0 214.0L362.0 214.0L362.0 240.0Z" fill-rule="nonzero"/><path stroke="#000000" stroke-width="0.0" stroke-linecap="butt" stroke-opacity="0.0" clip-path="url(#id_0)" d="M91.0 201.0L91.0 175.0L91.0 175.0L91.0 201.0Z" fill-rule="nonzero"/><path fill="#4285f4" clip-path="url(#id_0)" d="M91.0 201.0L91.0 175.0L91.0 175.0L91.0 201.0Z" fill-rule="nonzero"/><path stroke="#000000" stroke-width="0.0" stroke-linecap="butt" stroke-opacity="0.0" clip-path="url(#id_0)" d="M91.0 161.0L91.0 135.0L91.0 135.0L91.0 161.0Z" fill-rule="nonzero"/><path fill="#4285f4" clip-path="url(#id_0)" d="M91.0 161.0L91.0 135.0L91.0 135.0L91.0 161.0Z" fill-rule="nonzero"/><path stroke="#000000" stroke-width="0.0" stroke-linecap="butt" stroke-opacity="0.0" clip-path="url(#id_0)" d="M91.0 122.0L91.0 96.0L996.0 96.0L996.0 122.0Z" fill-rule="nonzero"/><path fill="#4285f4" clip-path="url(#id_0)" d="M91.0 122.0L91.0 96.0L996.0 96.0L996.0 122.0Z" fill-rule="nonzero"/><path stroke="#000000" stroke-width="0.0" stroke-linecap="butt" stroke-opacity="0.0" clip-path="url(#id_0)" d="M91.0 83.0L91.0 57.0L91.0 57.0L91.0 83.0Z" fill-rule="nonzero"/><path fill="#4285f4" clip-path="url(#id_0)" d="M91.0 83.0L91.0 57.0L91.0 57.0L91.0 83.0Z" fill-rule="nonzero"/><path stroke="#000000" stroke-width="0.0" stroke-linecap="butt" stroke-opacity="0.0" clip-path="url(#id_0)" d="M233.0 280.0L233.0 254.0L858.0 254.0L858.0 280.0Z" fill-rule="nonzero"/><path fill="#ea4335" clip-path="url(#id_0)" d="M233.0 280.0L233.0 254.0L858.0 254.0L858.0 280.0Z" fill-rule="nonzero"/><path stroke="#000000" stroke-width="0.0" stroke-linecap="butt" stroke-opacity="0.0" clip-path="url(#id_0)" d="M362.0 240.0L362.0 214.0L905.0 214.0L905.0 240.0Z" fill-rule="nonzero"/><path fill="#ea4335" clip-path="url(#id_0)" d="M362.0 240.0L362.0 214.0L905.0 214.0L905.0 240.0Z" fill-rule="nonzero"/><path stroke="#000000" stroke-width="0.0" stroke-linecap="butt" stroke-opacity="0.0" clip-path="url(#id_0)" d="M91.0 201.0L91.0 175.0L996.0 175.0L996.0 201.0Z" fill-rule="nonzero"/><path fill="#ea4335" clip-path="url(#id_0)" d="M91.0 201.0L91.0 175.0L996.0 175.0L996.0 201.0Z" fill-rule="nonzero"/><path stroke="#000000" stroke-width="0.0" stroke-linecap="butt" stroke-opacity="0.0" clip-path="url(#id_0)" d="M91.0 161.0L91.0 135.0L996.0 135.0L996.0 161.0Z" fill-rule="nonzero"/><path fill="#ea4335" clip-path="url(#id_0)" d="M91.0 161.0L91.0 135.0L996.0 135.0L996.0 161.0Z" fill-rule="nonzero"/><path stroke="#000000" stroke-width="0.0" stroke-linecap="butt" stroke-opacity="0.0" clip-path="url(#id_0)" d="M996.0 122.0L996.0 96.0L996.0 96.0L996.0 122.0Z" fill-rule="nonzero"/><path fill="#ea4335" clip-path="url(#id_0)" d="M996.0 122.0L996.0 96.0L996.0 96.0L996.0 122.0Z" fill-rule="nonzero"/><path stroke="#000000" stroke-width="0.0" stroke-linecap="butt" stroke-opacity="0.0" clip-path="url(#id_0)" d="M91.0 83.0L91.0 57.0L905.0 57.0L905.0 83.0Z" fill-rule="nonzero"/><path fill="#ea4335" clip-path="url(#id_0)" d="M91.0 83.0L91.0 57.0L905.0 57.0L905.0 83.0Z" fill-rule="nonzero"/><path stroke="#000000" stroke-width="0.0" stroke-linecap="butt" stroke-opacity="0.0" clip-path="url(#id_0)" d="M858.0 280.0L858.0 254.0L917.0 254.0L917.0 280.0Z" fill-rule="nonzero"/><path fill="#fbbc04" clip-path="url(#id_0)" d="M858.0 280.0L858.0 254.0L917.0 254.0L917.0 280.0Z" fill-rule="nonzero"/><path stroke="#000000" stroke-width="0.0" stroke-linecap="butt" stroke-opacity="0.0" clip-path="url(#id_0)" d="M905.0 240.0L905.0 214.0L905.0 214.0L905.0 240.0Z" fill-rule="nonzero"/><path fill="#fbbc04" clip-path="url(#id_0)" d="M905.0 240.0L905.0 214.0L905.0 214.0L905.0 240.0Z" fill-rule="nonzero"/><path stroke="#000000" stroke-width="0.0" stroke-linecap="butt" stroke-opacity="0.0" clip-path="url(#id_0)" d="M996.0 201.0L996.0 175.0L996.0 175.0L996.0 201.0Z" fill-rule="nonzero"/><path fill="#fbbc04" clip-path="url(#id_0)" d="M996.0 201.0L996.0 175.0L996.0 175.0L996.0 201.0Z" fill-rule="nonzero"/><path stroke="#000000" stroke-width="0.0" stroke-linecap="butt" stroke-opacity="0.0" clip-path="url(#id_0)" d="M996.0 161.0L996.0 135.0L996.0 135.0L996.0 161.0Z" fill-rule="nonzero"/><path fill="#fbbc04" clip-path="url(#id_0)" d="M996.0 161.0L996.0 135.0L996.0 135.0L996.0 161.0Z" fill-rule="nonzero"/><path stroke="#000000" stroke-width="0.0" stroke-linecap="butt" stroke-opacity="0.0" clip-path="url(#id_0)" d="M996.0 122.0L996.0 96.0L996.0 96.0L996.0 122.0Z" fill-rule="nonzero"/><path fill="#fbbc04" clip-path="url(#id_0)" d="M996.0 122.0L996.0 96.0L996.0 96.0L996.0 122.0Z" fill-rule="nonzero"/><path stroke="#000000" stroke-width="0.0" stroke-linecap="butt" stroke-opacity="0.0" clip-path="url(#id_0)" d="M905.0 83.0L905.0 57.0L905.0 57.0L905.0 83.0Z" fill-rule="nonzero"/><path fill="#fbbc04" clip-path="url(#id_0)" d="M905.0 83.0L905.0 57.0L905.0 57.0L905.0 83.0Z" fill-rule="nonzero"/><path stroke="#000000" stroke-width="0.0" stroke-linecap="butt" stroke-opacity="0.0" clip-path="url(#id_0)" d="M917.0 280.0L917.0 254.0L994.0 254.0C995.10455 254.0 996.0 254.89543 996.0 256.0L996.0 278.0C996.0 279.10458 995.10455 280.0 994.0 280.0Z" fill-rule="nonzero"/><path fill="#34a853" clip-path="url(#id_0)" d="M917.0 280.0L917.0 254.0L994.0 254.0C995.10455 254.0 996.0 254.89543 996.0 256.0L996.0 278.0C996.0 279.10458 995.10455 280.0 994.0 280.0Z" fill-rule="nonzero"/><path stroke="#000000" stroke-width="0.0" stroke-linecap="butt" stroke-opacity="0.0" clip-path="url(#id_0)" d="M905.0 240.0L905.0 214.0L994.0 214.0C995.10455 214.0 996.0 214.89543 996.0 216.0L996.0 238.0C996.0 239.10457 995.10455 240.0 994.0 240.0Z" fill-rule="nonzero"/><path fill="#34a853" clip-path="url(#id_0)" d="M905.0 240.0L905.0 214.0L994.0 214.0C995.10455 214.0 996.0 214.89543 996.0 216.0L996.0 238.0C996.0 239.10457 995.10455 240.0 994.0 240.0Z" fill-rule="nonzero"/><path stroke="#000000" stroke-width="0.0" stroke-linecap="butt" stroke-opacity="0.0" clip-path="url(#id_0)" d="M996.0 201.0L996.0 175.0L996.0 175.0L996.0 201.0Z" fill-rule="nonzero"/><path fill="#34a853" clip-path="url(#id_0)" d="M996.0 201.0L996.0 175.0L996.0 175.0L996.0 201.0Z" fill-rule="nonzero"/><path stroke="#000000" stroke-width="0.0" stroke-linecap="butt" stroke-opacity="0.0" clip-path="url(#id_0)" d="M996.0 161.0L996.0 135.0L996.0 135.0L996.0 161.0Z" fill-rule="nonzero"/><path fill="#34a853" clip-path="url(#id_0)" d="M996.0 161.0L996.0 135.0L996.0 135.0L996.0 161.0Z" fill-rule="nonzero"/><path stroke="#000000" stroke-width="0.0" stroke-linecap="butt" stroke-opacity="0.0" clip-path="url(#id_0)" d="M996.0 122.0L996.0 96.0L996.0 96.0L996.0 122.0Z" fill-rule="nonzero"/><path fill="#34a853" clip-path="url(#id_0)" d="M996.0 122.0L996.0 96.0L996.0 96.0L996.0 122.0Z" fill-rule="nonzero"/><path stroke="#000000" stroke-width="0.0" stroke-linecap="butt" stroke-opacity="0.0" clip-path="url(#id_0)" d="M905.0 83.0L905.0 57.0L994.0 57.0C995.10455 57.0 996.0 57.89543 996.0 59.0L996.0 81.0C996.0 82.10457 995.10455 83.0 994.0 83.0Z" fill-rule="nonzero"/><path fill="#34a853" clip-path="url(#id_0)" d="M905.0 83.0L905.0 57.0L994.0 57.0C995.10455 57.0 996.0 57.89543 996.0 59.0L996.0 81.0C996.0 82.10457 995.10455 83.0 994.0 83.0Z" fill-rule="nonzero"/><path fill="#000000" d="M66.921875 270.15747L66.921875 263.71997L68.203125 263.71997L69.71875 268.28247Q69.9375 268.90747 70.03125 269.2356Q70.140625 268.87622 70.375 268.20435L71.921875 263.71997L73.0625 263.71997L73.0625 270.15747L72.25 270.15747L72.25 264.76685L70.375 270.15747L69.609375 270.15747L67.734375 264.6731L67.734375 270.15747L66.921875 270.15747ZM77.890625 269.57935Q77.453125 269.95435 77.046875 270.1106Q76.640625 270.26685 76.171875 270.26685Q75.40625 270.26685 74.984375 269.89185Q74.578125 269.51685 74.578125 268.9231Q74.578125 268.57935 74.734375 268.2981Q74.890625 268.01685 75.140625 267.84497Q75.390625 267.6731 75.703125 267.57935Q75.9375 267.53247 76.40625 267.46997Q77.375 267.3606 77.828125 267.18872Q77.828125 267.03247 77.828125 266.9856Q77.828125 266.50122 77.609375 266.31372Q77.296875 266.03247 76.703125 266.03247Q76.140625 266.03247 75.875 266.2356Q75.609375 266.4231 75.484375 266.9231L74.71875 266.82935Q74.8125 266.32935 75.046875 266.03247Q75.296875 265.71997 75.75 265.56372Q76.21875 265.39185 76.8125 265.39185Q77.421875 265.39185 77.78125 265.53247Q78.15625 265.6731 78.328125 265.89185Q78.515625 266.09497 78.578125 266.4231Q78.625 266.62622 78.625 267.14185L78.625 268.20435Q78.625 269.2981 78.671875 269.59497Q78.71875 269.89185 78.875 270.15747L78.046875 270.15747Q77.921875 269.90747 77.890625 269.57935ZM77.828125 267.81372Q77.390625 267.9856 76.53125 268.1106Q76.046875 268.18872 75.84375 268.28247Q75.640625 268.3606 75.53125 268.53247Q75.421875 268.70435 75.421875 268.90747Q75.421875 269.21997 75.65625 269.43872Q75.890625 269.64185 76.359375 269.64185Q76.8125 269.64185 77.171875 269.43872Q77.53125 269.2356 77.703125 268.89185Q77.828125 268.62622 77.828125 268.1106L77.828125 267.81372ZM79.828125 270.15747L79.828125 263.71997L80.609375 263.71997L80.609375 270.15747L79.828125 270.15747ZM85.03125 268.65747L85.859375 268.75122Q85.65625 269.46997 85.125 269.87622Q84.609375 270.26685 83.796875 270.26685Q82.78125 270.26685 82.171875 269.64185Q81.578125 269.00122 81.578125 267.8606Q81.578125 266.68872 82.1875 266.0481Q82.796875 265.39185 83.765625 265.39185Q84.703125 265.39185 85.28125 266.03247Q85.875 266.65747 85.875 267.81372Q85.875 267.89185 85.875 268.03247L82.390625 268.03247Q82.4375 268.7981 82.828125 269.20435Q83.21875 269.6106 83.8125 269.6106Q84.25 269.6106 84.546875 269.39185Q84.859375 269.15747 85.03125 268.65747ZM82.4375 267.37622L85.046875 267.37622Q85.0 266.78247 84.75 266.4856Q84.375 266.03247 83.765625 266.03247Q83.21875 266.03247 82.84375 266.40747Q82.484375 266.76685 82.4375 267.37622Z" fill-rule="nonzero"/><path fill="#000000" d="M55.984375 230.76115L55.984375 224.32365L60.328125 224.32365L60.328125 225.07365L56.84375 225.07365L56.84375 227.07365L59.859375 227.07365L59.859375 227.83928L56.84375 227.83928L56.84375 230.76115L55.984375 230.76115ZM65.03125 229.26115L65.859375 229.3549Q65.65625 230.07365 65.125 230.4799Q64.609375 230.87053 63.796875 230.87053Q62.78125 230.87053 62.171875 230.24553Q61.578125 229.6049 61.578125 228.46428Q61.578125 227.2924 62.1875 226.65178Q62.796875 225.99553 63.765625 225.99553Q64.703125 225.99553 65.28125 226.63615Q65.875 227.26115 65.875 228.4174Q65.875 228.49553 65.875 228.63615L62.390625 228.63615Q62.4375 229.40178 62.828125 229.80803Q63.21875 230.21428 63.8125 230.21428Q64.25 230.21428 64.546875 229.99553Q64.859375 229.76115 65.03125 229.26115ZM62.4375 227.9799L65.046875 227.9799Q65.0 227.38615 64.75 227.08928Q64.375 226.63615 63.765625 226.63615Q63.21875 226.63615 62.84375 227.01115Q62.484375 227.37053 62.4375 227.9799ZM66.84375 230.76115L66.84375 226.08928L67.546875 226.08928L67.546875 226.74553Q67.765625 226.40178 68.125 226.19865Q68.5 225.99553 68.96875 225.99553Q69.484375 225.99553 69.8125 226.21428Q70.140625 226.4174 70.28125 226.80803Q70.84375 225.99553 71.71875 225.99553Q72.421875 225.99553 72.796875 226.38615Q73.171875 226.76115 73.171875 227.55803L73.171875 230.76115L72.375 230.76115L72.375 227.82365Q72.375 227.33928 72.296875 227.13615Q72.234375 226.93303 72.03125 226.80803Q71.828125 226.6674 71.546875 226.6674Q71.0625 226.6674 70.734375 226.99553Q70.40625 227.32365 70.40625 228.0424L70.40625 230.76115L69.609375 230.76115L69.609375 227.7299Q69.609375 227.19865 69.421875 226.93303Q69.234375 226.6674 68.796875 226.6674Q68.453125 226.6674 68.171875 226.8549Q67.890625 227.02678 67.765625 227.37053Q67.640625 227.69865 67.640625 228.33928L67.640625 230.76115L66.84375 230.76115ZM77.890625 230.18303Q77.453125 230.55803 77.046875 230.71428Q76.640625 230.87053 76.171875 230.87053Q75.40625 230.87053 74.984375 230.49553Q74.578125 230.12053 74.578125 229.52678Q74.578125 229.18303 74.734375 228.90178Q74.890625 228.62053 75.140625 228.44865Q75.390625 228.27678 75.703125 228.18303Q75.9375 228.13615 76.40625 228.07365Q77.375 227.96428 77.828125 227.7924Q77.828125 227.63615 77.828125 227.58928Q77.828125 227.1049 77.609375 226.9174Q77.296875 226.63615 76.703125 226.63615Q76.140625 226.63615 75.875 226.83928Q75.609375 227.02678 75.484375 227.52678L74.71875 227.43303Q74.8125 226.93303 75.046875 226.63615Q75.296875 226.32365 75.75 226.1674Q76.21875 225.99553 76.8125 225.99553Q77.421875 225.99553 77.78125 226.13615Q78.15625 226.27678 78.328125 226.49553Q78.515625 226.69865 78.578125 227.02678Q78.625 227.2299 78.625 227.74553L78.625 228.80803Q78.625 229.90178 78.671875 230.19865Q78.71875 230.49553 78.875 230.76115L78.046875 230.76115Q77.921875 230.51115 77.890625 230.18303ZM77.828125 228.4174Q77.390625 228.58928 76.53125 228.71428Q76.046875 228.7924 75.84375 228.88615Q75.640625 228.96428 75.53125 229.13615Q75.421875 229.30803 75.421875 229.51115Q75.421875 229.82365 75.65625 230.0424Q75.890625 230.24553 76.359375 230.24553Q76.8125 230.24553 77.171875 230.0424Q77.53125 229.83928 77.703125 229.49553Q77.828125 229.2299 77.828125 228.71428L77.828125 228.4174ZM79.828125 230.76115L79.828125 224.32365L80.609375 224.32365L80.609375 230.76115L79.828125 230.76115ZM85.03125 229.26115L85.859375 229.3549Q85.65625 230.07365 85.125 230.4799Q84.609375 230.87053 83.796875 230.87053Q82.78125 230.87053 82.171875 230.24553Q81.578125 229.6049 81.578125 228.46428Q81.578125 227.2924 82.1875 226.65178Q82.796875 225.99553 83.765625 225.99553Q84.703125 225.99553 85.28125 226.63615Q85.875 227.26115 85.875 228.4174Q85.875 228.49553 85.875 228.63615L82.390625 228.63615Q82.4375 229.40178 82.828125 229.80803Q83.21875 230.21428 83.8125 230.21428Q84.25 230.21428 84.546875 229.99553Q84.859375 229.76115 85.03125 229.26115ZM82.4375 227.9799L85.046875 227.9799Q85.0 227.38615 84.75 227.08928Q84.375 226.63615 83.765625 226.63615Q83.21875 226.63615 82.84375 227.01115Q82.484375 227.37053 82.4375 227.9799Z" fill-rule="nonzero"/><path fill="#000000" d="M36.578125 191.36482L36.578125 185.67732L34.46875 185.67732L34.46875 184.92732L39.5625 184.92732L39.5625 185.67732L37.4375 185.67732L37.4375 191.36482L36.578125 191.36482ZM40.828125 191.36482L40.828125 186.69295L41.546875 186.69295L41.546875 187.4117Q41.8125 186.9117 42.046875 186.75545Q42.28125 186.5992 42.5625 186.5992Q42.953125 186.5992 43.375 186.8492L43.09375 187.58357Q42.8125 187.4117 42.515625 187.4117Q42.265625 187.4117 42.046875 187.56795Q41.84375 187.7242 41.75 188.00545Q41.625 188.42732 41.625 188.92732L41.625 191.36482L40.828125 191.36482ZM46.890625 190.7867Q46.453125 191.1617 46.046875 191.31795Q45.640625 191.4742 45.171875 191.4742Q44.40625 191.4742 43.984375 191.0992Q43.578125 190.7242 43.578125 190.13045Q43.578125 189.7867 43.734375 189.50545Q43.890625 189.2242 44.140625 189.05232Q44.390625 188.88045 44.703125 188.7867Q44.9375 188.73982 45.40625 188.67732Q46.375 188.56795 46.828125 188.39607Q46.828125 188.23982 46.828125 188.19295Q46.828125 187.70857 46.609375 187.52107Q46.296875 187.23982 45.703125 187.23982Q45.140625 187.23982 44.875 187.44295Q44.609375 187.63045 44.484375 188.13045L43.71875 188.0367Q43.8125 187.5367 44.046875 187.23982Q44.296875 186.92732 44.75 186.77107Q45.21875 186.5992 45.8125 186.5992Q46.421875 186.5992 46.78125 186.73982Q47.15625 186.88045 47.328125 187.0992Q47.515625 187.30232 47.578125 187.63045Q47.625 187.83357 47.625 188.3492L47.625 189.4117Q47.625 190.50545 47.671875 190.80232Q47.71875 191.0992 47.875 191.36482L47.046875 191.36482Q46.921875 191.11482 46.890625 190.7867ZM46.828125 189.02107Q46.390625 189.19295 45.53125 189.31795Q45.046875 189.39607 44.84375 189.48982Q44.640625 189.56795 44.53125 189.73982Q44.421875 189.9117 44.421875 190.11482Q44.421875 190.42732 44.65625 190.64607Q44.890625 190.8492 45.359375 190.8492Q45.8125 190.8492 46.171875 190.64607Q46.53125 190.44295 46.703125 190.0992Q46.828125 189.83357 46.828125 189.31795L46.828125 189.02107ZM48.84375 191.36482L48.84375 186.69295L49.5625 186.69295L49.5625 187.36482Q50.0625 186.5992 51.046875 186.5992Q51.46875 186.5992 51.8125 186.75545Q52.171875 186.89607 52.34375 187.14607Q52.515625 187.38045 52.59375 187.7242Q52.640625 187.94295 52.640625 188.48982L52.640625 191.36482L51.84375 191.36482L51.84375 188.52107Q51.84375 188.0367 51.75 187.80232Q51.65625 187.56795 51.421875 187.42732Q51.1875 187.27107 50.875 187.27107Q50.375 187.27107 50.0 187.5992Q49.640625 187.9117 49.640625 188.81795L49.640625 191.36482L48.84375 191.36482ZM53.53125 189.9742L54.3125 189.8492Q54.375 190.31795 54.671875 190.56795Q54.984375 190.81795 55.515625 190.81795Q56.0625 190.81795 56.328125 190.5992Q56.59375 190.38045 56.59375 190.08357Q56.59375 189.80232 56.359375 189.6617Q56.1875 189.55232 55.546875 189.38045Q54.671875 189.1617 54.328125 189.00545Q54.0 188.8492 53.828125 188.56795Q53.65625 188.2867 53.65625 187.94295Q53.65625 187.63045 53.796875 187.36482Q53.9375 187.0992 54.1875 186.9117Q54.375 186.7867 54.6875 186.69295Q55.015625 186.5992 55.375 186.5992Q55.921875 186.5992 56.328125 186.75545Q56.75 186.9117 56.953125 187.17732Q57.15625 187.44295 57.234375 187.89607L56.453125 188.00545Q56.40625 187.64607 56.140625 187.44295Q55.890625 187.23982 55.4375 187.23982Q54.890625 187.23982 54.65625 187.42732Q54.421875 187.5992 54.421875 187.8492Q54.421875 188.00545 54.515625 188.11482Q54.609375 188.25545 54.828125 188.33357Q54.9375 188.38045 55.515625 188.5367Q56.359375 188.75545 56.6875 188.89607Q57.03125 189.0367 57.21875 189.31795Q57.40625 189.58357 57.40625 189.98982Q57.40625 190.39607 57.171875 190.73982Q56.9375 191.08357 56.5 191.2867Q56.078125 191.4742 55.515625 191.4742Q54.609375 191.4742 54.125 191.0992Q53.65625 190.70857 53.53125 189.9742ZM58.703125 191.75545L59.46875 191.86482Q59.515625 192.2242 59.734375 192.38045Q60.03125 192.5992 60.546875 192.5992Q61.09375 192.5992 61.390625 192.38045Q61.6875 192.1617 61.796875 191.77107Q61.859375 191.52107 61.84375 190.75545Q61.328125 191.36482 60.5625 191.36482Q59.59375 191.36482 59.0625 190.67732Q58.546875 189.9742 58.546875 189.00545Q58.546875 188.33357 58.78125 187.77107Q59.03125 187.20857 59.484375 186.9117Q59.9375 186.5992 60.5625 186.5992Q61.390625 186.5992 61.921875 187.25545L61.921875 186.69295L62.65625 186.69295L62.65625 190.7242Q62.65625 191.81795 62.421875 192.27107Q62.203125 192.7242 61.71875 192.98982Q61.25 193.25545 60.546875 193.25545Q59.703125 193.25545 59.1875 192.88045Q58.6875 192.50545 58.703125 191.75545ZM59.359375 188.94295Q59.359375 189.86482 59.71875 190.2867Q60.078125 190.70857 60.625 190.70857Q61.171875 190.70857 61.546875 190.2867Q61.921875 189.86482 61.921875 188.9742Q61.921875 188.11482 61.53125 187.67732Q61.15625 187.23982 60.625 187.23982Q60.09375 187.23982 59.71875 187.67732Q59.359375 188.0992 59.359375 188.94295ZM67.03125 189.86482L67.859375 189.95857Q67.65625 190.67732 67.125 191.08357Q66.609375 191.4742 65.796875 191.4742Q64.78125 191.4742 64.171875 190.8492Q63.578125 190.20857 63.578125 189.06795Q63.578125 187.89607 64.1875 187.25545Q64.796875 186.5992 65.765625 186.5992Q66.703125 186.5992 67.28125 187.23982Q67.875 187.86482 67.875 189.02107Q67.875 189.0992 67.875 189.23982L64.390625 189.23982Q64.4375 190.00545 64.828125 190.4117Q65.21875 190.81795 65.8125 190.81795Q66.25 190.81795 66.546875 190.5992Q66.859375 190.36482 67.03125 189.86482ZM64.4375 188.58357L67.046875 188.58357Q67.0 187.98982 66.75 187.69295Q66.375 187.23982 65.765625 187.23982Q65.21875 187.23982 64.84375 187.61482Q64.484375 187.9742 64.4375 188.58357ZM68.84375 191.36482L68.84375 186.69295L69.5625 186.69295L69.5625 187.36482Q70.0625 186.5992 71.046875 186.5992Q71.46875 186.5992 71.8125 186.75545Q72.171875 186.89607 72.34375 187.14607Q72.515625 187.38045 72.59375 187.7242Q72.640625 187.94295 72.640625 188.48982L72.640625 191.36482L71.84375 191.36482L71.84375 188.52107Q71.84375 188.0367 71.75 187.80232Q71.65625 187.56795 71.421875 187.42732Q71.1875 187.27107 70.875 187.27107Q70.375 187.27107 70.0 187.5992Q69.640625 187.9117 69.640625 188.81795L69.640625 191.36482L68.84375 191.36482ZM76.875 191.36482L76.875 190.77107Q76.421875 191.4742 75.5625 191.4742Q75.015625 191.4742 74.546875 191.1617Q74.078125 190.8492 73.8125 190.30232Q73.5625 189.75545 73.5625 189.0367Q73.5625 188.33357 73.796875 187.77107Q74.03125 187.19295 74.484375 186.89607Q74.953125 186.5992 75.53125 186.5992Q75.953125 186.5992 76.28125 186.77107Q76.609375 186.94295 76.8125 187.23982L76.8125 184.92732L77.609375 184.92732L77.609375 191.36482L76.875 191.36482ZM74.375 189.0367Q74.375 189.92732 74.75 190.38045Q75.125 190.81795 75.640625 190.81795Q76.15625 190.81795 76.515625 190.39607Q76.890625 189.9742 76.890625 189.0992Q76.890625 188.14607 76.515625 187.69295Q76.140625 187.23982 75.609375 187.23982Q75.078125 187.23982 74.71875 187.67732Q74.375 188.11482 74.375 189.0367ZM82.03125 189.86482L82.859375 189.95857Q82.65625 190.67732 82.125 191.08357Q81.609375 191.4742 80.796875 191.4742Q79.78125 191.4742 79.171875 190.8492Q78.578125 190.20857 78.578125 189.06795Q78.578125 187.89607 79.1875 187.25545Q79.796875 186.5992 80.765625 186.5992Q81.703125 186.5992 82.28125 187.23982Q82.875 187.86482 82.875 189.02107Q82.875 189.0992 82.875 189.23982L79.390625 189.23982Q79.4375 190.00545 79.828125 190.4117Q80.21875 190.81795 80.8125 190.81795Q81.25 190.81795 81.546875 190.5992Q81.859375 190.36482 82.03125 189.86482ZM79.4375 188.58357L82.046875 188.58357Q82.0 187.98982 81.75 187.69295Q81.375 187.23982 80.765625 187.23982Q80.21875 187.23982 79.84375 187.61482Q79.484375 187.9742 79.4375 188.58357ZM83.828125 191.36482L83.828125 186.69295L84.546875 186.69295L84.546875 187.4117Q84.8125 186.9117 85.046875 186.75545Q85.28125 186.5992 85.5625 186.5992Q85.953125 186.5992 86.375 186.8492L86.09375 187.58357Q85.8125 187.4117 85.515625 187.4117Q85.265625 187.4117 85.046875 187.56795Q84.84375 187.7242 84.75 188.00545Q84.625 188.42732 84.625 188.92732L84.625 191.36482L83.828125 191.36482Z" fill-rule="nonzero"/><path fill="#000000" d="M41.9375 151.9685L41.9375 145.531L42.8125 145.531L46.1875 150.57788L46.1875 145.531L47.015625 145.531L47.015625 151.9685L46.140625 151.9685L42.75 146.906L42.75 151.9685L41.9375 151.9685ZM48.546875 149.64038Q48.546875 148.3435 49.265625 147.7185Q49.875 147.20288 50.734375 147.20288Q51.703125 147.20288 52.3125 147.82788Q52.921875 148.45288 52.921875 149.56226Q52.921875 150.4685 52.640625 150.98413Q52.375 151.49976 51.859375 151.79663Q51.34375 152.07788 50.734375 152.07788Q49.75 152.07788 49.140625 151.45288Q48.546875 150.81226 48.546875 149.64038ZM49.359375 149.64038Q49.359375 150.531 49.75 150.98413Q50.140625 151.42163 50.734375 151.42163Q51.328125 151.42163 51.71875 150.98413Q52.109375 150.531 52.109375 149.60913Q52.109375 148.74976 51.71875 148.29663Q51.328125 147.8435 50.734375 147.8435Q50.140625 147.8435 49.75 148.29663Q49.359375 148.73413 49.359375 149.64038ZM53.84375 151.9685L53.84375 147.29663L54.5625 147.29663L54.5625 147.9685Q55.0625 147.20288 56.046875 147.20288Q56.46875 147.20288 56.8125 147.35913Q57.171875 147.49976 57.34375 147.74976Q57.515625 147.98413 57.59375 148.32788Q57.640625 148.54663 57.640625 149.0935L57.640625 151.9685L56.84375 151.9685L56.84375 149.12476Q56.84375 148.64038 56.75 148.406Q56.65625 148.17163 56.421875 148.031Q56.1875 147.87476 55.875 147.87476Q55.375 147.87476 55.0 148.20288Q54.640625 148.51538 54.640625 149.42163L54.640625 151.9685L53.84375 151.9685ZM58.53125 150.031L58.53125 149.23413L60.96875 149.23413L60.96875 150.031L58.53125 150.031ZM62.578125 151.9685L61.84375 151.9685L61.84375 145.531L62.625 145.531L62.625 147.82788Q63.125 147.20288 63.90625 147.20288Q64.34375 147.20288 64.71875 147.37476Q65.109375 147.54663 65.359375 147.85913Q65.609375 148.17163 65.75 148.62476Q65.890625 149.06226 65.890625 149.56226Q65.890625 150.76538 65.296875 151.42163Q64.703125 152.07788 63.875 152.07788Q63.046875 152.07788 62.578125 151.39038L62.578125 151.9685ZM62.5625 149.5935Q62.5625 150.43726 62.796875 150.81226Q63.171875 151.42163 63.796875 151.42163Q64.328125 151.42163 64.703125 150.9685Q65.078125 150.51538 65.078125 149.62476Q65.078125 148.7185 64.71875 148.281Q64.359375 147.8435 63.84375 147.8435Q63.3125 147.8435 62.9375 148.29663Q62.5625 148.74976 62.5625 149.5935ZM66.84375 146.43726L66.84375 145.531L67.640625 145.531L67.640625 146.43726L66.84375 146.43726ZM66.84375 151.9685L66.84375 147.29663L67.640625 147.29663L67.640625 151.9685L66.84375 151.9685ZM68.84375 151.9685L68.84375 147.29663L69.5625 147.29663L69.5625 147.9685Q70.0625 147.20288 71.046875 147.20288Q71.46875 147.20288 71.8125 147.35913Q72.171875 147.49976 72.34375 147.74976Q72.515625 147.98413 72.59375 148.32788Q72.640625 148.54663 72.640625 149.0935L72.640625 151.9685L71.84375 151.9685L71.84375 149.12476Q71.84375 148.64038 71.75 148.406Q71.65625 148.17163 71.421875 148.031Q71.1875 147.87476 70.875 147.87476Q70.375 147.87476 70.0 148.20288Q69.640625 148.51538 69.640625 149.42163L69.640625 151.9685L68.84375 151.9685ZM76.890625 151.39038Q76.453125 151.76538 76.046875 151.92163Q75.640625 152.07788 75.171875 152.07788Q74.40625 152.07788 73.984375 151.70288Q73.578125 151.32788 73.578125 150.73413Q73.578125 150.39038 73.734375 150.10913Q73.890625 149.82788 74.140625 149.656Q74.390625 149.48413 74.703125 149.39038Q74.9375 149.3435 75.40625 149.281Q76.375 149.17163 76.828125 148.99976Q76.828125 148.8435 76.828125 148.79663Q76.828125 148.31226 76.609375 148.12476Q76.296875 147.8435 75.703125 147.8435Q75.140625 147.8435 74.875 148.04663Q74.609375 148.23413 74.484375 148.73413L73.71875 148.64038Q73.8125 148.14038 74.046875 147.8435Q74.296875 147.531 74.75 147.37476Q75.21875 147.20288 75.8125 147.20288Q76.421875 147.20288 76.78125 147.3435Q77.15625 147.48413 77.328125 147.70288Q77.515625 147.906 77.578125 148.23413Q77.625 148.43726 77.625 148.95288L77.625 150.01538Q77.625 151.10913 77.671875 151.406Q77.71875 151.70288 77.875 151.9685L77.046875 151.9685Q76.921875 151.7185 76.890625 151.39038ZM76.828125 149.62476Q76.390625 149.79663 75.53125 149.92163Q75.046875 149.99976 74.84375 150.0935Q74.640625 150.17163 74.53125 150.3435Q74.421875 150.51538 74.421875 150.7185Q74.421875 151.031 74.65625 151.24976Q74.890625 151.45288 75.359375 151.45288Q75.8125 151.45288 76.171875 151.24976Q76.53125 151.04663 76.703125 150.70288Q76.828125 150.43726 76.828125 149.92163L76.828125 149.62476ZM78.828125 151.9685L78.828125 147.29663L79.546875 147.29663L79.546875 148.01538Q79.8125 147.51538 80.046875 147.35913Q80.28125 147.20288 80.5625 147.20288Q80.953125 147.20288 81.375 147.45288L81.09375 148.18726Q80.8125 148.01538 80.515625 148.01538Q80.265625 148.01538 80.046875 148.17163Q79.84375 148.32788 79.75 148.60913Q79.625 149.031 79.625 149.531L79.625 151.9685L78.828125 151.9685ZM81.8125 153.76538L81.71875 153.031Q81.984375 153.0935 82.171875 153.0935Q82.4375 153.0935 82.59375 152.99976Q82.75 152.92163 82.859375 152.76538Q82.921875 152.64038 83.09375 152.17163Q83.125 152.10913 83.171875 151.98413L81.390625 147.29663L82.25 147.29663L83.21875 149.99976Q83.40625 150.51538 83.5625 151.07788Q83.6875 150.54663 83.875 150.01538L84.875 147.29663L85.671875 147.29663L83.890625 152.04663Q83.609375 152.81226 83.453125 153.10913Q83.234375 153.49976 82.96875 153.67163Q82.703125 153.85913 82.3125 153.85913Q82.09375 153.85913 81.8125 153.76538Z" fill-rule="nonzero"/><path fill="#000000" d="M66.984375 112.57218L66.984375 106.13468L71.328125 106.13468L71.328125 106.88468L67.84375 106.88468L67.84375 108.88468L70.859375 108.88468L70.859375 109.65031L67.84375 109.65031L67.84375 112.57218L66.984375 112.57218ZM72.828125 112.57218L72.828125 106.13468L73.609375 106.13468L73.609375 112.57218L72.828125 112.57218ZM77.90625 112.57218L77.90625 111.88468Q77.359375 112.68156 76.421875 112.68156Q76.015625 112.68156 75.65625 112.52531Q75.296875 112.35343 75.109375 112.11906Q74.9375 111.88468 74.875 111.54093Q74.828125 111.30656 74.828125 110.79093L74.828125 107.90031L75.609375 107.90031L75.609375 110.49406Q75.609375 111.11906 75.671875 111.32218Q75.734375 111.63468 75.96875 111.82218Q76.21875 111.99406 76.578125 111.99406Q76.9375 111.99406 77.25 111.82218Q77.5625 111.63468 77.6875 111.32218Q77.8125 111.00968 77.8125 110.40031L77.8125 107.90031L78.609375 107.90031L78.609375 112.57218L77.90625 112.57218ZM79.84375 107.04093L79.84375 106.13468L80.640625 106.13468L80.640625 107.04093L79.84375 107.04093ZM79.84375 112.57218L79.84375 107.90031L80.640625 107.90031L80.640625 112.57218L79.84375 112.57218ZM84.875 112.57218L84.875 111.97843Q84.421875 112.68156 83.5625 112.68156Q83.015625 112.68156 82.546875 112.36906Q82.078125 112.05656 81.8125 111.50968Q81.5625 110.96281 81.5625 110.24406Q81.5625 109.54093 81.796875 108.97843Q82.03125 108.40031 82.484375 108.10343Q82.953125 107.80656 83.53125 107.80656Q83.953125 107.80656 84.28125 107.97843Q84.609375 108.15031 84.8125 108.44718L84.8125 106.13468L85.609375 106.13468L85.609375 112.57218L84.875 112.57218ZM82.375 110.24406Q82.375 111.13468 82.75 111.58781Q83.125 112.02531 83.640625 112.02531Q84.15625 112.02531 84.515625 111.60343Q84.890625 111.18156 84.890625 110.30656Q84.890625 109.35343 84.515625 108.90031Q84.140625 108.44718 83.609375 108.44718Q83.078125 108.44718 82.71875 108.88468Q82.375 109.32218 82.375 110.24406Z" fill-rule="nonzero"/><path fill="#000000" d="M16.9375 73.17585L16.9375 66.73835L19.375 66.73835Q20.015625 66.73835 20.359375 66.80085Q20.828125 66.878975 21.140625 67.097725Q21.46875 67.316475 21.65625 67.722725Q21.859375 68.11335 21.859375 68.597725Q21.859375 69.42585 21.328125 69.98835Q20.8125 70.55085 19.453125 70.55085L17.796875 70.55085L17.796875 73.17585L16.9375 73.17585ZM17.796875 69.80085L19.46875 69.80085Q20.28125 69.80085 20.625 69.48835Q20.984375 69.17585 20.984375 68.628975Q20.984375 68.222725 20.78125 67.941475Q20.578125 67.6446 20.234375 67.55085Q20.03125 67.48835 19.4375 67.48835L17.796875 67.48835L17.796875 69.80085ZM22.828125 73.17585L22.828125 68.503975L23.546875 68.503975L23.546875 69.222725Q23.8125 68.722725 24.046875 68.566475Q24.28125 68.410225 24.5625 68.410225Q24.953125 68.410225 25.375 68.660225L25.09375 69.3946Q24.8125 69.222725 24.515625 69.222725Q24.265625 69.222725 24.046875 69.378975Q23.84375 69.535225 23.75 69.816475Q23.625 70.23835 23.625 70.73835L23.625 73.17585L22.828125 73.17585ZM29.03125 71.67585L29.859375 71.7696Q29.65625 72.48835 29.125 72.8946Q28.609375 73.285225 27.796875 73.285225Q26.78125 73.285225 26.171875 72.660225Q25.578125 72.0196 25.578125 70.878975Q25.578125 69.7071 26.1875 69.066475Q26.796875 68.410225 27.765625 68.410225Q28.703125 68.410225 29.28125 69.05085Q29.875 69.67585 29.875 70.8321Q29.875 70.910225 29.875 71.05085L26.390625 71.05085Q26.4375 71.816475 26.828125 72.222725Q27.21875 72.628975 27.8125 72.628975Q28.25 72.628975 28.546875 72.410225Q28.859375 72.17585 29.03125 71.67585ZM26.4375 70.3946L29.046875 70.3946Q29.0 69.80085 28.75 69.503975Q28.375 69.05085 27.765625 69.05085Q27.21875 69.05085 26.84375 69.42585Q26.484375 69.785225 26.4375 70.3946ZM31.03125 73.17585L31.03125 69.128975L30.328125 69.128975L30.328125 68.503975L31.03125 68.503975L31.03125 68.0196Q31.03125 67.535225 31.109375 67.316475Q31.234375 67.003975 31.515625 66.816475Q31.8125 66.628975 32.328125 66.628975Q32.65625 66.628975 33.0625 66.7071L32.9375 67.3946Q32.703125 67.347725 32.484375 67.347725Q32.125 67.347725 31.96875 67.503975Q31.8125 67.660225 31.8125 68.0821L31.8125 68.503975L32.734375 68.503975L32.734375 69.128975L31.8125 69.128975L31.8125 73.17585L31.03125 73.17585ZM37.03125 71.67585L37.859375 71.7696Q37.65625 72.48835 37.125 72.8946Q36.609375 73.285225 35.796875 73.285225Q34.78125 73.285225 34.171875 72.660225Q33.578125 72.0196 33.578125 70.878975Q33.578125 69.7071 34.1875 69.066475Q34.796875 68.410225 35.765625 68.410225Q36.703125 68.410225 37.28125 69.05085Q37.875 69.67585 37.875 70.8321Q37.875 70.910225 37.875 71.05085L34.390625 71.05085Q34.4375 71.816475 34.828125 72.222725Q35.21875 72.628975 35.8125 72.628975Q36.25 72.628975 36.546875 72.410225Q36.859375 72.17585 37.03125 71.67585ZM34.4375 70.3946L37.046875 70.3946Q37.0 69.80085 36.75 69.503975Q36.375 69.05085 35.765625 69.05085Q35.21875 69.05085 34.84375 69.42585Q34.484375 69.785225 34.4375 70.3946ZM38.828125 73.17585L38.828125 68.503975L39.546875 68.503975L39.546875 69.222725Q39.8125 68.722725 40.046875 68.566475Q40.28125 68.410225 40.5625 68.410225Q40.953125 68.410225 41.375 68.660225L41.09375 69.3946Q40.8125 69.222725 40.515625 69.222725Q40.265625 69.222725 40.046875 69.378975Q39.84375 69.535225 39.75 69.816475Q39.625 70.23835 39.625 70.73835L39.625 73.17585L38.828125 73.17585ZM44.84375 73.17585L44.84375 68.503975L45.5625 68.503975L45.5625 69.17585Q46.0625 68.410225 47.046875 68.410225Q47.46875 68.410225 47.8125 68.566475Q48.171875 68.7071 48.34375 68.9571Q48.515625 69.191475 48.59375 69.535225Q48.640625 69.753975 48.640625 70.30085L48.640625 73.17585L47.84375 73.17585L47.84375 70.3321Q47.84375 69.847725 47.75 69.61335Q47.65625 69.378975 47.421875 69.23835Q47.1875 69.0821 46.875 69.0821Q46.375 69.0821 46.0 69.410225Q45.640625 69.722725 45.640625 70.628975L45.640625 73.17585L44.84375 73.17585ZM49.546875 70.847725Q49.546875 69.55085 50.265625 68.92585Q50.875 68.410225 51.734375 68.410225Q52.703125 68.410225 53.3125 69.035225Q53.921875 69.660225 53.921875 70.7696Q53.921875 71.67585 53.640625 72.191475Q53.375 72.7071 52.859375 73.003975Q52.34375 73.285225 51.734375 73.285225Q50.75 73.285225 50.140625 72.660225Q49.546875 72.0196 49.546875 70.847725ZM50.359375 70.847725Q50.359375 71.73835 50.75 72.191475Q51.140625 72.628975 51.734375 72.628975Q52.328125 72.628975 52.71875 72.191475Q53.109375 71.73835 53.109375 70.816475Q53.109375 69.9571 52.71875 69.503975Q52.328125 69.05085 51.734375 69.05085Q51.140625 69.05085 50.75 69.503975Q50.359375 69.941475 50.359375 70.847725ZM56.578125 72.472725L56.6875 73.160225Q56.34375 73.23835 56.09375 73.23835Q55.65625 73.23835 55.421875 73.097725Q55.1875 72.9571 55.078125 72.73835Q54.984375 72.5196 54.984375 71.816475L54.984375 69.128975L54.40625 69.128975L54.40625 68.503975L54.984375 68.503975L54.984375 67.347725L55.78125 66.878975L55.78125 68.503975L56.578125 68.503975L56.578125 69.128975L55.78125 69.128975L55.78125 71.847725Q55.78125 72.191475 55.8125 72.285225Q55.859375 72.378975 55.953125 72.441475Q56.046875 72.503975 56.21875 72.503975Q56.359375 72.503975 56.578125 72.472725ZM62.578125 72.472725L62.6875 73.160225Q62.34375 73.23835 62.09375 73.23835Q61.65625 73.23835 61.421875 73.097725Q61.1875 72.9571 61.078125 72.73835Q60.984375 72.5196 60.984375 71.816475L60.984375 69.128975L60.40625 69.128975L60.40625 68.503975L60.984375 68.503975L60.984375 67.347725L61.78125 66.878975L61.78125 68.503975L62.578125 68.503975L62.578125 69.128975L61.78125 69.128975L61.78125 71.847725Q61.78125 72.191475 61.8125 72.285225Q61.859375 72.378975 61.953125 72.441475Q62.046875 72.503975 62.21875 72.503975Q62.359375 72.503975 62.578125 72.472725ZM63.546875 70.847725Q63.546875 69.55085 64.265625 68.92585Q64.875 68.410225 65.734375 68.410225Q66.703125 68.410225 67.3125 69.035225Q67.921875 69.660225 67.921875 70.7696Q67.921875 71.67585 67.640625 72.191475Q67.375 72.7071 66.859375 73.003975Q66.34375 73.285225 65.734375 73.285225Q64.75 73.285225 64.140625 72.660225Q63.546875 72.0196 63.546875 70.847725ZM64.359375 70.847725Q64.359375 71.73835 64.75 72.191475Q65.140625 72.628975 65.734375 72.628975Q66.328125 72.628975 66.71875 72.191475Q67.109375 71.73835 67.109375 70.816475Q67.109375 69.9571 66.71875 69.503975Q66.328125 69.05085 65.734375 69.05085Q65.140625 69.05085 64.75 69.503975Q64.359375 69.941475 64.359375 70.847725ZM71.53125 71.785225L72.3125 71.660225Q72.375 72.128975 72.671875 72.378975Q72.984375 72.628975 73.515625 72.628975Q74.0625 72.628975 74.328125 72.410225Q74.59375 72.191475 74.59375 71.8946Q74.59375 71.61335 74.359375 71.472725Q74.1875 71.36335 73.546875 71.191475Q72.671875 70.972725 72.328125 70.816475Q72.0 70.660225 71.828125 70.378975Q71.65625 70.097725 71.65625 69.753975Q71.65625 69.441475 71.796875 69.17585Q71.9375 68.910225 72.1875 68.722725Q72.375 68.597725 72.6875 68.503975Q73.015625 68.410225 73.375 68.410225Q73.921875 68.410225 74.328125 68.566475Q74.75 68.722725 74.953125 68.98835Q75.15625 69.253975 75.234375 69.7071L74.453125 69.816475Q74.40625 69.4571 74.140625 69.253975Q73.890625 69.05085 73.4375 69.05085Q72.890625 69.05085 72.65625 69.23835Q72.421875 69.410225 72.421875 69.660225Q72.421875 69.816475 72.515625 69.92585Q72.609375 70.066475 72.828125 70.1446Q72.9375 70.191475 73.515625 70.347725Q74.359375 70.566475 74.6875 70.7071Q75.03125 70.847725 75.21875 71.128975Q75.40625 71.3946 75.40625 71.80085Q75.40625 72.2071 75.171875 72.55085Q74.9375 72.8946 74.5 73.097725Q74.078125 73.285225 73.515625 73.285225Q72.609375 73.285225 72.125 72.910225Q71.65625 72.5196 71.53125 71.785225ZM79.890625 72.597725Q79.453125 72.972725 79.046875 73.128975Q78.640625 73.285225 78.171875 73.285225Q77.40625 73.285225 76.984375 72.910225Q76.578125 72.535225 76.578125 71.941475Q76.578125 71.597725 76.734375 71.316475Q76.890625 71.035225 77.140625 70.86335Q77.390625 70.691475 77.703125 70.597725Q77.9375 70.55085 78.40625 70.48835Q79.375 70.378975 79.828125 70.2071Q79.828125 70.05085 79.828125 70.003975Q79.828125 69.5196 79.609375 69.3321Q79.296875 69.05085 78.703125 69.05085Q78.140625 69.05085 77.875 69.253975Q77.609375 69.441475 77.484375 69.941475L76.71875 69.847725Q76.8125 69.347725 77.046875 69.05085Q77.296875 68.73835 77.75 68.5821Q78.21875 68.410225 78.8125 68.410225Q79.421875 68.410225 79.78125 68.55085Q80.15625 68.691475 80.328125 68.910225Q80.515625 69.11335 80.578125 69.441475Q80.625 69.6446 80.625 70.160225L80.625 71.222725Q80.625 72.316475 80.671875 72.61335Q80.71875 72.910225 80.875 73.17585L80.046875 73.17585Q79.921875 72.92585 79.890625 72.597725ZM79.828125 70.8321Q79.390625 71.003975 78.53125 71.128975Q78.046875 71.2071 77.84375 71.30085Q77.640625 71.378975 77.53125 71.55085Q77.421875 71.722725 77.421875 71.92585Q77.421875 72.23835 77.65625 72.4571Q77.890625 72.660225 78.359375 72.660225Q78.8125 72.660225 79.171875 72.4571Q79.53125 72.253975 79.703125 71.910225Q79.828125 71.6446 79.828125 71.128975L79.828125 70.8321ZM81.8125 74.972725L81.71875 74.23835Q81.984375 74.30085 82.171875 74.30085Q82.4375 74.30085 82.59375 74.2071Q82.75 74.128975 82.859375 73.972725Q82.921875 73.847725 83.09375 73.378975Q83.125 73.316475 83.171875 73.191475L81.390625 68.503975L82.25 68.503975L83.21875 71.2071Q83.40625 71.722725 83.5625 72.285225Q83.6875 71.753975 83.875 71.222725L84.875 68.503975L85.671875 68.503975L83.890625 73.253975Q83.609375 74.0196 83.453125 74.316475Q83.234375 74.7071 82.96875 74.878975Q82.703125 75.066475 82.3125 75.066475Q82.09375 75.066475 81.8125 74.972725Z" fill-rule="nonzero"/><path fill="#000000" d="M84.625 303.57812Q84.625 302.4375 84.859375 301.73438Q85.09375 301.03125 85.546875 300.65625Q86.015625 300.28125 86.71875 300.28125Q87.25 300.28125 87.640625 300.5Q88.03125 300.70312 88.28125 301.09375Q88.53125 301.48438 88.671875 302.04688Q88.828125 302.60938 88.828125 303.57812Q88.828125 304.70312 88.59375 305.40625Q88.359375 306.09375 87.890625 306.48438Q87.4375 306.85938 86.71875 306.85938Q85.796875 306.85938 85.265625 306.1875Q84.625 305.39062 84.625 303.57812ZM85.4375 303.57812Q85.4375 305.15625 85.796875 305.6875Q86.171875 306.20312 86.71875 306.20312Q87.265625 306.20312 87.640625 305.6875Q88.015625 305.15625 88.015625 303.57812Q88.015625 301.98438 87.640625 301.46875Q87.265625 300.9375 86.71875 300.9375Q86.171875 300.9375 85.84375 301.39062Q85.4375 301.98438 85.4375 303.57812ZM89.765625 301.85938Q89.765625 301.17188 90.109375 300.6875Q90.46875 300.20312 91.125 300.20312Q91.734375 300.20312 92.125 300.64062Q92.53125 301.0625 92.53125 301.90625Q92.53125 302.71875 92.125 303.17188Q91.71875 303.60938 91.140625 303.60938Q90.546875 303.60938 90.15625 303.17188Q89.765625 302.73438 89.765625 301.85938ZM91.15625 300.75Q90.859375 300.75 90.65625 301.0Q90.46875 301.25 90.46875 301.9375Q90.46875 302.54688 90.65625 302.8125Q90.859375 303.0625 91.15625 303.0625Q91.453125 303.0625 91.640625 302.8125Q91.84375 302.54688 91.84375 301.875Q91.84375 301.25 91.640625 301.0Q91.4375 300.75 91.15625 300.75ZM91.15625 306.98438L94.671875 300.20312L95.3125 300.20312L91.8125 306.98438L91.15625 306.98438ZM93.9375 305.23438Q93.9375 304.54688 94.28125 304.0625Q94.640625 303.57812 95.296875 303.57812Q95.90625 303.57812 96.296875 304.01562Q96.703125 304.45312 96.703125 305.28125Q96.703125 306.10938 96.296875 306.54688Q95.890625 306.98438 95.296875 306.98438Q94.71875 306.98438 94.328125 306.54688Q93.9375 306.10938 93.9375 305.23438ZM95.3125 304.125Q95.015625 304.125 94.8125 304.39062Q94.625 304.64062 94.625 305.3125Q94.625 305.9375 94.828125 306.1875Q95.03125 306.4375 95.3125 306.4375Q95.625 306.4375 95.8125 306.1875Q96.015625 305.9375 96.015625 305.25Q96.015625 304.625 95.8125 304.375Q95.609375 304.125 95.3125 304.125Z" fill-rule="nonzero"/><path fill="#000000" d="M312.53125 305.98438L312.53125 306.75L308.26562 306.75Q308.26562 306.46875 308.35938 306.20312Q308.53125 305.76562 308.89062 305.34375Q309.25 304.92188 309.92188 304.375Q310.96875 303.5 311.32812 303.0Q311.70312 302.5 311.70312 302.04688Q311.70312 301.57812 311.35938 301.26562Q311.03125 300.9375 310.5 300.9375Q309.92188 300.9375 309.57812 301.28125Q309.23438 301.625 309.23438 302.23438L308.42188 302.14062Q308.5 301.23438 309.04688 300.76562Q309.59375 300.28125 310.51562 300.28125Q311.4375 300.28125 311.96875 300.79688Q312.51562 301.3125 312.51562 302.0625Q312.51562 302.45312 312.35938 302.82812Q312.20312 303.20312 311.82812 303.625Q311.46875 304.03125 310.625 304.75Q309.90625 305.34375 309.70312 305.5625Q309.5 305.78125 309.375 305.98438L312.53125 305.98438ZM313.375 305.0625L314.20312 304.98438Q314.29688 305.59375 314.625 305.90625Q314.96875 306.20312 315.4375 306.20312Q316.01562 306.20312 316.40625 305.78125Q316.8125 305.34375 316.8125 304.64062Q316.8125 303.95312 316.42188 303.5625Q316.04688 303.17188 315.4375 303.17188Q315.04688 303.17188 314.73438 303.35938Q314.4375 303.53125 314.25 303.79688L313.51562 303.70312L314.14062 300.39062L317.34375 300.39062L317.34375 301.15625L314.76562 301.15625L314.42188 302.875Q315.0 302.48438 315.64062 302.48438Q316.48438 302.48438 317.0625 303.0625Q317.64062 303.64062 317.64062 304.5625Q317.64062 305.4375 317.14062 306.07812Q316.51562 306.85938 315.4375 306.85938Q314.5625 306.85938 314.0 306.375Q313.45312 305.875 313.375 305.0625ZM318.51562 301.85938Q318.51562 301.17188 318.85938 300.6875Q319.21875 300.20312 319.875 300.20312Q320.48438 300.20312 320.875 300.64062Q321.28125 301.0625 321.28125 301.90625Q321.28125 302.71875 320.875 303.17188Q320.46875 303.60938 319.89062 303.60938Q319.29688 303.60938 318.90625 303.17188Q318.51562 302.73438 318.51562 301.85938ZM319.90625 300.75Q319.60938 300.75 319.40625 301.0Q319.21875 301.25 319.21875 301.9375Q319.21875 302.54688 319.40625 302.8125Q319.60938 303.0625 319.90625 303.0625Q320.20312 303.0625 320.39062 302.8125Q320.59375 302.54688 320.59375 301.875Q320.59375 301.25 320.39062 301.0Q320.1875 300.75 319.90625 300.75ZM319.90625 306.98438L323.42188 300.20312L324.0625 300.20312L320.5625 306.98438L319.90625 306.98438ZM322.6875 305.23438Q322.6875 304.54688 323.03125 304.0625Q323.39062 303.57812 324.04688 303.57812Q324.65625 303.57812 325.04688 304.01562Q325.45312 304.45312 325.45312 305.28125Q325.45312 306.10938 325.04688 306.54688Q324.64062 306.98438 324.04688 306.98438Q323.46875 306.98438 323.07812 306.54688Q322.6875 306.10938 322.6875 305.23438ZM324.0625 304.125Q323.76562 304.125 323.5625 304.39062Q323.375 304.64062 323.375 305.3125Q323.375 305.9375 323.57812 306.1875Q323.78125 306.4375 324.0625 306.4375Q324.375 306.4375 324.5625 306.1875Q324.76562 305.9375 324.76562 305.25Q324.76562 304.625 324.5625 304.375Q324.35938 304.125 324.0625 304.125Z" fill-rule="nonzero"/><path fill="#000000" d="M534.625 305.0625L535.4531 304.98438Q535.5469 305.59375 535.875 305.90625Q536.21875 306.20312 536.6875 306.20312Q537.2656 306.20312 537.65625 305.78125Q538.0625 305.34375 538.0625 304.64062Q538.0625 303.95312 537.6719 303.5625Q537.2969 303.17188 536.6875 303.17188Q536.2969 303.17188 535.9844 303.35938Q535.6875 303.53125 535.5 303.79688L534.7656 303.70312L535.3906 300.39062L538.59375 300.39062L538.59375 301.15625L536.0156 301.15625L535.6719 302.875Q536.25 302.48438 536.8906 302.48438Q537.7344 302.48438 538.3125 303.0625Q538.8906 303.64062 538.8906 304.5625Q538.8906 305.4375 538.3906 306.07812Q537.7656 306.85938 536.6875 306.85938Q535.8125 306.85938 535.25 306.375Q534.7031 305.875 534.625 305.0625ZM539.625 303.57812Q539.625 302.4375 539.8594 301.73438Q540.09375 301.03125 540.5469 300.65625Q541.0156 300.28125 541.71875 300.28125Q542.25 300.28125 542.6406 300.5Q543.03125 300.70312 543.28125 301.09375Q543.53125 301.48438 543.6719 302.04688Q543.8281 302.60938 543.8281 303.57812Q543.8281 304.70312 543.59375 305.40625Q543.3594 306.09375 542.8906 306.48438Q542.4375 306.85938 541.71875 306.85938Q540.7969 306.85938 540.2656 306.1875Q539.625 305.39062 539.625 303.57812ZM540.4375 303.57812Q540.4375 305.15625 540.7969 305.6875Q541.1719 306.20312 541.71875 306.20312Q542.2656 306.20312 542.6406 305.6875Q543.0156 305.15625 543.0156 303.57812Q543.0156 301.98438 542.6406 301.46875Q542.2656 300.9375 541.71875 300.9375Q541.1719 300.9375 540.84375 301.39062Q540.4375 301.98438 540.4375 303.57812ZM544.7656 301.85938Q544.7656 301.17188 545.1094 300.6875Q545.46875 300.20312 546.125 300.20312Q546.7344 300.20312 547.125 300.64062Q547.53125 301.0625 547.53125 301.90625Q547.53125 302.71875 547.125 303.17188Q546.71875 303.60938 546.1406 303.60938Q545.5469 303.60938 545.15625 303.17188Q544.7656 302.73438 544.7656 301.85938ZM546.15625 300.75Q545.8594 300.75 545.65625 301.0Q545.46875 301.25 545.46875 301.9375Q545.46875 302.54688 545.65625 302.8125Q545.8594 303.0625 546.15625 303.0625Q546.4531 303.0625 546.6406 302.8125Q546.84375 302.54688 546.84375 301.875Q546.84375 301.25 546.6406 301.0Q546.4375 300.75 546.15625 300.75ZM546.15625 306.98438L549.6719 300.20312L550.3125 300.20312L546.8125 306.98438L546.15625 306.98438ZM548.9375 305.23438Q548.9375 304.54688 549.28125 304.0625Q549.6406 303.57812 550.2969 303.57812Q550.90625 303.57812 551.2969 304.01562Q551.7031 304.45312 551.7031 305.28125Q551.7031 306.10938 551.2969 306.54688Q550.8906 306.98438 550.2969 306.98438Q549.71875 306.98438 549.3281 306.54688Q548.9375 306.10938 548.9375 305.23438ZM550.3125 304.125Q550.0156 304.125 549.8125 304.39062Q549.625 304.64062 549.625 305.3125Q549.625 305.9375 549.8281 306.1875Q550.03125 306.4375 550.3125 306.4375Q550.625 306.4375 550.8125 306.1875Q551.0156 305.9375 551.0156 305.25Q551.0156 304.625 550.8125 304.375Q550.6094 304.125 550.3125 304.125Z" fill-rule="nonzero"/><path fill="#000000" d="M760.9219 301.15625L760.9219 300.39062L765.09375 300.39062L765.09375 301.0Q764.4844 301.65625 763.875 302.75Q763.2656 303.82812 762.9375 304.98438Q762.7031 305.78125 762.6406 306.75L761.8281 306.75Q761.84375 305.98438 762.125 304.92188Q762.40625 303.84375 762.9375 302.84375Q763.4844 301.84375 764.0781 301.15625L760.9219 301.15625ZM765.875 305.0625L766.7031 304.98438Q766.7969 305.59375 767.125 305.90625Q767.46875 306.20312 767.9375 306.20312Q768.5156 306.20312 768.90625 305.78125Q769.3125 305.34375 769.3125 304.64062Q769.3125 303.95312 768.9219 303.5625Q768.5469 303.17188 767.9375 303.17188Q767.5469 303.17188 767.2344 303.35938Q766.9375 303.53125 766.75 303.79688L766.0156 303.70312L766.6406 300.39062L769.84375 300.39062L769.84375 301.15625L767.2656 301.15625L766.9219 302.875Q767.5 302.48438 768.1406 302.48438Q768.9844 302.48438 769.5625 303.0625Q770.1406 303.64062 770.1406 304.5625Q770.1406 305.4375 769.6406 306.07812Q769.0156 306.85938 767.9375 306.85938Q767.0625 306.85938 766.5 306.375Q765.9531 305.875 765.875 305.0625ZM771.0156 301.85938Q771.0156 301.17188 771.3594 300.6875Q771.71875 300.20312 772.375 300.20312Q772.9844 300.20312 773.375 300.64062Q773.78125 301.0625 773.78125 301.90625Q773.78125 302.71875 773.375 303.17188Q772.96875 303.60938 772.3906 303.60938Q771.7969 303.60938 771.40625 303.17188Q771.0156 302.73438 771.0156 301.85938ZM772.40625 300.75Q772.1094 300.75 771.90625 301.0Q771.71875 301.25 771.71875 301.9375Q771.71875 302.54688 771.90625 302.8125Q772.1094 303.0625 772.40625 303.0625Q772.7031 303.0625 772.8906 302.8125Q773.09375 302.54688 773.09375 301.875Q773.09375 301.25 772.8906 301.0Q772.6875 300.75 772.40625 300.75ZM772.40625 306.98438L775.9219 300.20312L776.5625 300.20312L773.0625 306.98438L772.40625 306.98438ZM775.1875 305.23438Q775.1875 304.54688 775.53125 304.0625Q775.8906 303.57812 776.5469 303.57812Q777.15625 303.57812 777.5469 304.01562Q777.9531 304.45312 777.9531 305.28125Q777.9531 306.10938 777.5469 306.54688Q777.1406 306.98438 776.5469 306.98438Q775.96875 306.98438 775.5781 306.54688Q775.1875 306.10938 775.1875 305.23438ZM776.5625 304.125Q776.2656 304.125 776.0625 304.39062Q775.875 304.64062 775.875 305.3125Q775.875 305.9375 776.0781 306.1875Q776.28125 306.4375 776.5625 306.4375Q776.875 306.4375 777.0625 306.1875Q777.2656 305.9375 777.2656 305.25Q777.2656 304.625 777.0625 304.375Q776.8594 304.125 776.5625 304.125Z" fill-rule="nonzero"/><path fill="#000000" d="M987.6094 306.75L986.8125 306.75L986.8125 301.70312Q986.53125 301.98438 986.0625 302.26562Q985.59375 302.53125 985.2344 302.65625L985.2344 301.89062Q985.8906 301.59375 986.3906 301.15625Q986.8906 300.70312 987.09375 300.28125L987.6094 300.28125L987.6094 306.75ZM989.625 303.57812Q989.625 302.4375 989.8594 301.73438Q990.09375 301.03125 990.5469 300.65625Q991.0156 300.28125 991.71875 300.28125Q992.25 300.28125 992.6406 300.5Q993.03125 300.70312 993.28125 301.09375Q993.53125 301.48438 993.6719 302.04688Q993.8281 302.60938 993.8281 303.57812Q993.8281 304.70312 993.59375 305.40625Q993.3594 306.09375 992.8906 306.48438Q992.4375 306.85938 991.71875 306.85938Q990.7969 306.85938 990.2656 306.1875Q989.625 305.39062 989.625 303.57812ZM990.4375 303.57812Q990.4375 305.15625 990.7969 305.6875Q991.1719 306.20312 991.71875 306.20312Q992.2656 306.20312 992.6406 305.6875Q993.0156 305.15625 993.0156 303.57812Q993.0156 301.98438 992.6406 301.46875Q992.2656 300.9375 991.71875 300.9375Q991.1719 300.9375 990.84375 301.39062Q990.4375 301.98438 990.4375 303.57812ZM994.625 303.57812Q994.625 302.4375 994.8594 301.73438Q995.09375 301.03125 995.5469 300.65625Q996.0156 300.28125 996.71875 300.28125Q997.25 300.28125 997.6406 300.5Q998.03125 300.70312 998.28125 301.09375Q998.53125 301.48438 998.6719 302.04688Q998.8281 302.60938 998.8281 303.57812Q998.8281 304.70312 998.59375 305.40625Q998.3594 306.09375 997.8906 306.48438Q997.4375 306.85938 996.71875 306.85938Q995.7969 306.85938 995.2656 306.1875Q994.625 305.39062 994.625 303.57812ZM995.4375 303.57812Q995.4375 305.15625 995.7969 305.6875Q996.1719 306.20312 996.71875 306.20312Q997.2656 306.20312 997.6406 305.6875Q998.0156 305.15625 998.0156 303.57812Q998.0156 301.98438 997.6406 301.46875Q997.2656 300.9375 996.71875 300.9375Q996.1719 300.9375 995.84375 301.39062Q995.4375 301.98438 995.4375 303.57812ZM999.7656 301.85938Q999.7656 301.17188 1000.1094 300.6875Q1000.46875 300.20312 1001.125 300.20312Q1001.7344 300.20312 1002.125 300.64062Q1002.53125 301.0625 1002.53125 301.90625Q1002.53125 302.71875 1002.125 303.17188Q1001.71875 303.60938 1001.1406 303.60938Q1000.5469 303.60938 1000.15625 303.17188Q999.7656 302.73438 999.7656 301.85938ZM1001.15625 300.75Q1000.8594 300.75 1000.65625 301.0Q1000.46875 301.25 1000.46875 301.9375Q1000.46875 302.54688 1000.65625 302.8125Q1000.8594 303.0625 1001.15625 303.0625Q1001.4531 303.0625 1001.6406 302.8125Q1001.84375 302.54688 1001.84375 301.875Q1001.84375 301.25 1001.6406 301.0Q1001.4375 300.75 1001.15625 300.75ZM1001.15625 306.98438L1004.6719 300.20312L1005.3125 300.20312L1001.8125 306.98438L1001.15625 306.98438ZM1003.9375 305.23438Q1003.9375 304.54688 1004.28125 304.0625Q1004.6406 303.57812 1005.2969 303.57812Q1005.90625 303.57812 1006.2969 304.01562Q1006.7031 304.45312 1006.7031 305.28125Q1006.7031 306.10938 1006.2969 306.54688Q1005.8906 306.98438 1005.2969 306.98438Q1004.71875 306.98438 1004.3281 306.54688Q1003.9375 306.10938 1003.9375 305.23438ZM1005.3125 304.125Q1005.0156 304.125 1004.8125 304.39062Q1004.625 304.64062 1004.625 305.3125Q1004.625 305.9375 1004.8281 306.1875Q1005.03125 306.4375 1005.3125 306.4375Q1005.625 306.4375 1005.8125 306.1875Q1006.0156 305.9375 1006.0156 305.25Q1006.0156 304.625 1005.8125 304.375Q1005.6094 304.125 1005.3125 304.125Z" fill-rule="nonzero"/><path fill="#757575" d="M410.48438 29.25L414.32812 19.234375L415.75 19.234375L419.85938 29.25L418.34375 29.25L417.17188 26.21875L412.98438 26.21875L411.89062 29.25L410.48438 29.25ZM413.375 25.140625L416.76562 25.140625L415.71875 22.359375Q415.25 21.09375 415.01562 20.28125Q414.82812 21.25 414.46875 22.1875L413.375 25.140625ZM420.20312 29.859375L421.39062 30.03125Q421.46875 30.578125 421.8125 30.84375Q422.26562 31.171875 423.0625 31.171875Q423.92188 31.171875 424.375 30.828125Q424.84375 30.5 425.01562 29.875Q425.10938 29.5 425.09375 28.296875Q424.29688 29.25 423.09375 29.25Q421.59375 29.25 420.76562 28.171875Q419.95312 27.09375 419.95312 25.578125Q419.95312 24.546875 420.32812 23.671875Q420.70312 22.78125 421.40625 22.3125Q422.125 21.828125 423.09375 21.828125Q424.375 21.828125 425.21875 22.859375L425.21875 21.984375L426.34375 21.984375L426.34375 28.265625Q426.34375 29.96875 426.0 30.671875Q425.65625 31.375 424.90625 31.78125Q424.15625 32.203125 423.0625 32.203125Q421.76562 32.203125 420.96875 31.609375Q420.17188 31.03125 420.20312 29.859375ZM421.21875 25.484375Q421.21875 26.921875 421.78125 27.578125Q422.34375 28.234375 423.20312 28.234375Q424.04688 28.234375 424.625 27.578125Q425.20312 26.921875 425.20312 25.53125Q425.20312 24.203125 424.60938 23.53125Q424.01562 22.84375 423.1875 22.84375Q422.35938 22.84375 421.78125 23.515625Q421.21875 24.171875 421.21875 25.484375ZM428.40625 29.25L428.40625 21.984375L429.51562 21.984375L429.51562 23.09375Q429.9375 22.3125 430.29688 22.078125Q430.65625 21.828125 431.09375 21.828125Q431.71875 21.828125 432.35938 22.21875L431.9375 23.359375Q431.48438 23.09375 431.03125 23.09375Q430.625 23.09375 430.29688 23.34375Q429.98438 23.578125 429.84375 24.015625Q429.64062 24.671875 429.64062 25.453125L429.64062 29.25L428.40625 29.25ZM438.39062 26.90625L439.67188 27.0625Q439.35938 28.1875 438.54688 28.8125Q437.73438 29.421875 436.46875 29.421875Q434.875 29.421875 433.9375 28.4375Q433.01562 27.453125 433.01562 25.6875Q433.01562 23.84375 433.95312 22.84375Q434.90625 21.828125 436.40625 21.828125Q437.85938 21.828125 438.78125 22.828125Q439.70312 23.8125 439.70312 25.609375Q439.70312 25.71875 439.70312 25.9375L434.28125 25.9375Q434.35938 27.125 434.95312 27.765625Q435.5625 28.40625 436.48438 28.40625Q437.15625 28.40625 437.625 28.046875Q438.10938 27.6875 438.39062 26.90625ZM434.35938 24.921875L438.40625 24.921875Q438.32812 24.0 437.9375 23.546875Q437.35938 22.84375 436.42188 22.84375Q435.5625 22.84375 434.98438 23.40625Q434.42188 23.96875 434.35938 24.921875ZM446.39062 26.90625L447.67188 27.0625Q447.35938 28.1875 446.54688 28.8125Q445.73438 29.421875 444.46875 29.421875Q442.875 29.421875 441.9375 28.4375Q441.01562 27.453125 441.01562 25.6875Q441.01562 23.84375 441.95312 22.84375Q442.90625 21.828125 444.40625 21.828125Q445.85938 21.828125 446.78125 22.828125Q447.70312 23.8125 447.70312 25.609375Q447.70312 25.71875 447.70312 25.9375L442.28125 25.9375Q442.35938 27.125 442.95312 27.765625Q443.5625 28.40625 444.48438 28.40625Q445.15625 28.40625 445.625 28.046875Q446.10938 27.6875 446.39062 26.90625ZM442.35938 24.921875L446.40625 24.921875Q446.32812 24.0 445.9375 23.546875Q445.35938 22.84375 444.42188 22.84375Q443.5625 22.84375 442.98438 23.40625Q442.42188 23.96875 442.35938 24.921875ZM449.42188 29.25L449.42188 21.984375L450.53125 21.984375L450.53125 23.015625Q450.85938 22.46875 451.42188 22.15625Q452.0 21.828125 452.71875 21.828125Q453.53125 21.828125 454.04688 22.171875Q454.5625 22.5 454.78125 23.09375Q455.64062 21.828125 457.01562 21.828125Q458.09375 21.828125 458.67188 22.421875Q459.26562 23.015625 459.26562 24.265625L459.26562 29.25L458.03125 29.25L458.03125 24.671875Q458.03125 23.9375 457.90625 23.609375Q457.79688 23.28125 457.48438 23.09375Q457.17188 22.890625 456.75 22.890625Q455.98438 22.890625 455.46875 23.40625Q454.96875 23.90625 454.96875 25.03125L454.96875 29.25L453.73438 29.25L453.73438 24.53125Q453.73438 23.71875 453.4375 23.3125Q453.14062 22.890625 452.45312 22.890625Q451.9375 22.890625 451.48438 23.171875Q451.04688 23.4375 450.84375 23.96875Q450.65625 24.484375 450.65625 25.484375L450.65625 29.25L449.42188 29.25ZM466.39062 26.90625L467.67188 27.0625Q467.35938 28.1875 466.54688 28.8125Q465.73438 29.421875 464.46875 29.421875Q462.875 29.421875 461.9375 28.4375Q461.01562 27.453125 461.01562 25.6875Q461.01562 23.84375 461.95312 22.84375Q462.90625 21.828125 464.40625 21.828125Q465.85938 21.828125 466.78125 22.828125Q467.70312 23.8125 467.70312 25.609375Q467.70312 25.71875 467.70312 25.9375L462.28125 25.9375Q462.35938 27.125 462.95312 27.765625Q463.5625 28.40625 464.48438 28.40625Q465.15625 28.40625 465.625 28.046875Q466.10938 27.6875 466.39062 26.90625ZM462.35938 24.921875L466.40625 24.921875Q466.32812 24.0 465.9375 23.546875Q465.35938 22.84375 464.42188 22.84375Q463.5625 22.84375 462.98438 23.40625Q462.42188 23.96875 462.35938 24.921875ZM469.42188 29.25L469.42188 21.984375L470.53125 21.984375L470.53125 23.015625Q471.32812 21.828125 472.84375 21.828125Q473.5 21.828125 474.04688 22.0625Q474.59375 22.296875 474.85938 22.6875Q475.14062 23.0625 475.25 23.59375Q475.32812 23.9375 475.32812 24.78125L475.32812 29.25L474.09375 29.25L474.09375 24.828125Q474.09375 24.078125 473.95312 23.71875Q473.8125 23.34375 473.4375 23.125Q473.07812 22.890625 472.57812 22.890625Q471.79688 22.890625 471.21875 23.390625Q470.65625 23.890625 470.65625 25.28125L470.65625 29.25L469.42188 29.25ZM480.10938 28.15625L480.28125 29.234375Q479.76562 29.34375 479.35938 29.34375Q478.6875 29.34375 478.3125 29.140625Q477.95312 28.921875 477.79688 28.578125Q477.65625 28.234375 477.65625 27.125L477.65625 22.953125L476.75 22.953125L476.75 21.984375L477.65625 21.984375L477.65625 20.1875L478.875 19.453125L478.875 21.984375L480.10938 21.984375L480.10938 22.953125L478.875 22.953125L478.875 27.1875Q478.875 27.71875 478.9375 27.875Q479.0 28.015625 479.14062 28.109375Q479.29688 28.203125 479.5625 28.203125Q479.78125 28.203125 480.10938 28.15625ZM486.5625 29.25L485.42188 29.25L485.42188 19.234375L486.64062 19.234375L486.64062 22.796875Q487.42188 21.828125 488.64062 21.828125Q489.3125 21.828125 489.90625 22.09375Q490.5 22.359375 490.89062 22.859375Q491.28125 23.34375 491.5 24.03125Q491.71875 24.71875 491.71875 25.515625Q491.71875 27.375 490.78125 28.40625Q489.85938 29.421875 488.57812 29.421875Q487.29688 29.421875 486.5625 28.34375L486.5625 29.25ZM486.54688 25.5625Q486.54688 26.875 486.90625 27.453125Q487.48438 28.40625 488.46875 28.40625Q489.28125 28.40625 489.85938 27.703125Q490.45312 27.0 490.45312 25.609375Q490.45312 24.1875 489.89062 23.515625Q489.32812 22.84375 488.53125 22.84375Q487.71875 22.84375 487.125 23.546875Q486.54688 24.234375 486.54688 25.5625ZM493.375 32.046875L493.23438 30.890625Q493.64062 31.0 493.9375 31.0Q494.34375 31.0 494.59375 30.859375Q494.84375 30.734375 495.0 30.484375Q495.10938 30.296875 495.375 29.5625Q495.40625 29.46875 495.48438 29.265625L492.71875 21.984375L494.04688 21.984375L495.5625 26.1875Q495.85938 27.0 496.09375 27.875Q496.29688 27.03125 496.59375 26.21875L498.14062 21.984375L499.375 21.984375L496.60938 29.375Q496.17188 30.5625 495.92188 31.015625Q495.59375 31.625 495.17188 31.90625Q494.75 32.203125 494.15625 32.203125Q493.8125 32.203125 493.375 32.046875ZM509.26562 25.3125L509.26562 24.140625L513.5156 24.140625L513.5156 27.859375Q512.53125 28.640625 511.48438 29.03125Q510.45312 29.421875 509.35938 29.421875Q507.89062 29.421875 506.67188 28.796875Q505.46875 28.15625 504.85938 26.96875Q504.25 25.765625 504.25 24.28125Q504.25 22.828125 504.85938 21.5625Q505.46875 20.28125 506.60938 19.671875Q507.76562 19.0625 509.26562 19.0625Q510.34375 19.0625 511.21875 19.421875Q512.1094 19.765625 512.6094 20.390625Q513.1094 21.015625 513.3594 22.03125L512.1719 22.359375Q511.9375 21.59375 511.59375 21.15625Q511.26562 20.71875 510.64062 20.453125Q510.03125 20.1875 509.26562 20.1875Q508.35938 20.1875 507.6875 20.46875Q507.03125 20.75 506.625 21.203125Q506.21875 21.640625 506.0 22.1875Q505.60938 23.125 505.60938 24.203125Q505.60938 25.546875 506.0625 26.453125Q506.53125 27.34375 507.40625 27.78125Q508.29688 28.21875 509.29688 28.21875Q510.15625 28.21875 510.96875 27.890625Q511.79688 27.5625 512.21875 27.1875L512.21875 25.3125L509.26562 25.3125ZM520.3906 26.90625L521.6719 27.0625Q521.3594 28.1875 520.5469 28.8125Q519.7344 29.421875 518.46875 29.421875Q516.875 29.421875 515.9375 28.4375Q515.0156 27.453125 515.0156 25.6875Q515.0156 23.84375 515.9531 22.84375Q516.90625 21.828125 518.40625 21.828125Q519.8594 21.828125 520.78125 22.828125Q521.7031 23.8125 521.7031 25.609375Q521.7031 25.71875 521.7031 25.9375L516.28125 25.9375Q516.3594 27.125 516.9531 27.765625Q517.5625 28.40625 518.4844 28.40625Q519.15625 28.40625 519.625 28.046875Q520.1094 27.6875 520.3906 26.90625ZM516.3594 24.921875L520.40625 24.921875Q520.3281 24.0 519.9375 23.546875Q519.3594 22.84375 518.4219 22.84375Q517.5625 22.84375 516.9844 23.40625Q516.4219 23.96875 516.3594 24.921875ZM523.4219 29.25L523.4219 21.984375L524.53125 21.984375L524.53125 23.015625Q525.3281 21.828125 526.84375 21.828125Q527.5 21.828125 528.0469 22.0625Q528.59375 22.296875 528.8594 22.6875Q529.1406 23.0625 529.25 23.59375Q529.3281 23.9375 529.3281 24.78125L529.3281 29.25L528.09375 29.25L528.09375 24.828125Q528.09375 24.078125 527.9531 23.71875Q527.8125 23.34375 527.4375 23.125Q527.0781 22.890625 526.5781 22.890625Q525.7969 22.890625 525.21875 23.390625Q524.65625 23.890625 524.65625 25.28125L524.65625 29.25L523.4219 29.25ZM536.1406 29.25L536.1406 28.328125Q535.4375 29.421875 534.1094 29.421875Q533.2344 29.421875 532.5 28.9375Q531.78125 28.453125 531.375 27.59375Q530.9844 26.734375 530.9844 25.625Q530.9844 24.546875 531.34375 23.65625Q531.7031 22.765625 532.4219 22.296875Q533.15625 21.828125 534.0469 21.828125Q534.7031 21.828125 535.21875 22.109375Q535.7344 22.375 536.0469 22.828125L536.0469 19.234375L537.28125 19.234375L537.28125 29.25L536.1406 29.25ZM532.25 25.625Q532.25 27.015625 532.8281 27.71875Q533.4219 28.40625 534.21875 28.40625Q535.03125 28.40625 535.59375 27.75Q536.15625 27.078125 536.15625 25.734375Q536.15625 24.234375 535.5781 23.546875Q535.0 22.84375 534.1719 22.84375Q533.34375 22.84375 532.7969 23.515625Q532.25 24.1875 532.25 25.625ZM544.3906 26.90625L545.6719 27.0625Q545.3594 28.1875 544.5469 28.8125Q543.7344 29.421875 542.46875 29.421875Q540.875 29.421875 539.9375 28.4375Q539.0156 27.453125 539.0156 25.6875Q539.0156 23.84375 539.9531 22.84375Q540.90625 21.828125 542.40625 21.828125Q543.8594 21.828125 544.78125 22.828125Q545.7031 23.8125 545.7031 25.609375Q545.7031 25.71875 545.7031 25.9375L540.28125 25.9375Q540.3594 27.125 540.9531 27.765625Q541.5625 28.40625 542.4844 28.40625Q543.15625 28.40625 543.625 28.046875Q544.1094 27.6875 544.3906 26.90625ZM540.3594 24.921875L544.40625 24.921875Q544.3281 24.0 543.9375 23.546875Q543.3594 22.84375 542.4219 22.84375Q541.5625 22.84375 540.9844 23.40625Q540.4219 23.96875 540.3594 24.921875ZM547.40625 29.25L547.40625 21.984375L548.5156 21.984375L548.5156 23.09375Q548.9375 22.3125 549.2969 22.078125Q549.65625 21.828125 550.09375 21.828125Q550.71875 21.828125 551.3594 22.21875L550.9375 23.359375Q550.4844 23.09375 550.03125 23.09375Q549.625 23.09375 549.2969 23.34375Q548.9844 23.578125 548.84375 24.015625Q548.6406 24.671875 548.6406 25.453125L548.6406 29.25L547.40625 29.25ZM556.8125 29.25L556.8125 19.234375L558.125 19.234375L558.125 29.25L556.8125 29.25ZM565.1406 29.25L565.1406 28.328125Q564.4375 29.421875 563.1094 29.421875Q562.2344 29.421875 561.5 28.9375Q560.78125 28.453125 560.375 27.59375Q559.9844 26.734375 559.9844 25.625Q559.9844 24.546875 560.34375 23.65625Q560.7031 22.765625 561.4219 22.296875Q562.15625 21.828125 563.0469 21.828125Q563.7031 21.828125 564.21875 22.109375Q564.7344 22.375 565.0469 22.828125L565.0469 19.234375L566.28125 19.234375L566.28125 29.25L565.1406 29.25ZM561.25 25.625Q561.25 27.015625 561.8281 27.71875Q562.4219 28.40625 563.21875 28.40625Q564.03125 28.40625 564.59375 27.75Q565.15625 27.078125 565.15625 25.734375Q565.15625 24.234375 564.5781 23.546875Q564.0 22.84375 563.1719 22.84375Q562.34375 22.84375 561.7969 23.515625Q561.25 24.1875 561.25 25.625ZM573.3906 26.90625L574.6719 27.0625Q574.3594 28.1875 573.5469 28.8125Q572.7344 29.421875 571.46875 29.421875Q569.875 29.421875 568.9375 28.4375Q568.0156 27.453125 568.0156 25.6875Q568.0156 23.84375 568.9531 22.84375Q569.90625 21.828125 571.40625 21.828125Q572.8594 21.828125 573.78125 22.828125Q574.7031 23.8125 574.7031 25.609375Q574.7031 25.71875 574.7031 25.9375L569.28125 25.9375Q569.3594 27.125 569.9531 27.765625Q570.5625 28.40625 571.4844 28.40625Q572.15625 28.40625 572.625 28.046875Q573.1094 27.6875 573.3906 26.90625ZM569.3594 24.921875L573.40625 24.921875Q573.3281 24.0 572.9375 23.546875Q572.3594 22.84375 571.4219 22.84375Q570.5625 22.84375 569.9844 23.40625Q569.4219 23.96875 569.3594 24.921875ZM576.4219 29.25L576.4219 21.984375L577.53125 21.984375L577.53125 23.015625Q578.3281 21.828125 579.84375 21.828125Q580.5 21.828125 581.0469 22.0625Q581.59375 22.296875 581.8594 22.6875Q582.1406 23.0625 582.25 23.59375Q582.3281 23.9375 582.3281 24.78125L582.3281 29.25L581.09375 29.25L581.09375 24.828125Q581.09375 24.078125 580.9531 23.71875Q580.8125 23.34375 580.4375 23.125Q580.0781 22.890625 579.5781 22.890625Q578.7969 22.890625 578.21875 23.390625Q577.65625 23.890625 577.65625 25.28125L577.65625 29.25L576.4219 29.25ZM587.1094 28.15625L587.28125 29.234375Q586.7656 29.34375 586.3594 29.34375Q585.6875 29.34375 585.3125 29.140625Q584.9531 28.921875 584.7969 28.578125Q584.65625 28.234375 584.65625 27.125L584.65625 22.953125L583.75 22.953125L583.75 21.984375L584.65625 21.984375L584.65625 20.1875L585.875 19.453125L585.875 21.984375L587.1094 21.984375L587.1094 22.953125L585.875 22.953125L585.875 27.1875Q585.875 27.71875 585.9375 27.875Q586.0 28.015625 586.1406 28.109375Q586.2969 28.203125 586.5625 28.203125Q586.78125 28.203125 587.1094 28.15625ZM588.4375 20.640625L588.4375 19.234375L589.65625 19.234375L589.65625 20.640625L588.4375 20.640625ZM588.4375 29.25L588.4375 21.984375L589.65625 21.984375L589.65625 29.25L588.4375 29.25ZM594.1094 28.15625L594.28125 29.234375Q593.7656 29.34375 593.3594 29.34375Q592.6875 29.34375 592.3125 29.140625Q591.9531 28.921875 591.7969 28.578125Q591.65625 28.234375 591.65625 27.125L591.65625 22.953125L590.75 22.953125L590.75 21.984375L591.65625 21.984375L591.65625 20.1875L592.875 19.453125L592.875 21.984375L594.1094 21.984375L594.1094 22.953125L592.875 22.953125L592.875 27.1875Q592.875 27.71875 592.9375 27.875Q593.0 28.015625 593.1406 28.109375Q593.2969 28.203125 593.5625 28.203125Q593.78125 28.203125 594.1094 28.15625ZM595.375 32.046875L595.2344 30.890625Q595.6406 31.0 595.9375 31.0Q596.34375 31.0 596.59375 30.859375Q596.84375 30.734375 597.0 30.484375Q597.1094 30.296875 597.375 29.5625Q597.40625 29.46875 597.4844 29.265625L594.71875 21.984375L596.0469 21.984375L597.5625 26.1875Q597.8594 27.0 598.09375 27.875Q598.2969 27.03125 598.59375 26.21875L600.1406 21.984375L601.375 21.984375L598.6094 29.375Q598.1719 30.5625 597.9219 31.015625Q597.59375 31.625 597.1719 31.90625Q596.75 32.203125 596.15625 32.203125Q595.8125 32.203125 595.375 32.046875Z" fill-rule="nonzero"/></svg>