<svg version="1.1" viewBox="0.0 0.0 1012.0 359.0" fill="none" stroke="none" stroke-linecap="square" stroke-miterlimit="10" width="1012" height="359" xmlns:xlink="http://www.w3.org/1999/xlink" xmlns="http://www.w3.org/2000/svg"><path fill="#ffffff" d="M0 0L1012.0 0L1012.0 359.0L0 359.0L0 0Z" fill-rule="nonzero"/><path stroke="#333333" stroke-width="1.0" stroke-linecap="butt" d="M99.5 45.5L99.5 299.5" fill-rule="nonzero"/><path stroke="#cccccc" stroke-width="1.0" stroke-linecap="butt" d="M323.5 45.5L323.5 299.5" fill-rule="nonzero"/><path stroke="#cccccc" stroke-width="1.0" stroke-linecap="butt" d="M546.5 45.5L546.5 299.5" fill-rule="nonzero"/><path stroke="#cccccc" stroke-width="1.0" stroke-linecap="butt" d="M770.5 45.5L770.5 299.5" fill-rule="nonzero"/><path stroke="#cccccc" stroke-width="1.0" stroke-linecap="butt" d="M994.5 45.5L994.5 299.5" fill-rule="nonzero"/><clipPath id="id_0"><path d="M99.45 45.916668L994.05 45.916668L994.05 299.58334L99.45 299.58334L99.45 45.916668Z" clip-rule="nonzero"/></clipPath><path stroke="#000000" stroke-width="0.0" stroke-linecap="butt" stroke-opacity="0.0" clip-path="url(#id_0)" d="M99.0 287.0L99.0 265.0L281.0 265.0L281.0 287.0Z" fill-rule="nonzero"/><path fill="#4285f4" clip-path="url(#id_0)" d="M99.0 287.0L99.0 265.0L281.0 265.0L281.0 287.0Z" fill-rule="nonzero"/><path stroke="#000000" stroke-width="0.0" stroke-linecap="butt" stroke-opacity="0.0" clip-path="url(#id_0)" d="M99.0 253.0L99.0 231.0L99.0 231.0L99.0 253.0Z" fill-rule="nonzero"/><path fill="#4285f4" clip-path="url(#id_0)" d="M99.0 253.0L99.0 231.0L99.0 231.0L99.0 253.0Z" fill-rule="nonzero"/><path stroke="#000000" stroke-width="0.0" stroke-linecap="butt" stroke-opacity="0.0" clip-path="url(#id_0)" d="M99.0 218.0L99.0 196.0L99.0 196.0L99.0 218.0Z" fill-rule="nonzero"/><path fill="#4285f4" clip-path="url(#id_0)" d="M99.0 218.0L99.0 196.0L99.0 196.0L99.0 218.0Z" fill-rule="nonzero"/><path stroke="#000000" stroke-width="0.0" stroke-linecap="butt" stroke-opacity="0.0" clip-path="url(#id_0)" d="M99.0 184.0L99.0 162.0L237.0 162.0L237.0 184.0Z" fill-rule="nonzero"/><path fill="#4285f4" clip-path="url(#id_0)" d="M99.0 184.0L99.0 162.0L237.0 162.0L237.0 184.0Z" fill-rule="nonzero"/><path stroke="#000000" stroke-width="0.0" stroke-linecap="butt" stroke-opacity="0.0" clip-path="url(#id_0)" d="M99.0 149.0L99.0 127.0L99.0 127.0L99.0 149.0Z" fill-rule="nonzero"/><path fill="#4285f4" clip-path="url(#id_0)" d="M99.0 149.0L99.0 127.0L99.0 127.0L99.0 149.0Z" fill-rule="nonzero"/><path stroke="#000000" stroke-width="0.0" stroke-linecap="butt" stroke-opacity="0.0" clip-path="url(#id_0)" d="M99.0 115.0L99.0 93.0L99.0 93.0L99.0 115.0Z" fill-rule="nonzero"/><path fill="#4285f4" clip-path="url(#id_0)" d="M99.0 115.0L99.0 93.0L99.0 93.0L99.0 115.0Z" fill-rule="nonzero"/><path stroke="#000000" stroke-width="0.0" stroke-linecap="butt" stroke-opacity="0.0" clip-path="url(#id_0)" d="M99.0 80.0L99.0 58.0L249.0 58.0L249.0 80.0Z" fill-rule="nonzero"/><path fill="#4285f4" clip-path="url(#id_0)" d="M99.0 80.0L99.0 58.0L249.0 58.0L249.0 80.0Z" fill-rule="nonzero"/><path stroke="#000000" stroke-width="0.0" stroke-linecap="butt" stroke-opacity="0.0" clip-path="url(#id_0)" d="M281.0 287.0L281.0 265.0L931.0 265.0L931.0 287.0Z" fill-rule="nonzero"/><path fill="#ea4335" clip-path="url(#id_0)" d="M281.0 287.0L281.0 265.0L931.0 265.0L931.0 287.0Z" fill-rule="nonzero"/><path stroke="#000000" stroke-width="0.0" stroke-linecap="butt" stroke-opacity="0.0" clip-path="url(#id_0)" d="M99.0 253.0L99.0 231.0L994.0 231.0L994.0 253.0Z" fill-rule="nonzero"/><path fill="#ea4335" clip-path="url(#id_0)" d="M99.0 253.0L99.0 231.0L994.0 231.0L994.0 253.0Z" fill-rule="nonzero"/><path stroke="#000000" stroke-width="0.0" stroke-linecap="butt" stroke-opacity="0.0" clip-path="url(#id_0)" d="M99.0 218.0L99.0 196.0L815.0 196.0L815.0 218.0Z" fill-rule="nonzero"/><path fill="#ea4335" clip-path="url(#id_0)" d="M99.0 218.0L99.0 196.0L815.0 196.0L815.0 218.0Z" fill-rule="nonzero"/><path stroke="#000000" stroke-width="0.0" stroke-linecap="butt" stroke-opacity="0.0" clip-path="url(#id_0)" d="M237.0 184.0L237.0 162.0L994.0 162.0L994.0 184.0Z" fill-rule="nonzero"/><path fill="#ea4335" clip-path="url(#id_0)" d="M237.0 184.0L237.0 162.0L994.0 162.0L994.0 184.0Z" fill-rule="nonzero"/><path stroke="#000000" stroke-width="0.0" stroke-linecap="butt" stroke-opacity="0.0" clip-path="url(#id_0)" d="M99.0 149.0L99.0 127.0L994.0 127.0L994.0 149.0Z" fill-rule="nonzero"/><path fill="#ea4335" clip-path="url(#id_0)" d="M99.0 149.0L99.0 127.0L994.0 127.0L994.0 149.0Z" fill-rule="nonzero"/><path stroke="#000000" stroke-width="0.0" stroke-linecap="butt" stroke-opacity="0.0" clip-path="url(#id_0)" d="M99.0 115.0L99.0 93.0L770.0 93.0L770.0 115.0Z" fill-rule="nonzero"/><path fill="#ea4335" clip-path="url(#id_0)" d="M99.0 115.0L99.0 93.0L770.0 93.0L770.0 115.0Z" fill-rule="nonzero"/><path stroke="#000000" stroke-width="0.0" stroke-linecap="butt" stroke-opacity="0.0" clip-path="url(#id_0)" d="M249.0 80.0L249.0 58.0L994.0 58.0L994.0 80.0Z" fill-rule="nonzero"/><path fill="#ea4335" clip-path="url(#id_0)" d="M249.0 80.0L249.0 58.0L994.0 58.0L994.0 80.0Z" fill-rule="nonzero"/><path stroke="#000000" stroke-width="0.0" stroke-linecap="butt" stroke-opacity="0.0" clip-path="url(#id_0)" d="M931.0 287.0L931.0 265.0L994.0 265.0L994.0 287.0Z" fill-rule="nonzero"/><path fill="#fbbc04" clip-path="url(#id_0)" d="M931.0 287.0L931.0 265.0L994.0 265.0L994.0 287.0Z" fill-rule="nonzero"/><path stroke="#000000" stroke-width="0.0" stroke-linecap="butt" stroke-opacity="0.0" clip-path="url(#id_0)" d="M994.0 253.0L994.0 231.0L994.0 231.0L994.0 253.0Z" fill-rule="nonzero"/><path fill="#fbbc04" clip-path="url(#id_0)" d="M994.0 253.0L994.0 231.0L994.0 231.0L994.0 253.0Z" fill-rule="nonzero"/><path stroke="#000000" stroke-width="0.0" stroke-linecap="butt" stroke-opacity="0.0" clip-path="url(#id_0)" d="M815.0 218.0L815.0 196.0L994.0 196.0L994.0 218.0Z" fill-rule="nonzero"/><path fill="#fbbc04" clip-path="url(#id_0)" d="M815.0 218.0L815.0 196.0L994.0 196.0L994.0 218.0Z" fill-rule="nonzero"/><path stroke="#000000" stroke-width="0.0" stroke-linecap="butt" stroke-opacity="0.0" clip-path="url(#id_0)" d="M994.0 184.0L994.0 162.0L994.0 162.0L994.0 184.0Z" fill-rule="nonzero"/><path fill="#fbbc04" clip-path="url(#id_0)" d="M994.0 184.0L994.0 162.0L994.0 162.0L994.0 184.0Z" fill-rule="nonzero"/><path stroke="#000000" stroke-width="0.0" stroke-linecap="butt" stroke-opacity="0.0" clip-path="url(#id_0)" d="M994.0 149.0L994.0 127.0L994.0 127.0L994.0 149.0Z" fill-rule="nonzero"/><path fill="#fbbc04" clip-path="url(#id_0)" d="M994.0 149.0L994.0 127.0L994.0 127.0L994.0 149.0Z" fill-rule="nonzero"/><path stroke="#000000" stroke-width="0.0" stroke-linecap="butt" stroke-opacity="0.0" clip-path="url(#id_0)" d="M770.0 115.0L770.0 93.0L994.0 93.0L994.0 115.0Z" fill-rule="nonzero"/><path fill="#fbbc04" clip-path="url(#id_0)" d="M770.0 115.0L770.0 93.0L994.0 93.0L994.0 115.0Z" fill-rule="nonzero"/><path stroke="#000000" stroke-width="0.0" stroke-linecap="butt" stroke-opacity="0.0" clip-path="url(#id_0)" d="M994.0 80.0L994.0 58.0L994.0 58.0L994.0 80.0Z" fill-rule="nonzero"/><path fill="#fbbc04" clip-path="url(#id_0)" d="M994.0 80.0L994.0 58.0L994.0 58.0L994.0 80.0Z" fill-rule="nonzero"/><path stroke="#000000" stroke-width="0.0" stroke-linecap="butt" stroke-opacity="0.0" clip-path="url(#id_0)" d="M994.0 287.0L994.0 265.0L994.0 265.0L994.0 287.0Z" fill-rule="nonzero"/><path fill="#34a853" clip-path="url(#id_0)" d="M994.0 287.0L994.0 265.0L994.0 265.0L994.0 287.0Z" fill-rule="nonzero"/><path stroke="#000000" stroke-width="0.0" stroke-linecap="butt" stroke-opacity="0.0" clip-path="url(#id_0)" d="M994.0 253.0L994.0 231.0L994.0 231.0L994.0 253.0Z" fill-rule="nonzero"/><path fill="#34a853" clip-path="url(#id_0)" d="M994.0 253.0L994.0 231.0L994.0 231.0L994.0 253.0Z" fill-rule="nonzero"/><path stroke="#000000" stroke-width="0.0" stroke-linecap="butt" stroke-opacity="0.0" clip-path="url(#id_0)" d="M994.0 218.0L994.0 196.0L994.0 196.0L994.0 218.0Z" fill-rule="nonzero"/><path fill="#34a853" clip-path="url(#id_0)" d="M994.0 218.0L994.0 196.0L994.0 196.0L994.0 218.0Z" fill-rule="nonzero"/><path stroke="#000000" stroke-width="0.0" stroke-linecap="butt" stroke-opacity="0.0" clip-path="url(#id_0)" d="M994.0 184.0L994.0 162.0L994.0 162.0L994.0 184.0Z" fill-rule="nonzero"/><path fill="#34a853" clip-path="url(#id_0)" d="M994.0 184.0L994.0 162.0L994.0 162.0L994.0 184.0Z" fill-rule="nonzero"/><path stroke="#000000" stroke-width="0.0" stroke-linecap="butt" stroke-opacity="0.0" clip-path="url(#id_0)" d="M994.0 149.0L994.0 127.0L994.0 127.0L994.0 149.0Z" fill-rule="nonzero"/><path fill="#34a853" clip-path="url(#id_0)" d="M994.0 149.0L994.0 127.0L994.0 127.0L994.0 149.0Z" fill-rule="nonzero"/><path stroke="#000000" stroke-width="0.0" stroke-linecap="butt" stroke-opacity="0.0" clip-path="url(#id_0)" d="M994.0 115.0L994.0 93.0L994.0 93.0L994.0 115.0Z" fill-rule="nonzero"/><path fill="#34a853" clip-path="url(#id_0)" d="M994.0 115.0L994.0 93.0L994.0 93.0L994.0 115.0Z" fill-rule="nonzero"/><path stroke="#000000" stroke-width="0.0" stroke-linecap="butt" stroke-opacity="0.0" clip-path="url(#id_0)" d="M994.0 80.0L994.0 58.0L994.0 58.0L994.0 80.0Z" fill-rule="nonzero"/><path fill="#34a853" clip-path="url(#id_0)" d="M994.0 80.0L994.0 58.0L994.0 58.0L994.0 80.0Z" fill-rule="nonzero"/><path fill="#000000" d="M23.246876 277.5218L24.090626 277.74054Q23.825 278.7874 23.121876 279.3499Q22.434376 279.8968 21.41875 279.8968Q20.3875 279.8968 19.73125 279.4749Q19.075 279.05304 18.73125 278.25616Q18.403126 277.44366 18.403126 276.5218Q18.403126 275.50616 18.778126 274.75616Q19.16875 274.00616 19.871876 273.63116Q20.590626 273.24054 21.434376 273.24054Q22.403126 273.24054 23.059376 273.74054Q23.73125 274.2249 23.98125 275.11554L23.1375 275.30304Q22.91875 274.5999 22.496876 274.2874Q22.075 273.9593 21.41875 273.9593Q20.684376 273.9593 20.184376 274.31866Q19.684376 274.67804 19.48125 275.2874Q19.278126 275.88116 19.278126 276.50616Q19.278126 277.3343 19.5125 277.9593Q19.7625 278.56866 20.2625 278.86554Q20.7625 279.1624 21.35625 279.1624Q22.075 279.1624 22.559376 278.75616Q23.059376 278.3343 23.246876 277.5218ZM28.590626 279.2093Q28.153126 279.5843 27.746876 279.74054Q27.340626 279.8968 26.871876 279.8968Q26.10625 279.8968 25.684376 279.5218Q25.278126 279.1468 25.278126 278.55304Q25.278126 278.2093 25.434376 277.92804Q25.590626 277.6468 25.840626 277.4749Q26.090626 277.30304 26.403126 277.2093Q26.6375 277.1624 27.10625 277.0999Q28.075 276.99054 28.528126 276.81866Q28.528126 276.6624 28.528126 276.61554Q28.528126 276.13116 28.309376 275.94366Q27.996876 275.6624 27.403126 275.6624Q26.840626 275.6624 26.575 275.86554Q26.309376 276.05304 26.184376 276.55304L25.41875 276.4593Q25.5125 275.9593 25.746876 275.6624Q25.996876 275.3499 26.45 275.19366Q26.91875 275.0218 27.5125 275.0218Q28.121876 275.0218 28.48125 275.1624Q28.85625 275.30304 29.028126 275.5218Q29.215626 275.7249 29.278126 276.05304Q29.325 276.25616 29.325 276.7718L29.325 277.8343Q29.325 278.92804 29.371876 279.2249Q29.41875 279.5218 29.575 279.7874L28.746876 279.7874Q28.621876 279.5374 28.590626 279.2093ZM28.528126 277.44366Q28.090626 277.61554 27.23125 277.74054Q26.746876 277.81866 26.54375 277.9124Q26.340626 277.99054 26.23125 278.1624Q26.121876 278.3343 26.121876 278.5374Q26.121876 278.8499 26.35625 279.06866Q26.590626 279.2718 27.059376 279.2718Q27.5125 279.2718 27.871876 279.06866Q28.23125 278.86554 28.403126 278.5218Q28.528126 278.25616 28.528126 277.74054L28.528126 277.44366ZM33.60625 279.7874L33.60625 279.0999Q33.059376 279.8968 32.121876 279.8968Q31.715626 279.8968 31.35625 279.74054Q30.996876 279.56866 30.809376 279.3343Q30.6375 279.0999 30.575 278.75616Q30.528126 278.5218 30.528126 278.00616L30.528126 275.11554L31.309376 275.11554L31.309376 277.7093Q31.309376 278.3343 31.371876 278.5374Q31.434376 278.8499 31.66875 279.0374Q31.91875 279.2093 32.278126 279.2093Q32.6375 279.2093 32.95 279.0374Q33.2625 278.8499 33.3875 278.5374Q33.5125 278.2249 33.5125 277.61554L33.5125 275.11554L34.309376 275.11554L34.309376 279.7874L33.60625 279.7874ZM38.590626 278.0843L39.371876 278.17804Q39.246876 278.99054 38.715626 279.44366Q38.184376 279.8968 37.41875 279.8968Q36.465626 279.8968 35.8875 279.2718Q35.309376 278.6468 35.309376 277.4749Q35.309376 276.7093 35.559376 276.1468Q35.809376 275.5843 36.309376 275.30304Q36.825 275.0218 37.434376 275.0218Q38.184376 275.0218 38.66875 275.4124Q39.153126 275.7874 39.29375 276.49054L38.528126 276.61554Q38.41875 276.1468 38.1375 275.9124Q37.85625 275.6624 37.465626 275.6624Q36.85625 275.6624 36.48125 276.0999Q36.121876 276.5218 36.121876 277.44366Q36.121876 278.3968 36.48125 278.81866Q36.840626 279.24054 37.41875 279.24054Q37.8875 279.24054 38.2 278.9593Q38.5125 278.67804 38.590626 278.0843ZM43.590626 279.2093Q43.153126 279.5843 42.746876 279.74054Q42.340626 279.8968 41.871876 279.8968Q41.10625 279.8968 40.684376 279.5218Q40.278126 279.1468 40.278126 278.55304Q40.278126 278.2093 40.434376 277.92804Q40.590626 277.6468 40.840626 277.4749Q41.090626 277.30304 41.403126 277.2093Q41.6375 277.1624 42.10625 277.0999Q43.075 276.99054 43.528126 276.81866Q43.528126 276.6624 43.528126 276.61554Q43.528126 276.13116 43.309376 275.94366Q42.996876 275.6624 42.403126 275.6624Q41.840626 275.6624 41.575 275.86554Q41.309376 276.05304 41.184376 276.55304L40.41875 276.4593Q40.5125 275.9593 40.746876 275.6624Q40.996876 275.3499 41.45 275.19366Q41.91875 275.0218 42.5125 275.0218Q43.121876 275.0218 43.48125 275.1624Q43.85625 275.30304 44.028126 275.5218Q44.215626 275.7249 44.278126 276.05304Q44.325 276.25616 44.325 276.7718L44.325 277.8343Q44.325 278.92804 44.371876 279.2249Q44.41875 279.5218 44.575 279.7874L43.746876 279.7874Q43.621876 279.5374 43.590626 279.2093ZM43.528126 277.44366Q43.090626 277.61554 42.23125 277.74054Q41.746876 277.81866 41.54375 277.9124Q41.340626 277.99054 41.23125 278.1624Q41.121876 278.3343 41.121876 278.5374Q41.121876 278.8499 41.35625 279.06866Q41.590626 279.2718 42.059376 279.2718Q42.5125 279.2718 42.871876 279.06866Q43.23125 278.86554 43.403126 278.5218Q43.528126 278.25616 43.528126 277.74054L43.528126 277.44366ZM45.23125 278.3968L46.0125 278.2718Q46.075 278.74054 46.371876 278.99054Q46.684376 279.24054 47.215626 279.24054Q47.7625 279.24054 48.028126 279.0218Q48.29375 278.80304 48.29375 278.50616Q48.29375 278.2249 48.059376 278.0843Q47.8875 277.9749 47.246876 277.80304Q46.371876 277.5843 46.028126 277.42804Q45.7 277.2718 45.528126 276.99054Q45.35625 276.7093 45.35625 276.36554Q45.35625 276.05304 45.496876 275.7874Q45.6375 275.5218 45.8875 275.3343Q46.075 275.2093 46.3875 275.11554Q46.715626 275.0218 47.075 275.0218Q47.621876 275.0218 48.028126 275.17804Q48.45 275.3343 48.653126 275.5999Q48.85625 275.86554 48.934376 276.31866L48.153126 276.42804Q48.10625 276.06866 47.840626 275.86554Q47.590626 275.6624 47.1375 275.6624Q46.590626 275.6624 46.35625 275.8499Q46.121876 276.0218 46.121876 276.2718Q46.121876 276.42804 46.215626 276.5374Q46.309376 276.67804 46.528126 276.75616Q46.6375 276.80304 47.215626 276.9593Q48.059376 277.17804 48.3875 277.31866Q48.73125 277.4593 48.91875 277.74054Q49.10625 278.00616 49.10625 278.4124Q49.10625 278.81866 48.871876 279.1624Q48.6375 279.50616 48.2 279.7093Q47.778126 279.8968 47.215626 279.8968Q46.309376 279.8968 45.825 279.5218Q45.35625 279.13116 45.23125 278.3968ZM50.54375 274.25616L50.54375 273.3499L51.340626 273.3499L51.340626 274.25616L50.54375 274.25616ZM50.54375 279.7874L50.54375 275.11554L51.340626 275.11554L51.340626 279.7874L50.54375 279.7874ZM55.590626 279.2093Q55.153126 279.5843 54.746876 279.74054Q54.340626 279.8968 53.871876 279.8968Q53.10625 279.8968 52.684376 279.5218Q52.278126 279.1468 52.278126 278.55304Q52.278126 278.2093 52.434376 277.92804Q52.590626 277.6468 52.840626 277.4749Q53.090626 277.30304 53.403126 277.2093Q53.6375 277.1624 54.10625 277.0999Q55.075 276.99054 55.528126 276.81866Q55.528126 276.6624 55.528126 276.61554Q55.528126 276.13116 55.309376 275.94366Q54.996876 275.6624 54.403126 275.6624Q53.840626 275.6624 53.575 275.86554Q53.309376 276.05304 53.184376 276.55304L52.41875 276.4593Q52.5125 275.9593 52.746876 275.6624Q52.996876 275.3499 53.45 275.19366Q53.91875 275.0218 54.5125 275.0218Q55.121876 275.0218 55.48125 275.1624Q55.85625 275.30304 56.028126 275.5218Q56.215626 275.7249 56.278126 276.05304Q56.325 276.25616 56.325 276.7718L56.325 277.8343Q56.325 278.92804 56.371876 279.2249Q56.41875 279.5218 56.575 279.7874L55.746876 279.7874Q55.621876 279.5374 55.590626 279.2093ZM55.528126 277.44366Q55.090626 277.61554 54.23125 277.74054Q53.746876 277.81866 53.54375 277.9124Q53.340626 277.99054 53.23125 278.1624Q53.121876 278.3343 53.121876 278.5374Q53.121876 278.8499 53.35625 279.06866Q53.590626 279.2718 54.059376 279.2718Q54.5125 279.2718 54.871876 279.06866Q55.23125 278.86554 55.403126 278.5218Q55.528126 278.25616 55.528126 277.74054L55.528126 277.44366ZM57.54375 279.7874L57.54375 275.11554L58.2625 275.11554L58.2625 275.7874Q58.7625 275.0218 59.746876 275.0218Q60.16875 275.0218 60.5125 275.17804Q60.871876 275.31866 61.04375 275.56866Q61.215626 275.80304 61.29375 276.1468Q61.340626 276.36554 61.340626 276.9124L61.340626 279.7874L60.54375 279.7874L60.54375 276.94366Q60.54375 276.4593 60.45 276.2249Q60.35625 275.99054 60.121876 275.8499Q59.8875 275.69366 59.575 275.69366Q59.075 275.69366 58.7 276.0218Q58.340626 276.3343 58.340626 277.24054L58.340626 279.7874L57.54375 279.7874ZM67.05937 281.67804Q66.40312 280.8499 65.95 279.75616Q65.49687 278.6468 65.49687 277.4593Q65.49687 276.4124 65.84062 275.44366Q66.23125 274.3343 67.05937 273.24054L67.62187 273.24054Q67.09062 274.1468 66.91875 274.5374Q66.65312 275.1468 66.49687 275.80304Q66.30937 276.63116 66.30937 277.4593Q66.30937 279.56866 67.62187 281.67804L67.05937 281.67804ZM69.7625 279.7874L68.05937 273.3499L68.93437 273.3499L69.91875 277.56866Q70.075 278.2249 70.18437 278.88116Q70.43437 277.8499 70.48125 277.69366L71.7 273.3499L72.73125 273.3499L73.65312 276.5999Q73.99687 277.81866 74.15312 278.88116Q74.27812 278.2718 74.48125 277.49054L75.48125 273.3499L76.34062 273.3499L74.575 279.7874L73.7625 279.7874L72.40312 274.88116Q72.23125 274.25616 72.2 274.11554Q72.09062 274.56866 72.0125 274.88116L70.6375 279.7874L69.7625 279.7874ZM77.54375 279.7874L77.54375 273.3499L78.34062 273.3499L78.34062 275.6624Q78.8875 275.0218 79.73125 275.0218Q80.24687 275.0218 80.62187 275.2249Q81.0125 275.42804 81.16875 275.7874Q81.34062 276.1468 81.34062 276.8343L81.34062 279.7874L80.55937 279.7874L80.55937 276.8343Q80.55937 276.24054 80.29375 275.9749Q80.04375 275.69366 79.575 275.69366Q79.21562 275.69366 78.90312 275.88116Q78.59062 276.05304 78.46562 276.36554Q78.34062 276.67804 78.34062 277.24054L78.34062 279.7874L77.54375 279.7874ZM82.54375 274.25616L82.54375 273.3499L83.34062 273.3499L83.34062 274.25616L82.54375 274.25616ZM82.54375 279.7874L82.54375 275.11554L83.34062 275.11554L83.34062 279.7874L82.54375 279.7874ZM86.27812 279.0843L86.3875 279.7718Q86.04375 279.8499 85.79375 279.8499Q85.35625 279.8499 85.12187 279.7093Q84.8875 279.56866 84.77812 279.3499Q84.68437 279.13116 84.68437 278.42804L84.68437 275.74054L84.10625 275.74054L84.10625 275.11554L84.68437 275.11554L84.68437 273.9593L85.48125 273.49054L85.48125 275.11554L86.27812 275.11554L86.27812 275.74054L85.48125 275.74054L85.48125 278.4593Q85.48125 278.80304 85.5125 278.8968Q85.55937 278.99054 85.65312 279.05304Q85.74687 279.11554 85.91875 279.11554Q86.05937 279.11554 86.27812 279.0843ZM90.73125 278.2874L91.55937 278.38116Q91.35625 279.0999 90.825 279.50616Q90.30937 279.8968 89.49687 279.8968Q88.48125 279.8968 87.87187 279.2718Q87.27812 278.63116 87.27812 277.49054Q87.27812 276.31866 87.8875 275.67804Q88.49687 275.0218 89.46562 275.0218Q90.40312 275.0218 90.98125 275.6624Q91.575 276.2874 91.575 277.44366Q91.575 277.5218 91.575 277.6624L88.09062 277.6624Q88.1375 278.42804 88.52812 278.8343Q88.91875 279.24054 89.5125 279.24054Q89.95 279.24054 90.24687 279.0218Q90.55937 278.7874 90.73125 278.2874ZM88.1375 277.00616L90.74687 277.00616Q90.7 276.4124 90.45 276.11554Q90.075 275.6624 89.46562 275.6624Q88.91875 275.6624 88.54375 276.0374Q88.18437 276.3968 88.1375 277.00616ZM93.05937 281.67804L92.49687 281.67804Q93.80937 279.56866 93.80937 277.4593Q93.80937 276.63116 93.62187 275.81866Q93.46562 275.1624 93.2 274.55304Q93.02812 274.1624 92.49687 273.24054L93.05937 273.24054Q93.8875 274.3343 94.27812 275.44366Q94.62187 276.4124 94.62187 277.4593Q94.62187 278.6468 94.16875 279.75616Q93.71562 280.8499 93.05937 281.67804Z" fill-rule="nonzero"/><path fill="#000000" d="M23.934376 245.27495L26.41875 238.83745L27.325 238.83745L29.965626 245.27495L28.996876 245.27495L28.246876 243.32182L25.54375 243.32182L24.840626 245.27495L23.934376 245.27495ZM25.79375 242.63432L27.98125 242.63432L27.309376 240.83745Q26.996876 240.02495 26.85625 239.50932Q26.73125 240.13432 26.496876 240.7437L25.79375 242.63432ZM30.73125 245.27495L30.73125 241.22807L30.028126 241.22807L30.028126 240.60307L30.73125 240.60307L30.73125 240.1187Q30.73125 239.63432 30.809376 239.41557Q30.934376 239.10307 31.215626 238.91557Q31.5125 238.72807 32.028126 238.72807Q32.35625 238.72807 32.7625 238.8062L32.6375 239.4937Q32.403126 239.44682 32.184376 239.44682Q31.825 239.44682 31.66875 239.60307Q31.5125 239.75932 31.5125 240.1812L31.5125 240.60307L32.434376 240.60307L32.434376 241.22807L31.5125 241.22807L31.5125 245.27495L30.73125 245.27495ZM33.528126 245.27495L33.528126 240.60307L34.246876 240.60307L34.246876 241.32182Q34.5125 240.82182 34.746876 240.66557Q34.98125 240.50932 35.2625 240.50932Q35.653126 240.50932 36.075 240.75932L35.79375 241.4937Q35.5125 241.32182 35.215626 241.32182Q34.965626 241.32182 34.746876 241.47807Q34.54375 241.63432 34.45 241.91557Q34.325 242.33745 34.325 242.83745L34.325 245.27495L33.528126 245.27495ZM36.54375 239.7437L36.54375 238.83745L37.340626 238.83745L37.340626 239.7437L36.54375 239.7437ZM36.54375 245.27495L36.54375 240.60307L37.340626 240.60307L37.340626 245.27495L36.54375 245.27495ZM41.590626 243.57182L42.371876 243.66557Q42.246876 244.47807 41.715626 244.9312Q41.184376 245.38432 40.41875 245.38432Q39.465626 245.38432 38.8875 244.75932Q38.309376 244.13432 38.309376 242.96245Q38.309376 242.19682 38.559376 241.63432Q38.809376 241.07182 39.309376 240.79057Q39.825 240.50932 40.434376 240.50932Q41.184376 240.50932 41.66875 240.89995Q42.153126 241.27495 42.29375 241.97807L41.528126 242.10307Q41.41875 241.63432 41.1375 241.39995Q40.85625 241.14995 40.465626 241.14995Q39.85625 241.14995 39.48125 241.58745Q39.121876 242.00932 39.121876 242.9312Q39.121876 243.88432 39.48125 244.3062Q39.840626 244.72807 40.41875 244.72807Q40.8875 244.72807 41.2 244.44682Q41.5125 244.16557 41.590626 243.57182ZM46.590626 244.69682Q46.153126 245.07182 45.746876 245.22807Q45.340626 245.38432 44.871876 245.38432Q44.10625 245.38432 43.684376 245.00932Q43.278126 244.63432 43.278126 244.04057Q43.278126 243.69682 43.434376 243.41557Q43.590626 243.13432 43.840626 242.96245Q44.090626 242.79057 44.403126 242.69682Q44.6375 242.64995 45.10625 242.58745Q46.075 242.47807 46.528126 242.3062Q46.528126 242.14995 46.528126 242.10307Q46.528126 241.6187 46.309376 241.4312Q45.996876 241.14995 45.403126 241.14995Q44.840626 241.14995 44.575 241.35307Q44.309376 241.54057 44.184376 242.04057L43.41875 241.94682Q43.5125 241.44682 43.746876 241.14995Q43.996876 240.83745 44.45 240.6812Q44.91875 240.50932 45.5125 240.50932Q46.121876 240.50932 46.48125 240.64995Q46.85625 240.79057 47.028126 241.00932Q47.215626 241.21245 47.278126 241.54057Q47.325 241.7437 47.325 242.25932L47.325 243.32182Q47.325 244.41557 47.371876 244.71245Q47.41875 245.00932 47.575 245.27495L46.746876 245.27495Q46.621876 245.02495 46.590626 244.69682ZM46.528126 242.9312Q46.090626 243.10307 45.23125 243.22807Q44.746876 243.3062 44.54375 243.39995Q44.340626 243.47807 44.23125 243.64995Q44.121876 243.82182 44.121876 244.02495Q44.121876 244.33745 44.35625 244.5562Q44.590626 244.75932 45.059376 244.75932Q45.5125 244.75932 45.871876 244.5562Q46.23125 244.35307 46.403126 244.00932Q46.528126 243.7437 46.528126 243.22807L46.528126 242.9312ZM48.54375 245.27495L48.54375 240.60307L49.2625 240.60307L49.2625 241.27495Q49.7625 240.50932 50.746876 240.50932Q51.16875 240.50932 51.5125 240.66557Q51.871876 240.8062 52.04375 241.0562Q52.215626 241.29057 52.29375 241.63432Q52.340626 241.85307 52.340626 242.39995L52.340626 245.27495L51.54375 245.27495L51.54375 242.4312Q51.54375 241.94682 51.45 241.71245Q51.35625 241.47807 51.121876 241.33745Q50.8875 241.1812 50.575 241.1812Q50.075 241.1812 49.7 241.50932Q49.340626 241.82182 49.340626 242.72807L49.340626 245.27495L48.54375 245.27495ZM55.934376 245.27495L58.41875 238.83745L59.325 238.83745L61.965626 245.27495L60.996876 245.27495L60.246876 243.32182L57.54375 243.32182L56.840626 245.27495L55.934376 245.27495ZM57.79375 242.63432L59.98125 242.63432L59.309376 240.83745Q58.996876 240.02495 58.85625 239.50932Q58.73125 240.13432 58.496876 240.7437L57.79375 242.63432ZM62.54375 245.27495L62.54375 240.60307L63.246876 240.60307L63.246876 241.25932Q63.465626 240.91557 63.825 240.71245Q64.2 240.50932 64.66875 240.50932Q65.18437 240.50932 65.5125 240.72807Q65.84062 240.9312 65.98125 241.32182Q66.54375 240.50932 67.41875 240.50932Q68.12187 240.50932 68.49687 240.89995Q68.87187 241.27495 68.87187 242.07182L68.87187 245.27495L68.075 245.27495L68.075 242.33745Q68.075 241.85307 67.99687 241.64995Q67.93437 241.44682 67.73125 241.32182Q67.52812 241.1812 67.24687 241.1812Q66.7625 241.1812 66.43437 241.50932Q66.10625 241.83745 66.10625 242.5562L66.10625 245.27495L65.30937 245.27495L65.30937 242.2437Q65.30937 241.71245 65.12187 241.44682Q64.93437 241.1812 64.49687 241.1812Q64.15312 241.1812 63.871876 241.3687Q63.590626 241.54057 63.465626 241.88432Q63.340626 242.21245 63.340626 242.85307L63.340626 245.27495L62.54375 245.27495ZM73.73125 243.77495L74.55937 243.8687Q74.35625 244.58745 73.825 244.9937Q73.30937 245.38432 72.49687 245.38432Q71.48125 245.38432 70.87187 244.75932Q70.27812 244.1187 70.27812 242.97807Q70.27812 241.8062 70.8875 241.16557Q71.49687 240.50932 72.46562 240.50932Q73.40312 240.50932 73.98125 241.14995Q74.575 241.77495 74.575 242.9312Q74.575 243.00932 74.575 243.14995L71.09062 243.14995Q71.1375 243.91557 71.52812 244.32182Q71.91875 244.72807 72.5125 244.72807Q72.95 244.72807 73.24687 244.50932Q73.55937 244.27495 73.73125 243.77495ZM71.1375 242.4937L73.74687 242.4937Q73.7 241.89995 73.45 241.60307Q73.075 241.14995 72.46562 241.14995Q71.91875 241.14995 71.54375 241.52495Q71.18437 241.88432 71.1375 242.4937ZM75.52812 245.27495L75.52812 240.60307L76.24687 240.60307L76.24687 241.32182Q76.5125 240.82182 76.74687 240.66557Q76.98125 240.50932 77.2625 240.50932Q77.65312 240.50932 78.075 240.75932L77.79375 241.4937Q77.5125 241.32182 77.21562 241.32182Q76.96562 241.32182 76.74687 241.47807Q76.54375 241.63432 76.45 241.91557Q76.325 242.33745 76.325 242.83745L76.325 245.27495L75.52812 245.27495ZM78.54375 239.7437L78.54375 238.83745L79.34062 238.83745L79.34062 239.7437L78.54375 239.7437ZM78.54375 245.27495L78.54375 240.60307L79.34062 240.60307L79.34062 245.27495L78.54375 245.27495ZM83.59062 243.57182L84.37187 243.66557Q84.24687 244.47807 83.71562 244.9312Q83.18437 245.38432 82.41875 245.38432Q81.46562 245.38432 80.8875 244.75932Q80.30937 244.13432 80.30937 242.96245Q80.30937 242.19682 80.55937 241.63432Q80.80937 241.07182 81.30937 240.79057Q81.825 240.50932 82.43437 240.50932Q83.18437 240.50932 83.66875 240.89995Q84.15312 241.27495 84.29375 241.97807L83.52812 242.10307Q83.41875 241.63432 83.1375 241.39995Q82.85625 241.14995 82.46562 241.14995Q81.85625 241.14995 81.48125 241.58745Q81.12187 242.00932 81.12187 242.9312Q81.12187 243.88432 81.48125 244.3062Q81.84062 244.72807 82.41875 244.72807Q82.8875 244.72807 83.2 244.44682Q83.5125 244.16557 83.59062 243.57182ZM88.59062 244.69682Q88.15312 245.07182 87.74687 245.22807Q87.34062 245.38432 86.87187 245.38432Q86.10625 245.38432 85.68437 245.00932Q85.27812 244.63432 85.27812 244.04057Q85.27812 243.69682 85.43437 243.41557Q85.59062 243.13432 85.84062 242.96245Q86.09062 242.79057 86.40312 242.69682Q86.6375 242.64995 87.10625 242.58745Q88.075 242.47807 88.52812 242.3062Q88.52812 242.14995 88.52812 242.10307Q88.52812 241.6187 88.30937 241.4312Q87.99687 241.14995 87.40312 241.14995Q86.84062 241.14995 86.575 241.35307Q86.30937 241.54057 86.18437 242.04057L85.41875 241.94682Q85.5125 241.44682 85.74687 241.14995Q85.99687 240.83745 86.45 240.6812Q86.91875 240.50932 87.5125 240.50932Q88.12187 240.50932 88.48125 240.64995Q88.85625 240.79057 89.02812 241.00932Q89.21562 241.21245 89.27812 241.54057Q89.325 241.7437 89.325 242.25932L89.325 243.32182Q89.325 244.41557 89.37187 244.71245Q89.41875 245.00932 89.575 245.27495L88.74687 245.27495Q88.62187 245.02495 88.59062 244.69682ZM88.52812 242.9312Q88.09062 243.10307 87.23125 243.22807Q86.74687 243.3062 86.54375 243.39995Q86.34062 243.47807 86.23125 243.64995Q86.12187 243.82182 86.12187 244.02495Q86.12187 244.33745 86.35625 244.5562Q86.59062 244.75932 87.05937 244.75932Q87.5125 244.75932 87.87187 244.5562Q88.23125 244.35307 88.40312 244.00932Q88.52812 243.7437 88.52812 243.22807L88.52812 242.9312ZM90.54375 245.27495L90.54375 240.60307L91.2625 240.60307L91.2625 241.27495Q91.7625 240.50932 92.74687 240.50932Q93.16875 240.50932 93.5125 240.66557Q93.87187 240.8062 94.04375 241.0562Q94.21562 241.29057 94.29375 241.63432Q94.34062 241.85307 94.34062 242.39995L94.34062 245.27495L93.54375 245.27495L93.54375 242.4312Q93.54375 241.94682 93.45 241.71245Q93.35625 241.47807 93.12187 241.33745Q92.8875 241.1812 92.575 241.1812Q92.075 241.1812 91.7 241.50932Q91.34062 241.82182 91.34062 242.72807L91.34062 245.27495L90.54375 245.27495Z" fill-rule="nonzero"/><path fill="#000000" d="M33.934376 210.76247L36.41875 204.32497L37.325 204.32497L39.965626 210.76247L38.996876 210.76247L38.246876 208.80934L35.54375 208.80934L34.840626 210.76247L33.934376 210.76247ZM35.79375 208.12184L37.98125 208.12184L37.309376 206.32497Q36.996876 205.51247 36.85625 204.99684Q36.73125 205.62184 36.496876 206.23122L35.79375 208.12184ZM40.73125 210.76247L40.73125 206.71559L40.028126 206.71559L40.028126 206.09059L40.73125 206.09059L40.73125 205.60622Q40.73125 205.12184 40.809376 204.90309Q40.934376 204.59059 41.215626 204.40309Q41.5125 204.21559 42.028126 204.21559Q42.35625 204.21559 42.7625 204.29372L42.6375 204.98122Q42.403126 204.93434 42.184376 204.93434Q41.825 204.93434 41.66875 205.09059Q41.5125 205.24684 41.5125 205.66872L41.5125 206.09059L42.434376 206.09059L42.434376 206.71559L41.5125 206.71559L41.5125 210.76247L40.73125 210.76247ZM43.528126 210.76247L43.528126 206.09059L44.246876 206.09059L44.246876 206.80934Q44.5125 206.30934 44.746876 206.15309Q44.98125 205.99684 45.2625 205.99684Q45.653126 205.99684 46.075 206.24684L45.79375 206.98122Q45.5125 206.80934 45.215626 206.80934Q44.965626 206.80934 44.746876 206.96559Q44.54375 207.12184 44.45 207.40309Q44.325 207.82497 44.325 208.32497L44.325 210.76247L43.528126 210.76247ZM46.54375 205.23122L46.54375 204.32497L47.340626 204.32497L47.340626 205.23122L46.54375 205.23122ZM46.54375 210.76247L46.54375 206.09059L47.340626 206.09059L47.340626 210.76247L46.54375 210.76247ZM51.590626 209.05934L52.371876 209.15309Q52.246876 209.96559 51.715626 210.41872Q51.184376 210.87184 50.41875 210.87184Q49.465626 210.87184 48.8875 210.24684Q48.309376 209.62184 48.309376 208.44997Q48.309376 207.68434 48.559376 207.12184Q48.809376 206.55934 49.309376 206.27809Q49.825 205.99684 50.434376 205.99684Q51.184376 205.99684 51.66875 206.38747Q52.153126 206.76247 52.29375 207.46559L51.528126 207.59059Q51.41875 207.12184 51.1375 206.88747Q50.85625 206.63747 50.465626 206.63747Q49.85625 206.63747 49.48125 207.07497Q49.121876 207.49684 49.121876 208.41872Q49.121876 209.37184 49.48125 209.79372Q49.840626 210.21559 50.41875 210.21559Q50.8875 210.21559 51.2 209.93434Q51.5125 209.65309 51.590626 209.05934ZM56.590626 210.18434Q56.153126 210.55934 55.746876 210.71559Q55.340626 210.87184 54.871876 210.87184Q54.10625 210.87184 53.684376 210.49684Q53.278126 210.12184 53.278126 209.52809Q53.278126 209.18434 53.434376 208.90309Q53.590626 208.62184 53.840626 208.44997Q54.090626 208.27809 54.403126 208.18434Q54.6375 208.13747 55.10625 208.07497Q56.075 207.96559 56.528126 207.79372Q56.528126 207.63747 56.528126 207.59059Q56.528126 207.10622 56.309376 206.91872Q55.996876 206.63747 55.403126 206.63747Q54.840626 206.63747 54.575 206.84059Q54.309376 207.02809 54.184376 207.52809L53.41875 207.43434Q53.5125 206.93434 53.746876 206.63747Q53.996876 206.32497 54.45 206.16872Q54.91875 205.99684 55.5125 205.99684Q56.121876 205.99684 56.48125 206.13747Q56.85625 206.27809 57.028126 206.49684Q57.215626 206.69997 57.278126 207.02809Q57.325 207.23122 57.325 207.74684L57.325 208.80934Q57.325 209.90309 57.371876 210.19997Q57.41875 210.49684 57.575 210.76247L56.746876 210.76247Q56.621876 210.51247 56.590626 210.18434ZM56.528126 208.41872Q56.090626 208.59059 55.23125 208.71559Q54.746876 208.79372 54.54375 208.88747Q54.340626 208.96559 54.23125 209.13747Q54.121876 209.30934 54.121876 209.51247Q54.121876 209.82497 54.35625 210.04372Q54.590626 210.24684 55.059376 210.24684Q55.5125 210.24684 55.871876 210.04372Q56.23125 209.84059 56.403126 209.49684Q56.528126 209.23122 56.528126 208.71559L56.528126 208.41872ZM58.54375 210.76247L58.54375 206.09059L59.2625 206.09059L59.2625 206.76247Q59.7625 205.99684 60.746876 205.99684Q61.16875 205.99684 61.5125 206.15309Q61.871876 206.29372 62.04375 206.54372Q62.215626 206.77809 62.29375 207.12184Q62.340626 207.34059 62.340626 207.88747L62.340626 210.76247L61.54375 210.76247L61.54375 207.91872Q61.54375 207.43434 61.45 207.19997Q61.35625 206.96559 61.121876 206.82497Q60.8875 206.66872 60.575 206.66872Q60.075 206.66872 59.7 206.99684Q59.340626 207.30934 59.340626 208.21559L59.340626 210.76247L58.54375 210.76247ZM68.05937 212.65309Q67.40312 211.82497 66.95 210.73122Q66.49687 209.62184 66.49687 208.43434Q66.49687 207.38747 66.84062 206.41872Q67.23125 205.30934 68.05937 204.21559L68.62187 204.21559Q68.09062 205.12184 67.91875 205.51247Q67.65312 206.12184 67.49687 206.77809Q67.30937 207.60622 67.30937 208.43434Q67.30937 210.54372 68.62187 212.65309L68.05937 212.65309ZM69.3875 207.62184Q69.3875 206.02809 70.24687 205.12184Q71.10625 204.19997 72.46562 204.19997Q73.35625 204.19997 74.075 204.63747Q74.79375 205.05934 75.16875 205.82497Q75.54375 206.59059 75.54375 207.54372Q75.54375 208.52809 75.15312 209.30934Q74.7625 210.07497 74.02812 210.48122Q73.30937 210.87184 72.46562 210.87184Q71.55937 210.87184 70.84062 210.43434Q70.12187 209.99684 69.74687 209.23122Q69.3875 208.46559 69.3875 207.62184ZM70.2625 207.63747Q70.2625 208.80934 70.8875 209.48122Q71.5125 210.13747 72.46562 210.13747Q73.41875 210.13747 74.04375 209.46559Q74.66875 208.79372 74.66875 207.54372Q74.66875 206.76247 74.40312 206.18434Q74.1375 205.59059 73.62187 205.26247Q73.10625 204.93434 72.48125 204.93434Q71.575 204.93434 70.91875 205.55934Q70.2625 206.18434 70.2625 207.63747ZM78.27812 210.05934L78.3875 210.74684Q78.04375 210.82497 77.79375 210.82497Q77.35625 210.82497 77.12187 210.68434Q76.8875 210.54372 76.77812 210.32497Q76.68437 210.10622 76.68437 209.40309L76.68437 206.71559L76.10625 206.71559L76.10625 206.09059L76.68437 206.09059L76.68437 204.93434L77.48125 204.46559L77.48125 206.09059L78.27812 206.09059L78.27812 206.71559L77.48125 206.71559L77.48125 209.43434Q77.48125 209.77809 77.5125 209.87184Q77.55937 209.96559 77.65312 210.02809Q77.74687 210.09059 77.91875 210.09059Q78.05937 210.09059 78.27812 210.05934ZM79.54375 210.76247L79.54375 204.32497L80.34062 204.32497L80.34062 206.63747Q80.8875 205.99684 81.73125 205.99684Q82.24687 205.99684 82.62187 206.19997Q83.0125 206.40309 83.16875 206.76247Q83.34062 207.12184 83.34062 207.80934L83.34062 210.76247L82.55937 210.76247L82.55937 207.80934Q82.55937 207.21559 82.29375 206.94997Q82.04375 206.66872 81.575 206.66872Q81.21562 206.66872 80.90312 206.85622Q80.59062 207.02809 80.46562 207.34059Q80.34062 207.65309 80.34062 208.21559L80.34062 210.76247L79.54375 210.76247ZM87.73125 209.26247L88.55937 209.35622Q88.35625 210.07497 87.825 210.48122Q87.30937 210.87184 86.49687 210.87184Q85.48125 210.87184 84.87187 210.24684Q84.27812 209.60622 84.27812 208.46559Q84.27812 207.29372 84.8875 206.65309Q85.49687 205.99684 86.46562 205.99684Q87.40312 205.99684 87.98125 206.63747Q88.575 207.26247 88.575 208.41872Q88.575 208.49684 88.575 208.63747L85.09062 208.63747Q85.1375 209.40309 85.52812 209.80934Q85.91875 210.21559 86.5125 210.21559Q86.95 210.21559 87.24687 209.99684Q87.55937 209.76247 87.73125 209.26247ZM85.1375 207.98122L87.74687 207.98122Q87.7 207.38747 87.45 207.09059Q87.075 206.63747 86.46562 206.63747Q85.91875 206.63747 85.54375 207.01247Q85.18437 207.37184 85.1375 207.98122ZM89.52812 210.76247L89.52812 206.09059L90.24687 206.09059L90.24687 206.80934Q90.5125 206.30934 90.74687 206.15309Q90.98125 205.99684 91.2625 205.99684Q91.65312 205.99684 92.075 206.24684L91.79375 206.98122Q91.5125 206.80934 91.21562 206.80934Q90.96562 206.80934 90.74687 206.96559Q90.54375 207.12184 90.45 207.40309Q90.325 207.82497 90.325 208.32497L90.325 210.76247L89.52812 210.76247ZM93.05937 212.65309L92.49687 212.65309Q93.80937 210.54372 93.80937 208.43434Q93.80937 207.60622 93.62187 206.79372Q93.46562 206.13747 93.2 205.52809Q93.02812 205.13747 92.49687 204.21559L93.05937 204.21559Q93.8875 205.30934 94.27812 206.41872Q94.62187 207.38747 94.62187 208.43434Q94.62187 209.62184 94.16875 210.73122Q93.71562 211.82497 93.05937 212.65309Z" fill-rule="nonzero"/><path fill="#000000" d="M71.93437 176.25L74.41875 169.8125L75.325 169.8125L77.96562 176.25L76.99687 176.25L76.24687 174.29688L73.54375 174.29688L72.84062 176.25L71.93437 176.25ZM73.79375 173.60938L75.98125 173.60938L75.30937 171.8125Q74.99687 171.0 74.85625 170.48438Q74.73125 171.10938 74.49687 171.71875L73.79375 173.60938ZM78.23125 174.85938L79.0125 174.73438Q79.075 175.20312 79.37187 175.45312Q79.68437 175.70312 80.21562 175.70312Q80.7625 175.70312 81.02812 175.48438Q81.29375 175.26562 81.29375 174.96875Q81.29375 174.6875 81.05937 174.54688Q80.8875 174.4375 80.24687 174.26562Q79.37187 174.04688 79.02812 173.89062Q78.7 173.73438 78.52812 173.45312Q78.35625 173.17188 78.35625 172.82812Q78.35625 172.51562 78.49687 172.25Q78.6375 171.98438 78.8875 171.79688Q79.075 171.67188 79.3875 171.57812Q79.71562 171.48438 80.075 171.48438Q80.62187 171.48438 81.02812 171.64062Q81.45 171.79688 81.65312 172.0625Q81.85625 172.32812 81.93437 172.78125L81.15312 172.89062Q81.10625 172.53125 80.84062 172.32812Q80.59062 172.125 80.1375 172.125Q79.59062 172.125 79.35625 172.3125Q79.12187 172.48438 79.12187 172.73438Q79.12187 172.89062 79.21562 173.0Q79.30937 173.14062 79.52812 173.21875Q79.6375 173.26562 80.21562 173.42188Q81.05937 173.64062 81.3875 173.78125Q81.73125 173.92188 81.91875 174.20312Q82.10625 174.46875 82.10625 174.875Q82.10625 175.28125 81.87187 175.625Q81.6375 175.96875 81.2 176.17188Q80.77812 176.35938 80.21562 176.35938Q79.30937 176.35938 78.825 175.98438Q78.35625 175.59375 78.23125 174.85938ZM83.54375 170.71875L83.54375 169.8125L84.34062 169.8125L84.34062 170.71875L83.54375 170.71875ZM83.54375 176.25L83.54375 171.57812L84.34062 171.57812L84.34062 176.25L83.54375 176.25ZM88.59062 175.67188Q88.15312 176.04688 87.74687 176.20312Q87.34062 176.35938 86.87187 176.35938Q86.10625 176.35938 85.68437 175.98438Q85.27812 175.60938 85.27812 175.01562Q85.27812 174.67188 85.43437 174.39062Q85.59062 174.10938 85.84062 173.9375Q86.09062 173.76562 86.40312 173.67188Q86.6375 173.625 87.10625 173.5625Q88.075 173.45312 88.52812 173.28125Q88.52812 173.125 88.52812 173.07812Q88.52812 172.59375 88.30937 172.40625Q87.99687 172.125 87.40312 172.125Q86.84062 172.125 86.575 172.32812Q86.30937 172.51562 86.18437 173.01562L85.41875 172.92188Q85.5125 172.42188 85.74687 172.125Q85.99687 171.8125 86.45 171.65625Q86.91875 171.48438 87.5125 171.48438Q88.12187 171.48438 88.48125 171.625Q88.85625 171.76562 89.02812 171.98438Q89.21562 172.1875 89.27812 172.51562Q89.325 172.71875 89.325 173.23438L89.325 174.29688Q89.325 175.39062 89.37187 175.6875Q89.41875 175.98438 89.575 176.25L88.74687 176.25Q88.62187 176.0 88.59062 175.67188ZM88.52812 173.90625Q88.09062 174.07812 87.23125 174.20312Q86.74687 174.28125 86.54375 174.375Q86.34062 174.45312 86.23125 174.625Q86.12187 174.79688 86.12187 175.0Q86.12187 175.3125 86.35625 175.53125Q86.59062 175.73438 87.05937 175.73438Q87.5125 175.73438 87.87187 175.53125Q88.23125 175.32812 88.40312 174.98438Q88.52812 174.71875 88.52812 174.20312L88.52812 173.90625ZM90.54375 176.25L90.54375 171.57812L91.2625 171.57812L91.2625 172.25Q91.7625 171.48438 92.74687 171.48438Q93.16875 171.48438 93.5125 171.64062Q93.87187 171.78125 94.04375 172.03125Q94.21562 172.26562 94.29375 172.60938Q94.34062 172.82812 94.34062 173.375L94.34062 176.25L93.54375 176.25L93.54375 173.40625Q93.54375 172.92188 93.45 172.6875Q93.35625 172.45312 93.12187 172.3125Q92.8875 172.15625 92.575 172.15625Q92.075 172.15625 91.7 172.48438Q91.34062 172.79688 91.34062 173.70312L91.34062 176.25L90.54375 176.25Z" fill-rule="nonzero"/><path fill="#000000" d="M70.79375 141.73753L70.79375 135.30003L71.6375 135.30003L71.6375 141.73753L70.79375 141.73753ZM73.54375 141.73753L73.54375 137.06566L74.2625 137.06566L74.2625 137.73753Q74.7625 136.97191 75.74687 136.97191Q76.16875 136.97191 76.5125 137.12816Q76.87187 137.26878 77.04375 137.51878Q77.21562 137.75316 77.29375 138.09691Q77.34062 138.31566 77.34062 138.86253L77.34062 141.73753L76.54375 141.73753L76.54375 138.89378Q76.54375 138.40941 76.45 138.17503Q76.35625 137.94066 76.12187 137.80003Q75.8875 137.64378 75.575 137.64378Q75.075 137.64378 74.7 137.97191Q74.34062 138.28441 74.34062 139.19066L74.34062 141.73753L73.54375 141.73753ZM81.575 141.73753L81.575 141.14378Q81.12187 141.84691 80.2625 141.84691Q79.71562 141.84691 79.24687 141.53441Q78.77812 141.22191 78.5125 140.67503Q78.2625 140.12816 78.2625 139.40941Q78.2625 138.70628 78.49687 138.14378Q78.73125 137.56566 79.18437 137.26878Q79.65312 136.97191 80.23125 136.97191Q80.65312 136.97191 80.98125 137.14378Q81.30937 137.31566 81.5125 137.61253L81.5125 135.30003L82.30937 135.30003L82.30937 141.73753L81.575 141.73753ZM79.075 139.40941Q79.075 140.30003 79.45 140.75316Q79.825 141.19066 80.34062 141.19066Q80.85625 141.19066 81.21562 140.76878Q81.59062 140.34691 81.59062 139.47191Q81.59062 138.51878 81.21562 138.06566Q80.84062 137.61253 80.30937 137.61253Q79.77812 137.61253 79.41875 138.05003Q79.075 138.48753 79.075 139.40941ZM83.54375 136.20628L83.54375 135.30003L84.34062 135.30003L84.34062 136.20628L83.54375 136.20628ZM83.54375 141.73753L83.54375 137.06566L84.34062 137.06566L84.34062 141.73753L83.54375 141.73753ZM88.59062 141.15941Q88.15312 141.53441 87.74687 141.69066Q87.34062 141.84691 86.87187 141.84691Q86.10625 141.84691 85.68437 141.47191Q85.27812 141.09691 85.27812 140.50316Q85.27812 140.15941 85.43437 139.87816Q85.59062 139.59691 85.84062 139.42503Q86.09062 139.25316 86.40312 139.15941Q86.6375 139.11253 87.10625 139.05003Q88.075 138.94066 88.52812 138.76878Q88.52812 138.61253 88.52812 138.56566Q88.52812 138.08128 88.30937 137.89378Q87.99687 137.61253 87.40312 137.61253Q86.84062 137.61253 86.575 137.81566Q86.30937 138.00316 86.18437 138.50316L85.41875 138.40941Q85.5125 137.90941 85.74687 137.61253Q85.99687 137.30003 86.45 137.14378Q86.91875 136.97191 87.5125 136.97191Q88.12187 136.97191 88.48125 137.11253Q88.85625 137.25316 89.02812 137.47191Q89.21562 137.67503 89.27812 138.00316Q89.325 138.20628 89.325 138.72191L89.325 139.78441Q89.325 140.87816 89.37187 141.17503Q89.41875 141.47191 89.575 141.73753L88.74687 141.73753Q88.62187 141.48753 88.59062 141.15941ZM88.52812 139.39378Q88.09062 139.56566 87.23125 139.69066Q86.74687 139.76878 86.54375 139.86253Q86.34062 139.94066 86.23125 140.11253Q86.12187 140.28441 86.12187 140.48753Q86.12187 140.80003 86.35625 141.01878Q86.59062 141.22191 87.05937 141.22191Q87.5125 141.22191 87.87187 141.01878Q88.23125 140.81566 88.40312 140.47191Q88.52812 140.20628 88.52812 139.69066L88.52812 139.39378ZM90.54375 141.73753L90.54375 137.06566L91.2625 137.06566L91.2625 137.73753Q91.7625 136.97191 92.74687 136.97191Q93.16875 136.97191 93.5125 137.12816Q93.87187 137.26878 94.04375 137.51878Q94.21562 137.75316 94.29375 138.09691Q94.34062 138.31566 94.34062 138.86253L94.34062 141.73753L93.54375 141.73753L93.54375 138.89378Q93.54375 138.40941 93.45 138.17503Q93.35625 137.94066 93.12187 137.80003Q92.8875 137.64378 92.575 137.64378Q92.075 137.64378 91.7 137.97191Q91.34062 138.28441 91.34062 139.19066L91.34062 141.73753L90.54375 141.73753Z" fill-rule="nonzero"/><path fill="#000000" d="M31.60625 107.22506L31.60625 100.78756L32.465626 100.78756L32.465626 106.459435L35.6375 106.459435L35.6375 107.22506L31.60625 107.22506ZM39.590626 106.646935Q39.153126 107.021935 38.746876 107.178185Q38.340626 107.334435 37.871876 107.334435Q37.10625 107.334435 36.684376 106.959435Q36.278126 106.584435 36.278126 105.990685Q36.278126 105.646935 36.434376 105.365685Q36.590626 105.084435 36.840626 104.91256Q37.090626 104.740685 37.403126 104.646935Q37.6375 104.60006 38.10625 104.53756Q39.075 104.428185 39.528126 104.25631Q39.528126 104.10006 39.528126 104.053185Q39.528126 103.56881 39.309376 103.38131Q38.996876 103.10006 38.403126 103.10006Q37.840626 103.10006 37.575 103.303185Q37.309376 103.490685 37.184376 103.990685L36.41875 103.896935Q36.5125 103.396935 36.746876 103.10006Q36.996876 102.78756 37.45 102.63131Q37.91875 102.459435 38.5125 102.459435Q39.121876 102.459435 39.48125 102.60006Q39.85625 102.740685 40.028126 102.959435Q40.215626 103.16256 40.278126 103.490685Q40.325 103.69381 40.325 104.209435L40.325 105.271935Q40.325 106.365685 40.371876 106.66256Q40.41875 106.959435 40.575 107.22506L39.746876 107.22506Q39.621876 106.97506 39.590626 106.646935ZM39.528126 104.88131Q39.090626 105.053185 38.23125 105.178185Q37.746876 105.25631 37.54375 105.35006Q37.340626 105.428185 37.23125 105.60006Q37.121876 105.771935 37.121876 105.97506Q37.121876 106.28756 37.35625 106.50631Q37.590626 106.709435 38.059376 106.709435Q38.5125 106.709435 38.871876 106.50631Q39.23125 106.303185 39.403126 105.959435Q39.528126 105.69381 39.528126 105.178185L39.528126 104.88131ZM43.278126 106.521935L43.3875 107.209435Q43.04375 107.28756 42.79375 107.28756Q42.35625 107.28756 42.121876 107.146935Q41.8875 107.00631 41.778126 106.78756Q41.684376 106.56881 41.684376 105.865685L41.684376 103.178185L41.10625 103.178185L41.10625 102.553185L41.684376 102.553185L41.684376 101.396935L42.48125 100.928185L42.48125 102.553185L43.278126 102.553185L43.278126 103.178185L42.48125 103.178185L42.48125 105.896935Q42.48125 106.240685 42.5125 106.334435Q42.559376 106.428185 42.653126 106.490685Q42.746876 106.553185 42.91875 106.553185Q43.059376 106.553185 43.278126 106.521935ZM44.54375 101.69381L44.54375 100.78756L45.340626 100.78756L45.340626 101.69381L44.54375 101.69381ZM44.54375 107.22506L44.54375 102.553185L45.340626 102.553185L45.340626 107.22506L44.54375 107.22506ZM46.54375 107.22506L46.54375 102.553185L47.2625 102.553185L47.2625 103.22506Q47.7625 102.459435 48.746876 102.459435Q49.16875 102.459435 49.5125 102.615685Q49.871876 102.75631 50.04375 103.00631Q50.215626 103.240685 50.29375 103.584435Q50.340626 103.803185 50.340626 104.35006L50.340626 107.22506L49.54375 107.22506L49.54375 104.38131Q49.54375 103.896935 49.45 103.66256Q49.35625 103.428185 49.121876 103.28756Q48.8875 103.13131 48.575 103.13131Q48.075 103.13131 47.7 103.459435Q47.340626 103.771935 47.340626 104.678185L47.340626 107.22506L46.54375 107.22506ZM51.246876 104.896935Q51.246876 103.60006 51.965626 102.97506Q52.575 102.459435 53.434376 102.459435Q54.403126 102.459435 55.0125 103.084435Q55.621876 103.709435 55.621876 104.81881Q55.621876 105.72506 55.340626 106.240685Q55.075 106.75631 54.559376 107.053185Q54.04375 107.334435 53.434376 107.334435Q52.45 107.334435 51.840626 106.709435Q51.246876 106.06881 51.246876 104.896935ZM52.059376 104.896935Q52.059376 105.78756 52.45 106.240685Q52.840626 106.678185 53.434376 106.678185Q54.028126 106.678185 54.41875 106.240685Q54.809376 105.78756 54.809376 104.865685Q54.809376 104.00631 54.41875 103.553185Q54.028126 103.10006 53.434376 103.10006Q52.840626 103.10006 52.45 103.553185Q52.059376 103.990685 52.059376 104.896935ZM55.95 107.334435L57.825 100.678185L58.45 100.678185L56.590626 107.334435L55.95 107.334435ZM59.66875 107.22506L59.66875 100.78756L60.528126 100.78756L60.528126 103.428185L63.871876 103.428185L63.871876 100.78756L64.73125 100.78756L64.73125 107.22506L63.871876 107.22506L63.871876 104.19381L60.528126 104.19381L60.528126 107.22506L59.66875 107.22506ZM66.54375 101.69381L66.54375 100.78756L67.34062 100.78756L67.34062 101.69381L66.54375 101.69381ZM66.54375 107.22506L66.54375 102.553185L67.34062 102.553185L67.34062 107.22506L66.54375 107.22506ZM68.23125 105.834435L69.0125 105.709435Q69.075 106.178185 69.37187 106.428185Q69.68437 106.678185 70.21562 106.678185Q70.7625 106.678185 71.02812 106.459435Q71.29375 106.240685 71.29375 105.94381Q71.29375 105.66256 71.05937 105.521935Q70.8875 105.41256 70.24687 105.240685Q69.37187 105.021935 69.02812 104.865685Q68.7 104.709435 68.52812 104.428185Q68.35625 104.146935 68.35625 103.803185Q68.35625 103.490685 68.49687 103.22506Q68.6375 102.959435 68.8875 102.771935Q69.075 102.646935 69.3875 102.553185Q69.71562 102.459435 70.075 102.459435Q70.62187 102.459435 71.02812 102.615685Q71.45 102.771935 71.65312 103.03756Q71.85625 103.303185 71.93437 103.75631L71.15312 103.865685Q71.10625 103.50631 70.84062 103.303185Q70.59062 103.10006 70.1375 103.10006Q69.59062 103.10006 69.35625 103.28756Q69.12187 103.459435 69.12187 103.709435Q69.12187 103.865685 69.21562 103.97506Q69.30937 104.115685 69.52812 104.19381Q69.6375 104.240685 70.21562 104.396935Q71.05937 104.615685 71.3875 104.75631Q71.73125 104.896935 71.91875 105.178185Q72.10625 105.44381 72.10625 105.85006Q72.10625 106.25631 71.87187 106.60006Q71.6375 106.94381 71.2 107.146935Q70.77812 107.334435 70.21562 107.334435Q69.30937 107.334435 68.825 106.959435Q68.35625 106.56881 68.23125 105.834435ZM73.54375 109.00631L73.54375 102.553185L74.2625 102.553185L74.2625 103.16256Q74.5125 102.803185 74.825 102.63131Q75.15312 102.459435 75.62187 102.459435Q76.21562 102.459435 76.66875 102.771935Q77.12187 103.06881 77.35625 103.63131Q77.59062 104.19381 77.59062 104.85006Q77.59062 105.56881 77.325 106.146935Q77.075 106.72506 76.59062 107.03756Q76.10625 107.334435 75.55937 107.334435Q75.16875 107.334435 74.85625 107.16256Q74.54375 106.990685 74.34062 106.740685L74.34062 109.00631L73.54375 109.00631ZM74.2625 104.91256Q74.2625 105.81881 74.62187 106.25631Q74.99687 106.678185 75.5125 106.678185Q76.02812 106.678185 76.40312 106.240685Q76.79375 105.78756 76.79375 104.85006Q76.79375 103.959435 76.41875 103.521935Q76.05937 103.06881 75.54375 103.06881Q75.04375 103.06881 74.65312 103.553185Q74.2625 104.021935 74.2625 104.91256ZM81.59062 106.646935Q81.15312 107.021935 80.74687 107.178185Q80.34062 107.334435 79.87187 107.334435Q79.10625 107.334435 78.68437 106.959435Q78.27812 106.584435 78.27812 105.990685Q78.27812 105.646935 78.43437 105.365685Q78.59062 105.084435 78.84062 104.91256Q79.09062 104.740685 79.40312 104.646935Q79.6375 104.60006 80.10625 104.53756Q81.075 104.428185 81.52812 104.25631Q81.52812 104.10006 81.52812 104.053185Q81.52812 103.56881 81.30937 103.38131Q80.99687 103.10006 80.40312 103.10006Q79.84062 103.10006 79.575 103.303185Q79.30937 103.490685 79.18437 103.990685L78.41875 103.896935Q78.5125 103.396935 78.74687 103.10006Q78.99687 102.78756 79.45 102.63131Q79.91875 102.459435 80.5125 102.459435Q81.12187 102.459435 81.48125 102.60006Q81.85625 102.740685 82.02812 102.959435Q82.21562 103.16256 82.27812 103.490685Q82.325 103.69381 82.325 104.209435L82.325 105.271935Q82.325 106.365685 82.37187 106.66256Q82.41875 106.959435 82.575 107.22506L81.74687 107.22506Q81.62187 106.97506 81.59062 106.646935ZM81.52812 104.88131Q81.09062 105.053185 80.23125 105.178185Q79.74687 105.25631 79.54375 105.35006Q79.34062 105.428185 79.23125 105.60006Q79.12187 105.771935 79.12187 105.97506Q79.12187 106.28756 79.35625 106.50631Q79.59062 106.709435 80.05937 106.709435Q80.5125 106.709435 80.87187 106.50631Q81.23125 106.303185 81.40312 105.959435Q81.52812 105.69381 81.52812 105.178185L81.52812 104.88131ZM83.54375 107.22506L83.54375 102.553185L84.2625 102.553185L84.2625 103.22506Q84.7625 102.459435 85.74687 102.459435Q86.16875 102.459435 86.5125 102.615685Q86.87187 102.75631 87.04375 103.00631Q87.21562 103.240685 87.29375 103.584435Q87.34062 103.803185 87.34062 104.35006L87.34062 107.22506L86.54375 107.22506L86.54375 104.38131Q86.54375 103.896935 86.45 103.66256Q86.35625 103.428185 86.12187 103.28756Q85.8875 103.13131 85.575 103.13131Q85.075 103.13131 84.7 103.459435Q84.34062 103.771935 84.34062 104.678185L84.34062 107.22506L83.54375 107.22506ZM88.54375 101.69381L88.54375 100.78756L89.34062 100.78756L89.34062 101.69381L88.54375 101.69381ZM88.54375 107.22506L88.54375 102.553185L89.34062 102.553185L89.34062 107.22506L88.54375 107.22506ZM93.59062 105.521935L94.37187 105.615685Q94.24687 106.428185 93.71562 106.88131Q93.18437 107.334435 92.41875 107.334435Q91.46562 107.334435 90.8875 106.709435Q90.30937 106.084435 90.30937 104.91256Q90.30937 104.146935 90.55937 103.584435Q90.80937 103.021935 91.30937 102.740685Q91.825 102.459435 92.43437 102.459435Q93.18437 102.459435 93.66875 102.85006Q94.15312 103.22506 94.29375 103.928185L93.52812 104.053185Q93.41875 103.584435 93.1375 103.35006Q92.85625 103.10006 92.46562 103.10006Q91.85625 103.10006 91.48125 103.53756Q91.12187 103.959435 91.12187 104.88131Q91.12187 105.834435 91.48125 106.25631Q91.84062 106.678185 92.41875 106.678185Q92.8875 106.678185 93.2 106.396935Q93.5125 106.115685 93.59062 105.521935Z" fill-rule="nonzero"/><path fill="#000000" d="M72.3875 69.57196Q72.3875 67.97821 73.24687 67.07196Q74.10625 66.150085 75.46562 66.150085Q76.35625 66.150085 77.075 66.587585Q77.79375 67.00946 78.16875 67.775085Q78.54375 68.54071 78.54375 69.493835Q78.54375 70.47821 78.15312 71.25946Q77.7625 72.025085 77.02812 72.431335Q76.30937 72.82196 75.46562 72.82196Q74.55937 72.82196 73.84062 72.38446Q73.12187 71.94696 72.74687 71.181335Q72.3875 70.41571 72.3875 69.57196ZM73.2625 69.587585Q73.2625 70.75946 73.8875 71.431335Q74.5125 72.087585 75.46562 72.087585Q76.41875 72.087585 77.04375 71.41571Q77.66875 70.743835 77.66875 69.493835Q77.66875 68.712585 77.40312 68.13446Q77.1375 67.54071 76.62187 67.212585Q76.10625 66.88446 75.48125 66.88446Q74.575 66.88446 73.91875 67.50946Q73.2625 68.13446 73.2625 69.587585ZM81.27812 72.00946L81.3875 72.69696Q81.04375 72.775085 80.79375 72.775085Q80.35625 72.775085 80.12187 72.63446Q79.8875 72.493835 79.77812 72.275085Q79.68437 72.056335 79.68437 71.35321L79.68437 68.66571L79.10625 68.66571L79.10625 68.04071L79.68437 68.04071L79.68437 66.88446L80.48125 66.41571L80.48125 68.04071L81.27812 68.04071L81.27812 68.66571L80.48125 68.66571L80.48125 71.38446Q80.48125 71.72821 80.5125 71.82196Q80.55937 71.91571 80.65312 71.97821Q80.74687 72.04071 80.91875 72.04071Q81.05937 72.04071 81.27812 72.00946ZM82.54375 72.712585L82.54375 66.275085L83.34062 66.275085L83.34062 68.587585Q83.8875 67.94696 84.73125 67.94696Q85.24687 67.94696 85.62187 68.150085Q86.0125 68.35321 86.16875 68.712585Q86.34062 69.07196 86.34062 69.75946L86.34062 72.712585L85.55937 72.712585L85.55937 69.75946Q85.55937 69.16571 85.29375 68.900085Q85.04375 68.618835 84.575 68.618835Q84.21562 68.618835 83.90312 68.806335Q83.59062 68.97821 83.46562 69.29071Q83.34062 69.60321 83.34062 70.16571L83.34062 72.712585L82.54375 72.712585ZM90.73125 71.212585L91.55937 71.306335Q91.35625 72.025085 90.825 72.431335Q90.30937 72.82196 89.49687 72.82196Q88.48125 72.82196 87.87187 72.19696Q87.27812 71.556335 87.27812 70.41571Q87.27812 69.243835 87.8875 68.60321Q88.49687 67.94696 89.46562 67.94696Q90.40312 67.94696 90.98125 68.587585Q91.575 69.212585 91.575 70.368835Q91.575 70.44696 91.575 70.587585L88.09062 70.587585Q88.1375 71.35321 88.52812 71.75946Q88.91875 72.16571 89.5125 72.16571Q89.95 72.16571 90.24687 71.94696Q90.55937 71.712585 90.73125 71.212585ZM88.1375 69.931335L90.74687 69.931335Q90.7 69.337585 90.45 69.04071Q90.075 68.587585 89.46562 68.587585Q88.91875 68.587585 88.54375 68.962585Q88.18437 69.32196 88.1375 69.931335ZM92.52812 72.712585L92.52812 68.04071L93.24687 68.04071L93.24687 68.75946Q93.5125 68.25946 93.74687 68.10321Q93.98125 67.94696 94.2625 67.94696Q94.65312 67.94696 95.075 68.19696L94.79375 68.931335Q94.5125 68.75946 94.21562 68.75946Q93.96562 68.75946 93.74687 68.91571Q93.54375 69.07196 93.45 69.35321Q93.325 69.775085 93.325 70.275085L93.325 72.712585L92.52812 72.712585Z" fill-rule="nonzero"/><path fill="#000000" d="M93.325 309.91147Q93.325 308.77084 93.55937 308.06772Q93.79375 307.3646 94.24687 306.9896Q94.71562 306.6146 95.41875 306.6146Q95.95 306.6146 96.34062 306.83334Q96.73125 307.03647 96.98125 307.4271Q97.23125 307.81772 97.37187 308.38022Q97.52812 308.94272 97.52812 309.91147Q97.52812 311.03647 97.29375 311.7396Q97.05937 312.4271 96.59062 312.81772Q96.1375 313.19272 95.41875 313.19272Q94.49687 313.19272 93.96562 312.52084Q93.325 311.72397 93.325 309.91147ZM94.1375 309.91147Q94.1375 311.4896 94.49687 312.02084Q94.87187 312.53647 95.41875 312.53647Q95.96562 312.53647 96.34062 312.02084Q96.71562 311.4896 96.71562 309.91147Q96.71562 308.31772 96.34062 307.8021Q95.96562 307.27084 95.41875 307.27084Q94.87187 307.27084 94.54375 307.72397Q94.1375 308.31772 94.1375 309.91147ZM98.46562 308.19272Q98.46562 307.50522 98.80937 307.02084Q99.16875 306.53647 99.825 306.53647Q100.43437 306.53647 100.825 306.97397Q101.23125 307.39584 101.23125 308.2396Q101.23125 309.0521 100.825 309.50522Q100.41875 309.94272 99.84062 309.94272Q99.24687 309.94272 98.85625 309.50522Q98.46562 309.06772 98.46562 308.19272ZM99.85625 307.08334Q99.55937 307.08334 99.35625 307.33334Q99.16875 307.58334 99.16875 308.27084Q99.16875 308.88022 99.35625 309.14584Q99.55937 309.39584 99.85625 309.39584Q100.15312 309.39584 100.34062 309.14584Q100.54375 308.88022 100.54375 308.20834Q100.54375 307.58334 100.34062 307.33334Q100.1375 307.08334 99.85625 307.08334ZM99.85625 313.31772L103.37187 306.53647L104.0125 306.53647L100.5125 313.31772L99.85625 313.31772ZM102.6375 311.56772Q102.6375 310.88022 102.98125 310.39584Q103.34062 309.91147 103.99687 309.91147Q104.60625 309.91147 104.99687 310.34897Q105.40312 310.78647 105.40312 311.6146Q105.40312 312.44272 104.99687 312.88022Q104.59062 313.31772 103.99687 313.31772Q103.41875 313.31772 103.02812 312.88022Q102.6375 312.44272 102.6375 311.56772ZM104.0125 310.45834Q103.71562 310.45834 103.5125 310.72397Q103.325 310.97397 103.325 311.64584Q103.325 312.27084 103.52812 312.52084Q103.73125 312.77084 104.0125 312.77084Q104.325 312.77084 104.5125 312.52084Q104.71562 312.27084 104.71562 311.58334Q104.71562 310.95834 104.5125 310.70834Q104.30937 310.45834 104.0125 310.45834Z" fill-rule="nonzero"/><path fill="#000000" d="M318.63126 312.31772L318.63126 313.08334L314.36563 313.08334Q314.36563 312.8021 314.45938 312.53647Q314.63126 312.09897 314.99063 311.6771Q315.35 311.25522 316.02188 310.70834Q317.06876 309.83334 317.42813 309.33334Q317.80313 308.83334 317.80313 308.38022Q317.80313 307.91147 317.45938 307.59897Q317.13126 307.27084 316.6 307.27084Q316.02188 307.27084 315.67813 307.6146Q315.33438 307.95834 315.33438 308.56772L314.52188 308.47397Q314.6 307.56772 315.14688 307.09897Q315.69376 306.6146 316.61563 306.6146Q317.5375 306.6146 318.06876 307.13022Q318.61563 307.64584 318.61563 308.39584Q318.61563 308.78647 318.45938 309.16147Q318.30313 309.53647 317.92813 309.95834Q317.56876 310.3646 316.725 311.08334Q316.00626 311.6771 315.80313 311.89584Q315.6 312.1146 315.475 312.31772L318.63126 312.31772ZM319.475 311.39584L320.30313 311.31772Q320.39688 311.9271 320.725 312.2396Q321.06876 312.53647 321.5375 312.53647Q322.11563 312.53647 322.50626 312.1146Q322.9125 311.6771 322.9125 310.97397Q322.9125 310.28647 322.52188 309.89584Q322.14688 309.50522 321.5375 309.50522Q321.14688 309.50522 320.83438 309.69272Q320.5375 309.8646 320.35 310.13022L319.61563 310.03647L320.24063 306.72397L323.44376 306.72397L323.44376 307.4896L320.86563 307.4896L320.52188 309.20834Q321.1 308.81772 321.74063 308.81772Q322.58438 308.81772 323.1625 309.39584Q323.74063 309.97397 323.74063 310.89584Q323.74063 311.77084 323.24063 312.41147Q322.61563 313.19272 321.5375 313.19272Q320.6625 313.19272 320.1 312.70834Q319.55313 312.20834 319.475 311.39584ZM324.61563 308.19272Q324.61563 307.50522 324.95938 307.02084Q325.31876 306.53647 325.975 306.53647Q326.58438 306.53647 326.975 306.97397Q327.38126 307.39584 327.38126 308.2396Q327.38126 309.0521 326.975 309.50522Q326.56876 309.94272 325.99063 309.94272Q325.39688 309.94272 325.00626 309.50522Q324.61563 309.06772 324.61563 308.19272ZM326.00626 307.08334Q325.70938 307.08334 325.50626 307.33334Q325.31876 307.58334 325.31876 308.27084Q325.31876 308.88022 325.50626 309.14584Q325.70938 309.39584 326.00626 309.39584Q326.30313 309.39584 326.49063 309.14584Q326.69376 308.88022 326.69376 308.20834Q326.69376 307.58334 326.49063 307.33334Q326.2875 307.08334 326.00626 307.08334ZM326.00626 313.31772L329.52188 306.53647L330.1625 306.53647L326.6625 313.31772L326.00626 313.31772ZM328.7875 311.56772Q328.7875 310.88022 329.13126 310.39584Q329.49063 309.91147 330.14688 309.91147Q330.75626 309.91147 331.14688 310.34897Q331.55313 310.78647 331.55313 311.6146Q331.55313 312.44272 331.14688 312.88022Q330.74063 313.31772 330.14688 313.31772Q329.56876 313.31772 329.17813 312.88022Q328.7875 312.44272 328.7875 311.56772ZM330.1625 310.45834Q329.86563 310.45834 329.6625 310.72397Q329.475 310.97397 329.475 311.64584Q329.475 312.27084 329.67813 312.52084Q329.88126 312.77084 330.1625 312.77084Q330.475 312.77084 330.6625 312.52084Q330.86563 312.27084 330.86563 311.58334Q330.86563 310.95834 330.6625 310.70834Q330.45938 310.45834 330.1625 310.45834Z" fill-rule="nonzero"/><path fill="#000000" d="M538.125 311.39584L538.9531 311.31772Q539.0469 311.9271 539.375 312.2396Q539.71875 312.53647 540.1875 312.53647Q540.7656 312.53647 541.15625 312.1146Q541.5625 311.6771 541.5625 310.97397Q541.5625 310.28647 541.1719 309.89584Q540.7969 309.50522 540.1875 309.50522Q539.7969 309.50522 539.4844 309.69272Q539.1875 309.8646 539.0 310.13022L538.2656 310.03647L538.8906 306.72397L542.09375 306.72397L542.09375 307.4896L539.5156 307.4896L539.1719 309.20834Q539.75 308.81772 540.3906 308.81772Q541.2344 308.81772 541.8125 309.39584Q542.3906 309.97397 542.3906 310.89584Q542.3906 311.77084 541.8906 312.41147Q541.2656 313.19272 540.1875 313.19272Q539.3125 313.19272 538.75 312.70834Q538.2031 312.20834 538.125 311.39584ZM543.125 309.91147Q543.125 308.77084 543.3594 308.06772Q543.59375 307.3646 544.0469 306.9896Q544.5156 306.6146 545.21875 306.6146Q545.75 306.6146 546.1406 306.83334Q546.53125 307.03647 546.78125 307.4271Q547.03125 307.81772 547.1719 308.38022Q547.3281 308.94272 547.3281 309.91147Q547.3281 311.03647 547.09375 311.7396Q546.8594 312.4271 546.3906 312.81772Q545.9375 313.19272 545.21875 313.19272Q544.2969 313.19272 543.7656 312.52084Q543.125 311.72397 543.125 309.91147ZM543.9375 309.91147Q543.9375 311.4896 544.2969 312.02084Q544.6719 312.53647 545.21875 312.53647Q545.7656 312.53647 546.1406 312.02084Q546.5156 311.4896 546.5156 309.91147Q546.5156 308.31772 546.1406 307.8021Q545.7656 307.27084 545.21875 307.27084Q544.6719 307.27084 544.34375 307.72397Q543.9375 308.31772 543.9375 309.91147ZM548.2656 308.19272Q548.2656 307.50522 548.6094 307.02084Q548.96875 306.53647 549.625 306.53647Q550.2344 306.53647 550.625 306.97397Q551.03125 307.39584 551.03125 308.2396Q551.03125 309.0521 550.625 309.50522Q550.21875 309.94272 549.6406 309.94272Q549.0469 309.94272 548.65625 309.50522Q548.2656 309.06772 548.2656 308.19272ZM549.65625 307.08334Q549.3594 307.08334 549.15625 307.33334Q548.96875 307.58334 548.96875 308.27084Q548.96875 308.88022 549.15625 309.14584Q549.3594 309.39584 549.65625 309.39584Q549.9531 309.39584 550.1406 309.14584Q550.34375 308.88022 550.34375 308.20834Q550.34375 307.58334 550.1406 307.33334Q549.9375 307.08334 549.65625 307.08334ZM549.65625 313.31772L553.1719 306.53647L553.8125 306.53647L550.3125 313.31772L549.65625 313.31772ZM552.4375 311.56772Q552.4375 310.88022 552.78125 310.39584Q553.1406 309.91147 553.7969 309.91147Q554.40625 309.91147 554.7969 310.34897Q555.2031 310.78647 555.2031 311.6146Q555.2031 312.44272 554.7969 312.88022Q554.3906 313.31772 553.7969 313.31772Q553.21875 313.31772 552.8281 312.88022Q552.4375 312.44272 552.4375 311.56772ZM553.8125 310.45834Q553.5156 310.45834 553.3125 310.72397Q553.125 310.97397 553.125 311.64584Q553.125 312.27084 553.3281 312.52084Q553.53125 312.77084 553.8125 312.77084Q554.125 312.77084 554.3125 312.52084Q554.5156 312.27084 554.5156 311.58334Q554.5156 310.95834 554.3125 310.70834Q554.1094 310.45834 553.8125 310.45834Z" fill-rule="nonzero"/><path fill="#000000" d="M761.8219 307.4896L761.8219 306.72397L765.9938 306.72397L765.9938 307.33334Q765.3844 307.9896 764.775 309.08334Q764.16565 310.16147 763.8375 311.31772Q763.60315 312.1146 763.54065 313.08334L762.72815 313.08334Q762.7438 312.31772 763.025 311.25522Q763.3063 310.1771 763.8375 309.1771Q764.3844 308.1771 764.97815 307.4896L761.8219 307.4896ZM766.775 311.39584L767.60315 311.31772Q767.6969 311.9271 768.025 312.2396Q768.3688 312.53647 768.8375 312.53647Q769.41565 312.53647 769.8063 312.1146Q770.2125 311.6771 770.2125 310.97397Q770.2125 310.28647 769.8219 309.89584Q769.4469 309.50522 768.8375 309.50522Q768.4469 309.50522 768.1344 309.69272Q767.8375 309.8646 767.65 310.13022L766.91565 310.03647L767.54065 306.72397L770.7438 306.72397L770.7438 307.4896L768.16565 307.4896L767.8219 309.20834Q768.4 308.81772 769.04065 308.81772Q769.8844 308.81772 770.4625 309.39584Q771.04065 309.97397 771.04065 310.89584Q771.04065 311.77084 770.54065 312.41147Q769.91565 313.19272 768.8375 313.19272Q767.9625 313.19272 767.4 312.70834Q766.85315 312.20834 766.775 311.39584ZM771.91565 308.19272Q771.91565 307.50522 772.2594 307.02084Q772.6188 306.53647 773.275 306.53647Q773.8844 306.53647 774.275 306.97397Q774.6813 307.39584 774.6813 308.2396Q774.6813 309.0521 774.275 309.50522Q773.8688 309.94272 773.29065 309.94272Q772.6969 309.94272 772.3063 309.50522Q771.91565 309.06772 771.91565 308.19272ZM773.3063 307.08334Q773.0094 307.08334 772.8063 307.33334Q772.6188 307.58334 772.6188 308.27084Q772.6188 308.88022 772.8063 309.14584Q773.0094 309.39584 773.3063 309.39584Q773.60315 309.39584 773.79065 309.14584Q773.9938 308.88022 773.9938 308.20834Q773.9938 307.58334 773.79065 307.33334Q773.5875 307.08334 773.3063 307.08334ZM773.3063 313.31772L776.8219 306.53647L777.4625 306.53647L773.9625 313.31772L773.3063 313.31772ZM776.0875 311.56772Q776.0875 310.88022 776.4313 310.39584Q776.79065 309.91147 777.4469 309.91147Q778.0563 309.91147 778.4469 310.34897Q778.85315 310.78647 778.85315 311.6146Q778.85315 312.44272 778.4469 312.88022Q778.04065 313.31772 777.4469 313.31772Q776.8688 313.31772 776.47815 312.88022Q776.0875 312.44272 776.0875 311.56772ZM777.4625 310.45834Q777.16565 310.45834 776.9625 310.72397Q776.775 310.97397 776.775 311.64584Q776.775 312.27084 776.97815 312.52084Q777.1813 312.77084 777.4625 312.77084Q777.775 312.77084 777.9625 312.52084Q778.16565 312.27084 778.16565 311.58334Q778.16565 310.95834 777.9625 310.70834Q777.7594 310.45834 777.4625 310.45834Z" fill-rule="nonzero"/><path fill="#000000" d="M985.90936 313.08334L985.1125 313.08334L985.1125 308.03647Q984.83124 308.31772 984.3625 308.59897Q983.89374 308.8646 983.53436 308.9896L983.53436 308.22397Q984.1906 307.9271 984.6906 307.4896Q985.1906 307.03647 985.39374 306.6146L985.90936 306.6146L985.90936 313.08334ZM987.925 309.91147Q987.925 308.77084 988.15936 308.06772Q988.39374 307.3646 988.84686 306.9896Q989.3156 306.6146 990.01874 306.6146Q990.55 306.6146 990.9406 306.83334Q991.33124 307.03647 991.58124 307.4271Q991.83124 307.81772 991.97186 308.38022Q992.1281 308.94272 992.1281 309.91147Q992.1281 311.03647 991.89374 311.7396Q991.65936 312.4271 991.1906 312.81772Q990.7375 313.19272 990.01874 313.19272Q989.09686 313.19272 988.5656 312.52084Q987.925 311.72397 987.925 309.91147ZM988.7375 309.91147Q988.7375 311.4896 989.09686 312.02084Q989.47186 312.53647 990.01874 312.53647Q990.5656 312.53647 990.9406 312.02084Q991.3156 311.4896 991.3156 309.91147Q991.3156 308.31772 990.9406 307.8021Q990.5656 307.27084 990.01874 307.27084Q989.47186 307.27084 989.14374 307.72397Q988.7375 308.31772 988.7375 309.91147ZM992.925 309.91147Q992.925 308.77084 993.15936 308.06772Q993.39374 307.3646 993.84686 306.9896Q994.3156 306.6146 995.01874 306.6146Q995.55 306.6146 995.9406 306.83334Q996.33124 307.03647 996.58124 307.4271Q996.83124 307.81772 996.97186 308.38022Q997.1281 308.94272 997.1281 309.91147Q997.1281 311.03647 996.89374 311.7396Q996.65936 312.4271 996.1906 312.81772Q995.7375 313.19272 995.01874 313.19272Q994.09686 313.19272 993.5656 312.52084Q992.925 311.72397 992.925 309.91147ZM993.7375 309.91147Q993.7375 311.4896 994.09686 312.02084Q994.47186 312.53647 995.01874 312.53647Q995.5656 312.53647 995.9406 312.02084Q996.3156 311.4896 996.3156 309.91147Q996.3156 308.31772 995.9406 307.8021Q995.5656 307.27084 995.01874 307.27084Q994.47186 307.27084 994.14374 307.72397Q993.7375 308.31772 993.7375 309.91147ZM998.0656 308.19272Q998.0656 307.50522 998.40936 307.02084Q998.76874 306.53647 999.425 306.53647Q1000.03436 306.53647 1000.425 306.97397Q1000.83124 307.39584 1000.83124 308.2396Q1000.83124 309.0521 1000.425 309.50522Q1000.01874 309.94272 999.4406 309.94272Q998.84686 309.94272 998.45624 309.50522Q998.0656 309.06772 998.0656 308.19272ZM999.45624 307.08334Q999.15936 307.08334 998.95624 307.33334Q998.76874 307.58334 998.76874 308.27084Q998.76874 308.88022 998.95624 309.14584Q999.15936 309.39584 999.45624 309.39584Q999.7531 309.39584 999.9406 309.14584Q1000.14374 308.88022 1000.14374 308.20834Q1000.14374 307.58334 999.9406 307.33334Q999.7375 307.08334 999.45624 307.08334ZM999.45624 313.31772L1002.97186 306.53647L1003.6125 306.53647L1000.1125 313.31772L999.45624 313.31772ZM1002.2375 311.56772Q1002.2375 310.88022 1002.58124 310.39584Q1002.9406 309.91147 1003.59686 309.91147Q1004.20624 309.91147 1004.59686 310.34897Q1005.0031 310.78647 1005.0031 311.6146Q1005.0031 312.44272 1004.59686 312.88022Q1004.1906 313.31772 1003.59686 313.31772Q1003.01874 313.31772 1002.6281 312.88022Q1002.2375 312.44272 1002.2375 311.56772ZM1003.6125 310.45834Q1003.3156 310.45834 1003.1125 310.72397Q1002.925 310.97397 1002.925 311.64584Q1002.925 312.27084 1003.1281 312.52084Q1003.33124 312.77084 1003.6125 312.77084Q1003.925 312.77084 1004.1125 312.52084Q1004.3156 312.27084 1004.3156 311.58334Q1004.3156 310.95834 1004.1125 310.70834Q1003.90936 310.45834 1003.6125 310.45834Z" fill-rule="nonzero"/><path fill="#4285f4" d="M376.0 329.05C376.0 328.4977 376.44772 328.05 377.0 328.05L387.0 328.05C387.55228 328.05 388.0 328.4977 388.0 329.05L388.0 339.05C388.0 339.6023 387.55228 340.05 387.0 340.05L377.0 340.05C376.44772 340.05 376.0 339.6023 376.0 339.05Z" fill-rule="nonzero"/><path fill="#1a1a1a" d="M399.34375 338.05L399.34375 334.40936L396.03125 329.45624L397.42188 329.45624L399.10938 332.05Q399.57812 332.76874 399.98438 333.5031Q400.375 332.83124 400.92188 331.9875L402.59375 329.45624L403.90625 329.45624L400.48438 334.40936L400.48438 338.05L399.34375 338.05ZM409.04688 336.05L410.14062 336.175Q409.89062 337.1281 409.1875 337.65936Q408.48438 338.1906 407.40625 338.1906Q406.04688 338.1906 405.23438 337.34686Q404.4375 336.5031 404.4375 334.9875Q404.4375 333.425 405.25 332.5656Q406.0625 331.6906 407.34375 331.6906Q408.59375 331.6906 409.375 332.53436Q410.17188 333.3781 410.17188 334.925Q410.17188 335.01874 410.17188 335.20624L405.53125 335.20624Q405.59375 336.2375 406.10938 336.78436Q406.625 337.3156 407.40625 337.3156Q407.98438 337.3156 408.39062 337.01874Q408.8125 336.70624 409.04688 336.05ZM405.59375 334.34686L409.0625 334.34686Q409.0 333.55 408.67188 333.15936Q408.15625 332.55 407.35938 332.55Q406.625 332.55 406.125 333.03436Q405.64062 333.51874 405.59375 334.34686ZM411.375 336.1906L412.40625 336.03436Q412.5 336.65936 412.89062 336.9875Q413.29688 337.3156 414.03125 337.3156Q414.75 337.3156 415.09375 337.03436Q415.45312 336.7375 415.45312 336.33124Q415.45312 335.97186 415.14062 335.76874Q414.92188 335.6281 414.0625 335.40936Q412.90625 335.1125 412.45312 334.90936Q412.01562 334.6906 411.78125 334.3156Q411.54688 333.9406 411.54688 333.47186Q411.54688 333.0656 411.73438 332.70624Q411.92188 332.34686 412.25 332.1125Q412.5 331.9406 412.92188 331.8156Q413.34375 331.6906 413.84375 331.6906Q414.5625 331.6906 415.10938 331.90936Q415.67188 332.1125 415.9375 332.47186Q416.20312 332.83124 416.29688 333.425L415.26562 333.5656Q415.20312 333.09686 414.85938 332.83124Q414.53125 332.55 413.90625 332.55Q413.1875 332.55 412.875 332.8Q412.5625 333.03436 412.5625 333.3625Q412.5625 333.5656 412.6875 333.72186Q412.82812 333.89374 413.09375 334.0031Q413.25 334.0656 414.03125 334.26874Q415.15625 334.58124 415.59375 334.76874Q416.03125 334.95624 416.28125 335.3156Q416.53125 335.675 416.53125 336.22186Q416.53125 336.7531 416.21875 337.22186Q415.92188 337.675 415.34375 337.9406Q414.76562 338.1906 414.03125 338.1906Q412.8125 338.1906 412.17188 337.6906Q411.54688 337.175 411.375 336.1906Z" fill-rule="nonzero"/><path fill="#ea4335" d="M433.0 329.05C433.0 328.4977 433.44772 328.05 434.0 328.05L444.0 328.05C444.55228 328.05 445.0 328.4977 445.0 329.05L445.0 339.05C445.0 339.6023 444.55228 340.05 444.0 340.05L434.0 340.05C433.44772 340.05 433.0 339.6023 433.0 339.05Z" fill-rule="nonzero"/><path fill="#1a1a1a" d="M453.92188 338.05L453.92188 329.45624L455.07812 329.45624L459.59375 336.20624L459.59375 329.45624L460.6875 329.45624L460.6875 338.05L459.51562 338.05L455.0 331.3L455.0 338.05L453.92188 338.05ZM462.40625 334.9406Q462.40625 333.20624 463.35938 332.3781Q464.15625 331.6906 465.3125 331.6906Q466.59375 331.6906 467.40625 332.53436Q468.23438 333.3625 468.23438 334.84686Q468.23438 336.05 467.875 336.7375Q467.51562 337.425 466.8125 337.8156Q466.125 338.1906 465.3125 338.1906Q464.01562 338.1906 463.20312 337.3625Q462.40625 336.51874 462.40625 334.9406ZM463.48438 334.9406Q463.48438 336.1281 464.0 336.72186Q464.53125 337.3156 465.3125 337.3156Q466.10938 337.3156 466.625 336.72186Q467.14062 336.1281 467.14062 334.90936Q467.14062 333.7531 466.60938 333.15936Q466.09375 332.5656 465.3125 332.5656Q464.53125 332.5656 464.0 333.15936Q463.48438 333.7375 463.48438 334.9406Z" fill-rule="nonzero"/><path fill="#fbbc04" d="M485.0 329.05C485.0 328.4977 485.44772 328.05 486.0 328.05L496.0 328.05C496.55228 328.05 497.0 328.4977 497.0 329.05L497.0 339.05C497.0 339.6023 496.55228 340.05 496.0 340.05L486.0 340.05C485.44772 340.05 485.0 339.6023 485.0 339.05Z" fill-rule="nonzero"/><path fill="#1a1a1a" d="M505.89062 338.05L505.89062 329.45624L507.60938 329.45624L509.64062 335.53436Q509.92188 336.39374 510.04688 336.8156Q510.1875 336.34686 510.5 335.4406L512.5625 329.45624L514.09375 329.45624L514.09375 338.05L513.0 338.05L513.0 330.8625L510.5 338.05L509.46875 338.05L506.98438 330.7375L506.98438 338.05L505.89062 338.05ZM519.8594 337.28436Q519.2656 337.78436 518.71875 337.9875Q518.1875 338.1906 517.5625 338.1906Q516.53125 338.1906 515.9844 337.6906Q515.4375 337.1906 515.4375 336.40936Q515.4375 335.95624 515.6406 335.58124Q515.84375 335.1906 516.1875 334.97186Q516.53125 334.7375 516.9531 334.6281Q517.25 334.53436 517.8906 334.45624Q519.15625 334.3156 519.7656 334.09686Q519.7656 333.8781 519.7656 333.83124Q519.7656 333.175 519.46875 332.90936Q519.0625 332.5656 518.2656 332.5656Q517.53125 332.5656 517.1719 332.83124Q516.8125 333.08124 516.6406 333.7375L515.6094 333.59686Q515.75 332.9406 516.0781 332.53436Q516.40625 332.1281 517.0156 331.90936Q517.625 331.6906 518.4219 331.6906Q519.21875 331.6906 519.71875 331.8781Q520.21875 332.0656 520.4531 332.34686Q520.6875 332.6281 520.78125 333.0656Q520.8281 333.33124 520.8281 334.03436L520.8281 335.4406Q520.8281 336.90936 520.8906 337.3Q520.96875 337.6906 521.1719 338.05L520.0625 338.05Q519.90625 337.72186 519.8594 337.28436ZM519.7656 334.925Q519.1875 335.15936 518.0469 335.33124Q517.3906 335.425 517.125 335.55Q516.8594 335.65936 516.7031 335.8781Q516.5625 336.09686 516.5625 336.3781Q516.5625 336.8 516.875 337.08124Q517.2031 337.3625 517.8125 337.3625Q518.4219 337.3625 518.8906 337.09686Q519.375 336.83124 519.59375 336.3625Q519.7656 336.0031 519.7656 335.3156L519.7656 334.925ZM522.75 340.4406L522.625 339.45624Q522.96875 339.55 523.2344 339.55Q523.5781 339.55 523.78125 339.425Q524.0 339.3156 524.1406 339.1125Q524.2344 338.9406 524.46875 338.3156Q524.4844 338.2375 524.5625 338.0656L522.1875 331.83124L523.3281 331.83124L524.625 335.425Q524.875 336.1125 525.0781 336.8781Q525.2656 336.14374 525.5156 335.45624L526.84375 331.83124L527.8906 331.83124L525.53125 338.15936Q525.1406 339.175 524.9375 339.5656Q524.65625 340.09686 524.28125 340.33124Q523.9219 340.58124 523.4219 340.58124Q523.125 340.58124 522.75 340.4406ZM529.7656 338.05L528.78125 338.05L528.78125 329.45624L529.84375 329.45624L529.84375 332.51874Q530.5156 331.6906 531.5469 331.6906Q532.125 331.6906 532.625 331.925Q533.1406 332.14374 533.46875 332.5656Q533.8125 332.9875 534.0 333.58124Q534.1875 334.175 534.1875 334.84686Q534.1875 336.4406 533.3906 337.3156Q532.59375 338.1906 531.5 338.1906Q530.3906 338.1906 529.7656 337.26874L529.7656 338.05ZM529.75 334.89374Q529.75 336.0031 530.0625 336.5031Q530.5625 337.3156 531.40625 337.3156Q532.09375 337.3156 532.59375 336.72186Q533.1094 336.1281 533.1094 334.925Q533.1094 333.70624 532.625 333.1281Q532.1406 332.55 531.4531 332.55Q530.7656 332.55 530.25 333.15936Q529.75 333.7531 529.75 334.89374ZM540.0469 336.05L541.1406 336.175Q540.8906 337.1281 540.1875 337.65936Q539.4844 338.1906 538.40625 338.1906Q537.0469 338.1906 536.2344 337.34686Q535.4375 336.5031 535.4375 334.9875Q535.4375 333.425 536.25 332.5656Q537.0625 331.6906 538.34375 331.6906Q539.59375 331.6906 540.375 332.53436Q541.1719 333.3781 541.1719 334.925Q541.1719 335.01874 541.1719 335.20624L536.53125 335.20624Q536.59375 336.2375 537.1094 336.78436Q537.625 337.3156 538.40625 337.3156Q538.9844 337.3156 539.3906 337.01874Q539.8125 336.70624 540.0469 336.05ZM536.59375 334.34686L540.0625 334.34686Q540.0 333.55 539.6719 333.15936Q539.15625 332.55 538.3594 332.55Q537.625 332.55 537.125 333.03436Q536.6406 333.51874 536.59375 334.34686Z" fill-rule="nonzero"/><path fill="#34a853" d="M558.0 329.05C558.0 328.4977 558.4477 328.05 559.0 328.05L569.0 328.05C569.5523 328.05 570.0 328.4977 570.0 329.05L570.0 339.05C570.0 339.6023 569.5523 340.05 569.0 340.05L559.0 340.05C558.4477 340.05 558.0 339.6023 558.0 339.05Z" fill-rule="nonzero"/><path fill="#1a1a1a" d="M578.9219 338.05L578.9219 329.45624L581.8906 329.45624Q582.8906 329.45624 583.4219 329.58124Q584.15625 329.7531 584.6719 330.1906Q585.3594 330.76874 585.6875 331.675Q586.03125 332.5656 586.03125 333.70624Q586.03125 334.6906 585.7969 335.4406Q585.5781 336.1906 585.21875 336.6906Q584.8594 337.1906 584.4219 337.47186Q584.0 337.7531 583.40625 337.90936Q582.8125 338.05 582.03125 338.05L578.9219 338.05ZM580.0625 337.03436L581.8906 337.03436Q582.75 337.03436 583.2344 336.8781Q583.71875 336.72186 584.0 336.425Q584.40625 336.03436 584.625 335.34686Q584.8594 334.65936 584.8594 333.6906Q584.8594 332.34686 584.40625 331.6281Q583.96875 330.89374 583.34375 330.64374Q582.875 330.47186 581.875 330.47186L580.0625 330.47186L580.0625 337.03436ZM587.40625 334.9406Q587.40625 333.20624 588.3594 332.3781Q589.15625 331.6906 590.3125 331.6906Q591.59375 331.6906 592.40625 332.53436Q593.2344 333.3625 593.2344 334.84686Q593.2344 336.05 592.875 336.7375Q592.5156 337.425 591.8125 337.8156Q591.125 338.1906 590.3125 338.1906Q589.0156 338.1906 588.2031 337.3625Q587.40625 336.51874 587.40625 334.9406ZM588.4844 334.9406Q588.4844 336.1281 589.0 336.72186Q589.53125 337.3156 590.3125 337.3156Q591.1094 337.3156 591.625 336.72186Q592.1406 336.1281 592.1406 334.90936Q592.1406 333.7531 591.6094 333.15936Q591.09375 332.5656 590.3125 332.5656Q589.53125 332.5656 589.0 333.15936Q588.4844 333.7375 588.4844 334.9406ZM594.7969 338.05L594.7969 331.83124L595.7344 331.83124L595.7344 332.70624Q596.4219 331.6906 597.71875 331.6906Q598.28125 331.6906 598.75 331.89374Q599.2344 332.09686 599.46875 332.425Q599.7031 332.7531 599.7969 333.1906Q599.84375 333.4875 599.84375 334.22186L599.84375 338.05L598.7969 338.05L598.7969 334.26874Q598.7969 333.6125 598.6719 333.3Q598.5469 332.9875 598.2344 332.8Q597.9219 332.59686 597.5 332.59686Q596.8281 332.59686 596.3281 333.03436Q595.84375 333.45624 595.84375 334.64374L595.84375 338.05L594.7969 338.05ZM601.7969 332.5031L601.53125 330.89374L601.53125 329.45624L602.7344 329.45624L602.7344 330.89374L602.4531 332.5031L601.7969 332.5031ZM606.09375 337.1125L606.25 338.03436Q605.7969 338.1281 605.4531 338.1281Q604.875 338.1281 604.5625 337.95624Q604.25 337.76874 604.1094 337.47186Q603.9844 337.175 603.9844 336.22186L603.9844 332.64374L603.21875 332.64374L603.21875 331.83124L603.9844 331.83124L603.9844 330.28436L605.03125 329.65936L605.03125 331.83124L606.09375 331.83124L606.09375 332.64374L605.03125 332.64374L605.03125 336.28436Q605.03125 336.7375 605.0781 336.8625Q605.1406 336.9875 605.2656 337.0656Q605.3906 337.14374 605.625 337.14374Q605.8125 337.14374 606.09375 337.1125ZM616.0625 335.03436L617.1875 335.33124Q616.8281 336.72186 615.90625 337.45624Q614.9844 338.1906 613.6406 338.1906Q612.25 338.1906 611.375 337.6281Q610.5 337.0656 610.0469 336.0031Q609.59375 334.925 609.59375 333.6906Q609.59375 332.34686 610.1094 331.34686Q610.625 330.34686 611.5625 329.83124Q612.5156 329.3156 613.65625 329.3156Q614.9375 329.3156 615.8125 329.97186Q616.7031 330.6281 617.0469 331.8156L615.9219 332.08124Q615.625 331.14374 615.0469 330.72186Q614.4844 330.28436 613.625 330.28436Q612.6406 330.28436 611.96875 330.76874Q611.3125 331.2375 611.03125 332.03436Q610.7656 332.83124 610.7656 333.6906Q610.7656 334.78436 611.0781 335.59686Q611.40625 336.40936 612.0781 336.8156Q612.75 337.22186 613.5469 337.22186Q614.5 337.22186 615.15625 336.675Q615.8281 336.1281 616.0625 335.03436ZM622.8594 337.28436Q622.2656 337.78436 621.71875 337.9875Q621.1875 338.1906 620.5625 338.1906Q619.53125 338.1906 618.9844 337.6906Q618.4375 337.1906 618.4375 336.40936Q618.4375 335.95624 618.6406 335.58124Q618.84375 335.1906 619.1875 334.97186Q619.53125 334.7375 619.9531 334.6281Q620.25 334.53436 620.8906 334.45624Q622.15625 334.3156 622.7656 334.09686Q622.7656 333.8781 622.7656 333.83124Q622.7656 333.175 622.46875 332.90936Q622.0625 332.5656 621.2656 332.5656Q620.53125 332.5656 620.1719 332.83124Q619.8125 333.08124 619.6406 333.7375L618.6094 333.59686Q618.75 332.9406 619.0781 332.53436Q619.40625 332.1281 620.0156 331.90936Q620.625 331.6906 621.4219 331.6906Q622.21875 331.6906 622.71875 331.8781Q623.21875 332.0656 623.4531 332.34686Q623.6875 332.6281 623.78125 333.0656Q623.8281 333.33124 623.8281 334.03436L623.8281 335.4406Q623.8281 336.90936 623.8906 337.3Q623.96875 337.6906 624.1719 338.05L623.0625 338.05Q622.90625 337.72186 622.8594 337.28436ZM622.7656 334.925Q622.1875 335.15936 621.0469 335.33124Q620.3906 335.425 620.125 335.55Q619.8594 335.65936 619.7031 335.8781Q619.5625 336.09686 619.5625 336.3781Q619.5625 336.8 619.875 337.08124Q620.2031 337.3625 620.8125 337.3625Q621.4219 337.3625 621.8906 337.09686Q622.375 336.83124 622.59375 336.3625Q622.7656 336.0031 622.7656 335.3156L622.7656 334.925ZM625.78125 338.05L625.78125 331.83124L626.7344 331.83124L626.7344 332.76874Q627.09375 332.1125 627.3906 331.90936Q627.7031 331.6906 628.0781 331.6906Q628.6094 331.6906 629.15625 332.01874L628.7969 333.0031Q628.40625 332.76874 628.03125 332.76874Q627.6719 332.76874 627.3906 332.9875Q627.125 333.1906 627.0156 333.5656Q626.8281 334.1281 626.8281 334.78436L626.8281 338.05L625.78125 338.05ZM634.0469 336.05L635.1406 336.175Q634.8906 337.1281 634.1875 337.65936Q633.4844 338.1906 632.40625 338.1906Q631.0469 338.1906 630.2344 337.34686Q629.4375 336.5031 629.4375 334.9875Q629.4375 333.425 630.25 332.5656Q631.0625 331.6906 632.34375 331.6906Q633.59375 331.6906 634.375 332.53436Q635.1719 333.3781 635.1719 334.925Q635.1719 335.01874 635.1719 335.20624L630.53125 335.20624Q630.59375 336.2375 631.1094 336.78436Q631.625 337.3156 632.40625 337.3156Q632.9844 337.3156 633.3906 337.01874Q633.8125 336.70624 634.0469 336.05ZM630.59375 334.34686L634.0625 334.34686Q634.0 333.55 633.6719 333.15936Q633.15625 332.55 632.3594 332.55Q631.625 332.55 631.125 333.03436Q630.6406 333.51874 630.59375 334.34686Z" fill-rule="nonzero"/><path fill="#757575" d="M432.98438 30.95L436.82812 20.934376L438.25 20.934376L442.35938 30.95L440.84375 30.95L439.67188 27.91875L435.48438 27.91875L434.39062 30.95L432.98438 30.95ZM435.875 26.840626L439.26562 26.840626L438.21875 24.059376Q437.75 22.79375 437.51562 21.98125Q437.32812 22.95 436.96875 23.8875L435.875 26.840626ZM442.70312 31.559376L443.89062 31.73125Q443.96875 32.278126 444.3125 32.54375Q444.76562 32.871876 445.5625 32.871876Q446.42188 32.871876 446.875 32.528126Q447.34375 32.2 447.51562 31.575Q447.60938 31.2 447.59375 29.996876Q446.79688 30.95 445.59375 30.95Q444.09375 30.95 443.26562 29.871876Q442.45312 28.79375 442.45312 27.278126Q442.45312 26.246876 442.82812 25.371876Q443.20312 24.48125 443.90625 24.0125Q444.625 23.528126 445.59375 23.528126Q446.875 23.528126 447.71875 24.559376L447.71875 23.684376L448.84375 23.684376L448.84375 29.965626Q448.84375 31.66875 448.5 32.371876Q448.15625 33.075 447.40625 33.48125Q446.65625 33.903126 445.5625 33.903126Q444.26562 33.903126 443.46875 33.309376Q442.67188 32.73125 442.70312 31.559376ZM443.71875 27.184376Q443.71875 28.621876 444.28125 29.278126Q444.84375 29.934376 445.70312 29.934376Q446.54688 29.934376 447.125 29.278126Q447.70312 28.621876 447.70312 27.23125Q447.70312 25.903126 447.10938 25.23125Q446.51562 24.54375 445.6875 24.54375Q444.85938 24.54375 444.28125 25.215626Q443.71875 25.871876 443.71875 27.184376ZM450.90625 30.95L450.90625 23.684376L452.01562 23.684376L452.01562 24.79375Q452.4375 24.0125 452.79688 23.778126Q453.15625 23.528126 453.59375 23.528126Q454.21875 23.528126 454.85938 23.91875L454.4375 25.059376Q453.98438 24.79375 453.53125 24.79375Q453.125 24.79375 452.79688 25.04375Q452.48438 25.278126 452.34375 25.715626Q452.14062 26.371876 452.14062 27.153126L452.14062 30.95L450.90625 30.95ZM460.89062 28.60625L462.17188 28.7625Q461.85938 29.8875 461.04688 30.5125Q460.23438 31.121876 458.96875 31.121876Q457.375 31.121876 456.4375 30.1375Q455.51562 29.153126 455.51562 27.3875Q455.51562 25.54375 456.45312 24.54375Q457.40625 23.528126 458.90625 23.528126Q460.35938 23.528126 461.28125 24.528126Q462.20312 25.5125 462.20312 27.309376Q462.20312 27.41875 462.20312 27.6375L456.78125 27.6375Q456.85938 28.825 457.45312 29.465626Q458.0625 30.10625 458.98438 30.10625Q459.65625 30.10625 460.125 29.746876Q460.60938 29.3875 460.89062 28.60625ZM456.85938 26.621876L460.90625 26.621876Q460.82812 25.7 460.4375 25.246876Q459.85938 24.54375 458.92188 24.54375Q458.0625 24.54375 457.48438 25.10625Q456.92188 25.66875 456.85938 26.621876ZM468.89062 28.60625L470.17188 28.7625Q469.85938 29.8875 469.04688 30.5125Q468.23438 31.121876 466.96875 31.121876Q465.375 31.121876 464.4375 30.1375Q463.51562 29.153126 463.51562 27.3875Q463.51562 25.54375 464.45312 24.54375Q465.40625 23.528126 466.90625 23.528126Q468.35938 23.528126 469.28125 24.528126Q470.20312 25.5125 470.20312 27.309376Q470.20312 27.41875 470.20312 27.6375L464.78125 27.6375Q464.85938 28.825 465.45312 29.465626Q466.0625 30.10625 466.98438 30.10625Q467.65625 30.10625 468.125 29.746876Q468.60938 29.3875 468.89062 28.60625ZM464.85938 26.621876L468.90625 26.621876Q468.82812 25.7 468.4375 25.246876Q467.85938 24.54375 466.92188 24.54375Q466.0625 24.54375 465.48438 25.10625Q464.92188 25.66875 464.85938 26.621876ZM471.92188 30.95L471.92188 23.684376L473.03125 23.684376L473.03125 24.715626Q473.35938 24.16875 473.92188 23.85625Q474.5 23.528126 475.21875 23.528126Q476.03125 23.528126 476.54688 23.871876Q477.0625 24.2 477.28125 24.79375Q478.14062 23.528126 479.51562 23.528126Q480.59375 23.528126 481.17188 24.121876Q481.76562 24.715626 481.76562 25.965626L481.76562 30.95L480.53125 30.95L480.53125 26.371876Q480.53125 25.6375 480.40625 25.309376Q480.29688 24.98125 479.98438 24.79375Q479.67188 24.590626 479.25 24.590626Q478.48438 24.590626 477.96875 25.10625Q477.46875 25.60625 477.46875 26.73125L477.46875 30.95L476.23438 30.95L476.23438 26.23125Q476.23438 25.41875 475.9375 25.0125Q475.64062 24.590626 474.95312 24.590626Q474.4375 24.590626 473.98438 24.871876Q473.54688 25.1375 473.34375 25.66875Q473.15625 26.184376 473.15625 27.184376L473.15625 30.95L471.92188 30.95ZM488.89062 28.60625L490.17188 28.7625Q489.85938 29.8875 489.04688 30.5125Q488.23438 31.121876 486.96875 31.121876Q485.375 31.121876 484.4375 30.1375Q483.51562 29.153126 483.51562 27.3875Q483.51562 25.54375 484.45312 24.54375Q485.40625 23.528126 486.90625 23.528126Q488.35938 23.528126 489.28125 24.528126Q490.20312 25.5125 490.20312 27.309376Q490.20312 27.41875 490.20312 27.6375L484.78125 27.6375Q484.85938 28.825 485.45312 29.465626Q486.0625 30.10625 486.98438 30.10625Q487.65625 30.10625 488.125 29.746876Q488.60938 29.3875 488.89062 28.60625ZM484.85938 26.621876L488.90625 26.621876Q488.82812 25.7 488.4375 25.246876Q487.85938 24.54375 486.92188 24.54375Q486.0625 24.54375 485.48438 25.10625Q484.92188 25.66875 484.85938 26.621876ZM491.92188 30.95L491.92188 23.684376L493.03125 23.684376L493.03125 24.715626Q493.82812 23.528126 495.34375 23.528126Q496.0 23.528126 496.54688 23.7625Q497.09375 23.996876 497.35938 24.3875Q497.64062 24.7625 497.75 25.29375Q497.82812 25.6375 497.82812 26.48125L497.82812 30.95L496.59375 30.95L496.59375 26.528126Q496.59375 25.778126 496.45312 25.41875Q496.3125 25.04375 495.9375 24.825Q495.57812 24.590626 495.07812 24.590626Q494.29688 24.590626 493.71875 25.090626Q493.15625 25.590626 493.15625 26.98125L493.15625 30.95L491.92188 30.95ZM502.60938 29.85625L502.78125 30.934376Q502.26562 31.04375 501.85938 31.04375Q501.1875 31.04375 500.8125 30.840626Q500.45312 30.621876 500.29688 30.278126Q500.15625 29.934376 500.15625 28.825L500.15625 24.653126L499.25 24.653126L499.25 23.684376L500.15625 23.684376L500.15625 21.8875L501.375 21.153126L501.375 23.684376L502.60938 23.684376L502.60938 24.653126L501.375 24.653126L501.375 28.8875Q501.375 29.41875 501.4375 29.575Q501.5 29.715626 501.64062 29.809376Q501.79688 29.903126 502.0625 29.903126Q502.28125 29.903126 502.60938 29.85625ZM509.0625 30.95L507.92188 30.95L507.92188 20.934376L509.14062 20.934376L509.14062 24.496876Q509.92188 23.528126 511.14062 23.528126Q511.8125 23.528126 512.40625 23.79375Q513.0 24.059376 513.3906 24.559376Q513.78125 25.04375 514.0 25.73125Q514.21875 26.41875 514.21875 27.215626Q514.21875 29.075 513.28125 30.10625Q512.3594 31.121876 511.07812 31.121876Q509.79688 31.121876 509.0625 30.04375L509.0625 30.95ZM509.04688 27.2625Q509.04688 28.575 509.40625 29.153126Q509.98438 30.10625 510.96875 30.10625Q511.78125 30.10625 512.3594 29.403126Q512.9531 28.7 512.9531 27.309376Q512.9531 25.8875 512.3906 25.215626Q511.82812 24.54375 511.03125 24.54375Q510.21875 24.54375 509.625 25.246876Q509.04688 25.934376 509.04688 27.2625ZM515.875 33.746876L515.7344 32.590626Q516.1406 32.7 516.4375 32.7Q516.84375 32.7 517.09375 32.559376Q517.34375 32.434376 517.5 32.184376Q517.6094 31.996876 517.875 31.2625Q517.90625 31.16875 517.9844 30.965626L515.21875 23.684376L516.5469 23.684376L518.0625 27.8875Q518.3594 28.7 518.59375 29.575Q518.7969 28.73125 519.09375 27.91875L520.6406 23.684376L521.875 23.684376L519.1094 31.075Q518.6719 32.2625 518.4219 32.715626Q518.09375 33.325 517.6719 33.60625Q517.25 33.903126 516.65625 33.903126Q516.3125 33.903126 515.875 33.746876ZM527.1094 30.95L527.1094 20.934376L534.3594 20.934376L534.3594 22.10625L528.4375 22.10625L528.4375 25.184376L533.9844 25.184376L533.9844 26.35625L528.4375 26.35625L528.4375 29.7625L534.59375 29.7625L534.59375 30.95L527.1094 30.95ZM538.6094 29.85625L538.78125 30.934376Q538.2656 31.04375 537.8594 31.04375Q537.1875 31.04375 536.8125 30.840626Q536.4531 30.621876 536.2969 30.278126Q536.15625 29.934376 536.15625 28.825L536.15625 24.653126L535.25 24.653126L535.25 23.684376L536.15625 23.684376L536.15625 21.8875L537.375 21.153126L537.375 23.684376L538.6094 23.684376L538.6094 24.653126L537.375 24.653126L537.375 28.8875Q537.375 29.41875 537.4375 29.575Q537.5 29.715626 537.6406 29.809376Q537.7969 29.903126 538.0625 29.903126Q538.28125 29.903126 538.6094 29.85625ZM539.9219 30.95L539.9219 20.934376L541.15625 20.934376L541.15625 24.528126Q542.0156 23.528126 543.3281 23.528126Q544.1406 23.528126 544.7344 23.85625Q545.3281 24.16875 545.5781 24.73125Q545.84375 25.278126 545.84375 26.35625L545.84375 30.95L544.6094 30.95L544.6094 26.35625Q544.6094 25.41875 544.2031 25.0125Q543.8125 24.590626 543.0781 24.590626Q542.53125 24.590626 542.0469 24.871876Q541.5625 25.153126 541.3594 25.6375Q541.15625 26.121876 541.15625 26.98125L541.15625 30.95L539.9219 30.95ZM547.9219 30.95L547.9219 23.684376L549.03125 23.684376L549.03125 24.715626Q549.8281 23.528126 551.34375 23.528126Q552.0 23.528126 552.5469 23.7625Q553.09375 23.996876 553.3594 24.3875Q553.6406 24.7625 553.75 25.29375Q553.8281 25.6375 553.8281 26.48125L553.8281 30.95L552.59375 30.95L552.59375 26.528126Q552.59375 25.778126 552.4531 25.41875Q552.3125 25.04375 551.9375 24.825Q551.5781 24.590626 551.0781 24.590626Q550.2969 24.590626 549.71875 25.090626Q549.15625 25.590626 549.15625 26.98125L549.15625 30.95L547.9219 30.95ZM555.9375 22.340626L555.9375 20.934376L557.15625 20.934376L557.15625 22.340626L555.9375 22.340626ZM555.9375 30.95L555.9375 23.684376L557.15625 23.684376L557.15625 30.95L555.9375 30.95ZM563.65625 28.29375L564.875 28.45Q564.6719 29.7 563.84375 30.41875Q563.03125 31.121876 561.84375 31.121876Q560.3594 31.121876 559.4531 30.153126Q558.5469 29.16875 558.5469 27.340626Q558.5469 26.16875 558.9375 25.29375Q559.3281 24.403126 560.125 23.965626Q560.9219 23.528126 561.8594 23.528126Q563.03125 23.528126 563.78125 24.121876Q564.5469 24.715626 564.75 25.825L563.5625 26.0125Q563.3906 25.278126 562.9531 24.91875Q562.5156 24.54375 561.90625 24.54375Q560.96875 24.54375 560.3906 25.215626Q559.8125 25.871876 559.8125 27.309376Q559.8125 28.778126 560.375 29.45Q560.9375 30.10625 561.8281 30.10625Q562.5625 30.10625 563.0469 29.66875Q563.53125 29.215626 563.65625 28.29375ZM565.9375 22.340626L565.9375 20.934376L567.15625 20.934376L567.15625 22.340626L565.9375 22.340626ZM565.9375 30.95L565.9375 23.684376L567.15625 23.684376L567.15625 30.95L565.9375 30.95ZM571.6094 29.85625L571.78125 30.934376Q571.2656 31.04375 570.8594 31.04375Q570.1875 31.04375 569.8125 30.840626Q569.4531 30.621876 569.2969 30.278126Q569.15625 29.934376 569.15625 28.825L569.15625 24.653126L568.25 24.653126L568.25 23.684376L569.15625 23.684376L569.15625 21.8875L570.375 21.153126L570.375 23.684376L571.6094 23.684376L571.6094 24.653126L570.375 24.653126L570.375 28.8875Q570.375 29.41875 570.4375 29.575Q570.5 29.715626 570.6406 29.809376Q570.7969 29.903126 571.0625 29.903126Q571.28125 29.903126 571.6094 29.85625ZM572.875 33.746876L572.7344 32.590626Q573.1406 32.7 573.4375 32.7Q573.84375 32.7 574.09375 32.559376Q574.34375 32.434376 574.5 32.184376Q574.6094 31.996876 574.875 31.2625Q574.90625 31.16875 574.9844 30.965626L572.21875 23.684376L573.5469 23.684376L575.0625 27.8875Q575.3594 28.7 575.59375 29.575Q575.7969 28.73125 576.09375 27.91875L577.6406 23.684376L578.875 23.684376L576.1094 31.075Q575.6719 32.2625 575.4219 32.715626Q575.09375 33.325 574.6719 33.60625Q574.25 33.903126 573.65625 33.903126Q573.3125 33.903126 572.875 33.746876Z" fill-rule="nonzero"/></svg>