<svg version="1.1" viewBox="0.0 0.0 600.0 371.0" fill="none" stroke="none" stroke-linecap="square" stroke-miterlimit="10" width="600" height="371" xmlns:xlink="http://www.w3.org/1999/xlink" xmlns="http://www.w3.org/2000/svg"><path fill="#ffffff" d="M0 0L600.0 0L600.0 371.0L0 371.0L0 0Z" fill-rule="nonzero"/><path fill="#ecf3fe" d="M295.0056 18.624722C296.66995 18.57491 298.33493 18.55 300.0 18.55L300.0 185.5Z" fill-rule="nonzero"/><path fill="#b5e5e8" d="M290.0157 18.84882C291.6778 18.74924 293.34128 18.674534 295.0056 18.624722L300.0 185.5Z" fill-rule="nonzero"/><path fill="#ffc599" d="M285.03473 19.222092C286.69308 19.072836 288.3536 18.948397 290.0157 18.84882L300.0 185.5Z" fill-rule="nonzero"/><path fill="#aedcba" d="M280.06714 19.744205C281.7203 19.545404 283.37634 19.371347 285.03473 19.222092L300.0 185.5Z" fill-rule="nonzero"/><path fill="#fde49b" d="M275.1174 20.414694C276.7639 20.166527 278.41397 19.943007 280.06714 19.744205L300.0 185.5Z" fill-rule="nonzero"/><path fill="#f7b4ae" d="M270.18994 21.232956C271.82825 20.935644 273.47092 20.66286 275.1174 20.414694L300.0 185.5Z" fill-rule="nonzero"/><path fill="#b3cefb" d="M265.28915 22.198257C266.91785 21.85207 268.5516 21.530266 270.18994 21.232956L300.0 185.5Z" fill-rule="nonzero"/><path fill="#7ed1d7" d="M260.41943 23.309738C262.03705 22.914982 263.66046 22.544447 265.28915 22.198257L300.0 185.5Z" fill-rule="nonzero"/><path fill="#ff994d" d="M255.58514 24.5664C257.19022 24.123428 258.80182 23.704494 260.41943 23.309738L300.0 185.5Z" fill-rule="nonzero"/><path fill="#71c287" d="M250.79062 25.96712C252.38173 25.47633 253.98007 25.00937 255.58514 24.5664L300.0 185.5Z" fill-rule="nonzero"/><path fill="#fcd04f" d="M227.56311 35.08325C235.06737 31.469385 242.83156 28.422167 250.79062 25.96712L300.0 185.5Z" fill-rule="nonzero"/><path fill="#f07b72" d="M197.87263 53.43069C207.10124 46.29433 217.05243 40.144924 227.56311 35.08325L300.0 185.5Z" fill-rule="nonzero"/><path fill="#7baaf7" d="M193.96742 56.54499C195.25356 55.487473 196.55544 54.449257 197.87263 53.43069L300.0 185.5Z" fill-rule="nonzero"/><path fill="#46bdc6" d="M150.68369 110.82107C161.14912 89.896034 175.8958 71.40429 193.96742 56.54499L300.0 185.5Z" fill-rule="nonzero"/><path fill="#ff6d01" d="M148.51646 115.32136C149.21638 113.81054 149.93889 112.31027 150.68369 110.82107L300.0 185.5Z" fill-rule="nonzero"/><path fill="#34a853" d="M146.48483 119.88447C147.13925 118.353386 147.81654 116.832184 148.51646 115.32136L300.0 185.5Z" fill-rule="nonzero"/><path fill="#fbbc04" d="M138.41998 143.49759C140.51549 135.43639 143.21129 127.54331 146.48483 119.88447L300.0 185.5Z" fill-rule="nonzero"/><path fill="#ea4335" d="M133.06868 183.00253C133.26819 169.66774 135.06476 156.4049 138.41998 143.49759L300.0 185.5Z" fill-rule="nonzero"/><path fill="#4285f4" d="M300.0 18.55C367.75232 18.55 428.78616 59.496796 454.47955 122.18831C480.17294 184.87982 465.4303 256.88275 417.16516 304.43118C368.90002 351.9796 296.6846 365.64352 234.38448 339.01517C172.08434 312.3868 132.05515 250.74727 133.06868 183.00253L300.0 185.5Z" fill-rule="nonzero"/><path fill="#1a1a1a" d="M19.471874 29.55L19.471874 20.95625L22.440624 20.95625Q23.440624 20.95625 23.971874 21.08125Q24.70625 21.253124 25.221874 21.690624Q25.909374 22.26875 26.2375 23.175Q26.58125 24.065624 26.58125 25.20625Q26.58125 26.190624 26.346874 26.940624Q26.128124 27.690624 25.76875 28.190624Q25.409374 28.690624 24.971874 28.971874Q24.55 29.253124 23.95625 29.409374Q23.3625 29.55 22.58125 29.55L19.471874 29.55ZM20.6125 28.534374L22.440624 28.534374Q23.3 28.534374 23.784374 28.378124Q24.26875 28.221874 24.55 27.925Q24.95625 27.534374 25.175 26.846874Q25.409374 26.159374 25.409374 25.190624Q25.409374 23.846874 24.95625 23.128124Q24.51875 22.39375 23.89375 22.14375Q23.425 21.971874 22.425 21.971874L20.6125 21.971874L20.6125 28.534374ZM32.425 29.55L32.425 28.628124Q31.690624 29.690624 30.440624 29.690624Q29.89375 29.690624 29.409374 29.4875Q28.940624 29.26875 28.70625 28.95625Q28.471874 28.628124 28.378124 28.159374Q28.315624 27.8625 28.315624 27.175L28.315624 23.33125L29.378124 23.33125L29.378124 26.784374Q29.378124 27.596874 29.440624 27.89375Q29.534374 28.3 29.846874 28.55Q30.175 28.784374 30.659374 28.784374Q31.128124 28.784374 31.534374 28.55Q31.95625 28.3 32.128124 27.878124Q32.315624 27.45625 32.315624 26.659374L32.315624 23.33125L33.3625 23.33125L33.3625 29.55L32.425 29.55ZM37.64375 28.6125L37.8 29.534374Q37.346874 29.628124 37.003124 29.628124Q36.425 29.628124 36.1125 29.45625Q35.8 29.26875 35.659374 28.971874Q35.534374 28.675 35.534374 27.721874L35.534374 24.14375L34.76875 24.14375L34.76875 23.33125L35.534374 23.33125L35.534374 21.784374L36.58125 21.159374L36.58125 23.33125L37.64375 23.33125L37.64375 24.14375L36.58125 24.14375L36.58125 27.784374Q36.58125 28.2375 36.628124 28.3625Q36.690624 28.4875 36.815624 28.565624Q36.940624 28.64375 37.175 28.64375Q37.3625 28.64375 37.64375 28.6125ZM42.409374 27.26875L43.440624 27.409374Q43.26875 28.471874 42.565624 29.08125Q41.8625 29.690624 40.846874 29.690624Q39.565624 29.690624 38.784374 28.8625Q38.01875 28.01875 38.01875 26.45625Q38.01875 25.45625 38.346874 24.70625Q38.690624 23.940624 39.3625 23.565624Q40.05 23.190624 40.8625 23.190624Q41.8625 23.190624 42.503124 23.70625Q43.159374 24.20625 43.346874 25.159374L42.315624 25.315624Q42.175 24.690624 41.8 24.378124Q41.425 24.05 40.89375 24.05Q40.096874 24.05 39.596874 24.628124Q39.096874 25.190624 39.096874 26.425Q39.096874 27.690624 39.58125 28.253124Q40.065624 28.815624 40.83125 28.815624Q41.45625 28.815624 41.8625 28.440624Q42.284374 28.065624 42.409374 27.26875ZM44.346874 29.55L44.346874 20.95625L45.39375 20.95625L45.39375 24.034374Q46.128124 23.190624 47.253124 23.190624Q47.95625 23.190624 48.45625 23.471874Q48.971874 23.7375 49.190624 24.221874Q49.409374 24.690624 49.409374 25.6125L49.409374 29.55L48.3625 29.55L48.3625 25.6125Q48.3625 24.815624 48.01875 24.45625Q47.675 24.096874 47.05 24.096874Q46.58125 24.096874 46.159374 24.346874Q45.753124 24.58125 45.565624 25.003124Q45.39375 25.409374 45.39375 26.14375L45.39375 29.55L44.346874 29.55Z" fill-rule="nonzero"/><path fill="#9e9e9e" d="M19.05 42.315624Q19.05 40.784374 19.3625 39.8625Q19.675 38.925 20.284374 38.425Q20.909374 37.925 21.846874 37.925Q22.534374 37.925 23.05 38.20625Q23.58125 38.4875 23.925 39.01875Q24.26875 39.534374 24.45625 40.284374Q24.64375 41.034374 24.64375 42.315624Q24.64375 43.83125 24.33125 44.753124Q24.034374 45.675 23.409374 46.190624Q22.8 46.690624 21.846874 46.690624Q20.6125 46.690624 19.89375 45.8Q19.05 44.7375 19.05 42.315624ZM20.128124 42.315624Q20.128124 44.425 20.628124 45.128124Q21.128124 45.83125 21.846874 45.83125Q22.58125 45.83125 23.065624 45.128124Q23.565624 44.425 23.565624 42.315624Q23.565624 40.190624 23.065624 39.503124Q22.58125 38.8 21.83125 38.8Q21.1125 38.8 20.675 39.409374Q20.128124 40.190624 20.128124 42.315624ZM26.64375 46.55L26.64375 45.346874L27.846874 45.346874L27.846874 46.55L26.64375 46.55ZM29.05 44.3L30.159374 44.20625Q30.284374 45.01875 30.721874 45.425Q31.175 45.83125 31.815624 45.83125Q32.565624 45.83125 33.096874 45.253124Q33.628124 44.675 33.628124 43.7375Q33.628124 42.83125 33.1125 42.315624Q32.6125 41.784374 31.784374 41.784374Q31.284374 41.784374 30.8625 42.01875Q30.45625 42.253124 30.221874 42.6125L29.2375 42.4875L30.065624 38.08125L34.346874 38.08125L34.346874 39.08125L30.909374 39.08125L30.45625 41.39375Q31.221874 40.846874 32.065624 40.846874Q33.190624 40.846874 33.95625 41.628124Q34.7375 42.409374 34.7375 43.64375Q34.7375 44.8 34.065624 45.659374Q33.2375 46.690624 31.815624 46.690624Q30.64375 46.690624 29.89375 46.034374Q29.159374 45.378124 29.05 44.3ZM36.253124 40.01875Q36.253124 39.096874 36.70625 38.45625Q37.175 37.815624 38.05 37.815624Q38.8625 37.815624 39.39375 38.39375Q39.925 38.971874 39.925 40.08125Q39.925 41.175 39.378124 41.76875Q38.846874 42.346874 38.065624 42.346874Q37.284374 42.346874 36.76875 41.76875Q36.253124 41.190624 36.253124 40.01875ZM38.08125 38.534374Q37.690624 38.534374 37.425 38.878124Q37.175 39.221874 37.175 40.128124Q37.175 40.95625 37.425 41.3Q37.690624 41.628124 38.08125 41.628124Q38.4875 41.628124 38.7375 41.284374Q39.003124 40.940624 39.003124 40.05Q39.003124 39.20625 38.7375 38.878124Q38.471874 38.534374 38.08125 38.534374ZM38.08125 46.8625L42.784374 37.815624L43.64375 37.815624L38.95625 46.8625L38.08125 46.8625ZM41.8 44.534374Q41.8 43.6125 42.253124 42.971874Q42.721874 42.33125 43.6125 42.33125Q44.425 42.33125 44.95625 42.909374Q45.4875 43.471874 45.4875 44.596874Q45.4875 45.690624 44.940624 46.284374Q44.409374 46.8625 43.6125 46.8625Q42.846874 46.8625 42.315624 46.284374Q41.8 45.70625 41.8 44.534374ZM43.64375 43.05Q43.2375 43.05 42.971874 43.39375Q42.721874 43.7375 42.721874 44.64375Q42.721874 45.45625 42.9875 45.8Q43.253124 46.14375 43.64375 46.14375Q44.034374 46.14375 44.3 45.8Q44.565624 45.45625 44.565624 44.55Q44.565624 43.721874 44.3 43.39375Q44.034374 43.05 43.64375 43.05Z" fill-rule="nonzero"/><path stroke="#757575" stroke-width="1.0" stroke-linecap="butt" d="M18.55 34.05L127.05 34.05L297.6274 26.915247" fill-rule="nonzero"/><path fill="#9e9e9e" d="M299.6274 26.915247C299.6274 25.810678 298.73196 24.915247 297.6274 24.915247C296.52283 24.915247 295.6274 25.810678 295.6274 26.915247C295.6274 28.019817 296.52283 28.915247 297.6274 28.915247C298.73196 28.915247 299.6274 28.019817 299.6274 26.915247" fill-rule="nonzero"/><path fill="#1a1a1a" d="M19.425 60.55L19.425 51.95625L20.565624 51.95625L20.565624 59.534374L24.8 59.534374L24.8 60.55L19.425 60.55ZM30.409374 59.784374Q29.815624 60.284374 29.26875 60.4875Q28.7375 60.690624 28.1125 60.690624Q27.08125 60.690624 26.534374 60.190624Q25.9875 59.690624 25.9875 58.909374Q25.9875 58.45625 26.190624 58.08125Q26.39375 57.690624 26.7375 57.471874Q27.08125 57.2375 27.503124 57.128124Q27.8 57.034374 28.440624 56.95625Q29.70625 56.815624 30.315624 56.596874Q30.315624 56.378124 30.315624 56.33125Q30.315624 55.675 30.01875 55.409374Q29.6125 55.065624 28.815624 55.065624Q28.08125 55.065624 27.721874 55.33125Q27.3625 55.58125 27.190624 56.2375L26.159374 56.096874Q26.3 55.440624 26.628124 55.034374Q26.95625 54.628124 27.565624 54.409374Q28.175 54.190624 28.971874 54.190624Q29.76875 54.190624 30.26875 54.378124Q30.76875 54.565624 31.003124 54.846874Q31.2375 55.128124 31.33125 55.565624Q31.378124 55.83125 31.378124 56.534374L31.378124 57.940624Q31.378124 59.409374 31.440624 59.8Q31.51875 60.190624 31.721874 60.55L30.6125 60.55Q30.45625 60.221874 30.409374 59.784374ZM30.315624 57.425Q29.7375 57.659374 28.596874 57.83125Q27.940624 57.925 27.675 58.05Q27.409374 58.159374 27.253124 58.378124Q27.1125 58.596874 27.1125 58.878124Q27.1125 59.3 27.425 59.58125Q27.753124 59.8625 28.3625 59.8625Q28.971874 59.8625 29.440624 59.596874Q29.925 59.33125 30.14375 58.8625Q30.315624 58.503124 30.315624 57.815624L30.315624 57.425ZM35.64375 59.6125L35.8 60.534374Q35.346874 60.628124 35.003124 60.628124Q34.425 60.628124 34.1125 60.45625Q33.8 60.26875 33.659374 59.971874Q33.534374 59.675 33.534374 58.721874L33.534374 55.14375L32.76875 55.14375L32.76875 54.33125L33.534374 54.33125L33.534374 52.784374L34.58125 52.159374L34.58125 54.33125L35.64375 54.33125L35.64375 55.14375L34.58125 55.14375L34.58125 58.784374Q34.58125 59.2375 34.628124 59.3625Q34.690624 59.4875 34.815624 59.565624Q34.940624 59.64375 35.175 59.64375Q35.3625 59.64375 35.64375 59.6125ZM36.346874 53.175L36.346874 51.95625L37.409374 51.95625L37.409374 53.175L36.346874 53.175ZM36.346874 60.55L36.346874 54.33125L37.409374 54.33125L37.409374 60.55L36.346874 60.55ZM39.346874 60.55L39.346874 54.33125L40.284374 54.33125L40.284374 55.20625Q40.971874 54.190624 42.26875 54.190624Q42.83125 54.190624 43.3 54.39375Q43.784374 54.596874 44.01875 54.925Q44.253124 55.253124 44.346874 55.690624Q44.39375 55.9875 44.39375 56.721874L44.39375 60.55L43.346874 60.55L43.346874 56.76875Q43.346874 56.1125 43.221874 55.8Q43.096874 55.4875 42.784374 55.3Q42.471874 55.096874 42.05 55.096874Q41.378124 55.096874 40.878124 55.534374Q40.39375 55.95625 40.39375 57.14375L40.39375 60.55L39.346874 60.55ZM45.95625 57.440624Q45.95625 55.70625 46.909374 54.878124Q47.70625 54.190624 48.8625 54.190624Q50.14375 54.190624 50.95625 55.034374Q51.784374 55.8625 51.784374 57.346874Q51.784374 58.55 51.425 59.2375Q51.065624 59.925 50.3625 60.315624Q49.675 60.690624 48.8625 60.690624Q47.565624 60.690624 46.753124 59.8625Q45.95625 59.01875 45.95625 57.440624ZM47.034374 57.440624Q47.034374 58.628124 47.55 59.221874Q48.08125 59.815624 48.8625 59.815624Q49.659374 59.815624 50.175 59.221874Q50.690624 58.628124 50.690624 57.409374Q50.690624 56.253124 50.159374 55.659374Q49.64375 55.065624 48.8625 55.065624Q48.08125 55.065624 47.55 55.659374Q47.034374 56.2375 47.034374 57.440624ZM52.55 60.690624L55.034374 51.815624L55.878124 51.815624L53.39375 60.690624L52.55 60.690624ZM56.51875 60.55L56.51875 51.95625L57.64375 51.95625L57.64375 55.4875L62.1125 55.4875L62.1125 51.95625L63.253124 51.95625L63.253124 60.55L62.1125 60.55L62.1125 56.503124L57.64375 56.503124L57.64375 60.55L56.51875 60.55ZM65.34688 53.175L65.34688 51.95625L66.40938 51.95625L66.40938 53.175L65.34688 53.175ZM65.34688 60.55L65.34688 54.33125L66.40938 54.33125L66.40938 60.55L65.34688 60.55ZM67.925 58.690624L68.95625 58.534374Q69.05 59.159374 69.44063 59.4875Q69.84688 59.815624 70.58125 59.815624Q71.3 59.815624 71.64375 59.534374Q72.00313 59.2375 72.00313 58.83125Q72.00313 58.471874 71.69063 58.26875Q71.47188 58.128124 70.6125 57.909374Q69.45625 57.6125 69.00313 57.409374Q68.56563 57.190624 68.33125 56.815624Q68.09688 56.440624 68.09688 55.971874Q68.09688 55.565624 68.28438 55.20625Q68.47188 54.846874 68.8 54.6125Q69.05 54.440624 69.47188 54.315624Q69.89375 54.190624 70.39375 54.190624Q71.1125 54.190624 71.65938 54.409374Q72.22188 54.6125 72.4875 54.971874Q72.75313 55.33125 72.84688 55.925L71.81563 56.065624Q71.75313 55.596874 71.40938 55.33125Q71.08125 55.05 70.45625 55.05Q69.7375 55.05 69.425 55.3Q69.1125 55.534374 69.1125 55.8625Q69.1125 56.065624 69.2375 56.221874Q69.37813 56.39375 69.64375 56.503124Q69.8 56.565624 70.58125 56.76875Q71.70625 57.08125 72.14375 57.26875Q72.58125 57.45625 72.83125 57.815624Q73.08125 58.175 73.08125 58.721874Q73.08125 59.253124 72.76875 59.721874Q72.47188 60.175 71.89375 60.440624Q71.31563 60.690624 70.58125 60.690624Q69.3625 60.690624 68.72188 60.190624Q68.09688 59.675 67.925 58.690624ZM74.34688 62.940624L74.34688 54.33125L75.3 54.33125L75.3 55.128124Q75.64375 54.659374 76.06563 54.425Q76.50313 54.190624 77.1125 54.190624Q77.90938 54.190624 78.51875 54.596874Q79.12813 55.003124 79.425 55.753124Q79.7375 56.503124 79.7375 57.39375Q79.7375 58.346874 79.39375 59.1125Q79.06563 59.878124 78.40938 60.284374Q77.75313 60.690624 77.03438 60.690624Q76.50313 60.690624 76.08125 60.471874Q75.65938 60.2375 75.39375 59.909374L75.39375 62.940624L74.34688 62.940624ZM75.3 57.471874Q75.3 58.675 75.78438 59.253124Q76.26875 59.815624 76.95625 59.815624Q77.65938 59.815624 78.15938 59.221874Q78.65938 58.628124 78.65938 57.378124Q78.65938 56.190624 78.175 55.6125Q77.69063 55.01875 77.00313 55.01875Q76.33125 55.01875 75.81563 55.64375Q75.3 56.26875 75.3 57.471874ZM85.40938 59.784374Q84.81563 60.284374 84.26875 60.4875Q83.7375 60.690624 83.1125 60.690624Q82.08125 60.690624 81.53438 60.190624Q80.9875 59.690624 80.9875 58.909374Q80.9875 58.45625 81.19063 58.08125Q81.39375 57.690624 81.7375 57.471874Q82.08125 57.2375 82.50313 57.128124Q82.8 57.034374 83.44063 56.95625Q84.70625 56.815624 85.31563 56.596874Q85.31563 56.378124 85.31563 56.33125Q85.31563 55.675 85.01875 55.409374Q84.6125 55.065624 83.81563 55.065624Q83.08125 55.065624 82.72188 55.33125Q82.3625 55.58125 82.19063 56.2375L81.15938 56.096874Q81.3 55.440624 81.62813 55.034374Q81.95625 54.628124 82.56563 54.409374Q83.175 54.190624 83.97188 54.190624Q84.76875 54.190624 85.26875 54.378124Q85.76875 54.565624 86.00313 54.846874Q86.2375 55.128124 86.33125 55.565624Q86.37813 55.83125 86.37813 56.534374L86.37813 57.940624Q86.37813 59.409374 86.44063 59.8Q86.51875 60.190624 86.72188 60.55L85.6125 60.55Q85.45625 60.221874 85.40938 59.784374ZM85.31563 57.425Q84.7375 57.659374 83.59688 57.83125Q82.94063 57.925 82.675 58.05Q82.40938 58.159374 82.25313 58.378124Q82.1125 58.596874 82.1125 58.878124Q82.1125 59.3 82.425 59.58125Q82.75313 59.8625 83.3625 59.8625Q83.97188 59.8625 84.44063 59.596874Q84.925 59.33125 85.14375 58.8625Q85.31563 58.503124 85.31563 57.815624L85.31563 57.425ZM88.34688 60.55L88.34688 54.33125L89.28438 54.33125L89.28438 55.20625Q89.97188 54.190624 91.26875 54.190624Q91.83125 54.190624 92.3 54.39375Q92.78438 54.596874 93.01875 54.925Q93.25313 55.253124 93.34688 55.690624Q93.39375 55.9875 93.39375 56.721874L93.39375 60.55L92.34688 60.55L92.34688 56.76875Q92.34688 56.1125 92.22188 55.8Q92.09688 55.4875 91.78438 55.3Q91.47188 55.096874 91.05 55.096874Q90.37813 55.096874 89.87813 55.534374Q89.39375 55.95625 89.39375 57.14375L89.39375 60.55L88.34688 60.55ZM95.34688 53.175L95.34688 51.95625L96.40938 51.95625L96.40938 53.175L95.34688 53.175ZM95.34688 60.55L95.34688 54.33125L96.40938 54.33125L96.40938 60.55L95.34688 60.55ZM102.40938 58.26875L103.44063 58.409374Q103.26875 59.471874 102.56563 60.08125Q101.8625 60.690624 100.84688 60.690624Q99.56563 60.690624 98.78438 59.8625Q98.01875 59.01875 98.01875 57.45625Q98.01875 56.45625 98.34688 55.70625Q98.69063 54.940624 99.3625 54.565624Q100.05 54.190624 100.8625 54.190624Q101.8625 54.190624 102.50313 54.70625Q103.15938 55.20625 103.34688 56.159374L102.31563 56.315624Q102.175 55.690624 101.8 55.378124Q101.425 55.05 100.89375 55.05Q100.09688 55.05 99.59688 55.628124Q99.09688 56.190624 99.09688 57.425Q99.09688 58.690624 99.58125 59.253124Q100.06563 59.815624 100.83125 59.815624Q101.45625 59.815624 101.8625 59.440624Q102.28438 59.065624 102.40938 58.26875Z" fill-rule="nonzero"/><path fill="#9e9e9e" d="M24.596874 76.53438L24.596874 77.55L18.909374 77.55Q18.909374 77.175 19.034374 76.81563Q19.253124 76.2375 19.721874 75.675Q20.20625 75.1125 21.1125 74.37813Q22.51875 73.22188 23.003124 72.55Q23.503124 71.87813 23.503124 71.28438Q23.503124 70.65938 23.05 70.2375Q22.596874 69.8 21.878124 69.8Q21.1125 69.8 20.659374 70.25313Q20.20625 70.70625 20.190624 71.51875L19.1125 71.40938Q19.221874 70.19063 19.940624 69.56563Q20.675 68.925 21.909374 68.925Q23.14375 68.925 23.8625 69.6125Q24.58125 70.3 24.58125 71.31563Q24.58125 71.83125 24.3625 72.33125Q24.159374 72.81563 23.659374 73.37813Q23.175 73.925 22.05 74.87813Q21.096874 75.675 20.815624 75.97188Q20.55 76.25313 20.378124 76.53438L24.596874 76.53438ZM26.64375 77.55L26.64375 76.34688L27.846874 76.34688L27.846874 77.55L26.64375 77.55ZM32.425 77.55L32.425 75.4875L28.70625 75.4875L28.70625 74.51875L32.628124 68.95625L33.4875 68.95625L33.4875 74.51875L34.64375 74.51875L34.64375 75.4875L33.4875 75.4875L33.4875 77.55L32.425 77.55ZM32.425 74.51875L32.425 70.65938L29.7375 74.51875L32.425 74.51875ZM36.253124 71.01875Q36.253124 70.09688 36.70625 69.45625Q37.175 68.81563 38.05 68.81563Q38.8625 68.81563 39.39375 69.39375Q39.925 69.97188 39.925 71.08125Q39.925 72.175 39.378124 72.76875Q38.846874 73.34688 38.065624 73.34688Q37.284374 73.34688 36.76875 72.76875Q36.253124 72.19063 36.253124 71.01875ZM38.08125 69.53438Q37.690624 69.53438 37.425 69.87813Q37.175 70.22188 37.175 71.12813Q37.175 71.95625 37.425 72.3Q37.690624 72.62813 38.08125 72.62813Q38.4875 72.62813 38.7375 72.28438Q39.003124 71.94063 39.003124 71.05Q39.003124 70.20625 38.7375 69.87813Q38.471874 69.53438 38.08125 69.53438ZM38.08125 77.8625L42.784374 68.81563L43.64375 68.81563L38.95625 77.8625L38.08125 77.8625ZM41.8 75.53438Q41.8 74.6125 42.253124 73.97188Q42.721874 73.33125 43.6125 73.33125Q44.425 73.33125 44.95625 73.90938Q45.4875 74.47188 45.4875 75.59688Q45.4875 76.69063 44.940624 77.28438Q44.409374 77.8625 43.6125 77.8625Q42.846874 77.8625 42.315624 77.28438Q41.8 76.70625 41.8 75.53438ZM43.64375 74.05Q43.2375 74.05 42.971874 74.39375Q42.721874 74.7375 42.721874 75.64375Q42.721874 76.45625 42.9875 76.8Q43.253124 77.14375 43.64375 77.14375Q44.034374 77.14375 44.3 76.8Q44.565624 76.45625 44.565624 75.55Q44.565624 74.72188 44.3 74.39375Q44.034374 74.05 43.64375 74.05Z" fill-rule="nonzero"/><path stroke="#757575" stroke-width="1.0" stroke-linecap="butt" d="M18.55 65.05L127.05 65.05L242.056 37.861095" fill-rule="nonzero"/><path fill="#9e9e9e" d="M244.056 37.861095C244.056 36.756527 243.16057 35.861095 242.056 35.861095C240.95143 35.861095 240.056 36.756527 240.056 37.861095C240.056 38.965664 240.95143 39.861095 242.056 39.861095C243.16057 39.861095 244.056 38.965664 244.056 37.861095" fill-rule="nonzero"/><path fill="#1a1a1a" d="M18.534374 91.55L21.83125 82.95625L23.05 82.95625L26.565624 91.55L25.284374 91.55L24.26875 88.94063L20.690624 88.94063L19.7375 91.55L18.534374 91.55ZM21.01875 88.01875L23.925 88.01875L23.034374 85.64375Q22.6125 84.56563 22.425 83.8625Q22.253124 84.69063 21.95625 85.50313L21.01875 88.01875ZM27.596874 91.55L27.596874 86.14375L26.659374 86.14375L26.659374 85.33125L27.596874 85.33125L27.596874 84.65938Q27.596874 84.03438 27.70625 83.7375Q27.8625 83.31563 28.2375 83.06563Q28.628124 82.81563 29.315624 82.81563Q29.76875 82.81563 30.3 82.925L30.14375 83.83125Q29.815624 83.78438 29.51875 83.78438Q29.034374 83.78438 28.83125 83.9875Q28.64375 84.19063 28.64375 84.75313L28.64375 85.33125L29.8625 85.33125L29.8625 86.14375L28.64375 86.14375L28.64375 91.55L27.596874 91.55ZM30.33125 91.55L30.33125 85.33125L31.284374 85.33125L31.284374 86.26875Q31.64375 85.6125 31.940624 85.40938Q32.253124 85.19063 32.628124 85.19063Q33.159374 85.19063 33.70625 85.51875L33.346874 86.50313Q32.95625 86.26875 32.58125 86.26875Q32.221874 86.26875 31.940624 86.4875Q31.675 86.69063 31.565624 87.06563Q31.378124 87.62813 31.378124 88.28438L31.378124 91.55L30.33125 91.55ZM34.346874 84.175L34.346874 82.95625L35.409374 82.95625L35.409374 84.175L34.346874 84.175ZM34.346874 91.55L34.346874 85.33125L35.409374 85.33125L35.409374 91.55L34.346874 91.55ZM41.409374 89.26875L42.440624 89.40938Q42.26875 90.47188 41.565624 91.08125Q40.8625 91.69063 39.846874 91.69063Q38.565624 91.69063 37.784374 90.8625Q37.01875 90.01875 37.01875 88.45625Q37.01875 87.45625 37.346874 86.70625Q37.690624 85.94063 38.3625 85.56563Q39.05 85.19063 39.8625 85.19063Q40.8625 85.19063 41.503124 85.70625Q42.159374 86.20625 42.346874 87.15938L41.315624 87.31563Q41.175 86.69063 40.8 86.37813Q40.425 86.05 39.89375 86.05Q39.096874 86.05 38.596874 86.62813Q38.096874 87.19063 38.096874 88.425Q38.096874 89.69063 38.58125 90.25313Q39.065624 90.81563 39.83125 90.81563Q40.45625 90.81563 40.8625 90.44063Q41.284374 90.06563 41.409374 89.26875ZM47.409374 90.78438Q46.815624 91.28438 46.26875 91.4875Q45.7375 91.69063 45.1125 91.69063Q44.08125 91.69063 43.534374 91.19063Q42.9875 90.69063 42.9875 89.90938Q42.9875 89.45625 43.190624 89.08125Q43.39375 88.69063 43.7375 88.47188Q44.08125 88.2375 44.503124 88.12813Q44.8 88.03438 45.440624 87.95625Q46.70625 87.81563 47.315624 87.59688Q47.315624 87.37813 47.315624 87.33125Q47.315624 86.675 47.01875 86.40938Q46.6125 86.06563 45.815624 86.06563Q45.08125 86.06563 44.721874 86.33125Q44.3625 86.58125 44.190624 87.2375L43.159374 87.09688Q43.3 86.44063 43.628124 86.03438Q43.95625 85.62813 44.565624 85.40938Q45.175 85.19063 45.971874 85.19063Q46.76875 85.19063 47.26875 85.37813Q47.76875 85.56563 48.003124 85.84688Q48.2375 86.12813 48.33125 86.56563Q48.378124 86.83125 48.378124 87.53438L48.378124 88.94063Q48.378124 90.40938 48.440624 90.8Q48.51875 91.19063 48.721874 91.55L47.6125 91.55Q47.45625 91.22188 47.409374 90.78438ZM47.315624 88.425Q46.7375 88.65938 45.596874 88.83125Q44.940624 88.925 44.675 89.05Q44.409374 89.15938 44.253124 89.37813Q44.1125 89.59688 44.1125 89.87813Q44.1125 90.3 44.425 90.58125Q44.753124 90.8625 45.3625 90.8625Q45.971874 90.8625 46.440624 90.59688Q46.925 90.33125 47.14375 89.8625Q47.315624 89.50313 47.315624 88.81563L47.315624 88.425ZM50.346874 91.55L50.346874 85.33125L51.284374 85.33125L51.284374 86.20625Q51.971874 85.19063 53.26875 85.19063Q53.83125 85.19063 54.3 85.39375Q54.784374 85.59688 55.01875 85.925Q55.253124 86.25313 55.346874 86.69063Q55.39375 86.9875 55.39375 87.72188L55.39375 91.55L54.346874 91.55L54.346874 87.76875Q54.346874 87.1125 54.221874 86.8Q54.096874 86.4875 53.784374 86.3Q53.471874 86.09688 53.05 86.09688Q52.378124 86.09688 51.878124 86.53438Q51.39375 86.95625 51.39375 88.14375L51.39375 91.55L50.346874 91.55ZM59.534374 91.55L62.83125 82.95625L64.05 82.95625L67.56563 91.55L66.28438 91.55L65.26875 88.94063L61.690624 88.94063L60.7375 91.55L59.534374 91.55ZM62.01875 88.01875L64.925 88.01875L64.03438 85.64375Q63.6125 84.56563 63.425 83.8625Q63.253124 84.69063 62.95625 85.50313L62.01875 88.01875ZM68.34688 91.55L68.34688 85.33125L69.28438 85.33125L69.28438 86.20625Q69.58125 85.7375 70.06563 85.47188Q70.55 85.19063 71.175 85.19063Q71.8625 85.19063 72.3 85.47188Q72.75313 85.75313 72.925 86.26875Q73.675 85.19063 74.84688 85.19063Q75.78438 85.19063 76.26875 85.70625Q76.76875 86.20625 76.76875 87.28438L76.76875 91.55L75.72188 91.55L75.72188 87.62813Q75.72188 87.00313 75.6125 86.72188Q75.51875 86.44063 75.25313 86.26875Q74.9875 86.09688 74.6125 86.09688Q73.95625 86.09688 73.51875 86.53438Q73.09688 86.97188 73.09688 87.94063L73.09688 91.55L72.03438 91.55L72.03438 87.50313Q72.03438 86.8 71.76875 86.45625Q71.51875 86.09688 70.94063 86.09688Q70.4875 86.09688 70.1125 86.33125Q69.7375 86.56563 69.56563 87.01875Q69.39375 87.47188 69.39375 88.31563L69.39375 91.55L68.34688 91.55ZM82.59688 89.55L83.69063 89.675Q83.44063 90.62813 82.7375 91.15938Q82.03438 91.69063 80.95625 91.69063Q79.59688 91.69063 78.78438 90.84688Q77.9875 90.00313 77.9875 88.4875Q77.9875 86.925 78.8 86.06563Q79.6125 85.19063 80.89375 85.19063Q82.14375 85.19063 82.925 86.03438Q83.72188 86.87813 83.72188 88.425Q83.72188 88.51875 83.72188 88.70625L79.08125 88.70625Q79.14375 89.7375 79.65938 90.28438Q80.175 90.81563 80.95625 90.81563Q81.53438 90.81563 81.94063 90.51875Q82.3625 90.20625 82.59688 89.55ZM79.14375 87.84688L82.6125 87.84688Q82.55 87.05 82.22188 86.65938Q81.70625 86.05 80.90938 86.05Q80.175 86.05 79.675 86.53438Q79.19063 87.01875 79.14375 87.84688ZM85.33125 91.55L85.33125 85.33125L86.28438 85.33125L86.28438 86.26875Q86.64375 85.6125 86.94063 85.40938Q87.25313 85.19063 87.62813 85.19063Q88.15938 85.19063 88.70625 85.51875L88.34688 86.50313Q87.95625 86.26875 87.58125 86.26875Q87.22188 86.26875 86.94063 86.4875Q86.675 86.69063 86.56563 87.06563Q86.37813 87.62813 86.37813 88.28438L86.37813 91.55L85.33125 91.55ZM89.34688 84.175L89.34688 82.95625L90.40938 82.95625L90.40938 84.175L89.34688 84.175ZM89.34688 91.55L89.34688 85.33125L90.40938 85.33125L90.40938 91.55L89.34688 91.55ZM96.40938 89.26875L97.44063 89.40938Q97.26875 90.47188 96.56563 91.08125Q95.8625 91.69063 94.84688 91.69063Q93.56563 91.69063 92.78438 90.8625Q92.01875 90.01875 92.01875 88.45625Q92.01875 87.45625 92.34688 86.70625Q92.69063 85.94063 93.3625 85.56563Q94.05 85.19063 94.8625 85.19063Q95.8625 85.19063 96.50313 85.70625Q97.15938 86.20625 97.34688 87.15938L96.31563 87.31563Q96.175 86.69063 95.8 86.37813Q95.425 86.05 94.89375 86.05Q94.09688 86.05 93.59688 86.62813Q93.09688 87.19063 93.09688 88.425Q93.09688 89.69063 93.58125 90.25313Q94.06563 90.81563 94.83125 90.81563Q95.45625 90.81563 95.8625 90.44063Q96.28438 90.06563 96.40938 89.26875ZM102.40938 90.78438Q101.81563 91.28438 101.26875 91.4875Q100.7375 91.69063 100.1125 91.69063Q99.08125 91.69063 98.53438 91.19063Q97.9875 90.69063 97.9875 89.90938Q97.9875 89.45625 98.19063 89.08125Q98.39375 88.69063 98.7375 88.47188Q99.08125 88.2375 99.50313 88.12813Q99.8 88.03438 100.44063 87.95625Q101.70625 87.81563 102.31563 87.59688Q102.31563 87.37813 102.31563 87.33125Q102.31563 86.675 102.01875 86.40938Q101.6125 86.06563 100.81563 86.06563Q100.08125 86.06563 99.72188 86.33125Q99.3625 86.58125 99.19063 87.2375L98.15938 87.09688Q98.3 86.44063 98.62813 86.03438Q98.95625 85.62813 99.56563 85.40938Q100.175 85.19063 100.97188 85.19063Q101.76875 85.19063 102.26875 85.37813Q102.76875 85.56563 103.00313 85.84688Q103.2375 86.12813 103.33125 86.56563Q103.37813 86.83125 103.37813 87.53438L103.37813 88.94063Q103.37813 90.40938 103.44063 90.8Q103.51875 91.19063 103.72188 91.55L102.6125 91.55Q102.45625 91.22188 102.40938 90.78438ZM102.31563 88.425Q101.7375 88.65938 100.59688 88.83125Q99.94063 88.925 99.675 89.05Q99.40938 89.15938 99.25313 89.37813Q99.1125 89.59688 99.1125 89.87813Q99.1125 90.3 99.425 90.58125Q99.75313 90.8625 100.3625 90.8625Q100.97188 90.8625 101.44063 90.59688Q101.925 90.33125 102.14375 89.8625Q102.31563 89.50313 102.31563 88.81563L102.31563 88.425ZM105.34688 91.55L105.34688 85.33125L106.28438 85.33125L106.28438 86.20625Q106.97188 85.19063 108.26875 85.19063Q108.83125 85.19063 109.3 85.39375Q109.78438 85.59688 110.01875 85.925Q110.25313 86.25313 110.34688 86.69063Q110.39375 86.9875 110.39375 87.72188L110.39375 91.55L109.34688 91.55L109.34688 87.76875Q109.34688 87.1125 109.22188 86.8Q109.09688 86.4875 108.78438 86.3Q108.47188 86.09688 108.05 86.09688Q107.37813 86.09688 106.87813 86.53438Q106.39375 86.95625 106.39375 88.14375L106.39375 91.55L105.34688 91.55Z" fill-rule="nonzero"/><path fill="#9e9e9e" d="M19.05 106.28438L20.1125 106.14375Q20.284374 107.03438 20.721874 107.44063Q21.159374 107.83125 21.784374 107.83125Q22.534374 107.83125 23.05 107.31563Q23.565624 106.8 23.565624 106.03438Q23.565624 105.31563 23.08125 104.84688Q22.6125 104.3625 21.878124 104.3625Q21.58125 104.3625 21.128124 104.4875L21.253124 103.55Q21.3625 103.56563 21.425 103.56563Q22.096874 103.56563 22.628124 103.22188Q23.175 102.8625 23.175 102.12813Q23.175 101.55 22.784374 101.175Q22.39375 100.78438 21.76875 100.78438Q21.159374 100.78438 20.7375 101.175Q20.33125 101.56563 20.221874 102.33125L19.159374 102.14375Q19.346874 101.09688 20.034374 100.51875Q20.721874 99.925 21.7375 99.925Q22.440624 99.925 23.034374 100.2375Q23.628124 100.53438 23.940624 101.05Q24.253124 101.56563 24.253124 102.15938Q24.253124 102.70625 23.95625 103.175Q23.659374 103.62813 23.08125 103.89375Q23.83125 104.06563 24.253124 104.62813Q24.675 105.175 24.675 106.01875Q24.675 107.14375 23.846874 107.925Q23.034374 108.70625 21.784374 108.70625Q20.659374 108.70625 19.909374 108.03438Q19.159374 107.34688 19.05 106.28438ZM26.64375 108.55L26.64375 107.34688L27.846874 107.34688L27.846874 108.55L26.64375 108.55ZM29.05 106.28438L30.1125 106.14375Q30.284374 107.03438 30.721874 107.44063Q31.159374 107.83125 31.784374 107.83125Q32.534374 107.83125 33.05 107.31563Q33.565624 106.8 33.565624 106.03438Q33.565624 105.31563 33.08125 104.84688Q32.6125 104.3625 31.878124 104.3625Q31.58125 104.3625 31.128124 104.4875L31.253124 103.55Q31.3625 103.56563 31.425 103.56563Q32.096874 103.56563 32.628124 103.22188Q33.175 102.8625 33.175 102.12813Q33.175 101.55 32.784374 101.175Q32.39375 100.78438 31.76875 100.78438Q31.159374 100.78438 30.7375 101.175Q30.33125 101.56563 30.221874 102.33125L29.159374 102.14375Q29.346874 101.09688 30.034374 100.51875Q30.721874 99.925 31.7375 99.925Q32.440624 99.925 33.034374 100.2375Q33.628124 100.53438 33.940624 101.05Q34.253124 101.56563 34.253124 102.15938Q34.253124 102.70625 33.95625 103.175Q33.659374 103.62813 33.08125 103.89375Q33.83125 104.06563 34.253124 104.62813Q34.675 105.175 34.675 106.01875Q34.675 107.14375 33.846874 107.925Q33.034374 108.70625 31.784374 108.70625Q30.659374 108.70625 29.909374 108.03438Q29.159374 107.34688 29.05 106.28438ZM36.253124 102.01875Q36.253124 101.09688 36.70625 100.45625Q37.175 99.81563 38.05 99.81563Q38.8625 99.81563 39.39375 100.39375Q39.925 100.97188 39.925 102.08125Q39.925 103.175 39.378124 103.76875Q38.846874 104.34688 38.065624 104.34688Q37.284374 104.34688 36.76875 103.76875Q36.253124 103.19063 36.253124 102.01875ZM38.08125 100.53438Q37.690624 100.53438 37.425 100.87813Q37.175 101.22188 37.175 102.12813Q37.175 102.95625 37.425 103.3Q37.690624 103.62813 38.08125 103.62813Q38.4875 103.62813 38.7375 103.28438Q39.003124 102.94063 39.003124 102.05Q39.003124 101.20625 38.7375 100.87813Q38.471874 100.53438 38.08125 100.53438ZM38.08125 108.8625L42.784374 99.81563L43.64375 99.81563L38.95625 108.8625L38.08125 108.8625ZM41.8 106.53438Q41.8 105.6125 42.253124 104.97188Q42.721874 104.33125 43.6125 104.33125Q44.425 104.33125 44.95625 104.90938Q45.4875 105.47188 45.4875 106.59688Q45.4875 107.69063 44.940624 108.28438Q44.409374 108.8625 43.6125 108.8625Q42.846874 108.8625 42.315624 108.28438Q41.8 107.70625 41.8 106.53438ZM43.64375 105.05Q43.2375 105.05 42.971874 105.39375Q42.721874 105.7375 42.721874 106.64375Q42.721874 107.45625 42.9875 107.8Q43.253124 108.14375 43.64375 108.14375Q44.034374 108.14375 44.3 107.8Q44.565624 107.45625 44.565624 106.55Q44.565624 105.72188 44.3 105.39375Q44.034374 105.05 43.64375 105.05Z" fill-rule="nonzero"/><path stroke="#757575" stroke-width="1.0" stroke-linecap="butt" d="M18.55 96.05L127.05 96.05L216.62524 50.580013" fill-rule="nonzero"/><path fill="#9e9e9e" d="M218.62524 50.580013C218.62524 49.475445 217.72981 48.580013 216.62524 48.580013C215.52068 48.580013 214.62524 49.475445 214.62524 50.580013C214.62524 51.684586 215.52068 52.580013 216.62524 52.580013C217.72981 52.580013 218.62524 51.684586 218.62524 50.580013" fill-rule="nonzero"/><path fill="#1a1a1a" d="M18.534374 122.55L21.83125 113.95625L23.05 113.95625L26.565624 122.55L25.284374 122.55L24.26875 119.94063L20.690624 119.94063L19.7375 122.55L18.534374 122.55ZM21.01875 119.01875L23.925 119.01875L23.034374 116.64375Q22.6125 115.56563 22.425 114.8625Q22.253124 115.69063 21.95625 116.50313L21.01875 119.01875ZM26.925 120.69063L27.95625 120.53438Q28.05 121.15938 28.440624 121.4875Q28.846874 121.81563 29.58125 121.81563Q30.3 121.81563 30.64375 121.53438Q31.003124 121.2375 31.003124 120.83125Q31.003124 120.47188 30.690624 120.26875Q30.471874 120.12813 29.6125 119.90938Q28.45625 119.6125 28.003124 119.40938Q27.565624 119.19063 27.33125 118.81563Q27.096874 118.44063 27.096874 117.97188Q27.096874 117.56563 27.284374 117.20625Q27.471874 116.84688 27.8 116.6125Q28.05 116.44063 28.471874 116.31563Q28.89375 116.19063 29.39375 116.19063Q30.1125 116.19063 30.659374 116.40938Q31.221874 116.6125 31.4875 116.97188Q31.753124 117.33125 31.846874 117.925L30.815624 118.06563Q30.753124 117.59688 30.409374 117.33125Q30.08125 117.05 29.45625 117.05Q28.7375 117.05 28.425 117.3Q28.1125 117.53438 28.1125 117.8625Q28.1125 118.06563 28.2375 118.22188Q28.378124 118.39375 28.64375 118.50313Q28.8 118.56563 29.58125 118.76875Q30.70625 119.08125 31.14375 119.26875Q31.58125 119.45625 31.83125 119.81563Q32.08125 120.175 32.08125 120.72188Q32.08125 121.25313 31.76875 121.72188Q31.471874 122.175 30.89375 122.44063Q30.315624 122.69063 29.58125 122.69063Q28.3625 122.69063 27.721874 122.19063Q27.096874 121.675 26.925 120.69063ZM33.346874 115.175L33.346874 113.95625L34.409374 113.95625L34.409374 115.175L33.346874 115.175ZM33.346874 122.55L33.346874 116.33125L34.409374 116.33125L34.409374 122.55L33.346874 122.55ZM40.409374 121.78438Q39.815624 122.28438 39.26875 122.4875Q38.7375 122.69063 38.1125 122.69063Q37.08125 122.69063 36.534374 122.19063Q35.9875 121.69063 35.9875 120.90938Q35.9875 120.45625 36.190624 120.08125Q36.39375 119.69063 36.7375 119.47188Q37.08125 119.2375 37.503124 119.12813Q37.8 119.03438 38.440624 118.95625Q39.70625 118.81563 40.315624 118.59688Q40.315624 118.37813 40.315624 118.33125Q40.315624 117.675 40.01875 117.40938Q39.6125 117.06563 38.815624 117.06563Q38.08125 117.06563 37.721874 117.33125Q37.3625 117.58125 37.190624 118.2375L36.159374 118.09688Q36.3 117.44063 36.628124 117.03438Q36.95625 116.62813 37.565624 116.40938Q38.175 116.19063 38.971874 116.19063Q39.76875 116.19063 40.26875 116.37813Q40.76875 116.56563 41.003124 116.84688Q41.2375 117.12813 41.33125 117.56563Q41.378124 117.83125 41.378124 118.53438L41.378124 119.94063Q41.378124 121.40938 41.440624 121.8Q41.51875 122.19063 41.721874 122.55L40.6125 122.55Q40.45625 122.22188 40.409374 121.78438ZM40.315624 119.425Q39.7375 119.65938 38.596874 119.83125Q37.940624 119.925 37.675 120.05Q37.409374 120.15938 37.253124 120.37813Q37.1125 120.59688 37.1125 120.87813Q37.1125 121.3 37.425 121.58125Q37.753124 121.8625 38.3625 121.8625Q38.971874 121.8625 39.440624 121.59688Q39.925 121.33125 40.14375 120.8625Q40.315624 120.50313 40.315624 119.81563L40.315624 119.425ZM43.346874 122.55L43.346874 116.33125L44.284374 116.33125L44.284374 117.20625Q44.971874 116.19063 46.26875 116.19063Q46.83125 116.19063 47.3 116.39375Q47.784374 116.59688 48.01875 116.925Q48.253124 117.25313 48.346874 117.69063Q48.39375 117.9875 48.39375 118.72188L48.39375 122.55L47.346874 122.55L47.346874 118.76875Q47.346874 118.1125 47.221874 117.8Q47.096874 117.4875 46.784374 117.3Q46.471874 117.09688 46.05 117.09688Q45.378124 117.09688 44.878124 117.53438Q44.39375 117.95625 44.39375 119.14375L44.39375 122.55L43.346874 122.55Z" fill-rule="nonzero"/><path fill="#9e9e9e" d="M24.51875 133.06563L23.471874 133.14375Q23.33125 132.51875 23.08125 132.2375Q22.64375 131.78438 22.01875 131.78438Q21.51875 131.78438 21.128124 132.06563Q20.64375 132.44063 20.346874 133.14375Q20.065624 133.83125 20.05 135.1125Q20.425 134.53438 20.971874 134.25313Q21.534374 133.97188 22.14375 133.97188Q23.190624 133.97188 23.925 134.75313Q24.675 135.53438 24.675 136.75313Q24.675 137.56563 24.315624 138.26875Q23.971874 138.95625 23.3625 139.33125Q22.753124 139.69063 21.9875 139.69063Q20.659374 139.69063 19.83125 138.72188Q19.003124 137.75313 19.003124 135.53438Q19.003124 133.03438 19.925 131.90938Q20.721874 130.925 22.08125 130.925Q23.096874 130.925 23.7375 131.50313Q24.39375 132.06563 24.51875 133.06563ZM20.221874 136.76875Q20.221874 137.31563 20.440624 137.81563Q20.675 138.3 21.08125 138.56563Q21.503124 138.83125 21.971874 138.83125Q22.628124 138.83125 23.1125 138.3Q23.596874 137.75313 23.596874 136.83125Q23.596874 135.94063 23.1125 135.425Q22.64375 134.90938 21.925 134.90938Q21.20625 134.90938 20.70625 135.425Q20.221874 135.94063 20.221874 136.76875ZM26.64375 139.55L26.64375 138.34688L27.846874 138.34688L27.846874 139.55L26.64375 139.55ZM29.1125 132.08125L29.1125 131.06563L34.675 131.06563L34.675 131.89375Q33.8625 132.76875 33.05 134.22188Q32.253124 135.65938 31.815624 137.19063Q31.4875 138.26875 31.409374 139.55L30.315624 139.55Q30.33125 138.53438 30.70625 137.09688Q31.096874 135.65938 31.8 134.33125Q32.51875 133.00313 33.33125 132.08125L29.1125 132.08125ZM36.253124 133.01875Q36.253124 132.09688 36.70625 131.45625Q37.175 130.81563 38.05 130.81563Q38.8625 130.81563 39.39375 131.39375Q39.925 131.97188 39.925 133.08125Q39.925 134.175 39.378124 134.76875Q38.846874 135.34688 38.065624 135.34688Q37.284374 135.34688 36.76875 134.76875Q36.253124 134.19063 36.253124 133.01875ZM38.08125 131.53438Q37.690624 131.53438 37.425 131.87813Q37.175 132.22188 37.175 133.12813Q37.175 133.95625 37.425 134.3Q37.690624 134.62813 38.08125 134.62813Q38.4875 134.62813 38.7375 134.28438Q39.003124 133.94063 39.003124 133.05Q39.003124 132.20625 38.7375 131.87813Q38.471874 131.53438 38.08125 131.53438ZM38.08125 139.8625L42.784374 130.81563L43.64375 130.81563L38.95625 139.8625L38.08125 139.8625ZM41.8 137.53438Q41.8 136.6125 42.253124 135.97188Q42.721874 135.33125 43.6125 135.33125Q44.425 135.33125 44.95625 135.90938Q45.4875 136.47188 45.4875 137.59688Q45.4875 138.69063 44.940624 139.28438Q44.409374 139.8625 43.6125 139.8625Q42.846874 139.8625 42.315624 139.28438Q41.8 138.70625 41.8 137.53438ZM43.64375 136.05Q43.2375 136.05 42.971874 136.39375Q42.721874 136.7375 42.721874 137.64375Q42.721874 138.45625 42.9875 138.8Q43.253124 139.14375 43.64375 139.14375Q44.034374 139.14375 44.3 138.8Q44.565624 138.45625 44.565624 137.55Q44.565624 136.72188 44.3 136.39375Q44.034374 136.05 43.64375 136.05Z" fill-rule="nonzero"/><path stroke="#757575" stroke-width="1.0" stroke-linecap="butt" d="M18.55 127.05L127.05 127.05L175.99957 86.61296" fill-rule="nonzero"/><path fill="#9e9e9e" d="M177.99957 86.61296C177.99957 85.50839 177.10414 84.61296 175.99957 84.61296C174.895 84.61296 173.99957 85.50839 173.99957 86.61296C173.99957 87.71753 174.895 88.61296 175.99957 88.61296C177.10414 88.61296 177.99957 87.71753 177.99957 86.61296" fill-rule="nonzero"/><path fill="#1a1a1a" d="M18.534374 153.55L21.83125 144.95625L23.05 144.95625L26.565624 153.55L25.284374 153.55L24.26875 150.94063L20.690624 150.94063L19.7375 153.55L18.534374 153.55ZM21.01875 150.01875L23.925 150.01875L23.034374 147.64375Q22.6125 146.56563 22.425 145.8625Q22.253124 146.69063 21.95625 147.50313L21.01875 150.01875ZM27.596874 153.55L27.596874 148.14375L26.659374 148.14375L26.659374 147.33125L27.596874 147.33125L27.596874 146.65938Q27.596874 146.03438 27.70625 145.7375Q27.8625 145.31563 28.2375 145.06563Q28.628124 144.81563 29.315624 144.81563Q29.76875 144.81563 30.3 144.925L30.14375 145.83125Q29.815624 145.78438 29.51875 145.78438Q29.034374 145.78438 28.83125 145.9875Q28.64375 146.19063 28.64375 146.75313L28.64375 147.33125L29.8625 147.33125L29.8625 148.14375L28.64375 148.14375L28.64375 153.55L27.596874 153.55ZM30.33125 153.55L30.33125 147.33125L31.284374 147.33125L31.284374 148.26875Q31.64375 147.6125 31.940624 147.40938Q32.253124 147.19063 32.628124 147.19063Q33.159374 147.19063 33.70625 147.51875L33.346874 148.50313Q32.95625 148.26875 32.58125 148.26875Q32.221874 148.26875 31.940624 148.4875Q31.675 148.69063 31.565624 149.06563Q31.378124 149.62813 31.378124 150.28438L31.378124 153.55L30.33125 153.55ZM34.346874 146.175L34.346874 144.95625L35.409374 144.95625L35.409374 146.175L34.346874 146.175ZM34.346874 153.55L34.346874 147.33125L35.409374 147.33125L35.409374 153.55L34.346874 153.55ZM41.409374 151.26875L42.440624 151.40938Q42.26875 152.47188 41.565624 153.08125Q40.8625 153.69063 39.846874 153.69063Q38.565624 153.69063 37.784374 152.8625Q37.01875 152.01875 37.01875 150.45625Q37.01875 149.45625 37.346874 148.70625Q37.690624 147.94063 38.3625 147.56563Q39.05 147.19063 39.8625 147.19063Q40.8625 147.19063 41.503124 147.70625Q42.159374 148.20625 42.346874 149.15938L41.315624 149.31563Q41.175 148.69063 40.8 148.37813Q40.425 148.05 39.89375 148.05Q39.096874 148.05 38.596874 148.62813Q38.096874 149.19063 38.096874 150.425Q38.096874 151.69063 38.58125 152.25313Q39.065624 152.81563 39.83125 152.81563Q40.45625 152.81563 40.8625 152.44063Q41.284374 152.06563 41.409374 151.26875ZM47.409374 152.78438Q46.815624 153.28438 46.26875 153.4875Q45.7375 153.69063 45.1125 153.69063Q44.08125 153.69063 43.534374 153.19063Q42.9875 152.69063 42.9875 151.90938Q42.9875 151.45625 43.190624 151.08125Q43.39375 150.69063 43.7375 150.47188Q44.08125 150.2375 44.503124 150.12813Q44.8 150.03438 45.440624 149.95625Q46.70625 149.81563 47.315624 149.59688Q47.315624 149.37813 47.315624 149.33125Q47.315624 148.675 47.01875 148.40938Q46.6125 148.06563 45.815624 148.06563Q45.08125 148.06563 44.721874 148.33125Q44.3625 148.58125 44.190624 149.2375L43.159374 149.09688Q43.3 148.44063 43.628124 148.03438Q43.95625 147.62813 44.565624 147.40938Q45.175 147.19063 45.971874 147.19063Q46.76875 147.19063 47.26875 147.37813Q47.76875 147.56563 48.003124 147.84688Q48.2375 148.12813 48.33125 148.56563Q48.378124 148.83125 48.378124 149.53438L48.378124 150.94063Q48.378124 152.40938 48.440624 152.8Q48.51875 153.19063 48.721874 153.55L47.6125 153.55Q47.45625 153.22188 47.409374 152.78438ZM47.315624 150.425Q46.7375 150.65938 45.596874 150.83125Q44.940624 150.925 44.675 151.05Q44.409374 151.15938 44.253124 151.37813Q44.1125 151.59688 44.1125 151.87813Q44.1125 152.3 44.425 152.58125Q44.753124 152.8625 45.3625 152.8625Q45.971874 152.8625 46.440624 152.59688Q46.925 152.33125 47.14375 151.8625Q47.315624 151.50313 47.315624 150.81563L47.315624 150.425ZM50.346874 153.55L50.346874 147.33125L51.284374 147.33125L51.284374 148.20625Q51.971874 147.19063 53.26875 147.19063Q53.83125 147.19063 54.3 147.39375Q54.784374 147.59688 55.01875 147.925Q55.253124 148.25313 55.346874 148.69063Q55.39375 148.9875 55.39375 149.72188L55.39375 153.55L54.346874 153.55L54.346874 149.76875Q54.346874 149.1125 54.221874 148.8Q54.096874 148.4875 53.784374 148.3Q53.471874 148.09688 53.05 148.09688Q52.378124 148.09688 51.878124 148.53438Q51.39375 148.95625 51.39375 150.14375L51.39375 153.55L50.346874 153.55ZM62.3625 156.08125Q61.4875 154.97188 60.878124 153.50313Q60.284374 152.01875 60.284374 150.44063Q60.284374 149.05 60.721874 147.76875Q61.253124 146.28438 62.3625 144.81563L63.1125 144.81563Q62.409374 146.03438 62.175 146.55Q61.815624 147.3625 61.6125 148.2375Q61.3625 149.33125 61.3625 150.44063Q61.3625 153.26875 63.1125 156.08125L62.3625 156.08125ZM64.12813 149.3625Q64.12813 147.22188 65.26875 146.01875Q66.425 144.8 68.2375 144.8Q69.44063 144.8 70.39375 145.37813Q71.34688 145.94063 71.84688 146.95625Q72.34688 147.97188 72.34688 149.26875Q72.34688 150.56563 71.81563 151.59688Q71.28438 152.62813 70.31563 153.15938Q69.3625 153.69063 68.2375 153.69063Q67.01875 153.69063 66.06563 153.1125Q65.1125 152.51875 64.6125 151.51875Q64.12813 150.50313 64.12813 149.3625ZM65.3 149.37813Q65.3 150.94063 66.12813 151.83125Q66.97188 152.72188 68.2375 152.72188Q69.51875 152.72188 70.34688 151.83125Q71.175 150.925 71.175 149.25313Q71.175 148.20625 70.81563 147.425Q70.47188 146.64375 69.78438 146.22188Q69.09688 145.78438 68.25313 145.78438Q67.05 145.78438 66.175 146.6125Q65.3 147.44063 65.3 149.37813ZM75.64375 152.6125L75.8 153.53438Q75.34688 153.62813 75.00313 153.62813Q74.425 153.62813 74.1125 153.45625Q73.8 153.26875 73.65938 152.97188Q73.53438 152.675 73.53438 151.72188L73.53438 148.14375L72.76875 148.14375L72.76875 147.33125L73.53438 147.33125L73.53438 145.78438L74.58125 145.15938L74.58125 147.33125L75.64375 147.33125L75.64375 148.14375L74.58125 148.14375L74.58125 151.78438Q74.58125 152.2375 74.62813 152.3625Q74.69063 152.4875 74.81563 152.56563Q74.94063 152.64375 75.175 152.64375Q75.3625 152.64375 75.64375 152.6125ZM76.34688 153.55L76.34688 144.95625L77.39375 144.95625L77.39375 148.03438Q78.12813 147.19063 79.25313 147.19063Q79.95625 147.19063 80.45625 147.47188Q80.97188 147.7375 81.19063 148.22188Q81.40938 148.69063 81.40938 149.6125L81.40938 153.55L80.3625 153.55L80.3625 149.6125Q80.3625 148.81563 80.01875 148.45625Q79.675 148.09688 79.05 148.09688Q78.58125 148.09688 78.15938 148.34688Q77.75313 148.58125 77.56563 149.00313Q77.39375 149.40938 77.39375 150.14375L77.39375 153.55L76.34688 153.55ZM87.59688 151.55L88.69063 151.675Q88.44063 152.62813 87.7375 153.15938Q87.03438 153.69063 85.95625 153.69063Q84.59688 153.69063 83.78438 152.84688Q82.9875 152.00313 82.9875 150.4875Q82.9875 148.925 83.8 148.06563Q84.6125 147.19063 85.89375 147.19063Q87.14375 147.19063 87.925 148.03438Q88.72188 148.87813 88.72188 150.425Q88.72188 150.51875 88.72188 150.70625L84.08125 150.70625Q84.14375 151.7375 84.65938 152.28438Q85.175 152.81563 85.95625 152.81563Q86.53438 152.81563 86.94063 152.51875Q87.3625 152.20625 87.59688 151.55ZM84.14375 149.84688L87.6125 149.84688Q87.55 149.05 87.22188 148.65938Q86.70625 148.05 85.90938 148.05Q85.175 148.05 84.675 148.53438Q84.19063 149.01875 84.14375 149.84688ZM90.33125 153.55L90.33125 147.33125L91.28438 147.33125L91.28438 148.26875Q91.64375 147.6125 91.94063 147.40938Q92.25313 147.19063 92.62813 147.19063Q93.15938 147.19063 93.70625 147.51875L93.34688 148.50313Q92.95625 148.26875 92.58125 148.26875Q92.22188 148.26875 91.94063 148.4875Q91.675 148.69063 91.56563 149.06563Q91.37813 149.62813 91.37813 150.28438L91.37813 153.55L90.33125 153.55ZM95.03438 156.08125L94.28438 156.08125Q96.03438 153.26875 96.03438 150.44063Q96.03438 149.34688 95.78438 148.25313Q95.58125 147.37813 95.22188 146.56563Q94.9875 146.05 94.28438 144.81563L95.03438 144.81563Q96.12813 146.28438 96.65938 147.76875Q97.1125 149.05 97.1125 150.44063Q97.1125 152.01875 96.50313 153.50313Q95.89375 154.97188 95.03438 156.08125Z" fill-rule="nonzero"/><path fill="#9e9e9e" d="M24.596874 169.53438L24.596874 170.55L18.909374 170.55Q18.909374 170.175 19.034374 169.81563Q19.253124 169.2375 19.721874 168.675Q20.20625 168.1125 21.1125 167.37813Q22.51875 166.22188 23.003124 165.55Q23.503124 164.87813 23.503124 164.28438Q23.503124 163.65938 23.05 163.2375Q22.596874 162.8 21.878124 162.8Q21.1125 162.8 20.659374 163.25313Q20.20625 163.70625 20.190624 164.51875L19.1125 164.40938Q19.221874 163.19063 19.940624 162.56563Q20.675 161.925 21.909374 161.925Q23.14375 161.925 23.8625 162.6125Q24.58125 163.3 24.58125 164.31563Q24.58125 164.83125 24.3625 165.33125Q24.159374 165.81563 23.659374 166.37813Q23.175 166.925 22.05 167.87813Q21.096874 168.675 20.815624 168.97188Q20.55 169.25313 20.378124 169.53438L24.596874 169.53438ZM26.64375 170.55L26.64375 169.34688L27.846874 169.34688L27.846874 170.55L26.64375 170.55ZM32.425 170.55L32.425 168.4875L28.70625 168.4875L28.70625 167.51875L32.628124 161.95625L33.4875 161.95625L33.4875 167.51875L34.64375 167.51875L34.64375 168.4875L33.4875 168.4875L33.4875 170.55L32.425 170.55ZM32.425 167.51875L32.425 163.65938L29.7375 167.51875L32.425 167.51875ZM36.253124 164.01875Q36.253124 163.09688 36.70625 162.45625Q37.175 161.81563 38.05 161.81563Q38.8625 161.81563 39.39375 162.39375Q39.925 162.97188 39.925 164.08125Q39.925 165.175 39.378124 165.76875Q38.846874 166.34688 38.065624 166.34688Q37.284374 166.34688 36.76875 165.76875Q36.253124 165.19063 36.253124 164.01875ZM38.08125 162.53438Q37.690624 162.53438 37.425 162.87813Q37.175 163.22188 37.175 164.12813Q37.175 164.95625 37.425 165.3Q37.690624 165.62813 38.08125 165.62813Q38.4875 165.62813 38.7375 165.28438Q39.003124 164.94063 39.003124 164.05Q39.003124 163.20625 38.7375 162.87813Q38.471874 162.53438 38.08125 162.53438ZM38.08125 170.8625L42.784374 161.81563L43.64375 161.81563L38.95625 170.8625L38.08125 170.8625ZM41.8 168.53438Q41.8 167.6125 42.253124 166.97188Q42.721874 166.33125 43.6125 166.33125Q44.425 166.33125 44.95625 166.90938Q45.4875 167.47188 45.4875 168.59688Q45.4875 169.69063 44.940624 170.28438Q44.409374 170.8625 43.6125 170.8625Q42.846874 170.8625 42.315624 170.28438Q41.8 169.70625 41.8 168.53438ZM43.64375 167.05Q43.2375 167.05 42.971874 167.39375Q42.721874 167.7375 42.721874 168.64375Q42.721874 169.45625 42.9875 169.8Q43.253124 170.14375 43.64375 170.14375Q44.034374 170.14375 44.3 169.8Q44.565624 169.45625 44.565624 168.55Q44.565624 167.72188 44.3 167.39375Q44.034374 167.05 43.64375 167.05Z" fill-rule="nonzero"/><path stroke="#757575" stroke-width="1.0" stroke-linecap="butt" d="M18.55 158.05L127.05 158.05L149.91011 134.23814" fill-rule="nonzero"/><path fill="#9e9e9e" d="M151.91011 134.23814C151.91011 133.13358 151.01468 132.23814 149.91011 132.23814C148.80554 132.23814 147.91011 133.13358 147.91011 134.23814C147.91011 135.34271 148.80554 136.23814 149.91011 136.23814C151.01468 136.23814 151.91011 135.34271 151.91011 134.23814" fill-rule="nonzero"/><path fill="#1a1a1a" d="M19.675 184.55L19.675 175.95625L20.8 175.95625L20.8 184.55L19.675 184.55ZM22.346874 184.55L22.346874 178.33125L23.284374 178.33125L23.284374 179.20625Q23.971874 178.19063 25.26875 178.19063Q25.83125 178.19063 26.3 178.39375Q26.784374 178.59688 27.01875 178.925Q27.253124 179.25313 27.346874 179.69063Q27.39375 179.9875 27.39375 180.72188L27.39375 184.55L26.346874 184.55L26.346874 180.76875Q26.346874 180.1125 26.221874 179.8Q26.096874 179.4875 25.784374 179.3Q25.471874 179.09688 25.05 179.09688Q24.378124 179.09688 23.878124 179.53438Q23.39375 179.95625 23.39375 181.14375L23.39375 184.55L22.346874 184.55ZM33.378124 184.55L33.378124 183.76875Q32.784374 184.69063 31.64375 184.69063Q30.89375 184.69063 30.26875 184.28438Q29.64375 183.8625 29.3 183.12813Q28.95625 182.39375 28.95625 181.44063Q28.95625 180.51875 29.26875 179.75313Q29.58125 178.9875 30.20625 178.59688Q30.83125 178.19063 31.596874 178.19063Q32.159374 178.19063 32.596874 178.425Q33.034374 178.65938 33.315624 179.03438L33.315624 175.95625L34.3625 175.95625L34.3625 184.55L33.378124 184.55ZM30.05 181.44063Q30.05 182.64375 30.55 183.2375Q31.05 183.81563 31.7375 183.81563Q32.425 183.81563 32.909374 183.25313Q33.39375 182.69063 33.39375 181.53438Q33.39375 180.25313 32.89375 179.65938Q32.409374 179.06563 31.690624 179.06563Q30.9875 179.06563 30.51875 179.64375Q30.05 180.20625 30.05 181.44063ZM36.346874 177.175L36.346874 175.95625L37.409374 175.95625L37.409374 177.175L36.346874 177.175ZM36.346874 184.55L36.346874 178.33125L37.409374 178.33125L37.409374 184.55L36.346874 184.55ZM43.409374 183.78438Q42.815624 184.28438 42.26875 184.4875Q41.7375 184.69063 41.1125 184.69063Q40.08125 184.69063 39.534374 184.19063Q38.9875 183.69063 38.9875 182.90938Q38.9875 182.45625 39.190624 182.08125Q39.39375 181.69063 39.7375 181.47188Q40.08125 181.2375 40.503124 181.12813Q40.8 181.03438 41.440624 180.95625Q42.70625 180.81563 43.315624 180.59688Q43.315624 180.37813 43.315624 180.33125Q43.315624 179.675 43.01875 179.40938Q42.6125 179.06563 41.815624 179.06563Q41.08125 179.06563 40.721874 179.33125Q40.3625 179.58125 40.190624 180.2375L39.159374 180.09688Q39.3 179.44063 39.628124 179.03438Q39.95625 178.62813 40.565624 178.40938Q41.175 178.19063 41.971874 178.19063Q42.76875 178.19063 43.26875 178.37813Q43.76875 178.56563 44.003124 178.84688Q44.2375 179.12813 44.33125 179.56563Q44.378124 179.83125 44.378124 180.53438L44.378124 181.94063Q44.378124 183.40938 44.440624 183.8Q44.51875 184.19063 44.721874 184.55L43.6125 184.55Q43.45625 184.22188 43.409374 183.78438ZM43.315624 181.425Q42.7375 181.65938 41.596874 181.83125Q40.940624 181.925 40.675 182.05Q40.409374 182.15938 40.253124 182.37813Q40.1125 182.59688 40.1125 182.87813Q40.1125 183.3 40.425 183.58125Q40.753124 183.8625 41.3625 183.8625Q41.971874 183.8625 42.440624 183.59688Q42.925 183.33125 43.14375 182.8625Q43.315624 182.50313 43.315624 181.81563L43.315624 181.425ZM46.346874 184.55L46.346874 178.33125L47.284374 178.33125L47.284374 179.20625Q47.971874 178.19063 49.26875 178.19063Q49.83125 178.19063 50.3 178.39375Q50.784374 178.59688 51.01875 178.925Q51.253124 179.25313 51.346874 179.69063Q51.39375 179.9875 51.39375 180.72188L51.39375 184.55L50.346874 184.55L50.346874 180.76875Q50.346874 180.1125 50.221874 179.8Q50.096874 179.4875 49.784374 179.3Q49.471874 179.09688 49.05 179.09688Q48.378124 179.09688 47.878124 179.53438Q47.39375 179.95625 47.39375 181.14375L47.39375 184.55L46.346874 184.55Z" fill-rule="nonzero"/><path fill="#9e9e9e" d="M19.05 199.28438L20.1125 199.14375Q20.284374 200.03438 20.721874 200.44063Q21.159374 200.83125 21.784374 200.83125Q22.534374 200.83125 23.05 200.31563Q23.565624 199.8 23.565624 199.03438Q23.565624 198.31563 23.08125 197.84688Q22.6125 197.3625 21.878124 197.3625Q21.58125 197.3625 21.128124 197.4875L21.253124 196.55Q21.3625 196.56563 21.425 196.56563Q22.096874 196.56563 22.628124 196.22188Q23.175 195.8625 23.175 195.12813Q23.175 194.55 22.784374 194.175Q22.39375 193.78438 21.76875 193.78438Q21.159374 193.78438 20.7375 194.175Q20.33125 194.56563 20.221874 195.33125L19.159374 195.14375Q19.346874 194.09688 20.034374 193.51875Q20.721874 192.925 21.7375 192.925Q22.440624 192.925 23.034374 193.2375Q23.628124 193.53438 23.940624 194.05Q24.253124 194.56563 24.253124 195.15938Q24.253124 195.70625 23.95625 196.175Q23.659374 196.62813 23.08125 196.89375Q23.83125 197.06563 24.253124 197.62813Q24.675 198.175 24.675 199.01875Q24.675 200.14375 23.846874 200.925Q23.034374 201.70625 21.784374 201.70625Q20.659374 201.70625 19.909374 201.03438Q19.159374 200.34688 19.05 199.28438ZM26.64375 201.55L26.64375 200.34688L27.846874 200.34688L27.846874 201.55L26.64375 201.55ZM30.675 196.89375Q30.01875 196.64375 29.690624 196.20625Q29.378124 195.75313 29.378124 195.14375Q29.378124 194.20625 30.05 193.56563Q30.7375 192.925 31.846874 192.925Q32.971874 192.925 33.659374 193.58125Q34.346874 194.2375 34.346874 195.175Q34.346874 195.76875 34.034374 196.20625Q33.721874 196.64375 33.08125 196.89375Q33.878124 197.14375 34.284374 197.72188Q34.690624 198.3 34.690624 199.09688Q34.690624 200.19063 33.909374 200.94063Q33.14375 201.69063 31.8625 201.69063Q30.596874 201.69063 29.815624 200.94063Q29.034374 200.19063 29.034374 199.06563Q29.034374 198.22188 29.45625 197.65938Q29.89375 197.09688 30.675 196.89375ZM30.45625 195.09688Q30.45625 195.70625 30.846874 196.09688Q31.253124 196.4875 31.878124 196.4875Q32.4875 196.4875 32.878124 196.1125Q33.26875 195.72188 33.26875 195.15938Q33.26875 194.58125 32.8625 194.19063Q32.45625 193.78438 31.8625 193.78438Q31.253124 193.78438 30.846874 194.175Q30.45625 194.56563 30.45625 195.09688ZM30.128124 199.06563Q30.128124 199.51875 30.33125 199.94063Q30.55 200.3625 30.971874 200.59688Q31.39375 200.83125 31.878124 200.83125Q32.628124 200.83125 33.1125 200.34688Q33.6125 199.8625 33.6125 199.1125Q33.6125 198.34688 33.1125 197.84688Q32.6125 197.34688 31.846874 197.34688Q31.096874 197.34688 30.6125 197.84688Q30.128124 198.33125 30.128124 199.06563ZM36.253124 195.01875Q36.253124 194.09688 36.70625 193.45625Q37.175 192.81563 38.05 192.81563Q38.8625 192.81563 39.39375 193.39375Q39.925 193.97188 39.925 195.08125Q39.925 196.175 39.378124 196.76875Q38.846874 197.34688 38.065624 197.34688Q37.284374 197.34688 36.76875 196.76875Q36.253124 196.19063 36.253124 195.01875ZM38.08125 193.53438Q37.690624 193.53438 37.425 193.87813Q37.175 194.22188 37.175 195.12813Q37.175 195.95625 37.425 196.3Q37.690624 196.62813 38.08125 196.62813Q38.4875 196.62813 38.7375 196.28438Q39.003124 195.94063 39.003124 195.05Q39.003124 194.20625 38.7375 193.87813Q38.471874 193.53438 38.08125 193.53438ZM38.08125 201.8625L42.784374 192.81563L43.64375 192.81563L38.95625 201.8625L38.08125 201.8625ZM41.8 199.53438Q41.8 198.6125 42.253124 197.97188Q42.721874 197.33125 43.6125 197.33125Q44.425 197.33125 44.95625 197.90938Q45.4875 198.47188 45.4875 199.59688Q45.4875 200.69063 44.940624 201.28438Q44.409374 201.8625 43.6125 201.8625Q42.846874 201.8625 42.315624 201.28438Q41.8 200.70625 41.8 199.53438ZM43.64375 198.05Q43.2375 198.05 42.971874 198.39375Q42.721874 198.7375 42.721874 199.64375Q42.721874 200.45625 42.9875 200.8Q43.253124 201.14375 43.64375 201.14375Q44.034374 201.14375 44.3 200.8Q44.565624 200.45625 44.565624 199.55Q44.565624 198.72188 44.3 198.39375Q44.034374 198.05 43.64375 198.05Z" fill-rule="nonzero"/><path stroke="#757575" stroke-width="1.0" stroke-linecap="butt" d="M18.55 189.05L127.05 189.05L142.83289 164.21027" fill-rule="nonzero"/><path fill="#9e9e9e" d="M144.83289 164.21027C144.83289 163.1057 143.93745 162.21027 142.83289 162.21027C141.72832 162.21027 140.83289 163.1057 140.83289 164.21027C140.83289 165.31483 141.72832 166.21027 142.83289 166.21027C143.93745 166.21027 144.83289 165.31483 144.83289 164.21027" fill-rule="nonzero"/><path fill="#1a1a1a" d="M487.5125 290.969L488.6375 291.26587Q488.27814 292.6565 487.35626 293.39087Q486.4344 294.12524 485.09064 294.12524Q483.7 294.12524 482.825 293.56274Q481.95 293.00024 481.4969 291.93774Q481.04376 290.85962 481.04376 289.62524Q481.04376 288.2815 481.5594 287.2815Q482.075 286.2815 483.0125 285.76587Q483.96564 285.25024 485.10626 285.25024Q486.3875 285.25024 487.2625 285.9065Q488.15314 286.56274 488.4969 287.75024L487.3719 288.01587Q487.075 287.07837 486.4969 286.6565Q485.9344 286.219 485.075 286.219Q484.09064 286.219 483.41876 286.70337Q482.7625 287.17212 482.48126 287.969Q482.21564 288.76587 482.21564 289.62524Q482.21564 290.719 482.52814 291.5315Q482.85626 292.344 483.52814 292.75024Q484.2 293.1565 484.9969 293.1565Q485.95 293.1565 486.60626 292.60962Q487.27814 292.06274 487.5125 290.969ZM494.3094 293.219Q493.71564 293.719 493.16876 293.92212Q492.6375 294.12524 492.0125 294.12524Q490.98126 294.12524 490.4344 293.62524Q489.8875 293.12524 489.8875 292.344Q489.8875 291.89087 490.09064 291.51587Q490.29376 291.12524 490.6375 290.9065Q490.98126 290.67212 491.40314 290.56274Q491.7 290.469 492.34064 290.39087Q493.60626 290.25024 494.21564 290.0315Q494.21564 289.81274 494.21564 289.76587Q494.21564 289.10962 493.91876 288.844Q493.5125 288.50024 492.71564 288.50024Q491.98126 288.50024 491.6219 288.76587Q491.2625 289.01587 491.09064 289.67212L490.0594 289.5315Q490.2 288.87524 490.52814 288.469Q490.85626 288.06274 491.46564 287.844Q492.075 287.62524 492.8719 287.62524Q493.66876 287.62524 494.16876 287.81274Q494.66876 288.00024 494.90314 288.2815Q495.1375 288.56274 495.23126 289.00024Q495.27814 289.26587 495.27814 289.969L495.27814 291.37524Q495.27814 292.844 495.34064 293.23462Q495.41876 293.62524 495.6219 293.98462L494.5125 293.98462Q494.35626 293.6565 494.3094 293.219ZM494.21564 290.85962Q493.6375 291.094 492.4969 291.26587Q491.84064 291.35962 491.575 291.48462Q491.3094 291.594 491.15314 291.81274Q491.0125 292.0315 491.0125 292.31274Q491.0125 292.73462 491.325 293.01587Q491.65314 293.29712 492.2625 293.29712Q492.8719 293.29712 493.34064 293.0315Q493.825 292.76587 494.04376 292.29712Q494.21564 291.93774 494.21564 291.25024L494.21564 290.85962ZM501.325 293.98462L501.325 293.06274Q500.59064 294.12524 499.34064 294.12524Q498.79376 294.12524 498.3094 293.92212Q497.84064 293.70337 497.60626 293.39087Q497.3719 293.06274 497.27814 292.594Q497.21564 292.29712 497.21564 291.60962L497.21564 287.76587L498.27814 287.76587L498.27814 291.219Q498.27814 292.0315 498.34064 292.32837Q498.4344 292.73462 498.7469 292.98462Q499.075 293.219 499.5594 293.219Q500.02814 293.219 500.4344 292.98462Q500.85626 292.73462 501.02814 292.31274Q501.21564 291.89087 501.21564 291.094L501.21564 287.76587L502.2625 287.76587L502.2625 293.98462L501.325 293.98462ZM508.3094 291.70337L509.34064 291.844Q509.16876 292.9065 508.46564 293.51587Q507.7625 294.12524 506.7469 294.12524Q505.46564 294.12524 504.6844 293.29712Q503.91876 292.45337 503.91876 290.89087Q503.91876 289.89087 504.2469 289.14087Q504.59064 288.37524 505.2625 288.00024Q505.95 287.62524 506.7625 287.62524Q507.7625 287.62524 508.40314 288.14087Q509.0594 288.64087 509.2469 289.594L508.21564 289.75024Q508.075 289.12524 507.7 288.81274Q507.325 288.48462 506.79376 288.48462Q505.9969 288.48462 505.4969 289.06274Q504.9969 289.62524 504.9969 290.85962Q504.9969 292.12524 505.48126 292.68774Q505.96564 293.25024 506.73126 293.25024Q507.35626 293.25024 507.7625 292.87524Q508.1844 292.50024 508.3094 291.70337ZM514.3094 293.219Q513.71564 293.719 513.16876 293.92212Q512.6375 294.12524 512.0125 294.12524Q510.98126 294.12524 510.4344 293.62524Q509.8875 293.12524 509.8875 292.344Q509.8875 291.89087 510.09064 291.51587Q510.29376 291.12524 510.6375 290.9065Q510.98126 290.67212 511.40314 290.56274Q511.7 290.469 512.34064 290.39087Q513.60626 290.25024 514.21564 290.0315Q514.21564 289.81274 514.21564 289.76587Q514.21564 289.10962 513.91876 288.844Q513.5125 288.50024 512.71564 288.50024Q511.98126 288.50024 511.6219 288.76587Q511.2625 289.01587 511.09064 289.67212L510.0594 289.5315Q510.2 288.87524 510.52814 288.469Q510.85626 288.06274 511.46564 287.844Q512.075 287.62524 512.8719 287.62524Q513.66876 287.62524 514.16876 287.81274Q514.66876 288.00024 514.90314 288.2815Q515.1375 288.56274 515.23126 289.00024Q515.27814 289.26587 515.27814 289.969L515.27814 291.37524Q515.27814 292.844 515.34064 293.23462Q515.41876 293.62524 515.6219 293.98462L514.5125 293.98462Q514.35626 293.6565 514.3094 293.219ZM514.21564 290.85962Q513.6375 291.094 512.4969 291.26587Q511.84064 291.35962 511.575 291.48462Q511.3094 291.594 511.15314 291.81274Q511.0125 292.0315 511.0125 292.31274Q511.0125 292.73462 511.325 293.01587Q511.65314 293.29712 512.2625 293.29712Q512.8719 293.29712 513.34064 293.0315Q513.825 292.76587 514.04376 292.29712Q514.21564 291.93774 514.21564 291.25024L514.21564 290.85962ZM516.825 292.12524L517.85626 291.969Q517.95 292.594 518.34064 292.92212Q518.7469 293.25024 519.48126 293.25024Q520.2 293.25024 520.54376 292.969Q520.90314 292.67212 520.90314 292.26587Q520.90314 291.9065 520.59064 291.70337Q520.3719 291.56274 519.5125 291.344Q518.35626 291.04712 517.90314 290.844Q517.46564 290.62524 517.23126 290.25024Q516.9969 289.87524 516.9969 289.4065Q516.9969 289.00024 517.1844 288.64087Q517.3719 288.2815 517.7 288.04712Q517.95 287.87524 518.3719 287.75024Q518.79376 287.62524 519.29376 287.62524Q520.0125 287.62524 520.5594 287.844Q521.1219 288.04712 521.3875 288.4065Q521.65314 288.76587 521.7469 289.35962L520.71564 289.50024Q520.65314 289.0315 520.3094 288.76587Q519.98126 288.48462 519.35626 288.48462Q518.6375 288.48462 518.325 288.73462Q518.0125 288.969 518.0125 289.29712Q518.0125 289.50024 518.1375 289.6565Q518.27814 289.82837 518.54376 289.93774Q518.7 290.00024 519.48126 290.20337Q520.60626 290.51587 521.04376 290.70337Q521.48126 290.89087 521.73126 291.25024Q521.98126 291.60962 521.98126 292.1565Q521.98126 292.68774 521.66876 293.1565Q521.3719 293.60962 520.79376 293.87524Q520.21564 294.12524 519.48126 294.12524Q518.2625 294.12524 517.6219 293.62524Q516.9969 293.10962 516.825 292.12524ZM523.2469 286.60962L523.2469 285.39087L524.3094 285.39087L524.3094 286.60962L523.2469 286.60962ZM523.2469 293.98462L523.2469 287.76587L524.3094 287.76587L524.3094 293.98462L523.2469 293.98462ZM530.3094 293.219Q529.71564 293.719 529.16876 293.92212Q528.6375 294.12524 528.0125 294.12524Q526.98126 294.12524 526.4344 293.62524Q525.8875 293.12524 525.8875 292.344Q525.8875 291.89087 526.09064 291.51587Q526.29376 291.12524 526.6375 290.9065Q526.98126 290.67212 527.40314 290.56274Q527.7 290.469 528.34064 290.39087Q529.60626 290.25024 530.21564 290.0315Q530.21564 289.81274 530.21564 289.76587Q530.21564 289.10962 529.91876 288.844Q529.5125 288.50024 528.71564 288.50024Q527.98126 288.50024 527.6219 288.76587Q527.2625 289.01587 527.09064 289.67212L526.0594 289.5315Q526.2 288.87524 526.52814 288.469Q526.85626 288.06274 527.46564 287.844Q528.075 287.62524 528.8719 287.62524Q529.66876 287.62524 530.16876 287.81274Q530.66876 288.00024 530.90314 288.2815Q531.1375 288.56274 531.23126 289.00024Q531.27814 289.26587 531.27814 289.969L531.27814 291.37524Q531.27814 292.844 531.34064 293.23462Q531.41876 293.62524 531.6219 293.98462L530.5125 293.98462Q530.35626 293.6565 530.3094 293.219ZM530.21564 290.85962Q529.6375 291.094 528.4969 291.26587Q527.84064 291.35962 527.575 291.48462Q527.3094 291.594 527.15314 291.81274Q527.0125 292.0315 527.0125 292.31274Q527.0125 292.73462 527.325 293.01587Q527.65314 293.29712 528.2625 293.29712Q528.8719 293.29712 529.34064 293.0315Q529.825 292.76587 530.04376 292.29712Q530.21564 291.93774 530.21564 291.25024L530.21564 290.85962ZM533.2469 293.98462L533.2469 287.76587L534.1844 287.76587L534.1844 288.64087Q534.8719 287.62524 536.16876 287.62524Q536.73126 287.62524 537.2 287.82837Q537.6844 288.0315 537.91876 288.35962Q538.15314 288.68774 538.2469 289.12524Q538.29376 289.42212 538.29376 290.1565L538.29376 293.98462L537.2469 293.98462L537.2469 290.20337Q537.2469 289.54712 537.1219 289.23462Q536.9969 288.92212 536.6844 288.73462Q536.3719 288.5315 535.95 288.5315Q535.27814 288.5315 534.77814 288.969Q534.29376 289.39087 534.29376 290.57837L534.29376 293.98462L533.2469 293.98462ZM545.2625 296.51587Q544.3875 295.4065 543.77814 293.93774Q543.1844 292.45337 543.1844 290.87524Q543.1844 289.48462 543.6219 288.20337Q544.15314 286.719 545.2625 285.25024L546.0125 285.25024Q545.3094 286.469 545.075 286.98462Q544.71564 287.79712 544.5125 288.67212Q544.2625 289.76587 544.2625 290.87524Q544.2625 293.70337 546.0125 296.51587L545.2625 296.51587ZM548.8719 293.98462L546.59064 285.39087L547.7625 285.39087L549.075 291.0315Q549.27814 291.9065 549.4344 292.7815Q549.7625 291.4065 549.825 291.18774L551.45 285.39087L552.825 285.39087L554.0594 289.73462Q554.5125 291.35962 554.73126 292.7815Q554.8875 291.969 555.15314 290.9065L556.4969 285.39087L557.6375 285.39087L555.29376 293.98462L554.1844 293.98462L552.3875 287.43774Q552.15314 286.62524 552.10626 286.43774Q551.98126 287.01587 551.85626 287.43774L550.04376 293.98462L548.8719 293.98462ZM558.2469 293.98462L558.2469 285.39087L559.29376 285.39087L559.29376 288.469Q560.02814 287.62524 561.15314 287.62524Q561.85626 287.62524 562.35626 287.9065Q562.8719 288.17212 563.09064 288.6565Q563.3094 289.12524 563.3094 290.04712L563.3094 293.98462L562.2625 293.98462L562.2625 290.04712Q562.2625 289.25024 561.91876 288.89087Q561.575 288.5315 560.95 288.5315Q560.48126 288.5315 560.0594 288.7815Q559.65314 289.01587 559.46564 289.43774Q559.29376 289.844 559.29376 290.57837L559.29376 293.98462L558.2469 293.98462ZM565.2469 286.60962L565.2469 285.39087L566.3094 285.39087L566.3094 286.60962L565.2469 286.60962ZM565.2469 293.98462L565.2469 287.76587L566.3094 287.76587L566.3094 293.98462L565.2469 293.98462ZM570.54376 293.04712L570.7 293.969Q570.2469 294.06274 569.90314 294.06274Q569.325 294.06274 569.0125 293.89087Q568.7 293.70337 568.5594 293.4065Q568.4344 293.10962 568.4344 292.1565L568.4344 288.57837L567.66876 288.57837L567.66876 287.76587L568.4344 287.76587L568.4344 286.219L569.48126 285.594L569.48126 287.76587L570.54376 287.76587L570.54376 288.57837L569.48126 288.57837L569.48126 292.219Q569.48126 292.67212 569.52814 292.79712Q569.59064 292.92212 569.71564 293.00024Q569.84064 293.07837 570.075 293.07837Q570.2625 293.07837 570.54376 293.04712ZM575.4969 291.98462L576.59064 292.10962Q576.34064 293.06274 575.6375 293.594Q574.9344 294.12524 573.85626 294.12524Q572.4969 294.12524 571.6844 293.2815Q570.8875 292.43774 570.8875 290.92212Q570.8875 289.35962 571.7 288.50024Q572.5125 287.62524 573.79376 287.62524Q575.04376 287.62524 575.825 288.469Q576.6219 289.31274 576.6219 290.85962Q576.6219 290.95337 576.6219 291.14087L571.98126 291.14087Q572.04376 292.17212 572.5594 292.719Q573.075 293.25024 573.85626 293.25024Q574.4344 293.25024 574.84064 292.95337Q575.2625 292.64087 575.4969 291.98462ZM572.04376 290.2815L575.5125 290.2815Q575.45 289.48462 575.1219 289.094Q574.60626 288.48462 573.8094 288.48462Q573.075 288.48462 572.575 288.969Q572.09064 289.45337 572.04376 290.2815ZM578.9344 296.51587L578.1844 296.51587Q579.9344 293.70337 579.9344 290.87524Q579.9344 289.7815 579.6844 288.68774Q579.48126 287.81274 579.1219 287.00024Q578.8875 286.48462 578.1844 285.25024L578.9344 285.25024Q580.02814 286.719 580.5594 288.20337Q581.0125 289.48462 581.0125 290.87524Q581.0125 292.45337 580.40314 293.93774Q579.79376 295.4065 578.9344 296.51587Z" fill-rule="nonzero"/><path fill="#9e9e9e" d="M547.0125 303.51587L547.0125 302.50024L552.575 302.50024L552.575 303.32837Q551.7625 304.20337 550.95 305.6565Q550.15314 307.094 549.71564 308.62524Q549.3875 309.70337 549.3094 310.98462L548.21564 310.98462Q548.23126 309.969 548.60626 308.5315Q548.9969 307.094 549.7 305.76587Q550.41876 304.43774 551.23126 303.51587L547.0125 303.51587ZM553.95 308.73462L555.0594 308.64087Q555.1844 309.45337 555.6219 309.85962Q556.075 310.26587 556.71564 310.26587Q557.46564 310.26587 557.9969 309.68774Q558.52814 309.10962 558.52814 308.17212Q558.52814 307.26587 558.0125 306.75024Q557.5125 306.219 556.6844 306.219Q556.1844 306.219 555.7625 306.45337Q555.35626 306.68774 555.1219 307.04712L554.1375 306.92212L554.96564 302.51587L559.2469 302.51587L559.2469 303.51587L555.8094 303.51587L555.35626 305.82837Q556.1219 305.2815 556.96564 305.2815Q558.09064 305.2815 558.85626 306.06274Q559.6375 306.844 559.6375 308.07837Q559.6375 309.23462 558.96564 310.094Q558.1375 311.12524 556.71564 311.12524Q555.54376 311.12524 554.79376 310.469Q554.0594 309.81274 553.95 308.73462ZM561.54376 310.98462L561.54376 309.7815L562.7469 309.7815L562.7469 310.98462L561.54376 310.98462ZM569.4969 309.969L569.4969 310.98462L563.8094 310.98462Q563.8094 310.60962 563.9344 310.25024Q564.15314 309.67212 564.6219 309.10962Q565.10626 308.54712 566.0125 307.81274Q567.41876 306.6565 567.90314 305.98462Q568.40314 305.31274 568.40314 304.719Q568.40314 304.094 567.95 303.67212Q567.4969 303.23462 566.77814 303.23462Q566.0125 303.23462 565.5594 303.68774Q565.10626 304.14087 565.09064 304.95337L564.0125 304.844Q564.1219 303.62524 564.84064 303.00024Q565.575 302.35962 566.8094 302.35962Q568.04376 302.35962 568.7625 303.04712Q569.48126 303.73462 569.48126 304.75024Q569.48126 305.26587 569.2625 305.76587Q569.0594 306.25024 568.5594 306.81274Q568.075 307.35962 566.95 308.31274Q565.9969 309.10962 565.71564 309.4065Q565.45 309.68774 565.27814 309.969L569.4969 309.969ZM571.15314 304.45337Q571.15314 303.5315 571.60626 302.89087Q572.075 302.25024 572.95 302.25024Q573.7625 302.25024 574.29376 302.82837Q574.825 303.4065 574.825 304.51587Q574.825 305.60962 574.27814 306.20337Q573.7469 306.7815 572.96564 306.7815Q572.1844 306.7815 571.66876 306.20337Q571.15314 305.62524 571.15314 304.45337ZM572.98126 302.969Q572.59064 302.969 572.325 303.31274Q572.075 303.6565 572.075 304.56274Q572.075 305.39087 572.325 305.73462Q572.59064 306.06274 572.98126 306.06274Q573.3875 306.06274 573.6375 305.719Q573.90314 305.37524 573.90314 304.48462Q573.90314 303.64087 573.6375 303.31274Q573.3719 302.969 572.98126 302.969ZM572.98126 311.29712L577.6844 302.25024L578.54376 302.25024L573.85626 311.29712L572.98126 311.29712ZM576.7 308.969Q576.7 308.04712 577.15314 307.4065Q577.6219 306.76587 578.5125 306.76587Q579.325 306.76587 579.85626 307.344Q580.3875 307.9065 580.3875 309.0315Q580.3875 310.12524 579.84064 310.719Q579.3094 311.29712 578.5125 311.29712Q577.7469 311.29712 577.21564 310.719Q576.7 310.14087 576.7 308.969ZM578.54376 307.48462Q578.1375 307.48462 577.8719 307.82837Q577.6219 308.17212 577.6219 309.07837Q577.6219 309.89087 577.8875 310.23462Q578.15314 310.57837 578.54376 310.57837Q578.9344 310.57837 579.2 310.23462Q579.46564 309.89087 579.46564 308.98462Q579.46564 308.1565 579.2 307.82837Q578.9344 307.48462 578.54376 307.48462Z" fill-rule="nonzero"/><path stroke="#757575" stroke-width="1.0" stroke-linecap="butt" d="M581.45 298.48462L472.95 298.48462L411.30692 298.48462" fill-rule="nonzero"/><path fill="#9e9e9e" d="M413.30692 298.48462C413.30692 297.38007 412.41147 296.48462 411.30692 296.48462C410.20233 296.48462 409.30692 297.38007 409.30692 298.48462C409.30692 299.5892 410.20233 300.48462 411.30692 300.48462C412.41147 300.48462 413.30692 299.5892 413.30692 298.48462" fill-rule="nonzero"/></svg>