<svg version="1.1" viewBox="0.0 0.0 600.0 371.0" fill="none" stroke="none" stroke-linecap="square" stroke-miterlimit="10" width="600" height="371" xmlns:xlink="http://www.w3.org/1999/xlink" xmlns="http://www.w3.org/2000/svg"><path fill="#ffffff" d="M0 0L600.0 0L600.0 371.0L0 371.0L0 0Z" fill-rule="nonzero"/><path fill="#46bdc6" d="M290.0157 18.84882C293.34006 18.64965 296.66968 18.55 300.0 18.55L300.0 185.5Z" fill-rule="nonzero"/><path fill="#ff6d01" d="M285.03473 19.222092C286.69308 19.072836 288.3536 18.948397 290.0157 18.84882L300.0 185.5Z" fill-rule="nonzero"/><path fill="#34a853" d="M236.68831 31.020447C252.12383 24.694374 268.42032 20.717415 285.03473 19.222092L300.0 185.5Z" fill-rule="nonzero"/><path fill="#fbbc04" d="M193.96742 56.54499C206.85254 45.950264 221.25279 37.34652 236.68831 31.020447L300.0 185.5Z" fill-rule="nonzero"/><path fill="#ea4335" d="M182.83484 66.56881C186.39384 63.06265 190.10844 59.71801 193.96742 56.54499L300.0 185.5Z" fill-rule="nonzero"/><path fill="#4285f4" d="M300.0 18.55C379.76495 18.55 448.38766 74.97466 463.80273 153.23593C479.21777 231.4972 437.11856 309.73065 363.31168 339.97955C289.50482 370.22845 204.61028 344.04196 160.668 277.47226C116.725716 210.90254 126.01219 122.54769 182.83484 66.56881L300.0 185.5Z" fill-rule="nonzero"/><path fill="#1a1a1a" d="M21.659374 29.55L21.659374 21.971874L18.83125 21.971874L18.83125 20.95625L25.64375 20.95625L25.64375 21.971874L22.8 21.971874L22.8 29.55L21.659374 29.55ZM26.33125 29.55L26.33125 23.33125L27.284374 23.33125L27.284374 24.26875Q27.64375 23.6125 27.940624 23.409374Q28.253124 23.190624 28.628124 23.190624Q29.159374 23.190624 29.70625 23.51875L29.346874 24.503124Q28.95625 24.26875 28.58125 24.26875Q28.221874 24.26875 27.940624 24.4875Q27.675 24.690624 27.565624 25.065624Q27.378124 25.628124 27.378124 26.284374L27.378124 29.55L26.33125 29.55ZM34.409374 28.784374Q33.815624 29.284374 33.26875 29.4875Q32.7375 29.690624 32.1125 29.690624Q31.08125 29.690624 30.534374 29.190624Q29.9875 28.690624 29.9875 27.909374Q29.9875 27.45625 30.190624 27.08125Q30.39375 26.690624 30.7375 26.471874Q31.08125 26.2375 31.503124 26.128124Q31.8 26.034374 32.440624 25.95625Q33.70625 25.815624 34.315624 25.596874Q34.315624 25.378124 34.315624 25.33125Q34.315624 24.675 34.01875 24.409374Q33.6125 24.065624 32.815624 24.065624Q32.08125 24.065624 31.721874 24.33125Q31.3625 24.58125 31.190624 25.2375L30.159374 25.096874Q30.3 24.440624 30.628124 24.034374Q30.95625 23.628124 31.565624 23.409374Q32.175 23.190624 32.971874 23.190624Q33.76875 23.190624 34.26875 23.378124Q34.76875 23.565624 35.003124 23.846874Q35.2375 24.128124 35.33125 24.565624Q35.378124 24.83125 35.378124 25.534374L35.378124 26.940624Q35.378124 28.409374 35.440624 28.8Q35.51875 29.190624 35.721874 29.55L34.6125 29.55Q34.45625 29.221874 34.409374 28.784374ZM34.315624 26.425Q33.7375 26.659374 32.596874 26.83125Q31.940624 26.925 31.675 27.05Q31.409374 27.159374 31.253124 27.378124Q31.1125 27.596874 31.1125 27.878124Q31.1125 28.3 31.425 28.58125Q31.753124 28.8625 32.3625 28.8625Q32.971874 28.8625 33.440624 28.596874Q33.925 28.33125 34.14375 27.8625Q34.315624 27.503124 34.315624 26.815624L34.315624 26.425ZM37.346874 29.55L37.346874 23.33125L38.284374 23.33125L38.284374 24.20625Q38.971874 23.190624 40.26875 23.190624Q40.83125 23.190624 41.3 23.39375Q41.784374 23.596874 42.01875 23.925Q42.253124 24.253124 42.346874 24.690624Q42.39375 24.9875 42.39375 25.721874L42.39375 29.55L41.346874 29.55L41.346874 25.76875Q41.346874 25.1125 41.221874 24.8Q41.096874 24.4875 40.784374 24.3Q40.471874 24.096874 40.05 24.096874Q39.378124 24.096874 38.878124 24.534374Q38.39375 24.95625 38.39375 26.14375L38.39375 29.55L37.346874 29.55ZM43.925 27.690624L44.95625 27.534374Q45.05 28.159374 45.440624 28.4875Q45.846874 28.815624 46.58125 28.815624Q47.3 28.815624 47.64375 28.534374Q48.003124 28.2375 48.003124 27.83125Q48.003124 27.471874 47.690624 27.26875Q47.471874 27.128124 46.6125 26.909374Q45.45625 26.6125 45.003124 26.409374Q44.565624 26.190624 44.33125 25.815624Q44.096874 25.440624 44.096874 24.971874Q44.096874 24.565624 44.284374 24.20625Q44.471874 23.846874 44.8 23.6125Q45.05 23.440624 45.471874 23.315624Q45.89375 23.190624 46.39375 23.190624Q47.1125 23.190624 47.659374 23.409374Q48.221874 23.6125 48.4875 23.971874Q48.753124 24.33125 48.846874 24.925L47.815624 25.065624Q47.753124 24.596874 47.409374 24.33125Q47.08125 24.05 46.45625 24.05Q45.7375 24.05 45.425 24.3Q45.1125 24.534374 45.1125 24.8625Q45.1125 25.065624 45.2375 25.221874Q45.378124 25.39375 45.64375 25.503124Q45.8 25.565624 46.58125 25.76875Q47.70625 26.08125 48.14375 26.26875Q48.58125 26.45625 48.83125 26.815624Q49.08125 27.175 49.08125 27.721874Q49.08125 28.253124 48.76875 28.721874Q48.471874 29.175 47.89375 29.440624Q47.315624 29.690624 46.58125 29.690624Q45.3625 29.690624 44.721874 29.190624Q44.096874 28.675 43.925 27.690624ZM50.14375 30.065624L51.175 30.221874Q51.2375 30.690624 51.534374 30.909374Q51.925 31.20625 52.596874 31.20625Q53.33125 31.20625 53.721874 30.909374Q54.128124 30.6125 54.26875 30.096874Q54.3625 29.76875 54.346874 28.7375Q53.659374 29.55 52.628124 29.55Q51.346874 29.55 50.64375 28.628124Q49.940624 27.690624 49.940624 26.409374Q49.940624 25.51875 50.253124 24.76875Q50.58125 24.003124 51.190624 23.596874Q51.8 23.190624 52.628124 23.190624Q53.7375 23.190624 54.45625 24.08125L54.45625 23.33125L55.425 23.33125L55.425 28.70625Q55.425 30.159374 55.128124 30.76875Q54.83125 31.378124 54.190624 31.721874Q53.55 32.08125 52.6125 32.08125Q51.503124 32.08125 50.815624 31.58125Q50.128124 31.08125 50.14375 30.065624ZM51.01875 26.33125Q51.01875 27.55 51.503124 28.1125Q51.9875 28.675 52.721874 28.675Q53.45625 28.675 53.940624 28.1125Q54.440624 27.55 54.440624 26.3625Q54.440624 25.221874 53.925 24.64375Q53.425 24.065624 52.70625 24.065624Q52.003124 24.065624 51.503124 24.64375Q51.01875 25.20625 51.01875 26.33125ZM61.596874 27.55L62.690624 27.675Q62.440624 28.628124 61.7375 29.159374Q61.034374 29.690624 59.95625 29.690624Q58.596874 29.690624 57.784374 28.846874Q56.9875 28.003124 56.9875 26.4875Q56.9875 24.925 57.8 24.065624Q58.6125 23.190624 59.89375 23.190624Q61.14375 23.190624 61.925 24.034374Q62.721874 24.878124 62.721874 26.425Q62.721874 26.51875 62.721874 26.70625L58.08125 26.70625Q58.14375 27.7375 58.659374 28.284374Q59.175 28.815624 59.95625 28.815624Q60.534374 28.815624 60.940624 28.51875Q61.3625 28.20625 61.596874 27.55ZM58.14375 25.846874L61.6125 25.846874Q61.55 25.05 61.221874 24.659374Q60.70625 24.05 59.909374 24.05Q59.175 24.05 58.675 24.534374Q58.190624 25.01875 58.14375 25.846874ZM64.34688 29.55L64.34688 23.33125L65.28438 23.33125L65.28438 24.20625Q65.97188 23.190624 67.26875 23.190624Q67.83125 23.190624 68.3 23.39375Q68.78438 23.596874 69.01875 23.925Q69.25313 24.253124 69.34688 24.690624Q69.39375 24.9875 69.39375 25.721874L69.39375 29.55L68.34688 29.55L68.34688 25.76875Q68.34688 25.1125 68.22188 24.8Q68.09688 24.4875 67.78438 24.3Q67.47188 24.096874 67.05 24.096874Q66.37813 24.096874 65.87813 24.534374Q65.39375 24.95625 65.39375 26.14375L65.39375 29.55L64.34688 29.55ZM75.37813 29.55L75.37813 28.76875Q74.78438 29.690624 73.64375 29.690624Q72.89375 29.690624 72.26875 29.284374Q71.64375 28.8625 71.3 28.128124Q70.95625 27.39375 70.95625 26.440624Q70.95625 25.51875 71.26875 24.753124Q71.58125 23.9875 72.20625 23.596874Q72.83125 23.190624 73.59688 23.190624Q74.15938 23.190624 74.59688 23.425Q75.03438 23.659374 75.31563 24.034374L75.31563 20.95625L76.3625 20.95625L76.3625 29.55L75.37813 29.55ZM72.05 26.440624Q72.05 27.64375 72.55 28.2375Q73.05 28.815624 73.7375 28.815624Q74.425 28.815624 74.90938 28.253124Q75.39375 27.690624 75.39375 26.534374Q75.39375 25.253124 74.89375 24.659374Q74.40938 24.065624 73.69063 24.065624Q72.9875 24.065624 72.51875 24.64375Q72.05 25.20625 72.05 26.440624ZM82.59688 27.55L83.69063 27.675Q83.44063 28.628124 82.7375 29.159374Q82.03438 29.690624 80.95625 29.690624Q79.59688 29.690624 78.78438 28.846874Q77.9875 28.003124 77.9875 26.4875Q77.9875 24.925 78.8 24.065624Q79.6125 23.190624 80.89375 23.190624Q82.14375 23.190624 82.925 24.034374Q83.72188 24.878124 83.72188 26.425Q83.72188 26.51875 83.72188 26.70625L79.08125 26.70625Q79.14375 27.7375 79.65938 28.284374Q80.175 28.815624 80.95625 28.815624Q81.53438 28.815624 81.94063 28.51875Q82.3625 28.20625 82.59688 27.55ZM79.14375 25.846874L82.6125 25.846874Q82.55 25.05 82.22188 24.659374Q81.70625 24.05 80.90938 24.05Q80.175 24.05 79.675 24.534374Q79.19063 25.01875 79.14375 25.846874ZM85.33125 29.55L85.33125 23.33125L86.28438 23.33125L86.28438 24.26875Q86.64375 23.6125 86.94063 23.409374Q87.25313 23.190624 87.62813 23.190624Q88.15938 23.190624 88.70625 23.51875L88.34688 24.503124Q87.95625 24.26875 87.58125 24.26875Q87.22188 24.26875 86.94063 24.4875Q86.675 24.690624 86.56563 25.065624Q86.37813 25.628124 86.37813 26.284374L86.37813 29.55L85.33125 29.55Z" fill-rule="nonzero"/><path fill="#9e9e9e" d="M23.01875 46.55L21.971874 46.55L21.971874 39.83125Q21.58125 40.190624 20.95625 40.565624Q20.346874 40.925 19.8625 41.096874L19.8625 40.08125Q20.7375 39.659374 21.39375 39.08125Q22.065624 38.4875 22.346874 37.925L23.01875 37.925L23.01875 46.55ZM26.64375 46.55L26.64375 45.346874L27.846874 45.346874L27.846874 46.55L26.64375 46.55ZM29.05 42.315624Q29.05 40.784374 29.3625 39.8625Q29.675 38.925 30.284374 38.425Q30.909374 37.925 31.846874 37.925Q32.534374 37.925 33.05 38.20625Q33.58125 38.4875 33.925 39.01875Q34.26875 39.534374 34.45625 40.284374Q34.64375 41.034374 34.64375 42.315624Q34.64375 43.83125 34.33125 44.753124Q34.034374 45.675 33.409374 46.190624Q32.8 46.690624 31.846874 46.690624Q30.6125 46.690624 29.89375 45.8Q29.05 44.7375 29.05 42.315624ZM30.128124 42.315624Q30.128124 44.425 30.628124 45.128124Q31.128124 45.83125 31.846874 45.83125Q32.58125 45.83125 33.065624 45.128124Q33.565624 44.425 33.565624 42.315624Q33.565624 40.190624 33.065624 39.503124Q32.58125 38.8 31.83125 38.8Q31.1125 38.8 30.675 39.409374Q30.128124 40.190624 30.128124 42.315624ZM36.253124 40.01875Q36.253124 39.096874 36.70625 38.45625Q37.175 37.815624 38.05 37.815624Q38.8625 37.815624 39.39375 38.39375Q39.925 38.971874 39.925 40.08125Q39.925 41.175 39.378124 41.76875Q38.846874 42.346874 38.065624 42.346874Q37.284374 42.346874 36.76875 41.76875Q36.253124 41.190624 36.253124 40.01875ZM38.08125 38.534374Q37.690624 38.534374 37.425 38.878124Q37.175 39.221874 37.175 40.128124Q37.175 40.95625 37.425 41.3Q37.690624 41.628124 38.08125 41.628124Q38.4875 41.628124 38.7375 41.284374Q39.003124 40.940624 39.003124 40.05Q39.003124 39.20625 38.7375 38.878124Q38.471874 38.534374 38.08125 38.534374ZM38.08125 46.8625L42.784374 37.815624L43.64375 37.815624L38.95625 46.8625L38.08125 46.8625ZM41.8 44.534374Q41.8 43.6125 42.253124 42.971874Q42.721874 42.33125 43.6125 42.33125Q44.425 42.33125 44.95625 42.909374Q45.4875 43.471874 45.4875 44.596874Q45.4875 45.690624 44.940624 46.284374Q44.409374 46.8625 43.6125 46.8625Q42.846874 46.8625 42.315624 46.284374Q41.8 45.70625 41.8 44.534374ZM43.64375 43.05Q43.2375 43.05 42.971874 43.39375Q42.721874 43.7375 42.721874 44.64375Q42.721874 45.45625 42.9875 45.8Q43.253124 46.14375 43.64375 46.14375Q44.034374 46.14375 44.3 45.8Q44.565624 45.45625 44.565624 44.55Q44.565624 43.721874 44.3 43.39375Q44.034374 43.05 43.64375 43.05Z" fill-rule="nonzero"/><path stroke="#757575" stroke-width="1.0" stroke-linecap="butt" d="M18.55 34.05L127.05 34.05L295.25534 26.968485" fill-rule="nonzero"/><path fill="#9e9e9e" d="M297.25534 26.968485C297.25534 25.863916 296.3599 24.968485 295.25534 24.968485C294.15076 24.968485 293.25534 25.863916 293.25534 26.968485C293.25534 28.073055 294.15076 28.968485 295.25534 28.968485C296.3599 28.968485 297.25534 28.073055 297.25534 26.968485" fill-rule="nonzero"/><path fill="#1a1a1a" d="M19.534374 60.55L19.534374 51.95625L25.33125 51.95625L25.33125 52.971874L20.675 52.971874L20.675 55.628124L24.70625 55.628124L24.70625 56.64375L20.675 56.64375L20.675 60.55L19.534374 60.55ZM30.596874 58.55L31.690624 58.675Q31.440624 59.628124 30.7375 60.159374Q30.034374 60.690624 28.95625 60.690624Q27.596874 60.690624 26.784374 59.846874Q25.9875 59.003124 25.9875 57.4875Q25.9875 55.925 26.8 55.065624Q27.6125 54.190624 28.89375 54.190624Q30.14375 54.190624 30.925 55.034374Q31.721874 55.878124 31.721874 57.425Q31.721874 57.51875 31.721874 57.70625L27.08125 57.70625Q27.14375 58.7375 27.659374 59.284374Q28.175 59.815624 28.95625 59.815624Q29.534374 59.815624 29.940624 59.51875Q30.3625 59.20625 30.596874 58.55ZM27.14375 56.846874L30.6125 56.846874Q30.55 56.05 30.221874 55.659374Q29.70625 55.05 28.909374 55.05Q28.175 55.05 27.675 55.534374Q27.190624 56.01875 27.14375 56.846874ZM33.346874 60.55L33.346874 54.33125L34.284374 54.33125L34.284374 55.20625Q34.58125 54.7375 35.065624 54.471874Q35.55 54.190624 36.175 54.190624Q36.8625 54.190624 37.3 54.471874Q37.753124 54.753124 37.925 55.26875Q38.675 54.190624 39.846874 54.190624Q40.784374 54.190624 41.26875 54.70625Q41.76875 55.20625 41.76875 56.284374L41.76875 60.55L40.721874 60.55L40.721874 56.628124Q40.721874 56.003124 40.6125 55.721874Q40.51875 55.440624 40.253124 55.26875Q39.9875 55.096874 39.6125 55.096874Q38.95625 55.096874 38.51875 55.534374Q38.096874 55.971874 38.096874 56.940624L38.096874 60.55L37.034374 60.55L37.034374 56.503124Q37.034374 55.8 36.76875 55.45625Q36.51875 55.096874 35.940624 55.096874Q35.4875 55.096874 35.1125 55.33125Q34.7375 55.565624 34.565624 56.01875Q34.39375 56.471874 34.39375 57.315624L34.39375 60.55L33.346874 60.55ZM47.409374 59.784374Q46.815624 60.284374 46.26875 60.4875Q45.7375 60.690624 45.1125 60.690624Q44.08125 60.690624 43.534374 60.190624Q42.9875 59.690624 42.9875 58.909374Q42.9875 58.45625 43.190624 58.08125Q43.39375 57.690624 43.7375 57.471874Q44.08125 57.2375 44.503124 57.128124Q44.8 57.034374 45.440624 56.95625Q46.70625 56.815624 47.315624 56.596874Q47.315624 56.378124 47.315624 56.33125Q47.315624 55.675 47.01875 55.409374Q46.6125 55.065624 45.815624 55.065624Q45.08125 55.065624 44.721874 55.33125Q44.3625 55.58125 44.190624 56.2375L43.159374 56.096874Q43.3 55.440624 43.628124 55.034374Q43.95625 54.628124 44.565624 54.409374Q45.175 54.190624 45.971874 54.190624Q46.76875 54.190624 47.26875 54.378124Q47.76875 54.565624 48.003124 54.846874Q48.2375 55.128124 48.33125 55.565624Q48.378124 55.83125 48.378124 56.534374L48.378124 57.940624Q48.378124 59.409374 48.440624 59.8Q48.51875 60.190624 48.721874 60.55L47.6125 60.55Q47.45625 60.221874 47.409374 59.784374ZM47.315624 57.425Q46.7375 57.659374 45.596874 57.83125Q44.940624 57.925 44.675 58.05Q44.409374 58.159374 44.253124 58.378124Q44.1125 58.596874 44.1125 58.878124Q44.1125 59.3 44.425 59.58125Q44.753124 59.8625 45.3625 59.8625Q45.971874 59.8625 46.440624 59.596874Q46.925 59.33125 47.14375 58.8625Q47.315624 58.503124 47.315624 57.815624L47.315624 57.425ZM50.315624 60.55L50.315624 51.95625L51.378124 51.95625L51.378124 60.55L50.315624 60.55ZM57.596874 58.55L58.690624 58.675Q58.440624 59.628124 57.7375 60.159374Q57.034374 60.690624 55.95625 60.690624Q54.596874 60.690624 53.784374 59.846874Q52.9875 59.003124 52.9875 57.4875Q52.9875 55.925 53.8 55.065624Q54.6125 54.190624 55.89375 54.190624Q57.14375 54.190624 57.925 55.034374Q58.721874 55.878124 58.721874 57.425Q58.721874 57.51875 58.721874 57.70625L54.08125 57.70625Q54.14375 58.7375 54.659374 59.284374Q55.175 59.815624 55.95625 59.815624Q56.534374 59.815624 56.940624 59.51875Q57.3625 59.20625 57.596874 58.55ZM54.14375 56.846874L57.6125 56.846874Q57.55 56.05 57.221874 55.659374Q56.70625 55.05 55.909374 55.05Q55.175 55.05 54.675 55.534374Q54.190624 56.01875 54.14375 56.846874Z" fill-rule="nonzero"/><path fill="#9e9e9e" d="M22.425 77.55L22.425 75.4875L18.70625 75.4875L18.70625 74.51875L22.628124 68.95625L23.4875 68.95625L23.4875 74.51875L24.64375 74.51875L24.64375 75.4875L23.4875 75.4875L23.4875 77.55L22.425 77.55ZM22.425 74.51875L22.425 70.65938L19.7375 74.51875L22.425 74.51875ZM26.64375 77.55L26.64375 76.34688L27.846874 76.34688L27.846874 77.55L26.64375 77.55ZM30.675 72.89375Q30.01875 72.64375 29.690624 72.20625Q29.378124 71.75313 29.378124 71.14375Q29.378124 70.20625 30.05 69.56563Q30.7375 68.925 31.846874 68.925Q32.971874 68.925 33.659374 69.58125Q34.346874 70.2375 34.346874 71.175Q34.346874 71.76875 34.034374 72.20625Q33.721874 72.64375 33.08125 72.89375Q33.878124 73.14375 34.284374 73.72188Q34.690624 74.3 34.690624 75.09688Q34.690624 76.19063 33.909374 76.94063Q33.14375 77.69063 31.8625 77.69063Q30.596874 77.69063 29.815624 76.94063Q29.034374 76.19063 29.034374 75.06563Q29.034374 74.22188 29.45625 73.65938Q29.89375 73.09688 30.675 72.89375ZM30.45625 71.09688Q30.45625 71.70625 30.846874 72.09688Q31.253124 72.4875 31.878124 72.4875Q32.4875 72.4875 32.878124 72.1125Q33.26875 71.72188 33.26875 71.15938Q33.26875 70.58125 32.8625 70.19063Q32.45625 69.78438 31.8625 69.78438Q31.253124 69.78438 30.846874 70.175Q30.45625 70.56563 30.45625 71.09688ZM30.128124 75.06563Q30.128124 75.51875 30.33125 75.94063Q30.55 76.3625 30.971874 76.59688Q31.39375 76.83125 31.878124 76.83125Q32.628124 76.83125 33.1125 76.34688Q33.6125 75.8625 33.6125 75.1125Q33.6125 74.34688 33.1125 73.84688Q32.6125 73.34688 31.846874 73.34688Q31.096874 73.34688 30.6125 73.84688Q30.128124 74.33125 30.128124 75.06563ZM36.253124 71.01875Q36.253124 70.09688 36.70625 69.45625Q37.175 68.81563 38.05 68.81563Q38.8625 68.81563 39.39375 69.39375Q39.925 69.97188 39.925 71.08125Q39.925 72.175 39.378124 72.76875Q38.846874 73.34688 38.065624 73.34688Q37.284374 73.34688 36.76875 72.76875Q36.253124 72.19063 36.253124 71.01875ZM38.08125 69.53438Q37.690624 69.53438 37.425 69.87813Q37.175 70.22188 37.175 71.12813Q37.175 71.95625 37.425 72.3Q37.690624 72.62813 38.08125 72.62813Q38.4875 72.62813 38.7375 72.28438Q39.003124 71.94063 39.003124 71.05Q39.003124 70.20625 38.7375 69.87813Q38.471874 69.53438 38.08125 69.53438ZM38.08125 77.8625L42.784374 68.81563L43.64375 68.81563L38.95625 77.8625L38.08125 77.8625ZM41.8 75.53438Q41.8 74.6125 42.253124 73.97188Q42.721874 73.33125 43.6125 73.33125Q44.425 73.33125 44.95625 73.90938Q45.4875 74.47188 45.4875 75.59688Q45.4875 76.69063 44.940624 77.28438Q44.409374 77.8625 43.6125 77.8625Q42.846874 77.8625 42.315624 77.28438Q41.8 76.70625 41.8 75.53438ZM43.64375 74.05Q43.2375 74.05 42.971874 74.39375Q42.721874 74.7375 42.721874 75.64375Q42.721874 76.45625 42.9875 76.8Q43.253124 77.14375 43.64375 77.14375Q44.034374 77.14375 44.3 76.8Q44.565624 76.45625 44.565624 75.55Q44.565624 74.72188 44.3 74.39375Q44.034374 74.05 43.64375 74.05Z" fill-rule="nonzero"/><path stroke="#757575" stroke-width="1.0" stroke-linecap="butt" d="M18.55 65.05L127.05 65.05L262.39847 31.41925" fill-rule="nonzero"/><path fill="#9e9e9e" d="M264.39847 31.41925C264.39847 30.314682 263.50302 29.41925 262.39847 29.41925C261.29388 29.41925 260.39847 30.314682 260.39847 31.41925C260.39847 32.52382 261.29388 33.41925 262.39847 33.41925C263.50302 33.41925 264.39847 32.52382 264.39847 31.41925" fill-rule="nonzero"/><path fill="#1a1a1a" d="M19.471874 91.55L19.471874 82.95625L22.721874 82.95625Q23.565624 82.95625 24.01875 83.03438Q24.659374 83.14375 25.08125 83.44063Q25.51875 83.7375 25.76875 84.26875Q26.034374 84.8 26.034374 85.44063Q26.034374 86.53438 25.33125 87.3Q24.64375 88.05 22.815624 88.05L20.6125 88.05L20.6125 91.55L19.471874 91.55ZM20.6125 87.05L22.83125 87.05Q23.940624 87.05 24.39375 86.64375Q24.8625 86.22188 24.8625 85.47188Q24.8625 84.94063 24.58125 84.56563Q24.315624 84.175 23.878124 84.05Q23.58125 83.97188 22.815624 83.97188L20.6125 83.97188L20.6125 87.05ZM27.33125 91.55L27.33125 85.33125L28.284374 85.33125L28.284374 86.26875Q28.64375 85.6125 28.940624 85.40938Q29.253124 85.19063 29.628124 85.19063Q30.159374 85.19063 30.70625 85.51875L30.346874 86.50313Q29.95625 86.26875 29.58125 86.26875Q29.221874 86.26875 28.940624 86.4875Q28.675 86.69063 28.565624 87.06563Q28.378124 87.62813 28.378124 88.28438L28.378124 91.55L27.33125 91.55ZM35.596874 89.55L36.690624 89.675Q36.440624 90.62813 35.7375 91.15938Q35.034374 91.69063 33.95625 91.69063Q32.596874 91.69063 31.784374 90.84688Q30.9875 90.00313 30.9875 88.4875Q30.9875 86.925 31.8 86.06563Q32.6125 85.19063 33.89375 85.19063Q35.14375 85.19063 35.925 86.03438Q36.721874 86.87813 36.721874 88.425Q36.721874 88.51875 36.721874 88.70625L32.08125 88.70625Q32.14375 89.7375 32.659374 90.28438Q33.175 90.81563 33.95625 90.81563Q34.534374 90.81563 34.940624 90.51875Q35.3625 90.20625 35.596874 89.55ZM32.14375 87.84688L35.6125 87.84688Q35.55 87.05 35.221874 86.65938Q34.70625 86.05 33.909374 86.05Q33.175 86.05 32.675 86.53438Q32.190624 87.01875 32.14375 87.84688ZM38.596874 91.55L38.596874 86.14375L37.659374 86.14375L37.659374 85.33125L38.596874 85.33125L38.596874 84.65938Q38.596874 84.03438 38.70625 83.7375Q38.8625 83.31563 39.2375 83.06563Q39.628124 82.81563 40.315624 82.81563Q40.76875 82.81563 41.3 82.925L41.14375 83.83125Q40.815624 83.78438 40.51875 83.78438Q40.034374 83.78438 39.83125 83.9875Q39.64375 84.19063 39.64375 84.75313L39.64375 85.33125L40.8625 85.33125L40.8625 86.14375L39.64375 86.14375L39.64375 91.55L38.596874 91.55ZM45.596874 89.55L46.690624 89.675Q46.440624 90.62813 45.7375 91.15938Q45.034374 91.69063 43.95625 91.69063Q42.596874 91.69063 41.784374 90.84688Q40.9875 90.00313 40.9875 88.4875Q40.9875 86.925 41.8 86.06563Q42.6125 85.19063 43.89375 85.19063Q45.14375 85.19063 45.925 86.03438Q46.721874 86.87813 46.721874 88.425Q46.721874 88.51875 46.721874 88.70625L42.08125 88.70625Q42.14375 89.7375 42.659374 90.28438Q43.175 90.81563 43.95625 90.81563Q44.534374 90.81563 44.940624 90.51875Q45.3625 90.20625 45.596874 89.55ZM42.14375 87.84688L45.6125 87.84688Q45.55 87.05 45.221874 86.65938Q44.70625 86.05 43.909374 86.05Q43.175 86.05 42.675 86.53438Q42.190624 87.01875 42.14375 87.84688ZM48.33125 91.55L48.33125 85.33125L49.284374 85.33125L49.284374 86.26875Q49.64375 85.6125 49.940624 85.40938Q50.253124 85.19063 50.628124 85.19063Q51.159374 85.19063 51.70625 85.51875L51.346874 86.50313Q50.95625 86.26875 50.58125 86.26875Q50.221874 86.26875 49.940624 86.4875Q49.675 86.69063 49.565624 87.06563Q49.378124 87.62813 49.378124 88.28438L49.378124 91.55L48.33125 91.55ZM55.346874 91.55L55.346874 85.33125L56.284374 85.33125L56.284374 86.20625Q56.971874 85.19063 58.26875 85.19063Q58.83125 85.19063 59.3 85.39375Q59.784374 85.59688 60.01875 85.925Q60.253124 86.25313 60.346874 86.69063Q60.39375 86.9875 60.39375 87.72188L60.39375 91.55L59.346874 91.55L59.346874 87.76875Q59.346874 87.1125 59.221874 86.8Q59.096874 86.4875 58.784374 86.3Q58.471874 86.09688 58.05 86.09688Q57.378124 86.09688 56.878124 86.53438Q56.39375 86.95625 56.39375 88.14375L56.39375 91.55L55.346874 91.55ZM61.95625 88.44063Q61.95625 86.70625 62.909374 85.87813Q63.70625 85.19063 64.8625 85.19063Q66.14375 85.19063 66.95625 86.03438Q67.78438 86.8625 67.78438 88.34688Q67.78438 89.55 67.425 90.2375Q67.06563 90.925 66.3625 91.31563Q65.675 91.69063 64.8625 91.69063Q63.565624 91.69063 62.753124 90.8625Q61.95625 90.01875 61.95625 88.44063ZM63.034374 88.44063Q63.034374 89.62813 63.55 90.22188Q64.08125 90.81563 64.8625 90.81563Q65.65938 90.81563 66.175 90.22188Q66.69063 89.62813 66.69063 88.40938Q66.69063 87.25313 66.15938 86.65938Q65.64375 86.06563 64.8625 86.06563Q64.08125 86.06563 63.55 86.65938Q63.034374 87.2375 63.034374 88.44063ZM71.64375 90.6125L71.8 91.53438Q71.34688 91.62813 71.00313 91.62813Q70.425 91.62813 70.1125 91.45625Q69.8 91.26875 69.65938 90.97188Q69.53438 90.675 69.53438 89.72188L69.53438 86.14375L68.76875 86.14375L68.76875 85.33125L69.53438 85.33125L69.53438 83.78438L70.58125 83.15938L70.58125 85.33125L71.64375 85.33125L71.64375 86.14375L70.58125 86.14375L70.58125 89.78438Q70.58125 90.2375 70.62813 90.3625Q70.69063 90.4875 70.81563 90.56563Q70.94063 90.64375 71.175 90.64375Q71.3625 90.64375 71.64375 90.6125ZM77.64375 90.6125L77.8 91.53438Q77.34688 91.62813 77.00313 91.62813Q76.425 91.62813 76.1125 91.45625Q75.8 91.26875 75.65938 90.97188Q75.53438 90.675 75.53438 89.72188L75.53438 86.14375L74.76875 86.14375L74.76875 85.33125L75.53438 85.33125L75.53438 83.78438L76.58125 83.15938L76.58125 85.33125L77.64375 85.33125L77.64375 86.14375L76.58125 86.14375L76.58125 89.78438Q76.58125 90.2375 76.62813 90.3625Q76.69063 90.4875 76.81563 90.56563Q76.94063 90.64375 77.175 90.64375Q77.3625 90.64375 77.64375 90.6125ZM77.95625 88.44063Q77.95625 86.70625 78.90938 85.87813Q79.70625 85.19063 80.8625 85.19063Q82.14375 85.19063 82.95625 86.03438Q83.78438 86.8625 83.78438 88.34688Q83.78438 89.55 83.425 90.2375Q83.06563 90.925 82.3625 91.31563Q81.675 91.69063 80.8625 91.69063Q79.56563 91.69063 78.75313 90.8625Q77.95625 90.01875 77.95625 88.44063ZM79.03438 88.44063Q79.03438 89.62813 79.55 90.22188Q80.08125 90.81563 80.8625 90.81563Q81.65938 90.81563 82.175 90.22188Q82.69063 89.62813 82.69063 88.40938Q82.69063 87.25313 82.15938 86.65938Q81.64375 86.06563 80.8625 86.06563Q80.08125 86.06563 79.55 86.65938Q79.03438 87.2375 79.03438 88.44063ZM87.925 89.69063L88.95625 89.53438Q89.05 90.15938 89.44063 90.4875Q89.84688 90.81563 90.58125 90.81563Q91.3 90.81563 91.64375 90.53438Q92.00313 90.2375 92.00313 89.83125Q92.00313 89.47188 91.69063 89.26875Q91.47188 89.12813 90.6125 88.90938Q89.45625 88.6125 89.00313 88.40938Q88.56563 88.19063 88.33125 87.81563Q88.09688 87.44063 88.09688 86.97188Q88.09688 86.56563 88.28438 86.20625Q88.47188 85.84688 88.8 85.6125Q89.05 85.44063 89.47188 85.31563Q89.89375 85.19063 90.39375 85.19063Q91.1125 85.19063 91.65938 85.40938Q92.22188 85.6125 92.4875 85.97188Q92.75313 86.33125 92.84688 86.925L91.81563 87.06563Q91.75313 86.59688 91.40938 86.33125Q91.08125 86.05 90.45625 86.05Q89.7375 86.05 89.425 86.3Q89.1125 86.53438 89.1125 86.8625Q89.1125 87.06563 89.2375 87.22188Q89.37813 87.39375 89.64375 87.50313Q89.8 87.56563 90.58125 87.76875Q91.70625 88.08125 92.14375 88.26875Q92.58125 88.45625 92.83125 88.81563Q93.08125 89.175 93.08125 89.72188Q93.08125 90.25313 92.76875 90.72188Q92.47188 91.175 91.89375 91.44063Q91.31563 91.69063 90.58125 91.69063Q89.3625 91.69063 88.72188 91.19063Q88.09688 90.675 87.925 89.69063ZM98.40938 90.78438Q97.81563 91.28438 97.26875 91.4875Q96.7375 91.69063 96.1125 91.69063Q95.08125 91.69063 94.53438 91.19063Q93.9875 90.69063 93.9875 89.90938Q93.9875 89.45625 94.19063 89.08125Q94.39375 88.69063 94.7375 88.47188Q95.08125 88.2375 95.50313 88.12813Q95.8 88.03438 96.44063 87.95625Q97.70625 87.81563 98.31563 87.59688Q98.31563 87.37813 98.31563 87.33125Q98.31563 86.675 98.01875 86.40938Q97.6125 86.06563 96.81563 86.06563Q96.08125 86.06563 95.72188 86.33125Q95.3625 86.58125 95.19063 87.2375L94.15938 87.09688Q94.3 86.44063 94.62813 86.03438Q94.95625 85.62813 95.56563 85.40938Q96.175 85.19063 96.97188 85.19063Q97.76875 85.19063 98.26875 85.37813Q98.76875 85.56563 99.00313 85.84688Q99.2375 86.12813 99.33125 86.56563Q99.37813 86.83125 99.37813 87.53438L99.37813 88.94063Q99.37813 90.40938 99.44063 90.8Q99.51875 91.19063 99.72188 91.55L98.6125 91.55Q98.45625 91.22188 98.40938 90.78438ZM98.31563 88.425Q97.7375 88.65938 96.59688 88.83125Q95.94063 88.925 95.675 89.05Q95.40938 89.15938 95.25313 89.37813Q95.1125 89.59688 95.1125 89.87813Q95.1125 90.3 95.425 90.58125Q95.75313 90.8625 96.3625 90.8625Q96.97188 90.8625 97.44063 90.59688Q97.925 90.33125 98.14375 89.8625Q98.31563 89.50313 98.31563 88.81563L98.31563 88.425ZM101.3 93.94063L101.175 92.95625Q101.51875 93.05 101.78438 93.05Q102.12813 93.05 102.33125 92.925Q102.55 92.81563 102.69063 92.6125Q102.78438 92.44063 103.01875 91.81563Q103.03438 91.7375 103.1125 91.56563L100.7375 85.33125L101.87813 85.33125L103.175 88.925Q103.425 89.6125 103.62813 90.37813Q103.81563 89.64375 104.06563 88.95625L105.39375 85.33125L106.44063 85.33125L104.08125 91.65938Q103.69063 92.675 103.4875 93.06563Q103.20625 93.59688 102.83125 93.83125Q102.47188 94.08125 101.97188 94.08125Q101.675 94.08125 101.3 93.94063Z" fill-rule="nonzero"/><path fill="#9e9e9e" d="M22.425 108.55L22.425 106.4875L18.70625 106.4875L18.70625 105.51875L22.628124 99.95625L23.4875 99.95625L23.4875 105.51875L24.64375 105.51875L24.64375 106.4875L23.4875 106.4875L23.4875 108.55L22.425 108.55ZM22.425 105.51875L22.425 101.65938L19.7375 105.51875L22.425 105.51875ZM26.64375 108.55L26.64375 107.34688L27.846874 107.34688L27.846874 108.55L26.64375 108.55ZM30.675 103.89375Q30.01875 103.64375 29.690624 103.20625Q29.378124 102.75313 29.378124 102.14375Q29.378124 101.20625 30.05 100.56563Q30.7375 99.925 31.846874 99.925Q32.971874 99.925 33.659374 100.58125Q34.346874 101.2375 34.346874 102.175Q34.346874 102.76875 34.034374 103.20625Q33.721874 103.64375 33.08125 103.89375Q33.878124 104.14375 34.284374 104.72188Q34.690624 105.3 34.690624 106.09688Q34.690624 107.19063 33.909374 107.94063Q33.14375 108.69063 31.8625 108.69063Q30.596874 108.69063 29.815624 107.94063Q29.034374 107.19063 29.034374 106.06563Q29.034374 105.22188 29.45625 104.65938Q29.89375 104.09688 30.675 103.89375ZM30.45625 102.09688Q30.45625 102.70625 30.846874 103.09688Q31.253124 103.4875 31.878124 103.4875Q32.4875 103.4875 32.878124 103.1125Q33.26875 102.72188 33.26875 102.15938Q33.26875 101.58125 32.8625 101.19063Q32.45625 100.78438 31.8625 100.78438Q31.253124 100.78438 30.846874 101.175Q30.45625 101.56563 30.45625 102.09688ZM30.128124 106.06563Q30.128124 106.51875 30.33125 106.94063Q30.55 107.3625 30.971874 107.59688Q31.39375 107.83125 31.878124 107.83125Q32.628124 107.83125 33.1125 107.34688Q33.6125 106.8625 33.6125 106.1125Q33.6125 105.34688 33.1125 104.84688Q32.6125 104.34688 31.846874 104.34688Q31.096874 104.34688 30.6125 104.84688Q30.128124 105.33125 30.128124 106.06563ZM36.253124 102.01875Q36.253124 101.09688 36.70625 100.45625Q37.175 99.81563 38.05 99.81563Q38.8625 99.81563 39.39375 100.39375Q39.925 100.97188 39.925 102.08125Q39.925 103.175 39.378124 103.76875Q38.846874 104.34688 38.065624 104.34688Q37.284374 104.34688 36.76875 103.76875Q36.253124 103.19063 36.253124 102.01875ZM38.08125 100.53438Q37.690624 100.53438 37.425 100.87813Q37.175 101.22188 37.175 102.12813Q37.175 102.95625 37.425 103.3Q37.690624 103.62813 38.08125 103.62813Q38.4875 103.62813 38.7375 103.28438Q39.003124 102.94063 39.003124 102.05Q39.003124 101.20625 38.7375 100.87813Q38.471874 100.53438 38.08125 100.53438ZM38.08125 108.8625L42.784374 99.81563L43.64375 99.81563L38.95625 108.8625L38.08125 108.8625ZM41.8 106.53438Q41.8 105.6125 42.253124 104.97188Q42.721874 104.33125 43.6125 104.33125Q44.425 104.33125 44.95625 104.90938Q45.4875 105.47188 45.4875 106.59688Q45.4875 107.69063 44.940624 108.28438Q44.409374 108.8625 43.6125 108.8625Q42.846874 108.8625 42.315624 108.28438Q41.8 107.70625 41.8 106.53438ZM43.64375 105.05Q43.2375 105.05 42.971874 105.39375Q42.721874 105.7375 42.721874 106.64375Q42.721874 107.45625 42.9875 107.8Q43.253124 108.14375 43.64375 108.14375Q44.034374 108.14375 44.3 107.8Q44.565624 107.45625 44.565624 106.55Q44.565624 105.72188 44.3 105.39375Q44.034374 105.05 43.64375 105.05Z" fill-rule="nonzero"/><path stroke="#757575" stroke-width="1.0" stroke-linecap="butt" d="M18.55 96.05L127.05 96.05L218.6529 49.347874" fill-rule="nonzero"/><path fill="#9e9e9e" d="M220.6529 49.347874C220.6529 48.243305 219.75746 47.347874 218.6529 47.347874C217.54832 47.347874 216.6529 48.243305 216.6529 49.347874C216.6529 50.452446 217.54832 51.347874 218.6529 51.347874C219.75746 51.347874 220.6529 50.452446 220.6529 49.347874" fill-rule="nonzero"/><path fill="#1a1a1a" d="M19.471874 122.55L19.471874 113.95625L20.628124 113.95625L25.14375 120.70625L25.14375 113.95625L26.2375 113.95625L26.2375 122.55L25.065624 122.55L20.55 115.8L20.55 122.55L19.471874 122.55ZM27.95625 119.44063Q27.95625 117.70625 28.909374 116.87813Q29.70625 116.19063 30.8625 116.19063Q32.14375 116.19063 32.95625 117.03438Q33.784374 117.8625 33.784374 119.34688Q33.784374 120.55 33.425 121.2375Q33.065624 121.925 32.3625 122.31563Q31.675 122.69063 30.8625 122.69063Q29.565624 122.69063 28.753124 121.8625Q27.95625 121.01875 27.95625 119.44063ZM29.034374 119.44063Q29.034374 120.62813 29.55 121.22188Q30.08125 121.81563 30.8625 121.81563Q31.659374 121.81563 32.175 121.22188Q32.690624 120.62813 32.690624 119.40938Q32.690624 118.25313 32.159374 117.65938Q31.64375 117.06563 30.8625 117.06563Q30.08125 117.06563 29.55 117.65938Q29.034374 118.2375 29.034374 119.44063ZM35.346874 122.55L35.346874 116.33125L36.284374 116.33125L36.284374 117.20625Q36.971874 116.19063 38.26875 116.19063Q38.83125 116.19063 39.3 116.39375Q39.784374 116.59688 40.01875 116.925Q40.253124 117.25313 40.346874 117.69063Q40.39375 117.9875 40.39375 118.72188L40.39375 122.55L39.346874 122.55L39.346874 118.76875Q39.346874 118.1125 39.221874 117.8Q39.096874 117.4875 38.784374 117.3Q38.471874 117.09688 38.05 117.09688Q37.378124 117.09688 36.878124 117.53438Q36.39375 117.95625 36.39375 119.14375L36.39375 122.55L35.346874 122.55ZM41.925 119.97188L41.925 118.90938L45.175 118.90938L45.175 119.97188L41.925 119.97188ZM47.315624 122.55L46.33125 122.55L46.33125 113.95625L47.39375 113.95625L47.39375 117.01875Q48.065624 116.19063 49.096874 116.19063Q49.675 116.19063 50.175 116.425Q50.690624 116.64375 51.01875 117.06563Q51.3625 117.4875 51.55 118.08125Q51.7375 118.675 51.7375 119.34688Q51.7375 120.94063 50.940624 121.81563Q50.14375 122.69063 49.05 122.69063Q47.940624 122.69063 47.315624 121.76875L47.315624 122.55ZM47.3 119.39375Q47.3 120.50313 47.6125 121.00313Q48.1125 121.81563 48.95625 121.81563Q49.64375 121.81563 50.14375 121.22188Q50.659374 120.62813 50.659374 119.425Q50.659374 118.20625 50.175 117.62813Q49.690624 117.05 49.003124 117.05Q48.315624 117.05 47.8 117.65938Q47.3 118.25313 47.3 119.39375ZM53.346874 115.175L53.346874 113.95625L54.409374 113.95625L54.409374 115.175L53.346874 115.175ZM53.346874 122.55L53.346874 116.33125L54.409374 116.33125L54.409374 122.55L53.346874 122.55ZM56.346874 122.55L56.346874 116.33125L57.284374 116.33125L57.284374 117.20625Q57.971874 116.19063 59.26875 116.19063Q59.83125 116.19063 60.3 116.39375Q60.784374 116.59688 61.01875 116.925Q61.253124 117.25313 61.346874 117.69063Q61.39375 117.9875 61.39375 118.72188L61.39375 122.55L60.346874 122.55L60.346874 118.76875Q60.346874 118.1125 60.221874 117.8Q60.096874 117.4875 59.784374 117.3Q59.471874 117.09688 59.05 117.09688Q58.378124 117.09688 57.878124 117.53438Q57.39375 117.95625 57.39375 119.14375L57.39375 122.55L56.346874 122.55ZM67.40938 121.78438Q66.81563 122.28438 66.26875 122.4875Q65.7375 122.69063 65.1125 122.69063Q64.08125 122.69063 63.534374 122.19063Q62.9875 121.69063 62.9875 120.90938Q62.9875 120.45625 63.190624 120.08125Q63.39375 119.69063 63.7375 119.47188Q64.08125 119.2375 64.50313 119.12813Q64.8 119.03438 65.44063 118.95625Q66.70625 118.81563 67.31563 118.59688Q67.31563 118.37813 67.31563 118.33125Q67.31563 117.675 67.01875 117.40938Q66.6125 117.06563 65.81563 117.06563Q65.08125 117.06563 64.72188 117.33125Q64.3625 117.58125 64.19063 118.2375L63.159374 118.09688Q63.3 117.44063 63.628124 117.03438Q63.95625 116.62813 64.56563 116.40938Q65.175 116.19063 65.97188 116.19063Q66.76875 116.19063 67.26875 116.37813Q67.76875 116.56563 68.00313 116.84688Q68.2375 117.12813 68.33125 117.56563Q68.37813 117.83125 68.37813 118.53438L68.37813 119.94063Q68.37813 121.40938 68.44063 121.8Q68.51875 122.19063 68.72188 122.55L67.6125 122.55Q67.45625 122.22188 67.40938 121.78438ZM67.31563 119.425Q66.7375 119.65938 65.59688 119.83125Q64.94063 119.925 64.675 120.05Q64.40938 120.15938 64.25313 120.37813Q64.1125 120.59688 64.1125 120.87813Q64.1125 121.3 64.425 121.58125Q64.75313 121.8625 65.3625 121.8625Q65.97188 121.8625 66.44063 121.59688Q66.925 121.33125 67.14375 120.8625Q67.31563 120.50313 67.31563 119.81563L67.31563 119.425ZM70.33125 122.55L70.33125 116.33125L71.28438 116.33125L71.28438 117.26875Q71.64375 116.6125 71.94063 116.40938Q72.25313 116.19063 72.62813 116.19063Q73.15938 116.19063 73.70625 116.51875L73.34688 117.50313Q72.95625 117.26875 72.58125 117.26875Q72.22188 117.26875 71.94063 117.4875Q71.675 117.69063 71.56563 118.06563Q71.37813 118.62813 71.37813 119.28438L71.37813 122.55L70.33125 122.55ZM74.3 124.94063L74.175 123.95625Q74.51875 124.05 74.78438 124.05Q75.12813 124.05 75.33125 123.925Q75.55 123.81563 75.69063 123.6125Q75.78438 123.44063 76.01875 122.81563Q76.03438 122.7375 76.1125 122.56563L73.7375 116.33125L74.87813 116.33125L76.175 119.925Q76.425 120.6125 76.62813 121.37813Q76.81563 120.64375 77.06563 119.95625L78.39375 116.33125L79.44063 116.33125L77.08125 122.65938Q76.69063 123.675 76.4875 124.06563Q76.20625 124.59688 75.83125 124.83125Q75.47188 125.08125 74.97188 125.08125Q74.675 125.08125 74.3 124.94063Z" fill-rule="nonzero"/><path fill="#9e9e9e" d="M23.01875 139.55L21.971874 139.55L21.971874 132.83125Q21.58125 133.19063 20.95625 133.56563Q20.346874 133.925 19.8625 134.09688L19.8625 133.08125Q20.7375 132.65938 21.39375 132.08125Q22.065624 131.4875 22.346874 130.925L23.01875 130.925L23.01875 139.55ZM26.64375 139.55L26.64375 138.34688L27.846874 138.34688L27.846874 139.55L26.64375 139.55ZM32.425 139.55L32.425 137.4875L28.70625 137.4875L28.70625 136.51875L32.628124 130.95625L33.4875 130.95625L33.4875 136.51875L34.64375 136.51875L34.64375 137.4875L33.4875 137.4875L33.4875 139.55L32.425 139.55ZM32.425 136.51875L32.425 132.65938L29.7375 136.51875L32.425 136.51875ZM36.253124 133.01875Q36.253124 132.09688 36.70625 131.45625Q37.175 130.81563 38.05 130.81563Q38.8625 130.81563 39.39375 131.39375Q39.925 131.97188 39.925 133.08125Q39.925 134.175 39.378124 134.76875Q38.846874 135.34688 38.065624 135.34688Q37.284374 135.34688 36.76875 134.76875Q36.253124 134.19063 36.253124 133.01875ZM38.08125 131.53438Q37.690624 131.53438 37.425 131.87813Q37.175 132.22188 37.175 133.12813Q37.175 133.95625 37.425 134.3Q37.690624 134.62813 38.08125 134.62813Q38.4875 134.62813 38.7375 134.28438Q39.003124 133.94063 39.003124 133.05Q39.003124 132.20625 38.7375 131.87813Q38.471874 131.53438 38.08125 131.53438ZM38.08125 139.8625L42.784374 130.81563L43.64375 130.81563L38.95625 139.8625L38.08125 139.8625ZM41.8 137.53438Q41.8 136.6125 42.253124 135.97188Q42.721874 135.33125 43.6125 135.33125Q44.425 135.33125 44.95625 135.90938Q45.4875 136.47188 45.4875 137.59688Q45.4875 138.69063 44.940624 139.28438Q44.409374 139.8625 43.6125 139.8625Q42.846874 139.8625 42.315624 139.28438Q41.8 138.70625 41.8 137.53438ZM43.64375 136.05Q43.2375 136.05 42.971874 136.39375Q42.721874 136.7375 42.721874 137.64375Q42.721874 138.45625 42.9875 138.8Q43.253124 139.14375 43.64375 139.14375Q44.034374 139.14375 44.3 138.8Q44.565624 138.45625 44.565624 137.55Q44.565624 136.72188 44.3 136.39375Q44.034374 136.05 43.64375 136.05Z" fill-rule="nonzero"/><path stroke="#757575" stroke-width="1.0" stroke-linecap="butt" d="M18.55 127.05L127.05 127.05L193.8742 67.635376" fill-rule="nonzero"/><path fill="#9e9e9e" d="M195.8742 67.635376C195.8742 66.5308 194.97878 65.635376 193.8742 65.635376C192.76964 65.635376 191.8742 66.5308 191.8742 67.635376C191.8742 68.739944 192.76964 69.635376 193.8742 69.635376C194.97878 69.635376 195.8742 68.739944 195.8742 67.635376" fill-rule="nonzero"/><path fill="#1a1a1a" d="M555.34064 327.75558L555.34064 319.16183L557.0594 319.16183L559.09064 325.23996Q559.3719 326.09933 559.4969 326.5212Q559.6375 326.05246 559.95 325.1462L562.0125 319.16183L563.54376 319.16183L563.54376 327.75558L562.45 327.75558L562.45 320.56808L559.95 327.75558L558.91876 327.75558L556.4344 320.44308L556.4344 327.75558L555.34064 327.75558ZM569.3094 326.98996Q568.71564 327.48996 568.16876 327.69308Q567.6375 327.8962 567.0125 327.8962Q565.98126 327.8962 565.4344 327.3962Q564.8875 326.8962 564.8875 326.11496Q564.8875 325.66183 565.09064 325.28683Q565.29376 324.8962 565.6375 324.67746Q565.98126 324.44308 566.40314 324.3337Q566.7 324.23996 567.34064 324.16183Q568.60626 324.0212 569.21564 323.80246Q569.21564 323.5837 569.21564 323.53683Q569.21564 322.88058 568.91876 322.61496Q568.5125 322.2712 567.71564 322.2712Q566.98126 322.2712 566.6219 322.53683Q566.2625 322.78683 566.09064 323.44308L565.0594 323.30246Q565.2 322.6462 565.52814 322.23996Q565.85626 321.8337 566.46564 321.61496Q567.075 321.3962 567.8719 321.3962Q568.66876 321.3962 569.16876 321.5837Q569.66876 321.7712 569.90314 322.05246Q570.1375 322.3337 570.23126 322.7712Q570.27814 323.03683 570.27814 323.73996L570.27814 325.1462Q570.27814 326.61496 570.34064 327.00558Q570.41876 327.3962 570.6219 327.75558L569.5125 327.75558Q569.35626 327.42746 569.3094 326.98996ZM569.21564 324.63058Q568.6375 324.86496 567.4969 325.03683Q566.84064 325.13058 566.575 325.25558Q566.3094 325.36496 566.15314 325.5837Q566.0125 325.80246 566.0125 326.0837Q566.0125 326.50558 566.325 326.78683Q566.65314 327.06808 567.2625 327.06808Q567.8719 327.06808 568.34064 326.80246Q568.825 326.53683 569.04376 326.06808Q569.21564 325.7087 569.21564 325.0212L569.21564 324.63058ZM572.21564 327.75558L572.21564 319.16183L573.27814 319.16183L573.27814 327.75558L572.21564 327.75558ZM579.4969 325.75558L580.59064 325.88058Q580.34064 326.8337 579.6375 327.36496Q578.9344 327.8962 577.85626 327.8962Q576.4969 327.8962 575.6844 327.05246Q574.8875 326.2087 574.8875 324.69308Q574.8875 323.13058 575.7 322.2712Q576.5125 321.3962 577.79376 321.3962Q579.04376 321.3962 579.825 322.23996Q580.6219 323.0837 580.6219 324.63058Q580.6219 324.72433 580.6219 324.91183L575.98126 324.91183Q576.04376 325.94308 576.5594 326.48996Q577.075 327.0212 577.85626 327.0212Q578.4344 327.0212 578.84064 326.72433Q579.2625 326.41183 579.4969 325.75558ZM576.04376 324.05246L579.5125 324.05246Q579.45 323.25558 579.1219 322.86496Q578.60626 322.25558 577.8094 322.25558Q577.075 322.25558 576.575 322.73996Q576.09064 323.22433 576.04376 324.05246Z" fill-rule="nonzero"/><path fill="#9e9e9e" d="M548.575 340.09933Q547.91876 339.84933 547.59064 339.41183Q547.27814 338.9587 547.27814 338.34933Q547.27814 337.41183 547.95 336.7712Q548.6375 336.13058 549.7469 336.13058Q550.8719 336.13058 551.5594 336.78683Q552.2469 337.44308 552.2469 338.38058Q552.2469 338.97433 551.9344 339.41183Q551.6219 339.84933 550.98126 340.09933Q551.77814 340.34933 552.1844 340.92746Q552.59064 341.50558 552.59064 342.30246Q552.59064 343.3962 551.8094 344.1462Q551.04376 344.8962 549.7625 344.8962Q548.4969 344.8962 547.71564 344.1462Q546.9344 343.3962 546.9344 342.2712Q546.9344 341.42746 547.35626 340.86496Q547.79376 340.30246 548.575 340.09933ZM548.35626 338.30246Q548.35626 338.91183 548.7469 339.30246Q549.15314 339.69308 549.77814 339.69308Q550.3875 339.69308 550.77814 339.31808Q551.16876 338.92746 551.16876 338.36496Q551.16876 337.78683 550.7625 337.3962Q550.35626 336.98996 549.7625 336.98996Q549.15314 336.98996 548.7469 337.38058Q548.35626 337.7712 548.35626 338.30246ZM548.02814 342.2712Q548.02814 342.72433 548.23126 343.1462Q548.45 343.56808 548.8719 343.80246Q549.29376 344.03683 549.77814 344.03683Q550.52814 344.03683 551.0125 343.55246Q551.5125 343.06808 551.5125 342.31808Q551.5125 341.55246 551.0125 341.05246Q550.5125 340.55246 549.7469 340.55246Q548.9969 340.55246 548.5125 341.05246Q548.02814 341.53683 548.02814 342.2712ZM554.0125 337.28683L554.0125 336.2712L559.575 336.2712L559.575 337.09933Q558.7625 337.97433 557.95 339.42746Q557.15314 340.86496 556.71564 342.3962Q556.3875 343.47433 556.3094 344.75558L555.21564 344.75558Q555.23126 343.73996 555.60626 342.30246Q555.9969 340.86496 556.7 339.53683Q557.41876 338.2087 558.23126 337.28683L554.0125 337.28683ZM561.54376 344.75558L561.54376 343.55246L562.7469 343.55246L562.7469 344.75558L561.54376 344.75558ZM569.41876 338.2712L568.3719 338.34933Q568.23126 337.72433 567.98126 337.44308Q567.54376 336.98996 566.91876 336.98996Q566.41876 336.98996 566.02814 337.2712Q565.54376 337.6462 565.2469 338.34933Q564.96564 339.03683 564.95 340.31808Q565.325 339.73996 565.8719 339.4587Q566.4344 339.17746 567.04376 339.17746Q568.09064 339.17746 568.825 339.9587Q569.575 340.73996 569.575 341.9587Q569.575 342.7712 569.21564 343.47433Q568.8719 344.16183 568.2625 344.53683Q567.65314 344.8962 566.8875 344.8962Q565.5594 344.8962 564.73126 343.92746Q563.90314 342.9587 563.90314 340.73996Q563.90314 338.23996 564.825 337.11496Q565.6219 336.13058 566.98126 336.13058Q567.9969 336.13058 568.6375 336.7087Q569.29376 337.2712 569.41876 338.2712ZM565.1219 341.97433Q565.1219 342.5212 565.34064 343.0212Q565.575 343.50558 565.98126 343.7712Q566.40314 344.03683 566.8719 344.03683Q567.52814 344.03683 568.0125 343.50558Q568.4969 342.9587 568.4969 342.03683Q568.4969 341.1462 568.0125 340.63058Q567.54376 340.11496 566.825 340.11496Q566.10626 340.11496 565.60626 340.63058Q565.1219 341.1462 565.1219 341.97433ZM571.15314 338.22433Q571.15314 337.30246 571.60626 336.66183Q572.075 336.0212 572.95 336.0212Q573.7625 336.0212 574.29376 336.59933Q574.825 337.17746 574.825 338.28683Q574.825 339.38058 574.27814 339.97433Q573.7469 340.55246 572.96564 340.55246Q572.1844 340.55246 571.66876 339.97433Q571.15314 339.3962 571.15314 338.22433ZM572.98126 336.73996Q572.59064 336.73996 572.325 337.0837Q572.075 337.42746 572.075 338.3337Q572.075 339.16183 572.325 339.50558Q572.59064 339.8337 572.98126 339.8337Q573.3875 339.8337 573.6375 339.48996Q573.90314 339.1462 573.90314 338.25558Q573.90314 337.41183 573.6375 337.0837Q573.3719 336.73996 572.98126 336.73996ZM572.98126 345.06808L577.6844 336.0212L578.54376 336.0212L573.85626 345.06808L572.98126 345.06808ZM576.7 342.73996Q576.7 341.81808 577.15314 341.17746Q577.6219 340.53683 578.5125 340.53683Q579.325 340.53683 579.85626 341.11496Q580.3875 341.67746 580.3875 342.80246Q580.3875 343.8962 579.84064 344.48996Q579.3094 345.06808 578.5125 345.06808Q577.7469 345.06808 577.21564 344.48996Q576.7 343.91183 576.7 342.73996ZM578.54376 341.25558Q578.1375 341.25558 577.8719 341.59933Q577.6219 341.94308 577.6219 342.84933Q577.6219 343.66183 577.8875 344.00558Q578.15314 344.34933 578.54376 344.34933Q578.9344 344.34933 579.2 344.00558Q579.46564 343.66183 579.46564 342.75558Q579.46564 341.92746 579.2 341.59933Q578.9344 341.25558 578.54376 341.25558Z" fill-rule="nonzero"/><path stroke="#757575" stroke-width="1.0" stroke-linecap="butt" d="M581.45 332.25558L472.95 332.25558L360.14612 332.25558" fill-rule="nonzero"/><path fill="#9e9e9e" d="M362.14612 332.25558C362.14612 331.151 361.25067 330.25558 360.14612 330.25558C359.04153 330.25558 358.14612 331.151 358.14612 332.25558C358.14612 333.36014 359.04153 334.25558 360.14612 334.25558C361.25067 334.25558 362.14612 333.36014 362.14612 332.25558" fill-rule="nonzero"/></svg>