<svg version="1.1" viewBox="0.0 0.0 600.0 371.0" fill="none" stroke="none" stroke-linecap="square" stroke-miterlimit="10" width="600" height="371" xmlns:xlink="http://www.w3.org/1999/xlink" xmlns="http://www.w3.org/2000/svg"><path fill="#ffffff" d="M0 0L600.0 0L600.0 371.0L0 371.0L0 0Z" fill-rule="nonzero"/><path fill="#4285f4" d="M300.0 18.55C350.807 18.55 398.84912 41.685867 430.52676 81.40838L300.0 185.5Z" fill-rule="nonzero"/><path fill="#ea4335" d="M430.52676 81.40838C444.41467 98.82327 454.67728 118.84122 460.7101 140.28319L300.0 185.5Z" fill-rule="nonzero"/><path fill="#f7b4ae" d="M283.37714 19.379612C288.90085 18.826881 294.4487 18.55 300.0 18.55L300.0 185.5Z" fill-rule="nonzero"/><path fill="#b3cefb" d="M266.9195 21.860203C272.36072 20.760235 277.85342 19.932343 283.37714 19.379612L300.0 185.5Z" fill-rule="nonzero"/><path fill="#7ed1d7" d="M250.79062 25.96712C256.0953 24.330847 261.47827 22.96017 266.9195 21.860203L300.0 185.5Z" fill-rule="nonzero"/><path fill="#ff994d" d="M235.15082 31.659546C240.2662 29.50323 245.48596 27.603394 250.79062 25.96712L300.0 185.5Z" fill-rule="nonzero"/><path fill="#71c287" d="M192.68661 57.60888C205.46542 46.886177 219.77914 38.139248 235.15082 31.659546L300.0 185.5Z" fill-rule="nonzero"/><path fill="#fcd04f" d="M180.48602 68.92936C184.36215 64.955376 188.43407 61.177185 192.68661 57.60888L300.0 185.5Z" fill-rule="nonzero"/><path fill="#f07b72" d="M151.4359 109.33563C159.0462 94.49118 168.83835 80.87114 180.48602 68.92936L300.0 185.5Z" fill-rule="nonzero"/><path fill="#7baaf7" d="M134.34566 206.25919C130.17374 172.96802 136.12933 139.19221 151.4359 109.33563L300.0 185.5Z" fill-rule="nonzero"/><path fill="#46bdc6" d="M137.23578 222.64987C136.0005 217.23776 135.03593 211.7674 134.34566 206.25919L300.0 185.5Z" fill-rule="nonzero"/><path fill="#ff6d01" d="M141.74353 238.67134C139.97551 233.40912 138.47107 228.06198 137.23578 222.64987L300.0 185.5Z" fill-rule="nonzero"/><path fill="#34a853" d="M147.8241 254.16438C145.54092 249.10434 143.51155 243.93358 141.74353 238.67134L300.0 185.5Z" fill-rule="nonzero"/><path fill="#fbbc04" d="M460.7101 140.28319C484.37186 224.38194 439.19562 312.5014 357.10025 342.38168C275.0049 372.26196 183.75581 333.79724 147.8241 254.16438L300.0 185.5Z" fill-rule="nonzero"/><path fill="#1a1a1a" d="M19.346874 31.940624L19.346874 23.33125L20.3 23.33125L20.3 24.128124Q20.64375 23.659374 21.065624 23.425Q21.503124 23.190624 22.1125 23.190624Q22.909374 23.190624 23.51875 23.596874Q24.128124 24.003124 24.425 24.753124Q24.7375 25.503124 24.7375 26.39375Q24.7375 27.346874 24.39375 28.1125Q24.065624 28.878124 23.409374 29.284374Q22.753124 29.690624 22.034374 29.690624Q21.503124 29.690624 21.08125 29.471874Q20.659374 29.2375 20.39375 28.909374L20.39375 31.940624L19.346874 31.940624ZM20.3 26.471874Q20.3 27.675 20.784374 28.253124Q21.26875 28.815624 21.95625 28.815624Q22.659374 28.815624 23.159374 28.221874Q23.659374 27.628124 23.659374 26.378124Q23.659374 25.190624 23.175 24.6125Q22.690624 24.01875 22.003124 24.01875Q21.33125 24.01875 20.815624 24.64375Q20.3 25.26875 20.3 26.471874ZM26.33125 29.55L26.33125 23.33125L27.284374 23.33125L27.284374 24.26875Q27.64375 23.6125 27.940624 23.409374Q28.253124 23.190624 28.628124 23.190624Q29.159374 23.190624 29.70625 23.51875L29.346874 24.503124Q28.95625 24.26875 28.58125 24.26875Q28.221874 24.26875 27.940624 24.4875Q27.675 24.690624 27.565624 25.065624Q27.378124 25.628124 27.378124 26.284374L27.378124 29.55L26.33125 29.55ZM29.95625 26.440624Q29.95625 24.70625 30.909374 23.878124Q31.70625 23.190624 32.8625 23.190624Q34.14375 23.190624 34.95625 24.034374Q35.784374 24.8625 35.784374 26.346874Q35.784374 27.55 35.425 28.2375Q35.065624 28.925 34.3625 29.315624Q33.675 29.690624 32.8625 29.690624Q31.565624 29.690624 30.753124 28.8625Q29.95625 28.01875 29.95625 26.440624ZM31.034374 26.440624Q31.034374 27.628124 31.55 28.221874Q32.08125 28.815624 32.8625 28.815624Q33.659374 28.815624 34.175 28.221874Q34.690624 27.628124 34.690624 26.409374Q34.690624 25.253124 34.159374 24.659374Q33.64375 24.065624 32.8625 24.065624Q32.08125 24.065624 31.55 24.659374Q31.034374 25.2375 31.034374 26.440624ZM41.378124 29.55L41.378124 28.76875Q40.784374 29.690624 39.64375 29.690624Q38.89375 29.690624 38.26875 29.284374Q37.64375 28.8625 37.3 28.128124Q36.95625 27.39375 36.95625 26.440624Q36.95625 25.51875 37.26875 24.753124Q37.58125 23.9875 38.20625 23.596874Q38.83125 23.190624 39.596874 23.190624Q40.159374 23.190624 40.596874 23.425Q41.034374 23.659374 41.315624 24.034374L41.315624 20.95625L42.3625 20.95625L42.3625 29.55L41.378124 29.55ZM38.05 26.440624Q38.05 27.64375 38.55 28.2375Q39.05 28.815624 39.7375 28.815624Q40.425 28.815624 40.909374 28.253124Q41.39375 27.690624 41.39375 26.534374Q41.39375 25.253124 40.89375 24.659374Q40.409374 24.065624 39.690624 24.065624Q38.9875 24.065624 38.51875 24.64375Q38.05 25.20625 38.05 26.440624ZM48.425 29.55L48.425 28.628124Q47.690624 29.690624 46.440624 29.690624Q45.89375 29.690624 45.409374 29.4875Q44.940624 29.26875 44.70625 28.95625Q44.471874 28.628124 44.378124 28.159374Q44.315624 27.8625 44.315624 27.175L44.315624 23.33125L45.378124 23.33125L45.378124 26.784374Q45.378124 27.596874 45.440624 27.89375Q45.534374 28.3 45.846874 28.55Q46.175 28.784374 46.659374 28.784374Q47.128124 28.784374 47.534374 28.55Q47.95625 28.3 48.128124 27.878124Q48.315624 27.45625 48.315624 26.659374L48.315624 23.33125L49.3625 23.33125L49.3625 29.55L48.425 29.55ZM55.409374 27.26875L56.440624 27.409374Q56.26875 28.471874 55.565624 29.08125Q54.8625 29.690624 53.846874 29.690624Q52.565624 29.690624 51.784374 28.8625Q51.01875 28.01875 51.01875 26.45625Q51.01875 25.45625 51.346874 24.70625Q51.690624 23.940624 52.3625 23.565624Q53.05 23.190624 53.8625 23.190624Q54.8625 23.190624 55.503124 23.70625Q56.159374 24.20625 56.346874 25.159374L55.315624 25.315624Q55.175 24.690624 54.8 24.378124Q54.425 24.05 53.89375 24.05Q53.096874 24.05 52.596874 24.628124Q52.096874 25.190624 52.096874 26.425Q52.096874 27.690624 52.58125 28.253124Q53.065624 28.815624 53.83125 28.815624Q54.45625 28.815624 54.8625 28.440624Q55.284374 28.065624 55.409374 27.26875ZM59.64375 28.6125L59.8 29.534374Q59.346874 29.628124 59.003124 29.628124Q58.425 29.628124 58.1125 29.45625Q57.8 29.26875 57.659374 28.971874Q57.534374 28.675 57.534374 27.721874L57.534374 24.14375L56.76875 24.14375L56.76875 23.33125L57.534374 23.33125L57.534374 21.784374L58.58125 21.159374L58.58125 23.33125L59.64375 23.33125L59.64375 24.14375L58.58125 24.14375L58.58125 27.784374Q58.58125 28.2375 58.628124 28.3625Q58.690624 28.4875 58.815624 28.565624Q58.940624 28.64375 59.175 28.64375Q59.3625 28.64375 59.64375 28.6125ZM60.346874 22.175L60.346874 20.95625L61.409374 20.95625L61.409374 22.175L60.346874 22.175ZM60.346874 29.55L60.346874 23.33125L61.409374 23.33125L61.409374 29.55L60.346874 29.55ZM62.95625 26.440624Q62.95625 24.70625 63.909374 23.878124Q64.70625 23.190624 65.8625 23.190624Q67.14375 23.190624 67.95625 24.034374Q68.78438 24.8625 68.78438 26.346874Q68.78438 27.55 68.425 28.2375Q68.06563 28.925 67.3625 29.315624Q66.675 29.690624 65.8625 29.690624Q64.56563 29.690624 63.753124 28.8625Q62.95625 28.01875 62.95625 26.440624ZM64.03438 26.440624Q64.03438 27.628124 64.55 28.221874Q65.08125 28.815624 65.8625 28.815624Q66.65938 28.815624 67.175 28.221874Q67.69063 27.628124 67.69063 26.409374Q67.69063 25.253124 67.15938 24.659374Q66.64375 24.065624 65.8625 24.065624Q65.08125 24.065624 64.55 24.659374Q64.03438 25.2375 64.03438 26.440624ZM70.34688 29.55L70.34688 23.33125L71.28438 23.33125L71.28438 24.20625Q71.97188 23.190624 73.26875 23.190624Q73.83125 23.190624 74.3 23.39375Q74.78438 23.596874 75.01875 23.925Q75.25313 24.253124 75.34688 24.690624Q75.39375 24.9875 75.39375 25.721874L75.39375 29.55L74.34688 29.55L74.34688 25.76875Q74.34688 25.1125 74.22188 24.8Q74.09688 24.4875 73.78438 24.3Q73.47188 24.096874 73.05 24.096874Q72.37813 24.096874 71.87813 24.534374Q71.39375 24.95625 71.39375 26.14375L71.39375 29.55L70.34688 29.55Z" fill-rule="nonzero"/><path fill="#9e9e9e" d="M23.01875 46.55L21.971874 46.55L21.971874 39.83125Q21.58125 40.190624 20.95625 40.565624Q20.346874 40.925 19.8625 41.096874L19.8625 40.08125Q20.7375 39.659374 21.39375 39.08125Q22.065624 38.4875 22.346874 37.925L23.01875 37.925L23.01875 46.55ZM26.64375 46.55L26.64375 45.346874L27.846874 45.346874L27.846874 46.55L26.64375 46.55ZM34.51875 40.065624L33.471874 40.14375Q33.33125 39.51875 33.08125 39.2375Q32.64375 38.784374 32.01875 38.784374Q31.51875 38.784374 31.128124 39.065624Q30.64375 39.440624 30.346874 40.14375Q30.065624 40.83125 30.05 42.1125Q30.425 41.534374 30.971874 41.253124Q31.534374 40.971874 32.14375 40.971874Q33.190624 40.971874 33.925 41.753124Q34.675 42.534374 34.675 43.753124Q34.675 44.565624 34.315624 45.26875Q33.971874 45.95625 33.3625 46.33125Q32.753124 46.690624 31.9875 46.690624Q30.659374 46.690624 29.83125 45.721874Q29.003124 44.753124 29.003124 42.534374Q29.003124 40.034374 29.925 38.909374Q30.721874 37.925 32.08125 37.925Q33.096874 37.925 33.7375 38.503124Q34.39375 39.065624 34.51875 40.065624ZM30.221874 43.76875Q30.221874 44.315624 30.440624 44.815624Q30.675 45.3 31.08125 45.565624Q31.503124 45.83125 31.971874 45.83125Q32.628124 45.83125 33.1125 45.3Q33.596874 44.753124 33.596874 43.83125Q33.596874 42.940624 33.1125 42.425Q32.64375 41.909374 31.925 41.909374Q31.20625 41.909374 30.70625 42.425Q30.221874 42.940624 30.221874 43.76875ZM36.253124 40.01875Q36.253124 39.096874 36.70625 38.45625Q37.175 37.815624 38.05 37.815624Q38.8625 37.815624 39.39375 38.39375Q39.925 38.971874 39.925 40.08125Q39.925 41.175 39.378124 41.76875Q38.846874 42.346874 38.065624 42.346874Q37.284374 42.346874 36.76875 41.76875Q36.253124 41.190624 36.253124 40.01875ZM38.08125 38.534374Q37.690624 38.534374 37.425 38.878124Q37.175 39.221874 37.175 40.128124Q37.175 40.95625 37.425 41.3Q37.690624 41.628124 38.08125 41.628124Q38.4875 41.628124 38.7375 41.284374Q39.003124 40.940624 39.003124 40.05Q39.003124 39.20625 38.7375 38.878124Q38.471874 38.534374 38.08125 38.534374ZM38.08125 46.8625L42.784374 37.815624L43.64375 37.815624L38.95625 46.8625L38.08125 46.8625ZM41.8 44.534374Q41.8 43.6125 42.253124 42.971874Q42.721874 42.33125 43.6125 42.33125Q44.425 42.33125 44.95625 42.909374Q45.4875 43.471874 45.4875 44.596874Q45.4875 45.690624 44.940624 46.284374Q44.409374 46.8625 43.6125 46.8625Q42.846874 46.8625 42.315624 46.284374Q41.8 45.70625 41.8 44.534374ZM43.64375 43.05Q43.2375 43.05 42.971874 43.39375Q42.721874 43.7375 42.721874 44.64375Q42.721874 45.45625 42.9875 45.8Q43.253124 46.14375 43.64375 46.14375Q44.034374 46.14375 44.3 45.8Q44.565624 45.45625 44.565624 44.55Q44.565624 43.721874 44.3 43.39375Q44.034374 43.05 43.64375 43.05Z" fill-rule="nonzero"/><path stroke="#757575" stroke-width="1.0" stroke-linecap="butt" d="M18.55 34.05L127.05 34.05L292.09433 27.094656" fill-rule="nonzero"/><path fill="#9e9e9e" d="M294.09433 27.094656C294.09433 25.990086 293.19888 25.094656 292.09433 25.094656C290.98975 25.094656 290.09433 25.990086 290.09433 27.094656C290.09433 28.199224 290.98975 29.094656 292.09433 29.094656C293.19888 29.094656 294.09433 28.199224 294.09433 27.094656" fill-rule="nonzero"/><path fill="#1a1a1a" d="M19.346874 62.940624L19.346874 54.33125L20.3 54.33125L20.3 55.128124Q20.64375 54.659374 21.065624 54.425Q21.503124 54.190624 22.1125 54.190624Q22.909374 54.190624 23.51875 54.596874Q24.128124 55.003124 24.425 55.753124Q24.7375 56.503124 24.7375 57.39375Q24.7375 58.346874 24.39375 59.1125Q24.065624 59.878124 23.409374 60.284374Q22.753124 60.690624 22.034374 60.690624Q21.503124 60.690624 21.08125 60.471874Q20.659374 60.2375 20.39375 59.909374L20.39375 62.940624L19.346874 62.940624ZM20.3 57.471874Q20.3 58.675 20.784374 59.253124Q21.26875 59.815624 21.95625 59.815624Q22.659374 59.815624 23.159374 59.221874Q23.659374 58.628124 23.659374 57.378124Q23.659374 56.190624 23.175 55.6125Q22.690624 55.01875 22.003124 55.01875Q21.33125 55.01875 20.815624 55.64375Q20.3 56.26875 20.3 57.471874ZM26.33125 60.55L26.33125 54.33125L27.284374 54.33125L27.284374 55.26875Q27.64375 54.6125 27.940624 54.409374Q28.253124 54.190624 28.628124 54.190624Q29.159374 54.190624 29.70625 54.51875L29.346874 55.503124Q28.95625 55.26875 28.58125 55.26875Q28.221874 55.26875 27.940624 55.4875Q27.675 55.690624 27.565624 56.065624Q27.378124 56.628124 27.378124 57.284374L27.378124 60.55L26.33125 60.55ZM30.346874 53.175L30.346874 51.95625L31.409374 51.95625L31.409374 53.175L30.346874 53.175ZM30.346874 60.55L30.346874 54.33125L31.409374 54.33125L31.409374 60.55L30.346874 60.55ZM33.346874 60.55L33.346874 54.33125L34.284374 54.33125L34.284374 55.20625Q34.58125 54.7375 35.065624 54.471874Q35.55 54.190624 36.175 54.190624Q36.8625 54.190624 37.3 54.471874Q37.753124 54.753124 37.925 55.26875Q38.675 54.190624 39.846874 54.190624Q40.784374 54.190624 41.26875 54.70625Q41.76875 55.20625 41.76875 56.284374L41.76875 60.55L40.721874 60.55L40.721874 56.628124Q40.721874 56.003124 40.6125 55.721874Q40.51875 55.440624 40.253124 55.26875Q39.9875 55.096874 39.6125 55.096874Q38.95625 55.096874 38.51875 55.534374Q38.096874 55.971874 38.096874 56.940624L38.096874 60.55L37.034374 60.55L37.034374 56.503124Q37.034374 55.8 36.76875 55.45625Q36.51875 55.096874 35.940624 55.096874Q35.4875 55.096874 35.1125 55.33125Q34.7375 55.565624 34.565624 56.01875Q34.39375 56.471874 34.39375 57.315624L34.39375 60.55L33.346874 60.55ZM47.409374 59.784374Q46.815624 60.284374 46.26875 60.4875Q45.7375 60.690624 45.1125 60.690624Q44.08125 60.690624 43.534374 60.190624Q42.9875 59.690624 42.9875 58.909374Q42.9875 58.45625 43.190624 58.08125Q43.39375 57.690624 43.7375 57.471874Q44.08125 57.2375 44.503124 57.128124Q44.8 57.034374 45.440624 56.95625Q46.70625 56.815624 47.315624 56.596874Q47.315624 56.378124 47.315624 56.33125Q47.315624 55.675 47.01875 55.409374Q46.6125 55.065624 45.815624 55.065624Q45.08125 55.065624 44.721874 55.33125Q44.3625 55.58125 44.190624 56.2375L43.159374 56.096874Q43.3 55.440624 43.628124 55.034374Q43.95625 54.628124 44.565624 54.409374Q45.175 54.190624 45.971874 54.190624Q46.76875 54.190624 47.26875 54.378124Q47.76875 54.565624 48.003124 54.846874Q48.2375 55.128124 48.33125 55.565624Q48.378124 55.83125 48.378124 56.534374L48.378124 57.940624Q48.378124 59.409374 48.440624 59.8Q48.51875 60.190624 48.721874 60.55L47.6125 60.55Q47.45625 60.221874 47.409374 59.784374ZM47.315624 57.425Q46.7375 57.659374 45.596874 57.83125Q44.940624 57.925 44.675 58.05Q44.409374 58.159374 44.253124 58.378124Q44.1125 58.596874 44.1125 58.878124Q44.1125 59.3 44.425 59.58125Q44.753124 59.8625 45.3625 59.8625Q45.971874 59.8625 46.440624 59.596874Q46.925 59.33125 47.14375 58.8625Q47.315624 58.503124 47.315624 57.815624L47.315624 57.425ZM50.33125 60.55L50.33125 54.33125L51.284374 54.33125L51.284374 55.26875Q51.64375 54.6125 51.940624 54.409374Q52.253124 54.190624 52.628124 54.190624Q53.159374 54.190624 53.70625 54.51875L53.346874 55.503124Q52.95625 55.26875 52.58125 55.26875Q52.221874 55.26875 51.940624 55.4875Q51.675 55.690624 51.565624 56.065624Q51.378124 56.628124 51.378124 57.284374L51.378124 60.55L50.33125 60.55ZM54.3 62.940624L54.175 61.95625Q54.51875 62.05 54.784374 62.05Q55.128124 62.05 55.33125 61.925Q55.55 61.815624 55.690624 61.6125Q55.784374 61.440624 56.01875 60.815624Q56.034374 60.7375 56.1125 60.565624L53.7375 54.33125L54.878124 54.33125L56.175 57.925Q56.425 58.6125 56.628124 59.378124Q56.815624 58.64375 57.065624 57.95625L58.39375 54.33125L59.440624 54.33125L57.08125 60.659374Q56.690624 61.675 56.4875 62.065624Q56.20625 62.596874 55.83125 62.83125Q55.471874 63.08125 54.971874 63.08125Q54.675 63.08125 54.3 62.940624Z" fill-rule="nonzero"/><path fill="#9e9e9e" d="M22.425 77.55L22.425 75.4875L18.70625 75.4875L18.70625 74.51875L22.628124 68.95625L23.4875 68.95625L23.4875 74.51875L24.64375 74.51875L24.64375 75.4875L23.4875 75.4875L23.4875 77.55L22.425 77.55ZM22.425 74.51875L22.425 70.65938L19.7375 74.51875L22.425 74.51875ZM26.64375 77.55L26.64375 76.34688L27.846874 76.34688L27.846874 77.55L26.64375 77.55ZM30.675 72.89375Q30.01875 72.64375 29.690624 72.20625Q29.378124 71.75313 29.378124 71.14375Q29.378124 70.20625 30.05 69.56563Q30.7375 68.925 31.846874 68.925Q32.971874 68.925 33.659374 69.58125Q34.346874 70.2375 34.346874 71.175Q34.346874 71.76875 34.034374 72.20625Q33.721874 72.64375 33.08125 72.89375Q33.878124 73.14375 34.284374 73.72188Q34.690624 74.3 34.690624 75.09688Q34.690624 76.19063 33.909374 76.94063Q33.14375 77.69063 31.8625 77.69063Q30.596874 77.69063 29.815624 76.94063Q29.034374 76.19063 29.034374 75.06563Q29.034374 74.22188 29.45625 73.65938Q29.89375 73.09688 30.675 72.89375ZM30.45625 71.09688Q30.45625 71.70625 30.846874 72.09688Q31.253124 72.4875 31.878124 72.4875Q32.4875 72.4875 32.878124 72.1125Q33.26875 71.72188 33.26875 71.15938Q33.26875 70.58125 32.8625 70.19063Q32.45625 69.78438 31.8625 69.78438Q31.253124 69.78438 30.846874 70.175Q30.45625 70.56563 30.45625 71.09688ZM30.128124 75.06563Q30.128124 75.51875 30.33125 75.94063Q30.55 76.3625 30.971874 76.59688Q31.39375 76.83125 31.878124 76.83125Q32.628124 76.83125 33.1125 76.34688Q33.6125 75.8625 33.6125 75.1125Q33.6125 74.34688 33.1125 73.84688Q32.6125 73.34688 31.846874 73.34688Q31.096874 73.34688 30.6125 73.84688Q30.128124 74.33125 30.128124 75.06563ZM36.253124 71.01875Q36.253124 70.09688 36.70625 69.45625Q37.175 68.81563 38.05 68.81563Q38.8625 68.81563 39.39375 69.39375Q39.925 69.97188 39.925 71.08125Q39.925 72.175 39.378124 72.76875Q38.846874 73.34688 38.065624 73.34688Q37.284374 73.34688 36.76875 72.76875Q36.253124 72.19063 36.253124 71.01875ZM38.08125 69.53438Q37.690624 69.53438 37.425 69.87813Q37.175 70.22188 37.175 71.12813Q37.175 71.95625 37.425 72.3Q37.690624 72.62813 38.08125 72.62813Q38.4875 72.62813 38.7375 72.28438Q39.003124 71.94063 39.003124 71.05Q39.003124 70.20625 38.7375 69.87813Q38.471874 69.53438 38.08125 69.53438ZM38.08125 77.8625L42.784374 68.81563L43.64375 68.81563L38.95625 77.8625L38.08125 77.8625ZM41.8 75.53438Q41.8 74.6125 42.253124 73.97188Q42.721874 73.33125 43.6125 73.33125Q44.425 73.33125 44.95625 73.90938Q45.4875 74.47188 45.4875 75.59688Q45.4875 76.69063 44.940624 77.28438Q44.409374 77.8625 43.6125 77.8625Q42.846874 77.8625 42.315624 77.28438Q41.8 76.70625 41.8 75.53438ZM43.64375 74.05Q43.2375 74.05 42.971874 74.39375Q42.721874 74.7375 42.721874 75.64375Q42.721874 76.45625 42.9875 76.8Q43.253124 77.14375 43.64375 77.14375Q44.034374 77.14375 44.3 76.8Q44.565624 76.45625 44.565624 75.55Q44.565624 74.72188 44.3 74.39375Q44.034374 74.05 43.64375 74.05Z" fill-rule="nonzero"/><path stroke="#757575" stroke-width="1.0" stroke-linecap="butt" d="M18.55 65.05L127.05 65.05L217.29907 50.16593" fill-rule="nonzero"/><path fill="#9e9e9e" d="M219.29907 50.16593C219.29907 49.061363 218.40364 48.16593 217.29907 48.16593C216.1945 48.16593 215.29907 49.061363 215.29907 50.16593C215.29907 51.270504 216.1945 52.16593 217.29907 52.16593C218.40364 52.16593 219.29907 51.270504 219.29907 50.16593" fill-rule="nonzero"/><path fill="#1a1a1a" d="M19.471874 91.55L19.471874 82.95625L20.628124 82.95625L25.14375 89.70625L25.14375 82.95625L26.2375 82.95625L26.2375 91.55L25.065624 91.55L20.55 84.8L20.55 91.55L19.471874 91.55ZM27.95625 88.44063Q27.95625 86.70625 28.909374 85.87813Q29.70625 85.19063 30.8625 85.19063Q32.14375 85.19063 32.95625 86.03438Q33.784374 86.8625 33.784374 88.34688Q33.784374 89.55 33.425 90.2375Q33.065624 90.925 32.3625 91.31563Q31.675 91.69063 30.8625 91.69063Q29.565624 91.69063 28.753124 90.8625Q27.95625 90.01875 27.95625 88.44063ZM29.034374 88.44063Q29.034374 89.62813 29.55 90.22188Q30.08125 90.81563 30.8625 90.81563Q31.659374 90.81563 32.175 90.22188Q32.690624 89.62813 32.690624 88.40938Q32.690624 87.25313 32.159374 86.65938Q31.64375 86.06563 30.8625 86.06563Q30.08125 86.06563 29.55 86.65938Q29.034374 87.2375 29.034374 88.44063ZM35.346874 91.55L35.346874 85.33125L36.284374 85.33125L36.284374 86.20625Q36.971874 85.19063 38.26875 85.19063Q38.83125 85.19063 39.3 85.39375Q39.784374 85.59688 40.01875 85.925Q40.253124 86.25313 40.346874 86.69063Q40.39375 86.9875 40.39375 87.72188L40.39375 91.55L39.346874 91.55L39.346874 87.76875Q39.346874 87.1125 39.221874 86.8Q39.096874 86.4875 38.784374 86.3Q38.471874 86.09688 38.05 86.09688Q37.378124 86.09688 36.878124 86.53438Q36.39375 86.95625 36.39375 88.14375L36.39375 91.55L35.346874 91.55ZM46.596874 89.55L47.690624 89.675Q47.440624 90.62813 46.7375 91.15938Q46.034374 91.69063 44.95625 91.69063Q43.596874 91.69063 42.784374 90.84688Q41.9875 90.00313 41.9875 88.4875Q41.9875 86.925 42.8 86.06563Q43.6125 85.19063 44.89375 85.19063Q46.14375 85.19063 46.925 86.03438Q47.721874 86.87813 47.721874 88.425Q47.721874 88.51875 47.721874 88.70625L43.08125 88.70625Q43.14375 89.7375 43.659374 90.28438Q44.175 90.81563 44.95625 90.81563Q45.534374 90.81563 45.940624 90.51875Q46.3625 90.20625 46.596874 89.55ZM43.14375 87.84688L46.6125 87.84688Q46.55 87.05 46.221874 86.65938Q45.70625 86.05 44.909374 86.05Q44.175 86.05 43.675 86.53438Q43.190624 87.01875 43.14375 87.84688ZM51.95625 88.44063Q51.95625 86.70625 52.909374 85.87813Q53.70625 85.19063 54.8625 85.19063Q56.14375 85.19063 56.95625 86.03438Q57.784374 86.8625 57.784374 88.34688Q57.784374 89.55 57.425 90.2375Q57.065624 90.925 56.3625 91.31563Q55.675 91.69063 54.8625 91.69063Q53.565624 91.69063 52.753124 90.8625Q51.95625 90.01875 51.95625 88.44063ZM53.034374 88.44063Q53.034374 89.62813 53.55 90.22188Q54.08125 90.81563 54.8625 90.81563Q55.659374 90.81563 56.175 90.22188Q56.690624 89.62813 56.690624 88.40938Q56.690624 87.25313 56.159374 86.65938Q55.64375 86.06563 54.8625 86.06563Q54.08125 86.06563 53.55 86.65938Q53.034374 87.2375 53.034374 88.44063ZM59.596874 91.55L59.596874 86.14375L58.659374 86.14375L58.659374 85.33125L59.596874 85.33125L59.596874 84.65938Q59.596874 84.03438 59.70625 83.7375Q59.8625 83.31563 60.2375 83.06563Q60.628124 82.81563 61.315624 82.81563Q61.76875 82.81563 62.3 82.925L62.14375 83.83125Q61.815624 83.78438 61.51875 83.78438Q61.034374 83.78438 60.83125 83.9875Q60.64375 84.19063 60.64375 84.75313L60.64375 85.33125L61.8625 85.33125L61.8625 86.14375L60.64375 86.14375L60.64375 91.55L59.596874 91.55ZM67.64375 90.6125L67.8 91.53438Q67.34688 91.62813 67.00313 91.62813Q66.425 91.62813 66.1125 91.45625Q65.8 91.26875 65.65938 90.97188Q65.53438 90.675 65.53438 89.72188L65.53438 86.14375L64.76875 86.14375L64.76875 85.33125L65.53438 85.33125L65.53438 83.78438L66.58125 83.15938L66.58125 85.33125L67.64375 85.33125L67.64375 86.14375L66.58125 86.14375L66.58125 89.78438Q66.58125 90.2375 66.62813 90.3625Q66.69063 90.4875 66.81563 90.56563Q66.94063 90.64375 67.175 90.64375Q67.3625 90.64375 67.64375 90.6125ZM68.34688 91.55L68.34688 82.95625L69.39375 82.95625L69.39375 86.03438Q70.12813 85.19063 71.25313 85.19063Q71.95625 85.19063 72.45625 85.47188Q72.97188 85.7375 73.19063 86.22188Q73.40938 86.69063 73.40938 87.6125L73.40938 91.55L72.3625 91.55L72.3625 87.6125Q72.3625 86.81563 72.01875 86.45625Q71.675 86.09688 71.05 86.09688Q70.58125 86.09688 70.15938 86.34688Q69.75313 86.58125 69.56563 87.00313Q69.39375 87.40938 69.39375 88.14375L69.39375 91.55L68.34688 91.55ZM79.59688 89.55L80.69063 89.675Q80.44063 90.62813 79.7375 91.15938Q79.03438 91.69063 77.95625 91.69063Q76.59688 91.69063 75.78438 90.84688Q74.9875 90.00313 74.9875 88.4875Q74.9875 86.925 75.8 86.06563Q76.6125 85.19063 77.89375 85.19063Q79.14375 85.19063 79.925 86.03438Q80.72188 86.87813 80.72188 88.425Q80.72188 88.51875 80.72188 88.70625L76.08125 88.70625Q76.14375 89.7375 76.65938 90.28438Q77.175 90.81563 77.95625 90.81563Q78.53438 90.81563 78.94063 90.51875Q79.3625 90.20625 79.59688 89.55ZM76.14375 87.84688L79.6125 87.84688Q79.55 87.05 79.22188 86.65938Q78.70625 86.05 77.90938 86.05Q77.175 86.05 76.675 86.53438Q76.19063 87.01875 76.14375 87.84688ZM89.40938 90.78438Q88.81563 91.28438 88.26875 91.4875Q87.7375 91.69063 87.1125 91.69063Q86.08125 91.69063 85.53438 91.19063Q84.9875 90.69063 84.9875 89.90938Q84.9875 89.45625 85.19063 89.08125Q85.39375 88.69063 85.7375 88.47188Q86.08125 88.2375 86.50313 88.12813Q86.8 88.03438 87.44063 87.95625Q88.70625 87.81563 89.31563 87.59688Q89.31563 87.37813 89.31563 87.33125Q89.31563 86.675 89.01875 86.40938Q88.6125 86.06563 87.81563 86.06563Q87.08125 86.06563 86.72188 86.33125Q86.3625 86.58125 86.19063 87.2375L85.15938 87.09688Q85.3 86.44063 85.62813 86.03438Q85.95625 85.62813 86.56563 85.40938Q87.175 85.19063 87.97188 85.19063Q88.76875 85.19063 89.26875 85.37813Q89.76875 85.56563 90.00313 85.84688Q90.2375 86.12813 90.33125 86.56563Q90.37813 86.83125 90.37813 87.53438L90.37813 88.94063Q90.37813 90.40938 90.44063 90.8Q90.51875 91.19063 90.72188 91.55L89.6125 91.55Q89.45625 91.22188 89.40938 90.78438ZM89.31563 88.425Q88.7375 88.65938 87.59688 88.83125Q86.94063 88.925 86.675 89.05Q86.40938 89.15938 86.25313 89.37813Q86.1125 89.59688 86.1125 89.87813Q86.1125 90.3 86.425 90.58125Q86.75313 90.8625 87.3625 90.8625Q87.97188 90.8625 88.44063 90.59688Q88.925 90.33125 89.14375 89.8625Q89.31563 89.50313 89.31563 88.81563L89.31563 88.425ZM93.31563 91.55L92.33125 91.55L92.33125 82.95625L93.39375 82.95625L93.39375 86.01875Q94.06563 85.19063 95.09688 85.19063Q95.675 85.19063 96.175 85.425Q96.69063 85.64375 97.01875 86.06563Q97.3625 86.4875 97.55 87.08125Q97.7375 87.675 97.7375 88.34688Q97.7375 89.94063 96.94063 90.81563Q96.14375 91.69063 95.05 91.69063Q93.94063 91.69063 93.31563 90.76875L93.31563 91.55ZM93.3 88.39375Q93.3 89.50313 93.6125 90.00313Q94.1125 90.81563 94.95625 90.81563Q95.64375 90.81563 96.14375 90.22188Q96.65938 89.62813 96.65938 88.425Q96.65938 87.20625 96.175 86.62813Q95.69063 86.05 95.00313 86.05Q94.31563 86.05 93.8 86.65938Q93.3 87.25313 93.3 88.39375ZM98.95625 88.44063Q98.95625 86.70625 99.90938 85.87813Q100.70625 85.19063 101.8625 85.19063Q103.14375 85.19063 103.95625 86.03438Q104.78438 86.8625 104.78438 88.34688Q104.78438 89.55 104.425 90.2375Q104.06563 90.925 103.3625 91.31563Q102.675 91.69063 101.8625 91.69063Q100.56563 91.69063 99.75313 90.8625Q98.95625 90.01875 98.95625 88.44063ZM100.03438 88.44063Q100.03438 89.62813 100.55 90.22188Q101.08125 90.81563 101.8625 90.81563Q102.65938 90.81563 103.175 90.22188Q103.69063 89.62813 103.69063 88.40938Q103.69063 87.25313 103.15938 86.65938Q102.64375 86.06563 101.8625 86.06563Q101.08125 86.06563 100.55 86.65938Q100.03438 87.2375 100.03438 88.44063ZM108.06563 91.55L105.70625 85.33125L106.81563 85.33125L108.15938 89.05Q108.3625 89.65938 108.55 90.3Q108.69063 89.81563 108.94063 89.12813L110.33125 85.33125L111.40938 85.33125L109.05 91.55L108.06563 91.55ZM116.59688 89.55L117.69063 89.675Q117.44063 90.62813 116.7375 91.15938Q116.03438 91.69063 114.95625 91.69063Q113.59688 91.69063 112.78438 90.84688Q111.9875 90.00313 111.9875 88.4875Q111.9875 86.925 112.8 86.06563Q113.6125 85.19063 114.89375 85.19063Q116.14375 85.19063 116.925 86.03438Q117.72188 86.87813 117.72188 88.425Q117.72188 88.51875 117.72188 88.70625L113.08125 88.70625Q113.14375 89.7375 113.65938 90.28438Q114.175 90.81563 114.95625 90.81563Q115.53438 90.81563 115.94063 90.51875Q116.3625 90.20625 116.59688 89.55ZM113.14375 87.84688L116.6125 87.84688Q116.55 87.05 116.22188 86.65938Q115.70625 86.05 114.90938 86.05Q114.175 86.05 113.675 86.53438Q113.19063 87.01875 113.14375 87.84688Z" fill-rule="nonzero"/><path fill="#9e9e9e" d="M22.425 108.55L22.425 106.4875L18.70625 106.4875L18.70625 105.51875L22.628124 99.95625L23.4875 99.95625L23.4875 105.51875L24.64375 105.51875L24.64375 106.4875L23.4875 106.4875L23.4875 108.55L22.425 108.55ZM22.425 105.51875L22.425 101.65938L19.7375 105.51875L22.425 105.51875ZM26.64375 108.55L26.64375 107.34688L27.846874 107.34688L27.846874 108.55L26.64375 108.55ZM30.675 103.89375Q30.01875 103.64375 29.690624 103.20625Q29.378124 102.75313 29.378124 102.14375Q29.378124 101.20625 30.05 100.56563Q30.7375 99.925 31.846874 99.925Q32.971874 99.925 33.659374 100.58125Q34.346874 101.2375 34.346874 102.175Q34.346874 102.76875 34.034374 103.20625Q33.721874 103.64375 33.08125 103.89375Q33.878124 104.14375 34.284374 104.72188Q34.690624 105.3 34.690624 106.09688Q34.690624 107.19063 33.909374 107.94063Q33.14375 108.69063 31.8625 108.69063Q30.596874 108.69063 29.815624 107.94063Q29.034374 107.19063 29.034374 106.06563Q29.034374 105.22188 29.45625 104.65938Q29.89375 104.09688 30.675 103.89375ZM30.45625 102.09688Q30.45625 102.70625 30.846874 103.09688Q31.253124 103.4875 31.878124 103.4875Q32.4875 103.4875 32.878124 103.1125Q33.26875 102.72188 33.26875 102.15938Q33.26875 101.58125 32.8625 101.19063Q32.45625 100.78438 31.8625 100.78438Q31.253124 100.78438 30.846874 101.175Q30.45625 101.56563 30.45625 102.09688ZM30.128124 106.06563Q30.128124 106.51875 30.33125 106.94063Q30.55 107.3625 30.971874 107.59688Q31.39375 107.83125 31.878124 107.83125Q32.628124 107.83125 33.1125 107.34688Q33.6125 106.8625 33.6125 106.1125Q33.6125 105.34688 33.1125 104.84688Q32.6125 104.34688 31.846874 104.34688Q31.096874 104.34688 30.6125 104.84688Q30.128124 105.33125 30.128124 106.06563ZM36.253124 102.01875Q36.253124 101.09688 36.70625 100.45625Q37.175 99.81563 38.05 99.81563Q38.8625 99.81563 39.39375 100.39375Q39.925 100.97188 39.925 102.08125Q39.925 103.175 39.378124 103.76875Q38.846874 104.34688 38.065624 104.34688Q37.284374 104.34688 36.76875 103.76875Q36.253124 103.19063 36.253124 102.01875ZM38.08125 100.53438Q37.690624 100.53438 37.425 100.87813Q37.175 101.22188 37.175 102.12813Q37.175 102.95625 37.425 103.3Q37.690624 103.62813 38.08125 103.62813Q38.4875 103.62813 38.7375 103.28438Q39.003124 102.94063 39.003124 102.05Q39.003124 101.20625 38.7375 100.87813Q38.471874 100.53438 38.08125 100.53438ZM38.08125 108.8625L42.784374 99.81563L43.64375 99.81563L38.95625 108.8625L38.08125 108.8625ZM41.8 106.53438Q41.8 105.6125 42.253124 104.97188Q42.721874 104.33125 43.6125 104.33125Q44.425 104.33125 44.95625 104.90938Q45.4875 105.47188 45.4875 106.59688Q45.4875 107.69063 44.940624 108.28438Q44.409374 108.8625 43.6125 108.8625Q42.846874 108.8625 42.315624 108.28438Q41.8 107.70625 41.8 106.53438ZM43.64375 105.05Q43.2375 105.05 42.971874 105.39375Q42.721874 105.7375 42.721874 106.64375Q42.721874 107.45625 42.9875 107.8Q43.253124 108.14375 43.64375 108.14375Q44.034374 108.14375 44.3 107.8Q44.565624 107.45625 44.565624 106.55Q44.565624 105.72188 44.3 105.39375Q44.034374 105.05 43.64375 105.05Z" fill-rule="nonzero"/><path stroke="#757575" stroke-width="1.0" stroke-linecap="butt" d="M18.55 96.05L127.05 96.05L171.22461 92.916794" fill-rule="nonzero"/><path fill="#9e9e9e" d="M173.22461 92.916794C173.22461 91.812225 172.32918 90.916794 171.22461 90.916794C170.12003 90.916794 169.22461 91.812225 169.22461 92.916794C169.22461 94.02136 170.12003 94.916794 171.22461 94.916794C172.32918 94.916794 173.22461 94.02136 173.22461 92.916794" fill-rule="nonzero"/><path fill="#1a1a1a" d="M19.33125 153.45897L19.33125 147.24022L20.284374 147.24022L20.284374 148.17772Q20.64375 147.52147 20.940624 147.31834Q21.253124 147.0996 21.628124 147.0996Q22.159374 147.0996 22.70625 147.42772L22.346874 148.4121Q21.95625 148.17772 21.58125 148.17772Q21.221874 148.17772 20.940624 148.39647Q20.675 148.5996 20.565624 148.9746Q20.378124 149.5371 20.378124 150.19334L20.378124 153.45897L19.33125 153.45897ZM22.95625 150.3496Q22.95625 148.61522 23.909374 147.7871Q24.70625 147.0996 25.8625 147.0996Q27.14375 147.0996 27.95625 147.94334Q28.784374 148.77147 28.784374 150.25584Q28.784374 151.45897 28.425 152.14647Q28.065624 152.83397 27.3625 153.2246Q26.675 153.5996 25.8625 153.5996Q24.565624 153.5996 23.753124 152.77147Q22.95625 151.92772 22.95625 150.3496ZM24.034374 150.3496Q24.034374 151.5371 24.55 152.13084Q25.08125 152.7246 25.8625 152.7246Q26.659374 152.7246 27.175 152.13084Q27.690624 151.5371 27.690624 150.31834Q27.690624 149.1621 27.159374 148.56834Q26.64375 147.9746 25.8625 147.9746Q25.08125 147.9746 24.55 148.56834Q24.034374 149.14647 24.034374 150.3496ZM29.95625 150.3496Q29.95625 148.61522 30.909374 147.7871Q31.70625 147.0996 32.8625 147.0996Q34.14375 147.0996 34.95625 147.94334Q35.784374 148.77147 35.784374 150.25584Q35.784374 151.45897 35.425 152.14647Q35.065624 152.83397 34.3625 153.2246Q33.675 153.5996 32.8625 153.5996Q31.565624 153.5996 30.753124 152.77147Q29.95625 151.92772 29.95625 150.3496ZM31.034374 150.3496Q31.034374 151.5371 31.55 152.13084Q32.08125 152.7246 32.8625 152.7246Q33.659374 152.7246 34.175 152.13084Q34.690624 151.5371 34.690624 150.31834Q34.690624 149.1621 34.159374 148.56834Q33.64375 147.9746 32.8625 147.9746Q32.08125 147.9746 31.55 148.56834Q31.034374 149.14647 31.034374 150.3496ZM39.64375 152.52147L39.8 153.44334Q39.346874 153.5371 39.003124 153.5371Q38.425 153.5371 38.1125 153.36522Q37.8 153.17772 37.659374 152.88084Q37.534374 152.58397 37.534374 151.63084L37.534374 148.05272L36.76875 148.05272L36.76875 147.24022L37.534374 147.24022L37.534374 145.69334L38.58125 145.06834L38.58125 147.24022L39.64375 147.24022L39.64375 148.05272L38.58125 148.05272L38.58125 151.69334Q38.58125 152.14647 38.628124 152.27147Q38.690624 152.39647 38.815624 152.4746Q38.940624 152.55272 39.175 152.55272Q39.3625 152.55272 39.64375 152.52147Z" fill-rule="nonzero"/><path fill="#9e9e9e" d="M19.20625 168.4746L20.221874 168.38084Q20.346874 169.0996 20.70625 169.42772Q21.08125 169.74022 21.64375 169.74022Q22.128124 169.74022 22.4875 169.52147Q22.8625 169.2871 23.096874 168.92772Q23.33125 168.55272 23.4875 167.92772Q23.64375 167.2871 23.64375 166.63084Q23.64375 166.55272 23.64375 166.4121Q23.33125 166.9121 22.784374 167.24022Q22.2375 167.55272 21.596874 167.55272Q20.51875 167.55272 19.784374 166.7871Q19.05 166.00584 19.05 164.74022Q19.05 163.42772 19.815624 162.63084Q20.596874 161.83397 21.753124 161.83397Q22.58125 161.83397 23.26875 162.2871Q23.971874 162.74022 24.33125 163.58397Q24.690624 164.4121 24.690624 165.99022Q24.690624 167.63084 24.33125 168.61522Q23.9875 169.58397 23.26875 170.0996Q22.565624 170.5996 21.628124 170.5996Q20.6125 170.5996 19.971874 170.05272Q19.33125 169.49022 19.20625 168.4746ZM23.51875 164.67772Q23.51875 163.77147 23.034374 163.24022Q22.565624 162.70897 21.878124 162.70897Q21.175 162.70897 20.64375 163.2871Q20.128124 163.8496 20.128124 164.77147Q20.128124 165.58397 20.628124 166.0996Q21.128124 166.61522 21.846874 166.61522Q22.58125 166.61522 23.05 166.0996Q23.51875 165.58397 23.51875 164.67772ZM26.64375 170.45897L26.64375 169.25584L27.846874 169.25584L27.846874 170.45897L26.64375 170.45897ZM29.05 168.20897L30.159374 168.11522Q30.284374 168.92772 30.721874 169.33397Q31.175 169.74022 31.815624 169.74022Q32.565624 169.74022 33.096874 169.1621Q33.628124 168.58397 33.628124 167.64647Q33.628124 166.74022 33.1125 166.2246Q32.6125 165.69334 31.784374 165.69334Q31.284374 165.69334 30.8625 165.92772Q30.45625 166.1621 30.221874 166.52147L29.2375 166.39647L30.065624 161.99022L34.346874 161.99022L34.346874 162.99022L30.909374 162.99022L30.45625 165.30272Q31.221874 164.75584 32.065624 164.75584Q33.190624 164.75584 33.95625 165.5371Q34.7375 166.31834 34.7375 167.55272Q34.7375 168.70897 34.065624 169.56834Q33.2375 170.5996 31.815624 170.5996Q30.64375 170.5996 29.89375 169.94334Q29.159374 169.2871 29.05 168.20897ZM36.253124 163.92772Q36.253124 163.00584 36.70625 162.36522Q37.175 161.7246 38.05 161.7246Q38.8625 161.7246 39.39375 162.30272Q39.925 162.88084 39.925 163.99022Q39.925 165.08397 39.378124 165.67772Q38.846874 166.25584 38.065624 166.25584Q37.284374 166.25584 36.76875 165.67772Q36.253124 165.0996 36.253124 163.92772ZM38.08125 162.44334Q37.690624 162.44334 37.425 162.7871Q37.175 163.13084 37.175 164.0371Q37.175 164.86522 37.425 165.20897Q37.690624 165.5371 38.08125 165.5371Q38.4875 165.5371 38.7375 165.19334Q39.003124 164.8496 39.003124 163.95897Q39.003124 163.11522 38.7375 162.7871Q38.471874 162.44334 38.08125 162.44334ZM38.08125 170.77147L42.784374 161.7246L43.64375 161.7246L38.95625 170.77147L38.08125 170.77147ZM41.8 168.44334Q41.8 167.52147 42.253124 166.88084Q42.721874 166.24022 43.6125 166.24022Q44.425 166.24022 44.95625 166.81834Q45.4875 167.38084 45.4875 168.50584Q45.4875 169.5996 44.940624 170.19334Q44.409374 170.77147 43.6125 170.77147Q42.846874 170.77147 42.315624 170.19334Q41.8 169.61522 41.8 168.44334ZM43.64375 166.95897Q43.2375 166.95897 42.971874 167.30272Q42.721874 167.64647 42.721874 168.55272Q42.721874 169.36522 42.9875 169.70897Q43.253124 170.05272 43.64375 170.05272Q44.034374 170.05272 44.3 169.70897Q44.565624 169.36522 44.565624 168.45897Q44.565624 167.63084 44.3 167.30272Q44.034374 166.95897 43.64375 166.95897Z" fill-rule="nonzero"/><path stroke="#757575" stroke-width="1.0" stroke-linecap="butt" d="M18.55 157.95897L127.05 157.95897L143.80702 157.95897" fill-rule="nonzero"/><path fill="#9e9e9e" d="M145.80702 157.95897C145.80702 156.8544 144.91159 155.95897 143.80702 155.95897C142.70245 155.95897 141.80702 156.8544 141.80702 157.95897C141.80702 159.06354 142.70245 159.95897 143.80702 159.95897C144.91159 159.95897 145.80702 159.06354 145.80702 157.95897" fill-rule="nonzero"/><path fill="#1a1a1a" d="M23.378124 208.54103L23.378124 207.75978Q22.784374 208.68166 21.64375 208.68166Q20.89375 208.68166 20.26875 208.2754Q19.64375 207.85353 19.3 207.11916Q18.95625 206.38478 18.95625 205.43166Q18.95625 204.50978 19.26875 203.74416Q19.58125 202.97853 20.20625 202.5879Q20.83125 202.18166 21.596874 202.18166Q22.159374 202.18166 22.596874 202.41603Q23.034374 202.6504 23.315624 203.0254L23.315624 199.94728L24.3625 199.94728L24.3625 208.54103L23.378124 208.54103ZM20.05 205.43166Q20.05 206.63478 20.55 207.22853Q21.05 207.80666 21.7375 207.80666Q22.425 207.80666 22.909374 207.24416Q23.39375 206.68166 23.39375 205.5254Q23.39375 204.24416 22.89375 203.6504Q22.409374 203.05666 21.690624 203.05666Q20.9875 203.05666 20.51875 203.63478Q20.05 204.19728 20.05 205.43166ZM30.596874 206.54103L31.690624 206.66603Q31.440624 207.61916 30.7375 208.1504Q30.034374 208.68166 28.95625 208.68166Q27.596874 208.68166 26.784374 207.8379Q25.9875 206.99416 25.9875 205.47853Q25.9875 203.91603 26.8 203.05666Q27.6125 202.18166 28.89375 202.18166Q30.14375 202.18166 30.925 203.0254Q31.721874 203.86916 31.721874 205.41603Q31.721874 205.50978 31.721874 205.69728L27.08125 205.69728Q27.14375 206.72853 27.659374 207.2754Q28.175 207.80666 28.95625 207.80666Q29.534374 207.80666 29.940624 207.50978Q30.3625 207.19728 30.596874 206.54103ZM27.14375 204.8379L30.6125 204.8379Q30.55 204.04103 30.221874 203.6504Q29.70625 203.04103 28.909374 203.04103Q28.175 203.04103 27.675 203.5254Q27.190624 204.00978 27.14375 204.8379ZM35.065624 208.54103L32.70625 202.32228L33.815624 202.32228L35.159374 206.04103Q35.3625 206.6504 35.55 207.29103Q35.690624 206.80666 35.940624 206.11916L37.33125 202.32228L38.409374 202.32228L36.05 208.54103L35.065624 208.54103ZM43.596874 206.54103L44.690624 206.66603Q44.440624 207.61916 43.7375 208.1504Q43.034374 208.68166 41.95625 208.68166Q40.596874 208.68166 39.784374 207.8379Q38.9875 206.99416 38.9875 205.47853Q38.9875 203.91603 39.8 203.05666Q40.6125 202.18166 41.89375 202.18166Q43.14375 202.18166 43.925 203.0254Q44.721874 203.86916 44.721874 205.41603Q44.721874 205.50978 44.721874 205.69728L40.08125 205.69728Q40.14375 206.72853 40.659374 207.2754Q41.175 207.80666 41.95625 207.80666Q42.534374 207.80666 42.940624 207.50978Q43.3625 207.19728 43.596874 206.54103ZM40.14375 204.8379L43.6125 204.8379Q43.55 204.04103 43.221874 203.6504Q42.70625 203.04103 41.909374 203.04103Q41.175 203.04103 40.675 203.5254Q40.190624 204.00978 40.14375 204.8379ZM46.315624 208.54103L46.315624 199.94728L47.378124 199.94728L47.378124 208.54103L46.315624 208.54103ZM48.95625 205.43166Q48.95625 203.69728 49.909374 202.86916Q50.70625 202.18166 51.8625 202.18166Q53.14375 202.18166 53.95625 203.0254Q54.784374 203.85353 54.784374 205.3379Q54.784374 206.54103 54.425 207.22853Q54.065624 207.91603 53.3625 208.30666Q52.675 208.68166 51.8625 208.68166Q50.565624 208.68166 49.753124 207.85353Q48.95625 207.00978 48.95625 205.43166ZM50.034374 205.43166Q50.034374 206.61916 50.55 207.2129Q51.08125 207.80666 51.8625 207.80666Q52.659374 207.80666 53.175 207.2129Q53.690624 206.61916 53.690624 205.4004Q53.690624 204.24416 53.159374 203.6504Q52.64375 203.05666 51.8625 203.05666Q51.08125 203.05666 50.55 203.6504Q50.034374 204.22853 50.034374 205.43166ZM56.346874 210.93166L56.346874 202.32228L57.3 202.32228L57.3 203.11916Q57.64375 202.6504 58.065624 202.41603Q58.503124 202.18166 59.1125 202.18166Q59.909374 202.18166 60.51875 202.5879Q61.128124 202.99416 61.425 203.74416Q61.7375 204.49416 61.7375 205.38478Q61.7375 206.3379 61.39375 207.10353Q61.065624 207.86916 60.409374 208.2754Q59.753124 208.68166 59.034374 208.68166Q58.503124 208.68166 58.08125 208.4629Q57.659374 208.22853 57.39375 207.9004L57.39375 210.93166L56.346874 210.93166ZM57.3 205.4629Q57.3 206.66603 57.784374 207.24416Q58.26875 207.80666 58.95625 207.80666Q59.659374 207.80666 60.159374 207.2129Q60.659374 206.61916 60.659374 205.36916Q60.659374 204.18166 60.175 203.60353Q59.690624 203.00978 59.003124 203.00978Q58.33125 203.00978 57.815624 203.63478Q57.3 204.25978 57.3 205.4629Z" fill-rule="nonzero"/><path fill="#9e9e9e" d="M23.01875 225.54103L21.971874 225.54103L21.971874 218.82228Q21.58125 219.18166 20.95625 219.55666Q20.346874 219.91603 19.8625 220.0879L19.8625 219.07228Q20.7375 218.6504 21.39375 218.07228Q22.065624 217.47853 22.346874 216.91603L23.01875 216.91603L23.01875 225.54103ZM26.64375 225.54103L26.64375 224.3379L27.846874 224.3379L27.846874 225.54103L26.64375 225.54103ZM34.51875 219.05666L33.471874 219.13478Q33.33125 218.50978 33.08125 218.22853Q32.64375 217.7754 32.01875 217.7754Q31.51875 217.7754 31.128124 218.05666Q30.64375 218.43166 30.346874 219.13478Q30.065624 219.82228 30.05 221.10353Q30.425 220.5254 30.971874 220.24416Q31.534374 219.9629 32.14375 219.9629Q33.190624 219.9629 33.925 220.74416Q34.675 221.5254 34.675 222.74416Q34.675 223.55666 34.315624 224.25978Q33.971874 224.94728 33.3625 225.32228Q32.753124 225.68166 31.9875 225.68166Q30.659374 225.68166 29.83125 224.7129Q29.003124 223.74416 29.003124 221.5254Q29.003124 219.0254 29.925 217.9004Q30.721874 216.91603 32.08125 216.91603Q33.096874 216.91603 33.7375 217.49416Q34.39375 218.05666 34.51875 219.05666ZM30.221874 222.75978Q30.221874 223.30666 30.440624 223.80666Q30.675 224.29103 31.08125 224.55666Q31.503124 224.82228 31.971874 224.82228Q32.628124 224.82228 33.1125 224.29103Q33.596874 223.74416 33.596874 222.82228Q33.596874 221.93166 33.1125 221.41603Q32.64375 220.9004 31.925 220.9004Q31.20625 220.9004 30.70625 221.41603Q30.221874 221.93166 30.221874 222.75978ZM36.253124 219.00978Q36.253124 218.0879 36.70625 217.44728Q37.175 216.80666 38.05 216.80666Q38.8625 216.80666 39.39375 217.38478Q39.925 217.9629 39.925 219.07228Q39.925 220.16603 39.378124 220.75978Q38.846874 221.3379 38.065624 221.3379Q37.284374 221.3379 36.76875 220.75978Q36.253124 220.18166 36.253124 219.00978ZM38.08125 217.5254Q37.690624 217.5254 37.425 217.86916Q37.175 218.2129 37.175 219.11916Q37.175 219.94728 37.425 220.29103Q37.690624 220.61916 38.08125 220.61916Q38.4875 220.61916 38.7375 220.2754Q39.003124 219.93166 39.003124 219.04103Q39.003124 218.19728 38.7375 217.86916Q38.471874 217.5254 38.08125 217.5254ZM38.08125 225.85353L42.784374 216.80666L43.64375 216.80666L38.95625 225.85353L38.08125 225.85353ZM41.8 223.5254Q41.8 222.60353 42.253124 221.9629Q42.721874 221.32228 43.6125 221.32228Q44.425 221.32228 44.95625 221.9004Q45.4875 222.4629 45.4875 223.5879Q45.4875 224.68166 44.940624 225.2754Q44.409374 225.85353 43.6125 225.85353Q42.846874 225.85353 42.315624 225.2754Q41.8 224.69728 41.8 223.5254ZM43.64375 222.04103Q43.2375 222.04103 42.971874 222.38478Q42.721874 222.72853 42.721874 223.63478Q42.721874 224.44728 42.9875 224.79103Q43.253124 225.13478 43.64375 225.13478Q44.034374 225.13478 44.3 224.79103Q44.565624 224.44728 44.565624 223.54103Q44.565624 222.7129 44.3 222.38478Q44.034374 222.04103 43.64375 222.04103Z" fill-rule="nonzero"/><path stroke="#757575" stroke-width="1.0" stroke-linecap="butt" d="M18.55 213.04103L127.05 213.04103L143.80702 213.04103" fill-rule="nonzero"/><path fill="#9e9e9e" d="M145.80702 213.04103C145.80702 211.93646 144.91159 211.04103 143.80702 211.04103C142.70245 211.04103 141.80702 211.93646 141.80702 213.04103C141.80702 214.1456 142.70245 215.04103 143.80702 215.04103C144.91159 215.04103 145.80702 214.1456 145.80702 213.04103" fill-rule="nonzero"/><path fill="#1a1a1a" d="M557.54376 37.166584L557.7 38.08846Q557.2469 38.18221 556.90314 38.18221Q556.325 38.18221 556.0125 38.010334Q555.7 37.822834 555.5594 37.52596Q555.4344 37.229084 555.4344 36.27596L555.4344 32.697834L554.66876 32.697834L554.66876 31.885334L555.4344 31.885334L555.4344 30.338459L556.48126 29.713459L556.48126 31.885334L557.54376 31.885334L557.54376 32.697834L556.48126 32.697834L556.48126 36.33846Q556.48126 36.791584 556.52814 36.916584Q556.59064 37.041584 556.71564 37.11971Q556.84064 37.197834 557.075 37.197834Q557.2625 37.197834 557.54376 37.166584ZM558.23126 38.104084L558.23126 31.885334L559.1844 31.885334L559.1844 32.822834Q559.54376 32.166584 559.84064 31.963459Q560.15314 31.744709 560.52814 31.744709Q561.0594 31.744709 561.60626 32.072834L561.2469 33.05721Q560.85626 32.822834 560.48126 32.822834Q560.1219 32.822834 559.84064 33.041584Q559.575 33.24471 559.46564 33.61971Q559.27814 34.18221 559.27814 34.83846L559.27814 38.104084L558.23126 38.104084ZM566.325 38.104084L566.325 37.18221Q565.59064 38.24471 564.34064 38.24471Q563.79376 38.24471 563.3094 38.041584Q562.84064 37.822834 562.60626 37.510334Q562.3719 37.18221 562.27814 36.71346Q562.21564 36.416584 562.21564 35.729084L562.21564 31.885334L563.27814 31.885334L563.27814 35.33846Q563.27814 36.15096 563.34064 36.447834Q563.4344 36.854084 563.7469 37.104084Q564.075 37.33846 564.5594 37.33846Q565.02814 37.33846 565.4344 37.104084Q565.85626 36.854084 566.02814 36.43221Q566.21564 36.010334 566.21564 35.21346L566.21564 31.885334L567.2625 31.885334L567.2625 38.104084L566.325 38.104084ZM569.2469 38.104084L569.2469 31.885334L570.1844 31.885334L570.1844 32.760334Q570.8719 31.744709 572.16876 31.744709Q572.73126 31.744709 573.2 31.947834Q573.6844 32.15096 573.91876 32.479084Q574.15314 32.80721 574.2469 33.24471Q574.29376 33.541584 574.29376 34.27596L574.29376 38.104084L573.2469 38.104084L573.2469 34.322834Q573.2469 33.666584 573.1219 33.354084Q572.9969 33.041584 572.6844 32.854084Q572.3719 32.65096 571.95 32.65096Q571.27814 32.65096 570.77814 33.08846Q570.29376 33.510334 570.29376 34.697834L570.29376 38.104084L569.2469 38.104084ZM576.2469 38.104084L576.2469 29.510334L577.3094 29.510334L577.3094 34.416584L579.79376 31.885334L581.16876 31.885334L578.77814 34.18221L581.40314 38.104084L580.10626 38.104084L578.04376 34.916584L577.3094 35.635334L577.3094 38.104084L576.2469 38.104084Z" fill-rule="nonzero"/><path fill="#9e9e9e" d="M550.91876 55.104084L549.8719 55.104084L549.8719 48.385334Q549.48126 48.74471 548.85626 49.11971Q548.2469 49.479084 547.7625 49.65096L547.7625 48.635334Q548.6375 48.21346 549.29376 47.635334Q549.96564 47.041584 550.2469 46.479084L550.91876 46.479084L550.91876 55.104084ZM557.325 55.104084L557.325 53.041584L553.60626 53.041584L553.60626 52.072834L557.52814 46.510334L558.3875 46.510334L558.3875 52.072834L559.54376 52.072834L559.54376 53.041584L558.3875 53.041584L558.3875 55.104084L557.325 55.104084ZM557.325 52.072834L557.325 48.21346L554.6375 52.072834L557.325 52.072834ZM561.54376 55.104084L561.54376 53.90096L562.7469 53.90096L562.7469 55.104084L561.54376 55.104084ZM563.95 52.83846L565.0125 52.697834Q565.1844 53.58846 565.6219 53.99471Q566.0594 54.385334 566.6844 54.385334Q567.4344 54.385334 567.95 53.86971Q568.46564 53.354084 568.46564 52.58846Q568.46564 51.86971 567.98126 51.40096Q567.5125 50.916584 566.77814 50.916584Q566.48126 50.916584 566.02814 51.041584L566.15314 50.104084Q566.2625 50.11971 566.325 50.11971Q566.9969 50.11971 567.52814 49.77596Q568.075 49.416584 568.075 48.68221Q568.075 48.104084 567.6844 47.729084Q567.29376 47.33846 566.66876 47.33846Q566.0594 47.33846 565.6375 47.729084Q565.23126 48.11971 565.1219 48.885334L564.0594 48.697834Q564.2469 47.65096 564.9344 47.072834Q565.6219 46.479084 566.6375 46.479084Q567.34064 46.479084 567.9344 46.791584Q568.52814 47.08846 568.84064 47.604084Q569.15314 48.11971 569.15314 48.71346Q569.15314 49.260334 568.85626 49.729084Q568.5594 50.18221 567.98126 50.447834Q568.73126 50.61971 569.15314 51.18221Q569.575 51.729084 569.575 52.572834Q569.575 53.697834 568.7469 54.479084Q567.9344 55.260334 566.6844 55.260334Q565.5594 55.260334 564.8094 54.58846Q564.0594 53.90096 563.95 52.83846ZM571.15314 48.572834Q571.15314 47.65096 571.60626 47.010334Q572.075 46.36971 572.95 46.36971Q573.7625 46.36971 574.29376 46.947834Q574.825 47.52596 574.825 48.635334Q574.825 49.729084 574.27814 50.322834Q573.7469 50.90096 572.96564 50.90096Q572.1844 50.90096 571.66876 50.322834Q571.15314 49.74471 571.15314 48.572834ZM572.98126 47.08846Q572.59064 47.08846 572.325 47.43221Q572.075 47.77596 572.075 48.68221Q572.075 49.510334 572.325 49.854084Q572.59064 50.18221 572.98126 50.18221Q573.3875 50.18221 573.6375 49.83846Q573.90314 49.49471 573.90314 48.604084Q573.90314 47.760334 573.6375 47.43221Q573.3719 47.08846 572.98126 47.08846ZM572.98126 55.416584L577.6844 46.36971L578.54376 46.36971L573.85626 55.416584L572.98126 55.416584ZM576.7 53.08846Q576.7 52.166584 577.15314 51.52596Q577.6219 50.885334 578.5125 50.885334Q579.325 50.885334 579.85626 51.46346Q580.3875 52.02596 580.3875 53.15096Q580.3875 54.24471 579.84064 54.83846Q579.3094 55.416584 578.5125 55.416584Q577.7469 55.416584 577.21564 54.83846Q576.7 54.260334 576.7 53.08846ZM578.54376 51.604084Q578.1375 51.604084 577.8719 51.947834Q577.6219 52.291584 577.6219 53.197834Q577.6219 54.010334 577.8875 54.354084Q578.15314 54.697834 578.54376 54.697834Q578.9344 54.697834 579.2 54.354084Q579.46564 54.010334 579.46564 53.104084Q579.46564 52.27596 579.2 51.947834Q578.9344 51.604084 578.54376 51.604084Z" fill-rule="nonzero"/><path stroke="#757575" stroke-width="1.0" stroke-linecap="butt" d="M581.45 42.604084L472.95 42.604084L368.81503 42.604084" fill-rule="nonzero"/><path fill="#9e9e9e" d="M370.81503 42.604084C370.81503 41.499516 369.91962 40.604084 368.81503 40.604084C367.71048 40.604084 366.81503 41.499516 366.81503 42.604084C366.81503 43.708656 367.71048 44.604084 368.81503 44.604084C369.91962 44.604084 370.81503 43.708656 370.81503 42.604084" fill-rule="nonzero"/><path fill="#1a1a1a" d="M549.27814 108.64385L549.27814 107.8626Q548.6844 108.78448 547.54376 108.78448Q546.79376 108.78448 546.16876 108.37823Q545.54376 107.95635 545.2 107.22198Q544.85626 106.4876 544.85626 105.53448Q544.85626 104.6126 545.16876 103.84698Q545.48126 103.08135 546.10626 102.69073Q546.73126 102.28448 547.4969 102.28448Q548.0594 102.28448 548.4969 102.51885Q548.9344 102.75323 549.21564 103.12823L549.21564 100.0501L550.2625 100.0501L550.2625 108.64385L549.27814 108.64385ZM545.95 105.53448Q545.95 106.7376 546.45 107.33135Q546.95 107.90948 547.6375 107.90948Q548.325 107.90948 548.8094 107.34698Q549.29376 106.78448 549.29376 105.62823Q549.29376 104.34698 548.79376 103.75323Q548.3094 103.15948 547.59064 103.15948Q546.8875 103.15948 546.41876 103.7376Q545.95 104.3001 545.95 105.53448ZM556.4969 106.64385L557.59064 106.76885Q557.34064 107.72198 556.6375 108.25323Q555.9344 108.78448 554.85626 108.78448Q553.4969 108.78448 552.6844 107.94073Q551.8875 107.09698 551.8875 105.58135Q551.8875 104.01885 552.7 103.15948Q553.5125 102.28448 554.79376 102.28448Q556.04376 102.28448 556.825 103.12823Q557.6219 103.97198 557.6219 105.51885Q557.6219 105.6126 557.6219 105.8001L552.98126 105.8001Q553.04376 106.83135 553.5594 107.37823Q554.075 107.90948 554.85626 107.90948Q555.4344 107.90948 555.84064 107.6126Q556.2625 107.3001 556.4969 106.64385ZM553.04376 104.94073L556.5125 104.94073Q556.45 104.14385 556.1219 103.75323Q555.60626 103.14385 554.8094 103.14385Q554.075 103.14385 553.575 103.62823Q553.09064 104.1126 553.04376 104.94073ZM559.4969 108.64385L559.4969 103.2376L558.5594 103.2376L558.5594 102.4251L559.4969 102.4251L559.4969 101.75323Q559.4969 101.12823 559.60626 100.83135Q559.7625 100.40948 560.1375 100.15948Q560.52814 99.90948 561.21564 99.90948Q561.66876 99.90948 562.2 100.01885L562.04376 100.9251Q561.71564 100.87823 561.41876 100.87823Q560.9344 100.87823 560.73126 101.08135Q560.54376 101.28448 560.54376 101.84698L560.54376 102.4251L561.7625 102.4251L561.7625 103.2376L560.54376 103.2376L560.54376 108.64385L559.4969 108.64385ZM566.3094 107.87823Q565.71564 108.37823 565.16876 108.58135Q564.6375 108.78448 564.0125 108.78448Q562.98126 108.78448 562.4344 108.28448Q561.8875 107.78448 561.8875 107.00323Q561.8875 106.5501 562.09064 106.1751Q562.29376 105.78448 562.6375 105.56573Q562.98126 105.33135 563.40314 105.22198Q563.7 105.12823 564.34064 105.0501Q565.60626 104.90948 566.21564 104.69073Q566.21564 104.47198 566.21564 104.4251Q566.21564 103.76885 565.91876 103.50323Q565.5125 103.15948 564.71564 103.15948Q563.98126 103.15948 563.6219 103.4251Q563.2625 103.6751 563.09064 104.33135L562.0594 104.19073Q562.2 103.53448 562.52814 103.12823Q562.85626 102.72198 563.46564 102.50323Q564.075 102.28448 564.8719 102.28448Q565.66876 102.28448 566.16876 102.47198Q566.66876 102.65948 566.90314 102.94073Q567.1375 103.22198 567.23126 103.65948Q567.27814 103.9251 567.27814 104.62823L567.27814 106.03448Q567.27814 107.50323 567.34064 107.89385Q567.41876 108.28448 567.6219 108.64385L566.5125 108.64385Q566.35626 108.31573 566.3094 107.87823ZM566.21564 105.51885Q565.6375 105.75323 564.4969 105.9251Q563.84064 106.01885 563.575 106.14385Q563.3094 106.25323 563.15314 106.47198Q563.0125 106.69073 563.0125 106.97198Q563.0125 107.39385 563.325 107.6751Q563.65314 107.95635 564.2625 107.95635Q564.8719 107.95635 565.34064 107.69073Q565.825 107.4251 566.04376 106.95635Q566.21564 106.59698 566.21564 105.90948L566.21564 105.51885ZM573.325 108.64385L573.325 107.72198Q572.59064 108.78448 571.34064 108.78448Q570.79376 108.78448 570.3094 108.58135Q569.84064 108.3626 569.60626 108.0501Q569.3719 107.72198 569.27814 107.25323Q569.21564 106.95635 569.21564 106.26885L569.21564 102.4251L570.27814 102.4251L570.27814 105.87823Q570.27814 106.69073 570.34064 106.9876Q570.4344 107.39385 570.7469 107.64385Q571.075 107.87823 571.5594 107.87823Q572.02814 107.87823 572.4344 107.64385Q572.85626 107.39385 573.02814 106.97198Q573.21564 106.5501 573.21564 105.75323L573.21564 102.4251L574.2625 102.4251L574.2625 108.64385L573.325 108.64385ZM576.21564 108.64385L576.21564 100.0501L577.27814 100.0501L577.27814 108.64385L576.21564 108.64385ZM581.54376 107.70635L581.7 108.62823Q581.2469 108.72198 580.90314 108.72198Q580.325 108.72198 580.0125 108.5501Q579.7 108.3626 579.5594 108.06573Q579.4344 107.76885 579.4344 106.81573L579.4344 103.2376L578.66876 103.2376L578.66876 102.4251L579.4344 102.4251L579.4344 100.87823L580.48126 100.25323L580.48126 102.4251L581.54376 102.4251L581.54376 103.2376L580.48126 103.2376L580.48126 106.87823Q580.48126 107.33135 580.52814 107.45635Q580.59064 107.58135 580.71564 107.65948Q580.84064 107.7376 581.075 107.7376Q581.2625 107.7376 581.54376 107.70635Z" fill-rule="nonzero"/><path fill="#9e9e9e" d="M559.41876 119.15948L558.3719 119.2376Q558.23126 118.6126 557.98126 118.33135Q557.54376 117.87823 556.91876 117.87823Q556.41876 117.87823 556.02814 118.15948Q555.54376 118.53448 555.2469 119.2376Q554.96564 119.9251 554.95 121.20635Q555.325 120.62823 555.8719 120.34698Q556.4344 120.06573 557.04376 120.06573Q558.09064 120.06573 558.825 120.84698Q559.575 121.62823 559.575 122.84698Q559.575 123.65948 559.21564 124.3626Q558.8719 125.0501 558.2625 125.4251Q557.65314 125.78448 556.8875 125.78448Q555.5594 125.78448 554.73126 124.81573Q553.90314 123.84698 553.90314 121.62823Q553.90314 119.12823 554.825 118.00323Q555.6219 117.01885 556.98126 117.01885Q557.9969 117.01885 558.6375 117.59698Q559.29376 118.15948 559.41876 119.15948ZM555.1219 122.8626Q555.1219 123.40948 555.34064 123.90948Q555.575 124.39385 555.98126 124.65948Q556.40314 124.9251 556.8719 124.9251Q557.52814 124.9251 558.0125 124.39385Q558.4969 123.84698 558.4969 122.9251Q558.4969 122.03448 558.0125 121.51885Q557.54376 121.00323 556.825 121.00323Q556.10626 121.00323 555.60626 121.51885Q555.1219 122.03448 555.1219 122.8626ZM561.54376 125.64385L561.54376 124.44073L562.7469 124.44073L562.7469 125.64385L561.54376 125.64385ZM563.95 123.37823L565.0125 123.2376Q565.1844 124.12823 565.6219 124.53448Q566.0594 124.9251 566.6844 124.9251Q567.4344 124.9251 567.95 124.40948Q568.46564 123.89385 568.46564 123.12823Q568.46564 122.40948 567.98126 121.94073Q567.5125 121.45635 566.77814 121.45635Q566.48126 121.45635 566.02814 121.58135L566.15314 120.64385Q566.2625 120.65948 566.325 120.65948Q566.9969 120.65948 567.52814 120.31573Q568.075 119.95635 568.075 119.22198Q568.075 118.64385 567.6844 118.26885Q567.29376 117.87823 566.66876 117.87823Q566.0594 117.87823 565.6375 118.26885Q565.23126 118.65948 565.1219 119.4251L564.0594 119.2376Q564.2469 118.19073 564.9344 117.6126Q565.6219 117.01885 566.6375 117.01885Q567.34064 117.01885 567.9344 117.33135Q568.52814 117.62823 568.84064 118.14385Q569.15314 118.65948 569.15314 119.25323Q569.15314 119.8001 568.85626 120.26885Q568.5594 120.72198 567.98126 120.9876Q568.73126 121.15948 569.15314 121.72198Q569.575 122.26885 569.575 123.1126Q569.575 124.2376 568.7469 125.01885Q567.9344 125.8001 566.6844 125.8001Q565.5594 125.8001 564.8094 125.12823Q564.0594 124.44073 563.95 123.37823ZM571.15314 119.1126Q571.15314 118.19073 571.60626 117.5501Q572.075 116.90948 572.95 116.90948Q573.7625 116.90948 574.29376 117.4876Q574.825 118.06573 574.825 119.1751Q574.825 120.26885 574.27814 120.8626Q573.7469 121.44073 572.96564 121.44073Q572.1844 121.44073 571.66876 120.8626Q571.15314 120.28448 571.15314 119.1126ZM572.98126 117.62823Q572.59064 117.62823 572.325 117.97198Q572.075 118.31573 572.075 119.22198Q572.075 120.0501 572.325 120.39385Q572.59064 120.72198 572.98126 120.72198Q573.3875 120.72198 573.6375 120.37823Q573.90314 120.03448 573.90314 119.14385Q573.90314 118.3001 573.6375 117.97198Q573.3719 117.62823 572.98126 117.62823ZM572.98126 125.95635L577.6844 116.90948L578.54376 116.90948L573.85626 125.95635L572.98126 125.95635ZM576.7 123.62823Q576.7 122.70635 577.15314 122.06573Q577.6219 121.4251 578.5125 121.4251Q579.325 121.4251 579.85626 122.00323Q580.3875 122.56573 580.3875 123.69073Q580.3875 124.78448 579.84064 125.37823Q579.3094 125.95635 578.5125 125.95635Q577.7469 125.95635 577.21564 125.37823Q576.7 124.8001 576.7 123.62823ZM578.54376 122.14385Q578.1375 122.14385 577.8719 122.4876Q577.6219 122.83135 577.6219 123.7376Q577.6219 124.5501 577.8875 124.89385Q578.15314 125.2376 578.54376 125.2376Q578.9344 125.2376 579.2 124.89385Q579.46564 124.5501 579.46564 123.64385Q579.46564 122.81573 579.2 122.4876Q578.9344 122.14385 578.54376 122.14385Z" fill-rule="nonzero"/><path stroke="#757575" stroke-width="1.0" stroke-linecap="butt" d="M581.45 113.14385L472.95 113.14385L441.1359 113.14385" fill-rule="nonzero"/><path fill="#9e9e9e" d="M443.1359 113.14385C443.1359 112.039276 442.24045 111.14385 441.1359 111.14385C440.0313 111.14385 439.1359 112.039276 439.1359 113.14385C439.1359 114.24842 440.0313 115.14385 441.1359 115.14385C442.24045 115.14385 443.1359 114.24842 443.1359 113.14385" fill-rule="nonzero"/><path fill="#1a1a1a" d="M555.2469 330.0376L555.2469 323.81885L556.1844 323.81885L556.1844 324.69385Q556.48126 324.2251 556.96564 323.95947Q557.45 323.67822 558.075 323.67822Q558.7625 323.67822 559.2 323.95947Q559.65314 324.24072 559.825 324.75635Q560.575 323.67822 561.7469 323.67822Q562.6844 323.67822 563.16876 324.19385Q563.66876 324.69385 563.66876 325.77197L563.66876 330.0376L562.6219 330.0376L562.6219 326.11572Q562.6219 325.49072 562.5125 325.20947Q562.41876 324.92822 562.15314 324.75635Q561.8875 324.58447 561.5125 324.58447Q560.85626 324.58447 560.41876 325.02197Q559.9969 325.45947 559.9969 326.42822L559.9969 330.0376L558.9344 330.0376L558.9344 325.99072Q558.9344 325.2876 558.66876 324.94385Q558.41876 324.58447 557.84064 324.58447Q557.3875 324.58447 557.0125 324.81885Q556.6375 325.05322 556.46564 325.50635Q556.29376 325.95947 556.29376 326.80322L556.29376 330.0376L555.2469 330.0376ZM569.3094 329.27197Q568.71564 329.77197 568.16876 329.9751Q567.6375 330.17822 567.0125 330.17822Q565.98126 330.17822 565.4344 329.67822Q564.8875 329.17822 564.8875 328.39697Q564.8875 327.94385 565.09064 327.56885Q565.29376 327.17822 565.6375 326.95947Q565.98126 326.7251 566.40314 326.61572Q566.7 326.52197 567.34064 326.44385Q568.60626 326.30322 569.21564 326.08447Q569.21564 325.86572 569.21564 325.81885Q569.21564 325.1626 568.91876 324.89697Q568.5125 324.55322 567.71564 324.55322Q566.98126 324.55322 566.6219 324.81885Q566.2625 325.06885 566.09064 325.7251L565.0594 325.58447Q565.2 324.92822 565.52814 324.52197Q565.85626 324.11572 566.46564 323.89697Q567.075 323.67822 567.8719 323.67822Q568.66876 323.67822 569.16876 323.86572Q569.66876 324.05322 569.90314 324.33447Q570.1375 324.61572 570.23126 325.05322Q570.27814 325.31885 570.27814 326.02197L570.27814 327.42822Q570.27814 328.89697 570.34064 329.2876Q570.41876 329.67822 570.6219 330.0376L569.5125 330.0376Q569.35626 329.70947 569.3094 329.27197ZM569.21564 326.9126Q568.6375 327.14697 567.4969 327.31885Q566.84064 327.4126 566.575 327.5376Q566.3094 327.64697 566.15314 327.86572Q566.0125 328.08447 566.0125 328.36572Q566.0125 328.7876 566.325 329.06885Q566.65314 329.3501 567.2625 329.3501Q567.8719 329.3501 568.34064 329.08447Q568.825 328.81885 569.04376 328.3501Q569.21564 327.99072 569.21564 327.30322L569.21564 326.9126ZM572.2469 322.6626L572.2469 321.44385L573.3094 321.44385L573.3094 322.6626L572.2469 322.6626ZM572.2469 330.0376L572.2469 323.81885L573.3094 323.81885L573.3094 330.0376L572.2469 330.0376ZM575.2469 330.0376L575.2469 323.81885L576.1844 323.81885L576.1844 324.69385Q576.8719 323.67822 578.16876 323.67822Q578.73126 323.67822 579.2 323.88135Q579.6844 324.08447 579.91876 324.4126Q580.15314 324.74072 580.2469 325.17822Q580.29376 325.4751 580.29376 326.20947L580.29376 330.0376L579.2469 330.0376L579.2469 326.25635Q579.2469 325.6001 579.1219 325.2876Q578.9969 324.9751 578.6844 324.7876Q578.3719 324.58447 577.95 324.58447Q577.27814 324.58447 576.77814 325.02197Q576.29376 325.44385 576.29376 326.63135L576.29376 330.0376L575.2469 330.0376Z" fill-rule="nonzero"/><path fill="#9e9e9e" d="M550.325 347.0376L550.325 344.9751L546.60626 344.9751L546.60626 344.00635L550.52814 338.44385L551.3875 338.44385L551.3875 344.00635L552.54376 344.00635L552.54376 344.9751L551.3875 344.9751L551.3875 347.0376L550.325 347.0376ZM550.325 344.00635L550.325 340.14697L547.6375 344.00635L550.325 344.00635ZM554.0125 339.56885L554.0125 338.55322L559.575 338.55322L559.575 339.38135Q558.7625 340.25635 557.95 341.70947Q557.15314 343.14697 556.71564 344.67822Q556.3875 345.75635 556.3094 347.0376L555.21564 347.0376Q555.23126 346.02197 555.60626 344.58447Q555.9969 343.14697 556.7 341.81885Q557.41876 340.49072 558.23126 339.56885L554.0125 339.56885ZM561.54376 347.0376L561.54376 345.83447L562.7469 345.83447L562.7469 347.0376L561.54376 347.0376ZM569.41876 340.55322L568.3719 340.63135Q568.23126 340.00635 567.98126 339.7251Q567.54376 339.27197 566.91876 339.27197Q566.41876 339.27197 566.02814 339.55322Q565.54376 339.92822 565.2469 340.63135Q564.96564 341.31885 564.95 342.6001Q565.325 342.02197 565.8719 341.74072Q566.4344 341.45947 567.04376 341.45947Q568.09064 341.45947 568.825 342.24072Q569.575 343.02197 569.575 344.24072Q569.575 345.05322 569.21564 345.75635Q568.8719 346.44385 568.2625 346.81885Q567.65314 347.17822 566.8875 347.17822Q565.5594 347.17822 564.73126 346.20947Q563.90314 345.24072 563.90314 343.02197Q563.90314 340.52197 564.825 339.39697Q565.6219 338.4126 566.98126 338.4126Q567.9969 338.4126 568.6375 338.99072Q569.29376 339.55322 569.41876 340.55322ZM565.1219 344.25635Q565.1219 344.80322 565.34064 345.30322Q565.575 345.7876 565.98126 346.05322Q566.40314 346.31885 566.8719 346.31885Q567.52814 346.31885 568.0125 345.7876Q568.4969 345.24072 568.4969 344.31885Q568.4969 343.42822 568.0125 342.9126Q567.54376 342.39697 566.825 342.39697Q566.10626 342.39697 565.60626 342.9126Q565.1219 343.42822 565.1219 344.25635ZM571.15314 340.50635Q571.15314 339.58447 571.60626 338.94385Q572.075 338.30322 572.95 338.30322Q573.7625 338.30322 574.29376 338.88135Q574.825 339.45947 574.825 340.56885Q574.825 341.6626 574.27814 342.25635Q573.7469 342.83447 572.96564 342.83447Q572.1844 342.83447 571.66876 342.25635Q571.15314 341.67822 571.15314 340.50635ZM572.98126 339.02197Q572.59064 339.02197 572.325 339.36572Q572.075 339.70947 572.075 340.61572Q572.075 341.44385 572.325 341.7876Q572.59064 342.11572 572.98126 342.11572Q573.3875 342.11572 573.6375 341.77197Q573.90314 341.42822 573.90314 340.5376Q573.90314 339.69385 573.6375 339.36572Q573.3719 339.02197 572.98126 339.02197ZM572.98126 347.3501L577.6844 338.30322L578.54376 338.30322L573.85626 347.3501L572.98126 347.3501ZM576.7 345.02197Q576.7 344.1001 577.15314 343.45947Q577.6219 342.81885 578.5125 342.81885Q579.325 342.81885 579.85626 343.39697Q580.3875 343.95947 580.3875 345.08447Q580.3875 346.17822 579.84064 346.77197Q579.3094 347.3501 578.5125 347.3501Q577.7469 347.3501 577.21564 346.77197Q576.7 346.19385 576.7 345.02197ZM578.54376 343.5376Q578.1375 343.5376 577.8719 343.88135Q577.6219 344.2251 577.6219 345.13135Q577.6219 345.94385 577.8875 346.2876Q578.15314 346.63135 578.54376 346.63135Q578.9344 346.63135 579.2 346.2876Q579.46564 345.94385 579.46564 345.0376Q579.46564 344.20947 579.2 343.88135Q578.9344 343.5376 578.54376 343.5376Z" fill-rule="nonzero"/><path stroke="#757575" stroke-width="1.0" stroke-linecap="butt" d="M581.45 334.5376L472.95 334.5376L354.24524 334.5376" fill-rule="nonzero"/><path fill="#9e9e9e" d="M356.24524 334.5376C356.24524 333.43304 355.34982 332.5376 354.24524 332.5376C353.1407 332.5376 352.24524 333.43304 352.24524 334.5376C352.24524 335.64218 353.1407 336.5376 354.24524 336.5376C355.34982 336.5376 356.24524 335.64218 356.24524 334.5376" fill-rule="nonzero"/></svg>